<svg width="512" height="268" viewBox="0 0 512 268" fill="none" xmlns="http://www.w3.org/2000/svg">
<g clip-path="url(#clip0)">
<path d="M512 0H0V267.761H512V0Z" fill="url(#paint0_radial)"/>
<path d="M358.752 247.187C357.805 246.241 357.805 244.466 358.042 243.874C358.279 243.283 358.516 239.376 358.279 238.549C358.042 237.719 358.635 234.642 358.635 233.814C358.635 232.986 357.923 221.979 357.923 221.979C357.923 221.979 357.45 211.445 357.57 210.972C357.687 210.5 357.923 205.765 357.923 205.765L357.805 201.625L358.16 201.03L358.752 201.15C358.752 201.15 360.291 197.008 360.528 195.47C360.764 193.931 360.172 185.056 359.936 182.451C359.699 179.848 358.87 173.101 358.279 172.273C357.687 171.444 354.135 170.498 352.835 170.023C351.533 169.552 351.059 168.841 351.059 168.841L350.941 168.249L349.876 167.894C350.232 167.421 350.468 165.764 350.586 165.172C351.178 164.818 351.296 164.106 351.059 163.279C351.059 163.279 351.203 163.031 351.468 162.325C351.733 161.618 351.38 160.47 351.821 160.912C351.821 160.912 351.821 160.47 351.733 159.941C351.644 158.969 351.644 158.087 350.761 157.027C349.878 155.967 347.496 155.261 347.496 155.173C347.848 155.173 348.025 154.908 348.025 154.908C348.025 154.908 348.025 154.908 346.966 154.732C345.906 154.467 344.846 154.996 344.052 155.348C341.844 155.437 341.228 158.35 340.521 158.793C340.785 158.793 341.228 158.35 341.228 158.35C340.344 159.145 340.785 160.47 340.785 160.47L341.05 159.675C340.785 160.47 341.315 162.236 341.315 163.207C341.315 164.177 341.228 164.796 341.228 164.796C341.492 164.796 341.669 164.443 341.669 164.443C341.669 164.884 342.198 165.502 342.64 165.943C342.728 166.65 343.13 168.249 343.13 168.249C343.13 168.249 341.356 168.959 341.71 169.314C342.065 169.669 342.774 170.023 342.539 170.379C342.303 170.734 339.107 173.337 338.277 173.811C337.45 174.284 334.965 175.468 335.083 177.834C335.201 180.202 334.018 193.931 333.899 195.47C333.78 197.008 333.662 202.807 333.662 203.516C333.662 204.227 333.189 203.754 333.662 204.227C334.136 204.699 334.136 204.699 334.136 204.699C334.136 204.699 334.018 205.528 334.49 205.41C334.49 205.41 334.61 206.83 334.727 208.251C334.846 209.671 335.201 210.855 335.556 211.327C335.912 211.801 336.267 212.394 336.622 212.394C337.095 213.103 337.687 213.576 337.687 213.576C337.687 213.576 338.989 217.008 339.225 217.956C339.461 218.902 340.172 223.635 340.409 224.346C340.644 225.055 339.935 231.92 340.053 232.749C340.172 233.577 340.527 235.827 340.527 235.827C340.527 235.827 341.356 237.838 341.356 238.785C341.356 239.733 340.527 243.283 340.409 244.229C340.29 245.174 339.935 246.241 339.935 246.241C339.935 246.241 337.922 247.896 338.042 248.726C338.16 249.555 339.698 249.909 341.356 249.791C343.012 249.673 344.077 248.845 344.669 248.489C345.261 248.134 347.274 247.896 347.509 247.187C347.746 246.479 347.982 244.702 347.982 244.702C347.982 244.702 348.574 243.4 348.101 242.571C347.629 241.744 347.036 237.719 347.036 237.01C347.036 236.299 347.391 233.696 347.273 232.631C347.154 231.565 347.154 228.725 346.917 227.896C346.68 227.067 347.391 216.773 347.391 215.826C347.391 214.879 347.746 208.487 348.338 210.027C348.93 211.565 350.35 218.309 350.468 219.493C350.586 220.677 351.059 223.045 351.178 223.635C351.296 224.226 351.415 225.293 351.296 226.003C351.178 226.713 351.178 234.407 351.178 235.59C351.178 236.772 352.243 238.785 352.362 239.259C352.479 239.733 350.941 243.755 350.703 244.583C350.468 245.412 351.415 247.542 352.006 248.134C352.599 248.726 353.782 249.555 354.493 249.555C355.912 250.62 359.581 252.276 360.884 251.449C362.185 250.62 359.7 248.134 358.752 247.187ZM340.256 191.104C340.344 191.458 340.08 196.491 340.08 197.02C340.08 197.55 338.844 202.055 338.844 202.055C338.844 202.055 338.666 194.724 338.666 193.489C338.666 192.252 339.285 186.338 339.197 185.808C339.108 185.279 339.373 186.073 339.638 186.25C339.638 186.25 340.344 188.457 340.344 188.809C340.344 189.162 340.167 190.752 340.256 191.104ZM356.149 191.547C356.149 191.547 356.149 196.579 355.972 196.225C355.794 195.873 355.001 192.959 355.176 192.252C355.353 191.547 355.528 184.307 355.528 184.307C355.528 184.659 356.059 187.574 356.149 187.838C356.235 188.104 355.972 188.986 356.324 189.251C356.677 189.516 356.149 191.547 356.149 191.547Z" fill="#040000"/>
<path d="M508.556 96.8131C507.525 95.9686 506.68 94.5611 504.991 92.779C503.302 90.9965 502.834 89.214 501.615 87.9008C500.394 86.5874 498.238 86.7753 497.767 86.6807C497.298 86.5874 497.298 86.1183 496.455 85.837C495.61 85.5553 494.579 83.6788 494.202 83.3974C493.827 83.1161 493.452 83.7728 492.982 83.6788C492.513 83.5854 492.889 81.4276 492.702 81.1465C492.513 80.8648 493.173 79.2699 492.702 77.1121C492.233 74.9541 489.794 72.6091 487.167 73.2656C480.225 72.0458 479.944 79.1759 480.506 80.771C481.069 82.3652 481.913 81.709 482.101 82.2719C482.289 82.8346 483.039 83.116 483.228 83.585C483.414 84.0541 484.634 86.2119 485.103 86.6806C485.571 87.1503 486.886 87.9944 487.167 87.9944C487.448 87.9944 487.448 88.4638 486.886 88.8385C486.323 89.2139 486.929 89.5386 486.295 90.1725C485.663 90.8052 485.238 92.2835 485.873 93.9711C486.506 95.6605 487.561 100.515 486.929 102.626C486.295 104.736 484.396 106.424 483.761 107.269C483.129 108.114 484.396 110.857 484.396 110.857C484.396 110.857 485.238 114.235 485.452 115.289C485.663 116.345 485.03 116.768 484.606 117.823C484.185 118.879 479.627 134.412 479.627 134.412C479.627 134.412 477.509 142.627 478.509 144.528C479.509 146.424 486.33 153.419 487.243 153.927C488.155 154.435 488.241 154.655 488.309 155.085C488.376 155.518 488.16 159.117 488.16 159.117C488.16 159.117 487.184 160.518 487.348 161.064C487.511 161.611 486.907 162.408 486.907 162.408C486.907 162.408 486.075 163.399 485.452 164.407C484.831 165.415 484.227 166.212 482.788 166.829C481.349 167.443 480.975 168.048 480.92 168.683C480.863 169.315 483.934 170.653 486.554 169.931C489.171 169.209 490.284 168.67 491.168 168.322C492.048 167.976 492.393 167.688 492.468 166.843C492.544 166 492.438 164.818 492.438 164.818C492.438 164.818 492.004 163.715 492.043 163.294C492.081 162.872 492.924 162.947 492.867 162.411C492.809 161.873 493.391 158.947 493.391 158.947C494.188 159.55 494.744 160.451 494.696 160.979C494.65 161.505 494.478 162.237 494.767 162.582C495.056 162.925 494.661 162.572 495.056 162.925C495.448 163.28 496.084 164.507 495.979 165.67C495.876 166.83 495.416 168.384 495.907 168.853C496.396 169.324 496.206 170.263 496.993 169.801C497.778 169.341 499.916 160.914 500 158.794C500.084 156.673 500.647 155.126 499.946 154.64C499.246 154.151 498.286 154.171 497.653 154.115C497.02 154.059 496.982 154.479 496.982 154.479L495.963 153.964C495.963 153.964 496.308 153.675 495.906 153.427C495.502 153.176 495.291 151.988 495.337 151.459C495.385 150.933 495.733 147.027 496.021 146.201C496.307 145.375 496.049 144.713 496.305 144.205C496.566 143.697 497.193 141.413 497.271 140.567C497.346 139.724 497.743 135.29 497.981 133.822C498.219 132.354 499.009 128.488 499.104 127.218C499.409 123.197 500.206 116.419 499.926 115.482C499.644 114.545 500.489 115.014 501.052 114.451C501.615 113.888 501.803 110.134 501.803 110.134C501.803 110.134 502.458 110.041 502.458 109.478C502.458 108.915 503.771 109.103 504.617 108.541C505.461 107.977 510.808 103.005 511.277 102.067C511.746 101.128 509.588 97.6571 508.556 96.8131ZM486.394 143.212C486.239 142.559 485.385 142.589 485.424 142.166C485.462 141.743 485.287 141.303 485.287 141.303C485.287 141.303 485.613 140.055 486.255 138.836C486.895 137.616 488.241 133.269 488.241 133.269C489.286 131.128 490.15 132.163 489.932 133.42C489.711 134.677 490.072 138.964 489.892 139.8C489.71 140.635 489.888 143.418 489.917 144.271C489.945 145.125 490.076 148.435 490.076 148.435C490.076 148.435 486.547 143.863 486.394 143.212ZM505.085 101.503C505.085 101.503 502.366 104.975 502.083 105.256C501.803 105.538 501.521 105.256 501.615 104.694C501.709 104.131 501.895 102.161 502.271 100.754C502.647 99.3465 502.647 99.0652 503.209 99.3465C503.772 99.6271 505.085 100.941 505.085 100.941V101.503Z" fill="#040000"/>
<path d="M392.47 141.342C392.33 142.119 392.542 143.252 393.036 143.677C393.036 143.677 393.533 143.96 393.603 144.242C393.673 144.525 393.744 145.659 393.744 145.659C393.744 145.659 392.895 146.012 392.895 146.719C392.188 147.074 391.764 147.072 391.692 147.568C391.621 148.064 390.701 148.134 390.561 148.559C390.419 148.983 389.994 149.126 389.569 149.126C389.144 149.126 388.65 149.338 388.791 149.833C388.72 150.328 388.154 150.682 387.8 150.753C387.445 150.825 386.668 151.815 386.525 152.099C386.384 152.381 384.402 154.646 384.616 155.282C384.828 155.919 384.616 156.415 384.473 156.769C384.332 157.122 383.198 161.084 383.129 161.51C382.634 162.006 382.068 163.562 382.068 163.562C382.068 163.562 381.996 166.039 381.855 166.676C381.714 167.314 382.421 168.941 382.846 169.507C383.27 170.073 384.403 170.781 385.322 170.638C386.243 170.497 388.225 170.426 388.72 170.285C389.215 170.143 389.994 170.002 390.063 170.356C390.134 170.709 389.569 172.691 388.932 173.399C388.296 174.107 388.72 175.168 389.074 175.451C389.427 175.734 389.286 176.371 389.427 176.937C389.569 177.502 388.79 184.369 388.932 188.119C389.073 191.869 390.418 198.522 390.277 199.371C390.134 200.22 390.206 200.856 390.277 201.352C390.347 201.847 390.419 208.147 390.347 208.995C389.711 209.42 390.134 210.551 390.134 210.763C390.134 210.977 391.764 217.63 391.621 218.194C391.48 218.762 391.197 218.62 391.268 219.256C391.339 219.893 391.692 220.601 391.764 220.955C391.834 221.309 391.48 223.148 391.48 224.069C391.48 224.989 391.055 226.333 391.764 226.828C392.258 228.527 396.363 228.952 397.849 228.739C399.334 228.527 399.122 227.324 398.061 226.262C396.999 225.201 396.929 223.998 396.859 223.645C396.787 223.29 396.646 221.875 396.646 221.523C396.646 221.168 396.434 217.203 396.505 216.85C396.575 216.496 396.363 210.835 396.363 210.127C396.363 209.42 396.08 208.5 396.08 208.5L396.008 207.791C396.008 207.791 395.656 204.678 395.867 204.182C396.08 203.687 396.08 202.556 396.08 202.556C396.08 202.556 396.858 194.488 396.999 192.789C397.141 191.09 398.344 187.764 398.416 187.128C398.485 186.491 399.336 186.279 399.83 188.755C400.325 191.232 402.66 197.672 402.66 198.522C402.66 199.371 402.66 200.361 402.66 200.361C402.66 200.361 404.571 205.597 404.501 207.084C404.43 208.57 404.642 210.127 404.571 210.341C404.501 210.551 404.289 210.977 404.501 211.473C404.714 211.968 405.705 214.869 405.705 215.506C405.705 216.142 406.2 220.245 406.27 220.531C406.341 220.815 405.917 220.955 405.988 221.523C406.058 222.087 405.988 222.652 406.058 223.006C406.129 223.361 406.837 224.21 406.907 224.776C406.977 225.342 407.261 227.749 407.261 228.243C407.261 228.739 407.544 229.516 408.607 229.731C409.667 229.943 410.303 230.014 410.658 229.802C411.011 229.588 412.64 230.791 414.196 230.933C415.612 231.003 415.824 230.933 416.107 230.225C416.39 229.516 415.824 229.094 415.541 228.952C415.259 228.81 412.286 225.626 412.074 225.272C411.861 224.917 411.648 223.079 411.648 222.794C411.648 222.512 411.366 219.398 411.294 219.116C411.223 218.832 411.011 211.331 411.011 210.835C411.011 210.341 410.658 209.42 410.658 209.42C410.658 209.42 409.526 203.334 409.455 202.697C409.384 202.06 409.031 200.785 409.031 200.785C409.031 200.785 408.888 198.945 408.746 198.38C408.607 197.815 408.252 182.954 407.968 181.82C407.685 180.687 407.404 179.201 407.404 178.777C407.404 178.353 407.615 178.424 407.332 177.786C407.048 177.149 406.695 176.017 406.695 176.017C406.695 176.017 407.473 175.805 407.473 175.239C407.473 174.674 406.625 172.408 406.484 171.984C406.341 171.56 406.412 170.568 406.837 170.568C407.261 170.568 408.181 170.781 408.676 170.214C409.172 169.647 410.658 167.384 410.658 166.888C410.658 166.393 410.162 163.916 410.021 163.35C409.879 162.783 408.395 155.707 408.252 154.787C408.111 153.867 407.12 151.32 406.129 150.896C405.138 150.47 403.581 150.258 403.37 149.904C403.158 149.55 403.158 148.913 402.662 148.842C402.168 148.773 402.52 147.923 401.883 147.782C401.529 147.356 401.388 146.932 401.104 146.79C400.821 146.648 400.68 145.729 400.255 145.304C400.255 144.951 400.68 144.809 400.68 144.809C400.68 144.809 401.388 144.384 401.6 143.677C401.812 142.968 401.883 142.261 401.883 142.261C402.238 142.757 402.238 142.757 402.238 142.757C402.238 142.757 402.308 142.757 402.167 141.694C402.167 141.694 402.45 142.119 402.803 142.119C402.732 141.907 402.732 139.784 402.52 139.36C402.874 139.926 403.087 139.643 403.087 139.643C403.087 139.643 402.342 137.909 402.201 137.202C402.061 136.494 401.955 136.246 401.6 136.105C401.955 136.105 402.45 136.6 402.45 136.6C402.45 136.6 401.741 135.467 400.964 134.973C400.207 134.491 399.265 134.478 399.265 134.478C399.548 134.335 399.901 134.122 399.901 134.122C399.901 134.122 399.548 133.84 398.697 133.981C397.849 134.122 396.999 134.406 396.999 134.406C396.999 134.406 395.583 133.839 393.957 135.185C393.32 135.679 392.895 136.034 392.895 136.034C393.392 136.105 393.673 135.962 393.673 135.962C393.673 135.962 392.895 136.458 392.682 137.237C392.47 138.015 392.045 138.581 392.045 138.581C392.045 138.581 392.33 138.511 392.612 138.299C392.258 139.077 391.834 139.926 391.976 140.634C392.188 140.704 392.47 140.42 392.47 140.42C392.47 140.42 391.904 141.305 392.082 141.872C392.152 141.589 392.47 141.342 392.47 141.342Z" fill="#040000"/>
<path d="M455.403 146.51C455.539 145.703 455.942 139.781 455.807 138.973C455.674 138.166 456.076 129.954 455.134 128.475C454.192 126.994 452.577 126.187 450.693 125.513C450.342 124.577 449.685 124.354 449.52 124.311C449.451 123.723 449.451 123.72 449.451 123.72C449.451 123.72 449.949 124.219 450.386 123.97C450.199 123.596 450.199 123.035 450.199 122.849C450.76 123.284 450.76 123.284 450.76 123.284C450.76 123.284 450.636 122.723 450.636 122.475C450.636 122.225 450.948 121.478 451.008 121.228C451.072 120.979 451.32 120.107 451.32 120.107C451.757 120.604 452.505 120.854 452.193 120.604C451.881 120.355 451.944 119.795 451.819 119.421C451.695 119.047 451.695 116.742 450.948 115.433C450.199 114.125 449.576 112.006 447.395 112.691C447.395 112.691 445.152 111.694 443.906 112.691C442.659 113.688 441.787 114.498 441.475 115.744C441.163 116.992 440.977 117.801 440.665 117.801C441.039 118.05 441.226 117.801 441.226 117.801C441.226 117.801 440.914 118.673 440.789 119.047C440.977 118.923 441.288 118.86 441.288 118.86C441.288 118.86 441.288 119.919 441.6 120.356C441.787 120.792 442.222 121.851 442.472 121.976C442.722 122.1 442.783 122.661 442.534 122.849C442.846 123.035 443.157 122.911 443.157 122.911C443.157 122.911 443.968 124.157 443.531 126.462C443.542 126.481 443.556 126.497 443.568 126.512L443.424 126.455L441.54 128.609C441.54 128.609 437.906 130.494 437.636 131.032C437.367 131.57 436.83 133.051 436.83 133.051C436.83 133.051 434.81 143.146 434.676 143.549C434.541 143.953 433.599 144.626 433.733 145.164C433.868 145.703 432.657 150.279 432.792 150.817C432.926 151.355 434.002 154.183 434.676 154.183C435.349 154.183 436.291 154.452 436.291 154.452L436.021 163.065C436.694 163.335 439.117 176.795 439.79 179.354C440.463 181.91 441.001 187.428 441.001 188.37C441.001 189.312 440.598 190.927 440.732 191.331C440.867 191.737 440.329 196.58 440.059 197.119C439.79 197.657 439.521 199.003 439.521 199.003C439.521 199.003 436.694 201.696 435.483 201.83C434.271 201.966 433.868 203.042 434.676 203.58C435.483 204.119 438.848 203.444 438.848 203.444C438.848 203.444 440.543 203.034 441.854 202.564C441.655 202.994 441.154 204.056 440.732 204.792C440.193 205.733 438.04 207.753 437.636 208.291C437.233 208.83 438.714 209.099 439.385 209.233C440.059 209.368 441.137 208.962 442.616 208.962C444.097 208.962 448.001 206.945 448.539 206.407C449.078 205.868 448.673 204.253 448.673 204.253L449.346 203.716C449.346 203.716 449.615 202.503 450.288 201.022C450.961 199.541 452.174 185.274 452.038 184.736L451.244 182.291C451.398 181.214 451.5 180.356 451.5 180.024C451.5 178.815 451.635 173.43 451.769 173.026C451.903 172.623 451.769 169.257 452.038 168.584C452.308 167.911 451.903 163.335 451.903 163.335L452.136 163.155L453.116 162.391C453.116 162.391 452.711 157.682 452.846 157.008C452.98 156.335 455.269 147.319 455.403 146.51Z" fill="#040000"/>
<path d="M128.196 121.554L128.628 120.689C128.628 120.689 129.06 121.035 129.406 120.689C129.751 120.343 130.961 108.416 130.875 107.724C130.788 107.033 130.731 104.728 130.645 103.777C130.558 102.827 131.772 98.0557 131.682 97.0937C131.537 95.5668 131.566 92.2533 129.751 90.6112C128.969 89.9038 126.035 89.7471 125.256 89.3148C123.386 88.276 125.43 83.2647 124.219 77.8194C123.01 72.3744 118.083 72.8064 117.133 73.5843C116.268 73.6711 113.589 75.313 113.157 78.1652C112.798 80.5288 113.33 81.4496 113.762 82.1409C114.194 82.8324 115.318 87.8454 114.626 89.0555C113.676 88.6234 113.762 90.1791 113.762 90.1791C113.762 90.1791 111.255 90.7839 110.305 91.5619C109.354 92.3398 109.181 99.9457 109.959 101.156C110.737 102.366 111.687 106.947 111.687 108.156C111.687 108.887 111.373 111.055 110.823 112.651C110.462 113.7 109.786 114.495 109.786 114.495C109.786 114.495 109.613 114.956 110.132 115.302C110.045 116.252 109.209 119.566 109.209 119.566C109.209 119.566 109.987 119.912 110.938 119.912L107.251 134.316L109.959 135.21L109.873 136.333L112.379 137.371L112.552 136.938L112.695 136.989C113.262 139.691 113.727 142.001 113.749 142.397C113.806 143.431 113.73 146.205 113.877 146.775C114.024 147.344 117.309 158.704 116.83 160.461C116.351 162.219 112.636 163.926 111.262 164.119C109.888 164.31 108.309 167.052 111.774 167.09C115.238 167.129 116.676 166.01 118.025 165.358C118.635 165.063 119.26 165.051 119.789 165.039C118.85 166.412 117.916 167.669 117.616 167.988C117 168.644 116.71 170.072 119.039 170.136C121.369 170.2 124.355 168.755 125.417 167C126.489 167.218 127.149 165.976 127.081 165.404C127.01 164.833 126.54 160.014 126.384 159.685C126.227 159.356 129.645 149.303 126.752 141.761C126.707 140.435 126.565 138.687 126.375 136.808L128.628 136.42L128.542 135.642L131.134 135.296C131.134 135.296 129.233 124.492 128.196 121.554ZM122.047 161.258C121.901 161.665 121.538 162.322 121.076 163.072C120.941 162.33 120.7 161.576 120.678 161.172C120.64 160.481 120.634 156.21 120.384 153.801C120.135 151.391 120.448 144.564 119.528 142.537C119.632 141.084 119.666 139.43 119.656 137.784L119.833 137.768C120.013 138.563 120.145 139.158 120.199 139.424C120.494 140.899 121.047 142.572 121.473 143.217C121.9 143.862 122.567 159.801 122.047 161.258Z" fill="#040000"/>
<path d="M183.985 140.21C183.985 140.21 180.214 130.713 179.502 129.758C178.789 128.804 176.821 128.305 175.815 128.14C174.809 127.974 173.552 127.56 173.05 127.394C172.547 127.228 172.254 125.818 172.045 125.777C171.835 125.735 171.667 125.445 171.667 125.445C171.667 125.445 172.38 125.611 173.385 124.781C174.391 123.951 175.288 122.587 174.558 118.891C173.093 111.467 169.824 112.089 168.148 112.421C166.221 112.628 165.005 114.536 163.958 117.73C162.911 120.924 162.659 122.956 163.497 123.952C164.336 124.947 165.132 124.657 165.132 124.657C165.132 124.657 165.759 125.071 165.926 125.528C166.095 125.984 165.926 126.688 165.926 126.688C165.926 126.688 165.92 125.834 165.712 126.084C165.501 126.332 164.168 127.891 163.833 128.141C163.497 128.39 160.774 128.68 159.978 129.011C159.182 129.343 157.967 130.007 157.422 131.334C156.878 132.661 154.531 139.919 154.406 140.168C154.28 140.417 155.119 140.749 155.119 140.749C155.119 140.749 154.197 143.612 154.07 144.192C153.945 144.772 154.448 146.638 154.699 146.971C154.95 147.302 159.727 151.242 159.768 151.45C159.811 151.657 159.182 153.897 159.182 153.897L160.187 154.436C160.187 154.436 157.465 165.386 157.13 169.865C158.219 170.694 159.015 170.57 159.015 170.57L159.056 171.482C159.056 171.482 160.264 171.797 161.404 172.086C161.722 175.512 162.022 179.051 161.974 179.8C161.877 181.336 160.229 185.845 160.714 190.547C161.198 195.248 162.749 201.006 162.749 201.389C162.749 201.773 162.362 202.925 162.362 205.324C163.04 209.354 165.366 209.45 166.53 209.161C167.261 208.981 167.417 208.115 167.36 207.165C167.438 208.059 169.446 208.254 171.376 207.818C173.508 207.339 172.636 204.94 172.442 202.062C172.636 200.527 173.508 198.127 173.508 198.127C173.508 198.127 176.319 188.435 175.446 180.76C175.345 177.849 176.119 174.52 176.879 171.771C178.06 171.521 179.056 171.197 179.711 170.778C180.172 170.819 179.963 169.989 179.963 169.989C179.963 169.989 182.895 168.952 182.979 168.704C183.063 168.455 177.449 152.943 177.449 152.943L178.832 152.155L178.454 150.662C178.454 150.662 182.812 145.644 183.273 145.188C183.734 144.731 183.607 142.658 182.601 141.413C183.524 140.79 183.985 140.21 183.985 140.21ZM158.402 144.701L159.204 141.878L160.185 141.967L160.72 139.759C160.72 139.759 161.789 142.849 161.7 143.555C161.611 144.26 160.987 146.907 160.987 146.907L158.402 144.701ZM169.728 178.841C169.34 180.088 169.825 181.719 169.825 181.719C169.825 181.719 169.34 186.421 169.534 189.203C169.728 191.986 170.019 199.184 169.244 200.239C168.468 201.293 168.371 202.061 168.371 202.35C168.371 202.637 167.789 205.708 167.401 206.859C167.366 206.965 167.352 207.063 167.36 207.154C167.326 206.597 167.218 206.011 167.111 205.516C166.821 204.173 165.948 199.951 165.753 198.127C165.561 196.304 167.886 182.488 167.984 181.24C167.858 180.742 168.544 175.944 169.044 172.544C169.262 172.535 169.482 172.528 169.705 172.52C169.837 174.869 169.967 178.073 169.728 178.841ZM177.12 146.907C176.764 147.613 176.853 143.819 176.853 143.819C176.853 143.819 176.853 138.437 177.477 140.025L178.19 142.319L179.26 141.967C179.26 141.967 179.616 143.024 179.616 143.378C179.616 143.731 177.388 146.025 177.12 146.907Z" fill="#040000"/>
<path d="M234.465 164.16C232.808 161.485 231.001 153.31 229.752 153.205C229.711 153.201 229.672 153.206 229.632 153.213C229.268 152.927 229.146 153.015 228.477 151.677C227.458 149.639 225.93 144.542 225.675 142.123C225.42 139.702 224.783 132.824 217.904 134.097C216.376 133.969 213.191 136.263 212.936 139.829C212.682 143.396 213.701 150.02 212.044 151.422C210.389 152.822 210.771 151.803 209.624 154.097C208.478 156.39 203.892 163.014 203.256 164.67C202.618 166.326 203.001 168.109 203.637 169C200.453 173.077 200.453 175.752 200.707 176.643C200.962 177.535 205.038 181.484 206.312 181.739C207.587 181.993 207.841 181.484 207.841 181.484L204.656 191.93L207.714 193.458L207.969 192.821L210.389 193.713L210.919 193.27C211.898 196.577 213.446 201.967 213.446 203.013C213.446 204.54 213.829 206.834 213.955 208.489C214.083 210.145 217.267 222.248 217.267 223.521C217.267 224.795 213.319 227.725 212.427 228.489C211.535 229.253 212.808 230.528 214.338 230.783C215.866 231.037 217.904 229.253 218.413 228.489C218.923 227.725 221.471 226.706 221.343 224.795C221.217 222.884 220.452 221.61 220.452 221.229C220.452 220.918 220.619 213.164 220.479 209.15C222.649 213.447 225.732 219.175 225.702 220.293C225.655 221.967 224.524 226.22 223.672 227.611C222.822 229.002 223.488 231.23 225.889 230.926C228.29 230.623 229.648 229.168 229.693 227.492C229.738 225.819 230.779 224.915 230.699 224.284C230.621 223.652 229.226 221.774 229.147 221.141C229.067 220.51 228.023 208.187 226.63 206.309C225.237 204.431 224.655 202.757 224.655 202.12C224.655 201.647 225.711 195.754 226.306 192.289L226.694 192.185L229.369 192.566C229.369 192.566 230.914 191.969 227.568 179.737C229.158 178.168 231.966 176.338 233.318 174.732C235.355 172.313 236.12 166.834 234.465 164.16ZM228.122 172.004C228.385 170.461 228.671 168.918 228.953 167.417L230.133 170.02C230.133 170.02 229.236 170.878 228.122 172.004Z" fill="#040000"/>
<path d="M302.497 247.844C301.132 246.693 300.414 244.825 299.623 243.819C298.833 242.813 298.546 242.239 298.257 242.381C297.97 242.525 296.39 236.346 296.03 234.262C295.671 232.178 293.874 226.213 291.287 223.483C290.213 222.348 288.824 219.356 288.457 215.248C289.004 215.191 289.42 215.147 289.42 215.147H291.215C291.215 215.147 287.047 198.258 286.616 196.174C286.185 194.091 286.832 194.953 286.832 194.953C286.832 194.953 290.783 192.653 290.927 192.079C291.072 191.504 293.083 188.557 292.653 185.181C292.221 181.803 292.725 178.282 292.797 177.85C292.867 177.419 292.221 173.466 290.066 172.677C287.91 171.886 286.545 170.089 285.755 169.874C284.964 169.658 284.173 169.226 283.885 167.933C284.245 166.568 284.676 166.928 284.604 166.496C284.82 167.286 286.05 165.419 286.185 163.119C286.329 160.676 284.676 152.197 277.13 155.358C273.538 155.142 271.74 161.682 274.903 165.346C275.98 166.712 276.699 167.287 276.34 168.077C276.843 168.005 276.987 167.072 276.987 167.072C276.987 167.072 277.418 167.647 277.203 168.149C276.987 168.652 275.622 168.724 274.975 169.012C274.328 169.299 272.028 170.593 271.526 170.736C271.263 170.811 270.825 171.201 270.465 171.759C269.495 172.639 268.578 174.045 267.811 175.453C267.272 175.042 266.905 174.789 266.804 174.775C266.217 174.696 262.725 174.507 261.867 174.604C261.012 174.699 255.952 185.096 255.952 185.096C255.905 185.97 255.937 186.255 256.89 187.017C257.842 187.778 264.573 192.378 267.622 195.075C268.061 195.463 268.5 195.801 268.935 196.096C266.274 201.687 262.592 209.698 262.686 211.194C263.764 211.768 265.345 212.056 265.417 212.272C265.489 212.487 266.063 213.709 266.063 213.709L268.795 214.212L269.673 214.185C270.125 217.143 270.553 219.977 270.591 220.464C270.663 221.398 270.519 223.554 270.161 225.35C269.801 227.147 271.022 231.171 272.317 233.399C273.61 235.627 275.406 243.46 275.406 243.46C275.406 243.46 275.478 244.321 275.478 245.04C275.478 245.758 275.262 246.047 275.694 247.987C276.124 249.928 276.556 250.717 278.999 251.437C281.442 252.154 283.167 251.149 282.161 249.712C281.155 248.274 280.724 245.903 280.005 244.753C279.287 243.604 276.556 235.482 276.484 232.967C276.412 230.452 276.124 226.141 275.765 224.991C275.406 223.841 276.028 220.35 276.341 218.81C276.586 217.601 276.681 216.298 276.685 215.018C277.044 214.858 277.651 214.615 277.85 214.715C278.136 214.859 280.58 215.721 280.58 215.721C280.58 215.721 280.805 215.694 281.108 215.66C281.869 217.662 282.636 219.439 283.239 220.32C284.124 221.615 283.885 222.978 284.532 223.626C285.18 224.273 286.185 227.938 287.981 230.381C289.778 232.824 294.952 241.448 294.736 243.602C294.521 245.758 294.881 247.412 296.03 247.556C296.748 247.772 297.395 248.13 297.539 248.993C297.683 249.856 299.983 251.293 302.209 250.647C304.437 250 303.863 248.993 302.497 247.844ZM269.873 173.613C269.873 174.188 270.183 175.827 270.581 177.68C269.854 177.078 269.169 176.521 268.585 176.056C269.003 175.079 269.434 174.289 269.873 173.613Z" fill="#040000"/>
<path d="M207.34 77.3669C207.568 76.6844 208.332 74.9294 209.631 72.1018C210.964 69.2418 212.751 65.3905 214.994 60.548C217.269 55.673 219.934 49.8879 222.989 43.1929C223.119 42.933 223.217 42.6567 223.281 42.3642C223.379 42.0717 223.427 41.8117 223.427 41.5842C223.427 41.2591 223.33 40.9992 223.135 40.8042C222.94 40.6092 222.567 40.5117 222.014 40.5117C220.649 40.5117 219.527 40.9342 218.65 41.7792C217.805 42.5917 217.172 43.5991 216.749 44.8017C216.359 46.0042 216.164 47.1904 216.164 48.3605C216.164 48.653 216.181 48.9942 216.212 49.3842C216.245 49.7742 216.294 50.213 216.359 50.7005C215.579 50.7005 214.929 50.4729 214.409 50.018C213.921 49.5305 213.548 48.9455 213.287 48.263C213.028 47.5479 212.897 46.8817 212.897 46.2642C212.897 45.2242 213.19 44.2167 213.775 43.2417C214.393 42.2667 215.189 41.3892 216.164 40.6092C217.139 39.7966 218.211 39.1629 219.381 38.7079C220.584 38.2529 221.77 38.0254 222.94 38.0254C224.143 38.0254 225.167 38.3666 226.011 39.0491C226.857 39.6991 227.507 40.9017 227.961 42.6567C228.417 44.3791 228.644 46.8654 228.644 50.1155C228.644 52.2279 228.563 54.3729 228.4 56.5505C228.271 58.6955 228.125 60.7105 227.961 62.5955C227.799 64.4806 227.717 66.0894 227.717 67.4218C228.368 65.5043 229.164 63.473 230.106 61.328C231.081 59.1505 232.122 57.0055 233.226 54.893C234.332 52.748 235.42 50.733 236.493 48.848C237.565 46.9629 238.524 45.3217 239.369 43.9242C240.246 42.4942 240.913 41.4379 241.368 40.7554C241.823 40.0404 242.229 39.5041 242.586 39.1466C242.945 38.7892 243.432 38.6104 244.049 38.6104C244.505 38.6104 245.219 38.7892 246.194 39.1466C245.901 39.7642 245.56 40.7554 245.17 42.1204C244.78 43.4529 244.358 45.0129 243.903 46.8004C243.415 48.7505 242.928 50.8955 242.44 53.2355C241.953 55.543 241.514 57.883 241.124 60.2555C240.734 62.6281 240.41 64.8868 240.149 67.0318C239.922 69.1443 239.808 71.0131 239.808 72.6381C239.808 73.4831 239.84 74.1494 239.905 74.6369C240.003 75.1244 240.117 75.5469 240.246 75.9044C240.41 76.2944 240.588 76.7819 240.783 77.3669C239.386 77.3669 238.313 77.1557 237.565 76.7331C236.851 76.3106 236.363 75.6281 236.103 74.6856C235.876 73.7756 235.761 72.5568 235.761 71.0293C235.761 67.4218 236.168 63.6355 236.98 59.6705C237.826 55.673 238.801 51.5618 239.905 47.3367C238.996 48.6367 238.053 50.1804 237.078 51.968C236.103 53.7555 235.145 55.6405 234.201 57.623C233.259 59.6056 232.366 61.5718 231.52 63.5218C230.675 65.4393 229.928 67.2268 229.277 68.8843C228.628 70.5093 228.125 71.8743 227.766 72.9793C227.279 73.1418 226.937 73.2231 226.742 73.2231C225.605 73.2231 224.874 72.5406 224.549 71.1756C224.256 69.778 224.11 67.8768 224.11 65.4718C224.11 63.7493 224.143 61.913 224.207 59.963C224.273 57.9805 224.338 55.9817 224.402 53.9667C224.468 51.9192 224.5 49.9854 224.5 48.1655C224.5 47.678 224.484 47.1904 224.451 46.7029C224.451 46.2154 224.451 45.7441 224.451 45.2892C221.982 51.0417 219.886 55.9655 218.162 60.0605C216.473 64.123 215.027 67.438 213.824 70.0056C212.622 72.5406 211.517 74.3931 210.509 75.5631C209.502 76.7657 208.445 77.3669 207.34 77.3669ZM254.308 74.3931C253.105 74.3931 252.13 74.0681 251.383 73.4181C250.635 72.8006 250.262 71.9556 250.262 70.8831C250.262 69.973 250.489 68.998 250.945 67.9581C251.399 66.9181 251.854 65.8944 252.31 64.8868C252.797 63.8793 253.041 62.9855 253.041 62.2055C253.041 61.4581 252.797 60.8405 252.31 60.353C251.822 59.833 251.253 59.4106 250.603 59.0855C249.888 60.8731 249.075 62.6117 248.166 64.3018C247.288 65.9593 246.573 67.2594 246.021 68.2018L245.29 66.7881C245.744 65.9431 246.345 64.7406 247.093 63.1805C247.84 61.6205 248.556 59.8817 249.238 57.9643C248.913 57.6392 248.751 57.2005 248.751 56.648C248.751 55.803 249.01 55.0067 249.531 54.2592C250.05 53.5118 250.555 53.138 251.042 53.138C251.432 53.138 251.708 53.3655 251.871 53.8205C252.066 54.243 252.163 54.5355 252.163 54.698C252.163 54.8604 252.082 55.153 251.92 55.5755C251.789 55.998 251.692 56.3068 251.627 56.5018C251.659 56.8592 251.935 57.2168 252.456 57.5743C253.008 57.8993 253.626 58.2893 254.308 58.7443C254.991 59.1992 255.592 59.768 256.112 60.4505C256.631 61.133 256.892 61.9943 256.892 63.0343C256.892 63.9768 256.68 64.9356 256.258 65.9106C255.835 66.8856 255.413 67.7956 254.991 68.6406C254.568 69.4855 254.357 70.2168 254.357 70.8343C254.357 71.2893 254.47 71.5981 254.698 71.7606C254.958 71.8906 255.25 71.9556 255.576 71.9556C256.356 71.9556 257.168 71.7281 258.013 71.2731C258.858 70.7856 259.687 70.168 260.5 69.4206C261.311 68.6731 262.027 67.8931 262.645 67.0806C263.261 66.2356 263.733 65.4718 264.058 64.7893L265.228 65.6668C264.61 67.0644 263.717 68.4456 262.547 69.8106C261.377 71.143 260.077 72.2481 258.647 73.1256C257.216 73.9706 255.771 74.3931 254.308 74.3931ZM266.509 73.6131C265.729 73.6131 265.177 73.4181 264.852 73.0281C264.526 72.6056 264.364 72.1831 264.364 71.7606C264.364 71.4031 264.526 71.0293 264.852 70.6393C265.177 70.2168 265.583 69.8755 266.071 69.6156C266.558 69.3231 267.013 69.1768 267.436 69.1768C267.793 69.1768 268.151 69.2905 268.508 69.5181C268.865 69.7131 269.044 70.1031 269.044 70.6881C269.044 70.948 268.947 71.3218 268.752 71.8093C268.557 72.2643 268.264 72.6868 267.874 73.0768C267.517 73.4343 267.061 73.6131 266.509 73.6131ZM298.731 77.3669C296.65 77.3669 294.815 76.9443 293.222 76.0994C291.662 75.2868 290.443 74.1981 289.566 72.8331C288.721 71.4681 288.298 69.9568 288.298 68.2993C288.298 66.3493 288.834 64.4806 289.907 62.693C290.98 60.8731 292.442 59.3293 294.295 58.0618C296.18 56.7617 298.325 55.9493 300.73 55.6242C299.592 54.5843 298.715 53.4305 298.097 52.163C297.512 50.8955 297.22 49.6118 297.22 48.3117C297.22 46.5567 297.658 44.8992 298.536 43.3392C299.413 41.7792 300.648 40.5117 302.241 39.5366C303.865 38.5616 305.735 38.0741 307.847 38.0741C309.797 38.0741 311.275 38.5454 312.283 39.4879C313.323 40.3979 313.843 41.7304 313.843 43.4854C313.843 44.7204 313.633 45.9391 313.21 47.1417C312.787 48.3117 312.268 49.2867 311.65 50.0667C311.032 50.8142 310.415 51.188 309.797 51.188C309.343 51.188 308.904 50.993 308.481 50.603C308.091 50.1804 307.75 49.7093 307.457 49.1892C308.66 48.2142 309.651 47.1904 310.431 46.1179C311.244 45.0454 311.65 43.9404 311.65 42.8029C311.65 41.8929 311.39 41.1616 310.87 40.6092C310.349 40.0242 309.52 39.7317 308.383 39.7317C306.921 39.7317 305.686 40.1542 304.678 40.9992C303.67 41.8441 302.908 42.9492 302.387 44.3142C301.867 45.6466 301.607 47.1092 301.607 48.7017C301.607 49.4492 301.672 50.2779 301.802 51.188C301.964 52.098 302.305 53.0243 302.826 53.9667C303.346 54.8768 304.126 55.7543 305.166 56.5993C302.826 56.9567 300.794 57.7693 299.072 59.0368C297.35 60.2717 296.017 61.718 295.075 63.3755C294.132 65.0331 293.661 66.6744 293.661 68.2993C293.661 69.2743 293.856 70.2819 294.246 71.3218C294.669 72.3618 295.351 73.2393 296.293 73.9544C297.235 74.6694 298.471 75.0269 299.998 75.0269C301.753 75.0269 303.427 74.6206 305.02 73.8081C306.613 72.9956 308.058 71.9068 309.358 70.5418C310.69 69.1443 311.78 67.5843 312.625 65.8618C313.469 64.1393 314.006 62.368 314.233 60.548C313.615 60.5806 313.015 60.6293 312.43 60.6943C311.878 60.7592 311.227 60.8567 310.48 60.9868C309.764 61.1168 308.806 61.2955 307.603 61.523C307.636 59.8655 308.188 58.7605 309.261 58.208C310.333 57.6556 311.617 57.3793 313.112 57.3793C314.152 57.3793 315.095 57.4442 315.94 57.5743C316.817 57.7043 317.679 57.8506 318.523 58.013C319.401 58.1431 320.376 58.208 321.448 58.208C320.928 59.2805 320.458 59.9305 320.035 60.158C319.645 60.353 319.255 60.4505 318.865 60.4505C318.28 60.4505 317.776 60.4667 317.353 60.4993C316.963 60.4993 316.558 60.4993 316.135 60.4993C315.907 62.7092 315.273 64.8218 314.233 66.8368C313.225 68.8518 311.926 70.6555 310.333 72.2481C308.74 73.8406 306.954 75.0918 304.971 76.0019C302.988 76.9119 300.909 77.3669 298.731 77.3669ZM332.787 77.3669C333.014 76.6844 333.777 74.9294 335.078 72.1018C336.41 69.2418 338.198 65.3905 340.44 60.548C342.716 55.673 345.38 49.8879 348.435 43.1929C348.566 42.933 348.663 42.6567 348.728 42.3642C348.825 42.0717 348.874 41.8117 348.874 41.5842C348.874 41.2591 348.777 40.9992 348.582 40.8042C348.387 40.6092 348.012 40.5117 347.46 40.5117C346.095 40.5117 344.974 40.9342 344.097 41.7792C343.252 42.5917 342.618 43.5991 342.195 44.8017C341.805 46.0042 341.61 47.1904 341.61 48.3605C341.61 48.653 341.626 48.9942 341.659 49.3842C341.692 49.7742 341.741 50.213 341.805 50.7005C341.025 50.7005 340.376 50.4729 339.855 50.018C339.368 49.5305 338.994 48.9455 338.734 48.263C338.474 47.5479 338.344 46.8817 338.344 46.2642C338.344 45.2242 338.637 44.2167 339.222 43.2417C339.84 42.2667 340.635 41.3892 341.61 40.6092C342.585 39.7966 343.658 39.1629 344.828 38.7079C346.031 38.2529 347.217 38.0254 348.387 38.0254C349.59 38.0254 350.613 38.3666 351.458 39.0491C352.303 39.6991 352.953 40.9017 353.408 42.6567C353.863 44.3791 354.09 46.8654 354.09 50.1155C354.09 52.2279 354.009 54.3729 353.847 56.5505C353.716 58.6955 353.57 60.7105 353.408 62.5955C353.246 64.4806 353.164 66.0894 353.164 67.4218C353.814 65.5043 354.611 63.473 355.553 61.328C356.528 59.1505 357.568 57.0055 358.673 54.893C359.778 52.748 360.867 50.733 361.939 48.848C363.012 46.9629 363.971 45.3217 364.816 43.9242C365.693 42.4942 366.36 41.4379 366.814 40.7554C367.269 40.0404 367.676 39.5041 368.033 39.1466C368.39 38.7892 368.878 38.6104 369.496 38.6104C369.95 38.6104 370.666 38.7892 371.641 39.1466C371.348 39.7642 371.007 40.7554 370.617 42.1204C370.227 43.4529 369.804 45.0129 369.349 46.8004C368.862 48.7505 368.374 50.8955 367.887 53.2355C367.399 55.543 366.961 57.883 366.57 60.2555C366.18 62.6281 365.855 64.8868 365.595 67.0318C365.368 69.1443 365.254 71.0131 365.254 72.6381C365.254 73.4831 365.287 74.1494 365.352 74.6369C365.449 75.1244 365.563 75.5469 365.693 75.9044C365.855 76.2944 366.034 76.7819 366.229 77.3669C364.831 77.3669 363.759 77.1557 363.012 76.7331C362.296 76.3106 361.809 75.6281 361.549 74.6856C361.321 73.7756 361.208 72.5568 361.208 71.0293C361.208 67.4218 361.614 63.6355 362.427 59.6705C363.271 55.673 364.246 51.5618 365.352 47.3367C364.441 48.6367 363.499 50.1804 362.524 51.968C361.549 53.7555 360.59 55.6405 359.648 57.623C358.706 59.6056 357.811 61.5718 356.967 63.5218C356.122 65.4393 355.374 67.2268 354.724 68.8843C354.075 70.5093 353.57 71.8743 353.213 72.9793C352.725 73.1418 352.384 73.2231 352.189 73.2231C351.052 73.2231 350.321 72.5406 349.995 71.1756C349.703 69.778 349.557 67.8768 349.557 65.4718C349.557 63.7493 349.59 61.913 349.654 59.963C349.719 57.9805 349.785 55.9817 349.849 53.9667C349.914 51.9192 349.947 49.9854 349.947 48.1655C349.947 47.678 349.931 47.1904 349.898 46.7029C349.898 46.2154 349.898 45.7441 349.898 45.2892C347.427 51.0417 345.331 55.9655 343.609 60.0605C341.919 64.123 340.473 67.438 339.27 70.0056C338.067 72.5406 336.963 74.3931 335.955 75.5631C334.947 76.7657 333.892 77.3669 332.787 77.3669ZM376.773 75.6119C375.148 75.6119 373.832 75.2706 372.824 74.5881C371.849 73.9381 371.151 73.1094 370.728 72.1018C370.305 71.0619 370.094 70.0056 370.094 68.9331C370.094 67.9906 370.224 67.2594 370.484 66.7393C370.744 66.2193 371.069 65.8456 371.459 65.6181C371.849 65.3581 372.206 65.1631 372.531 65.0331C372.889 64.903 373.149 64.7568 373.311 64.5943C374.124 63.7493 374.953 62.7743 375.798 61.6693C376.675 60.5318 377.422 59.2805 378.04 57.9155V57.428C378.04 56.128 378.251 55.218 378.674 54.698C379.129 54.1455 379.649 53.8692 380.234 53.8692C380.624 53.8692 380.901 53.9667 381.063 54.1617C381.258 54.3567 381.371 54.5843 381.404 54.8442C381.404 55.0392 381.355 55.2668 381.258 55.5267C381.193 55.7867 381.16 56.1443 381.16 56.5993C381.16 57.5743 381.388 58.6955 381.843 59.963C382.33 61.198 382.802 62.5143 383.256 63.9118C383.744 65.3093 383.988 66.7393 383.988 68.2018C383.988 68.5918 383.972 68.9493 383.939 69.2743C383.906 69.5994 383.857 69.9081 383.793 70.2006C384.801 69.9406 385.792 69.388 386.767 68.5431C387.742 67.6656 388.668 66.3819 389.545 64.6918L390.13 65.1306C389.512 66.9831 388.619 68.4781 387.449 69.6156C386.279 70.7206 384.914 71.4031 383.354 71.6631C382.834 72.9956 381.973 73.9869 380.77 74.6369C379.6 75.2868 378.268 75.6119 376.773 75.6119ZM379.941 70.1031C380.006 69.8755 380.039 69.6156 380.039 69.3231C380.072 68.998 380.088 68.7543 380.088 68.5918C380.055 67.1293 379.86 65.683 379.503 64.253C379.146 62.8231 378.787 61.3606 378.43 59.8655C377.845 60.8731 377.163 61.9618 376.383 63.1318C375.603 64.3018 374.871 65.2443 374.189 65.9593C374.709 66.8368 375.472 67.6656 376.48 68.4456C377.488 69.2256 378.641 69.778 379.941 70.1031ZM376.431 73.4669C377.081 73.4669 377.683 73.3044 378.235 72.9793C378.787 72.6543 379.226 72.1831 379.551 71.5656C378.219 71.2731 377.016 70.753 375.944 70.0056C374.871 69.2581 374.043 68.4943 373.458 67.7143C373.003 67.8118 372.775 68.2506 372.775 69.0306C372.775 70.1031 373.084 71.1106 373.701 72.0531C374.319 72.9956 375.229 73.4669 376.431 73.4669ZM391.67 73.6131C390.89 73.6131 390.337 73.4181 390.012 73.0281C389.688 72.6056 389.525 72.1831 389.525 71.7606C389.525 71.4031 389.688 71.0293 390.012 70.6393C390.337 70.2168 390.743 69.8755 391.231 69.6156C391.718 69.3231 392.174 69.1768 392.596 69.1768C392.954 69.1768 393.311 69.2905 393.668 69.5181C394.027 69.7131 394.205 70.1031 394.205 70.6881C394.205 70.948 394.107 71.3218 393.912 71.8093C393.717 72.2643 393.425 72.6868 393.035 73.0768C392.677 73.4343 392.223 73.6131 391.67 73.6131ZM275.092 135.867C274.312 135.867 273.418 135.461 272.411 134.648C271.436 133.868 270.379 132.829 269.242 131.528C268.136 130.228 267.048 128.798 265.975 127.238C264.903 125.678 263.879 124.118 262.904 122.558C261.962 120.966 261.149 119.52 260.467 118.22L256.03 132.552C255.803 133.332 255.381 133.884 254.763 134.21C254.178 134.567 253.528 134.779 252.813 134.843C252.098 134.941 251.415 134.99 250.765 134.99C251.22 133.982 251.676 132.893 252.13 131.723C252.585 130.586 253.09 129.204 253.642 127.58C254.194 125.955 254.86 123.988 255.64 121.681C256.453 119.373 257.428 116.578 258.565 113.296C259.703 110.013 261.085 106.113 262.709 101.596C262.774 101.368 262.888 101.06 263.05 100.67C263.213 100.247 263.294 99.857 263.294 99.4995C263.294 98.882 262.969 98.5733 262.319 98.5733C261.539 98.5733 260.808 98.882 260.125 99.4995C259.443 100.085 258.825 100.832 258.273 101.742C257.721 102.62 257.282 103.53 256.957 104.472C256.664 105.415 256.518 106.243 256.518 106.958C256.518 107.706 256.68 108.453 257.005 109.201C255.608 109.201 254.601 108.908 253.983 108.323C253.398 107.706 253.105 106.942 253.105 106.032C253.105 104.927 253.447 103.822 254.129 102.717C254.812 101.58 255.673 100.556 256.713 99.6458C257.785 98.7033 258.907 97.9557 260.077 97.4032C261.28 96.8182 262.384 96.5257 263.392 96.5257C264.497 96.5257 265.211 96.8345 265.537 97.452C265.894 98.037 266.073 98.6708 266.073 99.3533C266.073 99.7107 266.04 100.052 265.975 100.377C265.911 100.702 265.829 101.011 265.732 101.303L262.124 113.003C262.481 112.776 262.888 112.483 263.343 112.126C263.83 111.768 264.546 111.232 265.488 110.517C268.218 108.405 270.769 106.113 273.142 103.643C275.546 101.173 277.545 98.752 279.138 96.3795C279.528 96.737 279.788 97.192 279.918 97.7445C280.048 98.2645 280.113 98.687 280.113 99.012C280.113 100.02 279.69 101.124 278.846 102.327C278.033 103.497 276.944 104.716 275.579 105.983C274.247 107.251 272.785 108.502 271.192 109.737C269.599 110.972 268.007 112.126 266.414 113.198C264.821 114.271 263.392 115.213 262.124 116.026C263.164 117.618 264.156 119.13 265.098 120.56C266.073 121.989 267.145 123.403 268.316 124.801C269.486 126.166 270.851 127.596 272.411 129.091C274.003 130.553 275.905 132.129 278.114 133.82C277.822 134.372 277.383 134.843 276.798 135.233C276.213 135.656 275.644 135.867 275.092 135.867ZM282.44 133.917C281.367 133.917 280.441 133.56 279.661 132.845C278.848 132.129 278.442 131.057 278.442 129.627C278.442 128.49 278.702 127.254 279.222 125.922C279.743 124.59 280.457 123.274 281.367 121.973C282.278 120.673 283.317 119.503 284.487 118.463C285.657 117.391 286.909 116.53 288.241 115.88C289.573 115.23 290.906 114.905 292.238 114.905C293.636 114.905 294.822 115.262 295.797 115.977C296.772 116.692 297.26 117.635 297.26 118.805C297.26 119.682 296.951 120.316 296.334 120.706C295.716 121.096 294.984 121.21 294.14 121.047C294.204 120.755 294.253 120.462 294.286 120.17C294.351 119.877 294.383 119.568 294.383 119.243C294.383 118.593 294.253 118.008 293.993 117.488C293.734 116.968 293.181 116.708 292.336 116.708C291.426 116.708 290.499 117.017 289.557 117.635C288.615 118.252 287.705 119.065 286.827 120.072C285.983 121.047 285.218 122.135 284.536 123.338C283.853 124.508 283.317 125.663 282.927 126.8C282.537 127.937 282.342 128.961 282.342 129.871C282.342 130.911 282.716 131.431 283.463 131.431C284.211 131.431 285.039 131.074 285.95 130.358C286.86 129.611 287.769 128.685 288.68 127.58C289.622 126.474 290.516 125.353 291.361 124.216C292.206 123.046 292.937 122.055 293.555 121.242C293.652 121.08 293.783 120.998 293.945 120.998C294.075 121.031 294.319 121.112 294.676 121.242C295.066 121.34 295.423 121.502 295.748 121.73C296.074 121.958 296.236 122.25 296.236 122.607C296.236 123.03 296.008 123.615 295.554 124.362C295.099 125.078 294.627 125.858 294.14 126.702C293.685 127.547 293.457 128.327 293.457 129.042C293.457 129.465 293.571 129.871 293.798 130.261C294.026 130.618 294.399 130.797 294.92 130.797C295.7 130.797 296.788 130.228 298.186 129.091C299.616 127.921 301.062 125.955 302.525 123.192L303.451 124.118C302.248 126.784 300.754 128.945 298.966 130.602C297.178 132.26 295.374 133.088 293.555 133.088C292.223 133.088 291.231 132.666 290.581 131.821C289.931 130.976 289.573 130.066 289.508 129.091V128.847C288.208 130.407 287.006 131.642 285.901 132.552C284.828 133.463 283.674 133.917 282.44 133.917ZM311.023 111.102C310.406 111.102 309.837 110.956 309.317 110.663C308.829 110.338 308.586 109.851 308.586 109.201C308.586 108.421 309.009 107.755 309.853 107.202C310.699 106.65 311.577 106.373 312.486 106.373C313.071 106.373 313.558 106.503 313.948 106.763C314.371 107.023 314.582 107.495 314.582 108.177C314.582 108.86 314.209 109.526 313.461 110.176C312.714 110.793 311.901 111.102 311.023 111.102ZM305.271 133.088C303.841 133.088 302.769 132.666 302.053 131.821C301.339 130.976 300.981 129.953 300.981 128.75C300.981 128.003 301.111 127.059 301.371 125.922C301.631 124.785 301.989 123.598 302.443 122.363C302.931 121.096 303.484 119.91 304.101 118.805C304.719 117.7 305.385 116.806 306.099 116.123C306.815 115.408 307.53 115.051 308.244 115.051C308.634 115.051 308.976 115.181 309.268 115.441C309.561 115.668 309.707 116.01 309.707 116.465C309.707 116.887 309.447 117.521 308.927 118.366C308.439 119.211 307.854 120.186 307.172 121.291C306.522 122.396 305.937 123.549 305.417 124.752C304.929 125.922 304.686 127.043 304.686 128.116C304.686 129.156 304.865 129.855 305.222 130.212C305.612 130.538 306.165 130.7 306.879 130.7C307.985 130.7 309.188 130.148 310.487 129.042C311.787 127.937 313.137 126.004 314.533 123.241L315.264 124.021C314.127 126.881 312.681 129.107 310.926 130.7C309.171 132.293 307.286 133.088 305.271 133.088ZM318.977 134.112C317.352 134.112 316.036 133.771 315.028 133.088C314.053 132.439 313.355 131.61 312.932 130.602C312.509 129.563 312.298 128.506 312.298 127.433C312.298 126.491 312.428 125.76 312.688 125.24C312.948 124.719 313.273 124.346 313.663 124.118C314.053 123.859 314.41 123.664 314.736 123.533C315.093 123.403 315.353 123.257 315.516 123.095C316.328 122.25 317.157 121.275 318.002 120.17C318.879 119.032 319.626 117.781 320.244 116.416V115.928C320.244 114.628 320.455 113.718 320.878 113.198C321.333 112.646 321.853 112.37 322.438 112.37C322.828 112.37 323.105 112.467 323.267 112.662C323.462 112.857 323.575 113.085 323.608 113.345C323.608 113.54 323.559 113.767 323.462 114.027C323.397 114.287 323.364 114.645 323.364 115.1C323.364 116.075 323.592 117.196 324.047 118.463C324.534 119.698 325.006 121.015 325.461 122.412C325.948 123.81 326.192 125.24 326.192 126.702C326.192 127.092 326.176 127.449 326.143 127.775C326.11 128.1 326.061 128.408 325.997 128.701C327.005 128.441 327.996 127.888 328.971 127.043C329.946 126.166 330.872 124.883 331.749 123.192L332.334 123.631C331.716 125.483 330.823 126.979 329.653 128.116C328.483 129.221 327.118 129.904 325.558 130.163C325.038 131.496 324.177 132.488 322.974 133.137C321.804 133.787 320.472 134.112 318.977 134.112ZM322.146 128.603C322.21 128.376 322.243 128.116 322.243 127.823C322.276 127.498 322.292 127.254 322.292 127.092C322.259 125.63 322.064 124.183 321.707 122.753C321.35 121.323 320.991 119.861 320.634 118.366C320.049 119.373 319.367 120.462 318.587 121.632C317.807 122.802 317.076 123.744 316.393 124.46C316.913 125.337 317.676 126.166 318.684 126.946C319.692 127.726 320.845 128.278 322.146 128.603ZM318.636 131.967C319.285 131.967 319.887 131.805 320.439 131.48C320.991 131.154 321.43 130.684 321.756 130.066C320.423 129.773 319.221 129.253 318.148 128.506C317.076 127.759 316.247 126.995 315.662 126.215C315.207 126.312 314.979 126.751 314.979 127.531C314.979 128.603 315.288 129.611 315.906 130.553C316.523 131.496 317.433 131.967 318.636 131.967ZM336.019 133.771C333.939 133.771 332.331 133.202 331.192 132.065C330.088 130.959 329.535 129.563 329.535 127.872C329.535 126.443 329.893 124.931 330.607 123.338C331.356 121.713 332.347 120.202 333.581 118.805C334.817 117.375 336.182 116.221 337.676 115.343C339.172 114.466 340.667 114.027 342.161 114.027C343.007 114.027 343.803 114.255 344.55 114.71C345.33 115.132 345.72 115.993 345.72 117.293C345.72 118.528 345.363 119.682 344.648 120.755C343.933 121.827 342.974 122.786 341.771 123.631C340.57 124.476 339.236 125.175 337.774 125.727C336.344 126.248 334.897 126.589 333.435 126.751C333.403 126.881 333.37 127.028 333.337 127.19C333.337 127.32 333.337 127.547 333.337 127.872C333.337 128.034 333.354 128.327 333.386 128.75C333.452 129.14 333.598 129.563 333.825 130.017C334.053 130.472 334.427 130.862 334.946 131.187C335.467 131.513 336.182 131.675 337.091 131.675C338.456 131.675 339.821 131.301 341.186 130.553C342.584 129.773 343.885 128.75 345.086 127.482C346.322 126.215 347.346 124.801 348.158 123.241L349.133 124.021C348.255 125.971 347.118 127.677 345.72 129.14C344.355 130.602 342.828 131.739 341.137 132.552C339.48 133.365 337.774 133.771 336.019 133.771ZM333.971 124.947C334.817 124.85 335.759 124.557 336.799 124.07C337.84 123.582 338.83 122.964 339.772 122.217C340.747 121.47 341.545 120.657 342.161 119.78C342.779 118.87 343.087 117.96 343.087 117.05C343.087 116.692 343.023 116.448 342.892 116.318C342.763 116.188 342.551 116.123 342.259 116.123C341.512 116.123 340.732 116.4 339.919 116.952C339.107 117.472 338.31 118.171 337.53 119.048C336.75 119.893 336.052 120.836 335.434 121.876C334.817 122.915 334.329 123.939 333.971 124.947ZM356.632 111.102C356.015 111.102 355.446 110.956 354.925 110.663C354.438 110.338 354.194 109.851 354.194 109.201C354.194 108.421 354.617 107.755 355.462 107.202C356.307 106.65 357.185 106.373 358.094 106.373C358.679 106.373 359.167 106.503 359.557 106.763C359.979 107.023 360.19 107.495 360.19 108.177C360.19 108.86 359.817 109.526 359.069 110.176C358.322 110.793 357.509 111.102 356.632 111.102ZM350.879 133.088C349.449 133.088 348.377 132.666 347.661 131.821C346.947 130.976 346.589 129.953 346.589 128.75C346.589 128.003 346.719 127.059 346.979 125.922C347.24 124.785 347.597 123.598 348.051 122.363C348.539 121.096 349.092 119.91 349.709 118.805C350.327 117.7 350.994 116.806 351.708 116.123C352.423 115.408 353.139 115.051 353.853 115.051C354.243 115.051 354.584 115.181 354.877 115.441C355.169 115.668 355.315 116.01 355.315 116.465C355.315 116.887 355.056 117.521 354.535 118.366C354.048 119.211 353.463 120.186 352.78 121.291C352.131 122.396 351.546 123.549 351.025 124.752C350.538 125.922 350.294 127.043 350.294 128.116C350.294 129.156 350.473 129.855 350.83 130.212C351.22 130.538 351.774 130.7 352.488 130.7C353.593 130.7 354.796 130.148 356.095 129.042C357.396 127.937 358.745 126.004 360.142 123.241L360.873 124.021C359.736 126.881 358.289 129.107 356.534 130.7C354.779 132.293 352.895 133.088 350.879 133.088Z" fill="#E5BD54"/>
</g>
<defs>
<radialGradient id="paint0_radial" cx="0" cy="0" r="1" gradientUnits="userSpaceOnUse" gradientTransform="translate(256 133.88) rotate(90.0093) scale(377.327 721.508)">
<stop stop-color="#CC0202"/>
<stop offset="1"/>
</radialGradient>
<clipPath id="clip0">
<rect width="512" height="267.761" fill="white"/>
</clipPath>
</defs>
</svg>
