<svg width="548" height="854" viewBox="0 0 548 854" fill="none" xmlns="http://www.w3.org/2000/svg">
<path d="M111.772 748.041C119.754 748.354 127.776 748.457 135.29 751.917C136.037 752.259 136.772 752.597 137.52 752.939C137.531 752.944 137.545 752.956 137.564 752.958C148.579 756.812 158.827 762.536 169.578 767.372C180.573 772.31 191.098 770.433 200.443 763.797C208.387 758.164 215.444 751.272 222.897 744.943C222.757 744.669 222.62 744.406 222.48 744.133C215.071 744.163 207.629 744.598 200.25 744.101C181.208 742.816 162.529 739.019 144.745 732.013C136.752 728.863 128.989 725.129 121.543 720.843C114.009 716.506 107.168 711.277 99.9355 706.493C97.965 705.19 95.7699 703.519 93.3313 705.629C86.2642 711.717 79.321 717.929 74.2445 725.88C71.4372 730.271 68.6097 734.568 68.2344 740.025C68.2298 740.037 68.233 740.044 68.2363 740.052C68.4034 741.699 69.0212 743.259 70.176 744.433C71.1799 745.439 72.4797 746.076 73.843 746.512C73.8544 746.517 73.8623 746.514 73.8725 746.518C74.6046 746.692 75.3416 746.81 76.0704 746.865C80.2961 747.191 84.5339 747.501 88.7656 747.751C88.7846 747.752 88.7919 747.749 88.803 747.754C89.1114 747.745 89.4231 747.745 89.7317 747.737C96.993 747.595 104.281 747.561 111.522 748.034C111.605 748.036 111.688 748.038 111.772 748.041Z" fill="#9A0100"/>
<path d="M85.0652 655.16C85.6026 655.194 86.1849 655.183 86.6978 655.026C91.1687 653.681 95.5918 652.155 100.105 650.957C104.192 649.882 108.354 649.077 112.51 648.303C115.418 647.769 118.37 647.502 121.694 647.063C121.132 646.039 120.956 645.525 120.629 645.156C111.881 635.276 102.385 625.942 94.8118 615.085C92.8066 612.21 90.868 608.992 91.0012 605.489C91.1694 601.037 94.7704 597.302 98.8899 595.603C102.883 593.955 107.479 595.276 111.324 593.559C115.198 591.83 117.492 587.202 118.102 583.215C118.923 577.853 117.745 572.385 118.029 566.968C118.395 559.986 121.453 553.274 126.166 548.152C132.158 541.638 137.52 541.29 145.334 538.763C148.397 537.773 151.31 535.974 153.019 533.246C160.298 521.636 144.836 521.784 138.08 521.993C126.723 522.344 115.695 527.344 107.182 534.73C95.7781 544.623 88.3894 558.385 83.0801 572.517C77.7707 586.65 74.3014 601.41 69.2525 615.638C67.3634 620.961 65.2336 626.295 64.7618 631.924C63.7714 643.715 73.2641 654.328 85.0652 655.16Z" fill="#9A0100"/>
<path d="M142.025 551.439C135.013 554.403 129.518 559.501 127.803 566.843C125.856 575.198 124.93 577.728 133.893 580.945C137.066 582.073 140.418 582.705 143.681 583.565C143.686 583.755 143.684 583.949 143.683 584.142C138.344 585.075 133.006 586.008 127.424 586.996C126.858 588.844 126.171 591.128 125.342 593.847C136.252 592.325 146.662 592.587 157.793 589.826C155.528 587.543 154.107 585.949 152.52 584.531C147.792 580.286 144.794 575.343 146.865 568.818C147.797 565.882 149.148 562.893 151.029 560.5C154.896 555.59 159.249 551.056 163.689 546.045C162.43 545.951 161.289 545.79 160.161 545.789C153.545 545.802 147.875 548.973 142.025 551.439Z" fill="#9A0100"/>
<path d="M198.772 535.911C198.753 535.91 198.743 535.905 198.727 535.911C195.833 537.106 193.175 538.812 190.242 540.071C186.793 541.551 183.221 542.73 179.822 544.33C170.343 548.793 160.219 557.193 155.265 566.592C153.916 569.153 153.149 572.122 153.696 574.965C154.408 578.664 157.329 581.713 160.815 583.141C168.144 586.144 176.671 582.729 182.981 578.851C184.893 577.676 186.812 576.176 187.454 574.025C188.179 571.595 186.933 568.803 184.765 567.488C182.597 566.173 179.721 566.282 177.508 567.519C173.89 569.541 173.201 573.212 172.398 576.903C171.332 575.85 170.891 574.278 170.964 572.781C171.038 571.284 171.572 569.845 172.225 568.497C173.948 564.935 176.545 561.801 179.724 559.445C181.917 557.819 184.587 556.524 187.291 556.904C189.32 557.188 191.186 558.457 192.195 560.24C193.457 562.467 193.019 565.563 192.846 567.98C192.844 567.999 192.847 568.007 192.851 568.015C193.276 569.132 194.18 568.988 195.147 568.377C195.155 568.373 195.167 568.359 195.187 568.342C195.199 568.346 195.199 568.327 195.208 568.324C198.769 564.972 201.959 561.252 205.295 557.683C207.51 555.313 213.699 551.036 209.043 547.787C208.163 547.173 207.141 546.799 206.19 546.3C204.229 545.269 202.595 543.657 201.477 541.75C201.106 541.118 200.832 539.827 200.473 538.617C200.085 537.298 199.595 536.074 198.772 535.911Z" fill="#9A0100"/>
<path d="M152.099 645.19C152.638 648.003 153.279 650.416 157.043 651.18C163.235 652.444 169.3 654.422 175.332 656.385C179.455 657.725 179.936 657.315 181.429 653.249C183.774 646.876 186.447 640.587 189.438 634.488C193.05 627.142 197.429 620.165 200.919 612.768C203.735 606.825 205.813 600.516 208.066 594.319C211.7 584.277 213.922 573.927 214.183 563.225C214.241 560.826 213.241 558.556 212.542 556.302C213.112 558.137 205.348 565.931 204.052 567.386C200.773 571.064 197.211 574.487 193.418 577.631C185.819 583.931 177.294 589.108 168.226 593.002C149.275 601.142 131.581 601.455 111.644 599.454C107.346 599.021 102.547 602.896 102.61 606.841C102.68 610.848 103.76 614.657 106.434 617.771C109.991 621.914 113.659 625.947 117.266 630.032C121.955 635.358 126.618 640.712 131.328 646.02C131.74 646.482 132.329 647 132.905 647.083C137.759 647.773 142.629 648.372 147.958 649.057C145.358 633.657 134.742 625.179 123.169 617.269C128.188 618.138 132.969 619.251 137.637 620.734C144.05 622.777 148.36 627.187 150.111 633.682C151.116 637.424 151.354 641.371 152.099 645.19ZM115.453 607.226C117.778 607.191 120.166 606.799 122.415 607.2C134.341 609.311 146.194 610.133 158.322 608.474C169.229 606.99 179.134 603.167 188.616 598.017C192.579 595.864 196.164 593.023 200.453 590.13C200.471 596.562 197.198 600.934 193.683 604.278C188.882 608.86 183.352 613.432 177.266 615.729C166.947 619.63 156.125 620.97 145.046 616.718C135.502 613.05 125.475 610.631 115.453 607.226Z" fill="#9A0100"/>
<path d="M191.41 657.271C191.453 657.197 191.494 657.121 191.534 657.045C192.429 655.345 192.693 653.174 193.256 651.348C195.386 644.422 198.097 637.336 201.982 631.191C205.406 625.775 210.661 621.341 214.875 616.432C223.939 605.875 232.029 593.877 234.569 579.949C236.394 569.949 235.231 559.631 233.18 549.673C232.117 544.519 230.718 539.21 227.3 535.209C224.084 531.443 210.26 526.475 208.125 533.864C206.755 538.608 214.514 543.814 216.394 547.537C220.108 554.895 221.457 563.398 220.855 571.578C219.902 584.523 214.587 596.732 208.616 608.258C204.122 616.933 199.193 625.403 195.245 634.352C191.832 642.09 186.92 651.188 189.346 659.896C189.225 659.427 191.14 657.738 191.41 657.271Z" fill="#9A0100"/>
<path d="M199.44 662.627C212.065 663.781 224.733 664.207 237.426 664.569C241.617 664.688 246.04 664.286 250.03 662.995C253.857 661.756 257.287 659.7 259.729 656.503C263.127 652.056 263.988 646.174 263.984 640.579C263.977 631.679 261.979 622.807 258.306 614.708C255.682 608.921 249.705 596.407 242.934 594.478C239.941 593.625 239.961 595.682 238.327 598.396C232.226 608.537 223.389 616.629 215.419 625.247C212.087 628.85 188.158 661.622 199.44 662.627Z" fill="#9A0100"/>
<path d="M103.707 672.474C112.345 670.992 121.095 669.972 129.87 670.009C134.29 670.028 138.712 670.318 143.086 670.954C147.371 671.578 151.03 673.197 155.106 674.582C155.875 674.843 157.239 674.877 156.626 675.869C156.302 676.394 149.638 675.721 148.736 675.72C145.996 675.719 143.256 675.771 140.518 675.876C135.041 676.085 129.573 676.504 124.129 677.133C113.637 678.342 103.468 680.572 93.2463 683.09C91.4044 683.543 87.8277 685.136 85.9122 684.582C86.1848 685.02 86.3137 685.287 86.4768 685.459C86.5047 685.483 86.5337 685.509 86.5628 685.533C94.4937 692.41 103.963 697.661 113.069 702.744C121.981 707.718 131.165 712.202 140.566 716.174C150.157 720.229 159.975 723.751 169.958 726.716C175.001 728.214 180.085 729.571 185.204 730.783C190.088 731.94 194.824 732.467 199.722 733.255C209.92 734.889 220.195 734.694 230.424 733.342C233.65 732.92 236.965 732.121 240.283 731.01C248.498 744.922 260.443 766.874 267.846 788.199L292.996 779.467C284.869 756.061 272.208 732.682 263.392 717.744C273.305 709.218 280.699 698.007 281.877 685.945C282.394 680.651 279.533 667.031 272.655 665.539C271.826 665.358 270.94 665.355 269.993 665.563C226.314 675.163 185.009 666.835 141.895 657.97C136.89 657.289 131.861 656.797 126.805 656.548C116.085 656.023 105.237 656.761 94.8245 659.46C84.9345 662.025 75.378 665.93 67.6395 672.793C64.8497 675.267 63.2302 677.201 62.141 680.7C68.9411 680.326 76.0643 678.112 82.7242 676.685C89.7009 675.192 96.6751 673.681 103.707 672.474Z" fill="#9A0100"/>
<path d="M288.138 570.823C285.5 574.508 284.896 579.226 284.372 583.727C283.64 590.02 277.983 656.077 274.21 655.834C286.26 656.647 290.53 664.953 291.511 676.105C292.237 675.685 292.548 675.575 292.757 675.369C302.236 666.109 307.175 654.031 313.13 642.569C316.3 636.46 319.541 630.368 323.148 624.519C330.468 612.675 339.893 602.64 350.614 593.784C354.451 590.619 354.399 587.632 350.346 584.685C347.193 582.383 343.74 580.491 340.449 578.368C333.348 573.774 325.326 571.588 317.314 569.297C309.75 567.135 293.611 563.176 288.138 570.823Z" fill="#9A0100"/>
<path d="M172.376 533.662C178.002 531.556 185.39 527.859 186.3 527.194C192.528 522.652 196.631 516.215 203.315 512.118C211.102 507.345 219.992 504.661 229.159 505.987C237.277 507.161 245.363 508.614 253.446 509.994C254.235 510.126 254.943 510.641 256.611 511.391C253.453 512.074 251.285 512.841 249.076 512.957C242.32 513.302 235.486 512.9 228.802 513.783C224.685 514.33 221.003 516.739 217.255 518.362C218.427 520.122 219.871 520.397 221.8 521.237C224.038 522.213 226.174 523.422 228.168 524.832C232.154 527.652 235.574 531.282 238.097 535.466C240.782 539.918 242.44 544.973 242.981 550.141C243.551 555.562 242.541 560.97 242.555 566.399C242.565 570.55 242.536 574.708 242.91 578.828C243.57 586.233 248.317 591.269 253.469 595.98C254.411 596.838 255.464 597.586 256.532 598.437C256.206 592.755 255.509 587.502 256.152 581.771C256.795 576.049 258.03 570.418 259.087 564.763C260.83 555.449 262.06 545.693 259.341 536.616C258.27 533.042 257.329 528.837 261.487 526.847C264.194 530.095 266.798 533.358 268.43 537.303C268.515 537.442 268.587 537.595 268.665 537.737C273.461 546.576 268.328 557.257 266.481 566.187C264.407 576.217 263.331 586.49 263.787 596.737C263.851 598.171 263.946 599.601 264.07 601.031C264.589 606.963 265.641 612.835 266.951 618.641C267.62 621.605 268.358 624.553 269.128 627.492C269.774 629.957 270.123 633.957 271.55 636C272.25 635.536 272.225 633.791 272.245 632.951C272.367 627.48 272.107 621.973 272.61 616.536C273.735 604.243 274.956 591.958 276.18 579.68C277.384 567.596 280.679 556.003 282.991 544.116C285.365 531.9 286.317 518.887 281.728 507.319C277.14 495.751 265.735 486.156 253.325 487.089C236.327 488.367 218.436 491.724 202.273 497.123C185.612 502.689 161.829 512.885 165.901 534.651C166.092 535.658 168.897 534.963 172.376 533.662Z" fill="#9A0100"/>
<path d="M270.527 491.961C270.458 491.881 270.386 491.807 270.316 491.727C266.987 488.662 263.054 486.439 258.427 486.064C256.709 485.924 255.005 486.009 253.255 486.086C252.858 486.166 252.458 486.254 252.053 486.357C251.921 486.393 251.786 486.422 251.654 486.457C253.925 486.16 256.211 486.03 258.489 486.217C263.199 486.599 267.16 488.813 270.527 491.961Z" fill="#9A0100"/>
<path d="M524.74 194.355C516.28 187.426 509.346 175.877 495.494 161.255C481.631 146.629 477.788 132.004 467.79 121.229C457.771 110.452 440.076 111.994 436.222 111.218C432.368 110.452 432.368 106.603 425.45 104.295C418.516 101.984 410.056 86.5867 406.965 84.2777C403.891 81.9697 400.81 87.3577 396.957 86.5867C393.113 85.8207 396.193 68.1157 394.662 65.8087C393.113 63.4977 398.516 50.4117 394.662 32.7067C390.808 14.9997 370.801 -4.24131 349.243 1.14569C292.282 -8.86331 289.981 49.6397 294.588 62.7277C299.211 75.8087 306.134 70.4247 307.676 75.0427C309.219 79.6597 315.373 81.9687 316.916 85.8167C318.448 89.6657 328.456 107.371 332.31 111.217C336.153 115.071 346.941 121.997 349.242 121.997C351.548 121.997 351.548 125.848 346.941 128.923C342.319 132.003 347.285 134.667 342.091 139.868C336.901 145.06 333.424 157.189 338.629 171.036C343.818 184.898 352.481 224.73 347.285 242.049C342.09 259.365 326.505 273.214 321.299 280.147C316.114 287.076 326.505 309.59 326.505 309.59C326.505 309.59 333.423 337.299 335.172 345.955C336.9 354.612 331.705 358.084 328.227 366.741C324.776 375.408 287.377 502.862 287.377 502.862C287.377 502.862 269.995 570.265 278.201 585.856C286.407 601.425 342.381 658.809 349.866 662.981C357.346 667.148 358.062 668.95 358.608 672.481C359.159 676.027 357.389 705.56 357.389 705.56C357.389 705.56 349.38 717.063 350.731 721.543C352.067 726.028 347.11 732.574 347.11 732.574C347.11 732.574 340.277 740.701 335.172 748.971C330.078 757.241 325.121 763.777 313.31 768.839C301.51 773.88 298.441 778.843 297.99 784.048C297.523 789.243 322.724 800.222 344.209 794.289C365.689 788.373 374.823 783.946 382.069 781.089C389.289 778.253 392.12 775.894 392.735 768.961C393.36 762.037 392.486 752.341 392.486 752.341C392.486 752.341 388.934 743.293 389.247 739.841C389.56 736.374 396.483 736.995 396.006 732.589C395.544 728.184 400.305 704.175 400.305 704.175C406.847 709.116 411.411 716.506 411.024 720.836C410.637 725.162 409.232 731.157 411.597 733.989C413.972 736.814 410.733 733.909 413.972 736.814C417.189 739.719 422.406 749.791 421.553 759.328C420.699 768.849 416.93 781.603 420.959 785.452C424.972 789.311 423.409 797.024 429.865 793.234C436.312 789.449 453.853 720.307 454.536 702.908C455.225 685.51 459.847 672.825 454.102 668.827C448.35 664.819 440.478 664.979 435.283 664.517C430.093 664.056 429.781 667.513 429.781 667.513L421.421 663.277C421.421 663.277 424.252 660.908 420.949 658.877C417.631 656.82 415.898 647.072 416.284 642.735C416.67 638.415 419.533 606.359 421.887 599.59C424.241 592.81 422.115 587.381 424.22 583.209C426.356 579.042 431.514 560.298 432.145 553.359C432.76 546.436 436.02 510.06 437.971 498.022C439.926 485.967 446.405 454.251 447.194 443.834C449.685 410.84 456.228 355.227 453.926 347.535C451.62 339.848 458.549 343.692 463.171 339.075C467.788 334.458 469.326 303.658 469.326 303.658C469.326 303.658 474.712 302.895 474.712 298.272C474.712 293.649 485.484 295.197 492.418 290.58C499.346 285.952 543.224 245.158 547.067 237.461C550.922 229.763 533.206 201.28 524.74 194.355ZM342.902 575.057C341.63 569.697 334.622 569.951 334.935 566.479C335.248 563.012 333.822 559.403 333.822 559.403C333.822 559.403 336.489 549.156 341.758 539.163C347.006 529.154 358.064 493.483 358.064 493.483C366.625 475.915 373.718 484.397 371.927 494.718C370.119 505.034 373.077 540.211 371.598 547.071C370.108 553.925 371.566 576.752 371.805 583.754C372.044 590.762 373.114 617.92 373.114 617.92C373.114 617.92 344.164 580.405 342.902 575.057ZM496.263 232.84C496.263 232.84 473.945 261.328 471.634 263.629C469.328 265.94 467.017 263.629 467.791 259.017C468.559 254.397 470.092 238.231 473.171 226.691C476.256 215.142 476.256 212.834 480.868 215.142C485.485 217.444 496.263 228.223 496.263 228.223V232.84V232.84Z" fill="#040000"/>
</svg>
