<!--?xml version="1.0" encoding="utf-8"?-->
<!-- Generator: Adobe Illustrator 22.1.0, SVG Export Plug-In . SVG Version: 6.00 Build 0)  -->
<svg version="1.1" id="_x31__1_" xmlns="http://www.w3.org/2000/svg" xmlns:xlink="http://www.w3.org/1999/xlink" x="0px" y="0px" viewBox="0 0 272.972 800" style="enable-background:new 0 0 272.972 800;" xml:space="preserve">
<style type="text/css">
	.st0{fill:#040000;}
</style>
<g>
	<path class="st0" d="M249.421,196.355c-8.46-6.929-15.394-18.478-29.246-33.1c-13.863-14.626-17.706-29.251-27.704-40.026
		c-10.019-10.777-27.714-9.235-31.568-10.011c-3.854-0.766-3.854-4.615-10.772-6.923c-6.934-2.311-15.394-17.708-18.485-20.017
		c-3.074-2.308-6.155,3.08-10.008,2.309c-3.844-0.766-0.764-18.471-2.295-20.778c-1.549-2.311,3.854-15.397,0-33.102
		C115.489,17,95.482-2.241,73.924,3.146C16.963-6.863,14.662,51.64,19.269,64.728c4.623,13.081,11.546,7.697,13.088,12.315
		c1.543,4.617,7.697,6.926,9.24,10.774c1.532,3.849,11.54,21.554,15.394,25.4c3.843,3.854,14.631,10.78,16.932,10.78
		c2.306,0,2.306,3.851-2.301,6.926c-4.622,3.08,0.344,5.744-4.85,10.945c-5.19,5.192-8.667,17.321-3.462,31.168
		c5.189,13.862,13.852,53.694,8.656,71.013c-5.195,17.316-20.78,31.165-25.986,38.098c-5.185,6.929,5.206,29.443,5.206,29.443
		s6.918,27.709,8.667,36.365c1.728,8.657-3.467,12.129-6.945,20.786c-3.451,8.667-40.85,136.121-40.85,136.121
		s-17.382,67.403-9.176,82.994c8.206,15.569,64.18,72.953,71.665,77.125c7.48,4.167,8.196,5.969,8.742,9.5
		c0.551,3.546-1.219,33.079-1.219,33.079s-8.009,11.503-6.658,15.983c1.336,4.485-3.621,11.031-3.621,11.031
		s-6.833,8.127-11.938,16.397c-5.094,8.27-10.051,14.806-21.862,19.868c-11.8,5.041-14.869,10.004-15.32,15.209
		c-0.467,5.195,24.734,16.174,46.219,10.241c21.48-5.916,30.614-10.343,37.86-13.2c7.22-2.836,10.051-5.195,10.666-12.128
		c0.625-6.924-0.249-16.62-0.249-16.62s-3.552-9.048-3.239-12.5c0.313-3.467,7.236-2.846,6.759-7.252
		c-0.462-4.405,4.299-28.414,4.299-28.414c6.542,4.941,11.106,12.331,10.719,16.661c-0.387,4.326-1.792,10.321,0.573,13.153
		c2.375,2.825-0.864-0.08,2.375,2.825c3.217,2.905,8.434,12.977,7.581,22.514c-0.854,9.521-4.623,22.275-0.594,26.124
		c4.013,3.859,2.45,11.572,8.906,7.782c6.447-3.785,23.988-72.927,24.671-90.326c0.689-17.398,5.311-30.083-0.434-34.081
		c-5.752-4.008-13.624-3.848-18.819-4.31c-5.19-0.461-5.502,2.996-5.502,2.996l-8.36-4.236c0,0,2.831-2.369-0.472-4.4
		c-3.318-2.057-5.051-11.805-4.665-16.142c0.386-4.32,3.249-36.376,5.603-43.145c2.354-6.78,0.228-12.209,2.333-16.381
		c2.136-4.167,7.294-22.911,7.925-29.85c0.615-6.923,3.875-43.299,5.826-55.337c1.955-12.055,8.434-43.771,9.223-54.188
		c2.491-32.994,9.034-88.607,6.732-96.299c-2.306-7.687,4.623-3.843,9.245-8.46c4.617-4.617,6.155-35.417,6.155-35.417
		s5.386-0.763,5.386-5.386c0-4.623,10.772-3.075,17.706-7.692c6.928-4.628,50.806-45.422,54.649-53.119
		C275.603,231.763,257.887,203.28,249.421,196.355z M67.583,577.057c-1.272-5.36-8.28-5.106-7.967-8.578
		c0.313-3.467-1.113-7.076-1.113-7.076s2.667-10.247,7.936-20.24c5.248-10.009,16.306-45.68,16.306-45.68
		c8.561-17.568,15.654-9.086,13.863,1.235c-1.808,10.316,1.15,45.493-0.329,52.353c-1.49,6.854-0.032,29.681,0.207,36.683
		c0.239,7.008,1.309,34.166,1.309,34.166S68.845,582.405,67.583,577.057z M220.944,234.84c0,0-22.318,28.488-24.629,30.789
		c-2.306,2.311-4.617,0-3.843-4.612c0.768-4.62,2.301-20.786,5.38-32.326c3.085-11.549,3.085-13.857,7.697-11.549
		c4.617,2.302,15.395,13.081,15.395,13.081V234.84z"></path>
</g>
</svg>
