<svg width="632" height="801" viewBox="0 0 632 801" fill="none" xmlns="http://www.w3.org/2000/svg">
<path d="M114.26 695.709C122.246 695.906 130.269 695.892 137.832 699.243C138.584 699.574 139.324 699.901 140.077 700.232C140.088 700.237 140.103 700.249 140.121 700.25C151.191 703.944 161.521 709.519 172.341 714.198C183.407 718.975 193.903 716.945 203.151 710.175C211.012 704.427 217.968 697.433 225.329 690.996C225.185 690.725 225.044 690.463 224.9 690.193C217.492 690.33 210.057 690.873 202.671 690.483C183.614 689.475 164.881 685.951 146.997 679.203C138.959 676.17 131.143 672.55 123.635 668.372C116.038 664.145 109.122 659.016 101.821 654.338C99.832 653.063 97.6129 651.425 95.2052 653.57C88.2273 659.76 81.3751 666.072 76.4148 674.096C73.6716 678.527 70.9069 682.865 70.6109 688.327C70.6065 688.339 70.6099 688.346 70.6132 688.354C70.8042 689.998 71.4447 691.549 72.6165 692.707C73.6348 693.698 74.9438 694.316 76.3133 694.732C76.3247 694.737 76.3325 694.733 76.3429 694.737C77.0774 694.901 77.816 695.008 78.5456 695.052C82.7755 695.317 87.0174 695.566 91.2523 695.753C91.2713 695.755 91.2785 695.751 91.2897 695.756C91.598 695.743 91.9096 695.738 92.2181 695.725C99.4765 695.478 106.763 695.339 114.01 695.706C114.094 695.706 114.176 695.708 114.26 695.709Z" fill="#9A0100"/>
<path d="M86.2065 603.226C86.7443 603.253 87.3264 603.233 87.837 603.069C92.2879 601.659 96.6883 600.068 101.183 598.805C105.254 597.67 109.404 596.805 113.549 595.971C116.448 595.395 119.397 595.085 122.713 594.598C122.137 593.582 121.954 593.07 121.621 592.706C112.731 582.955 103.099 573.76 95.3695 563.014C93.3227 560.168 91.3375 556.979 91.4198 553.474C91.5233 549.02 95.0696 545.234 99.164 543.474C103.133 541.769 107.747 543.023 111.567 541.25C115.416 539.465 117.642 534.804 118.194 530.808C118.937 525.436 117.68 519.985 117.885 514.565C118.149 507.578 121.109 500.822 125.747 495.632C131.644 489.031 137 488.605 144.777 485.965C147.825 484.931 150.711 483.089 152.381 480.337C159.491 468.623 144.032 468.996 137.28 469.302C125.929 469.818 114.975 474.979 106.57 482.487C95.3114 492.545 88.1236 506.413 83.0202 520.621C77.9169 534.829 74.6625 549.639 69.8209 563.938C68.0094 569.288 65.9574 574.652 65.5674 580.287C64.7486 592.091 74.3945 602.566 86.2065 603.226Z" fill="#9A0100"/>
<path d="M141.653 498.688C134.685 501.755 129.264 506.932 127.656 514.298C125.831 522.68 124.942 525.223 133.95 528.31C137.139 529.391 140.5 529.974 143.776 530.787C143.784 530.977 143.784 531.171 143.786 531.364C138.461 532.374 133.138 533.384 127.571 534.454C127.031 536.31 126.377 538.604 125.588 541.335C136.474 539.654 146.887 539.764 157.977 536.842C155.68 534.593 154.235 533.019 152.628 531.625C147.838 527.448 144.769 522.55 146.745 515.995C147.634 513.046 148.941 510.038 150.787 507.618C154.583 502.652 158.869 498.055 163.236 492.98C161.976 492.904 160.833 492.76 159.705 492.776C153.089 492.884 147.467 496.137 141.653 498.688Z" fill="#9A0100"/>
<path d="M198.168 482.336C198.149 482.335 198.139 482.33 198.123 482.337C195.246 483.574 192.614 485.319 189.7 486.619C186.272 488.149 182.717 489.38 179.342 491.03C169.929 495.63 159.928 504.176 155.112 513.646C153.8 516.227 153.076 519.207 153.664 522.041C154.43 525.729 157.396 528.736 160.902 530.113C168.274 533.009 176.75 529.47 183.003 525.501C184.898 524.298 186.794 522.771 187.405 520.611C188.095 518.171 186.809 515.397 184.621 514.114C182.435 512.83 179.561 512.981 177.366 514.25C173.777 516.324 173.142 520.005 172.393 523.707C171.311 522.67 170.848 521.104 170.899 519.606C170.951 518.108 171.464 516.662 172.098 515.305C173.769 511.718 176.32 508.546 179.464 506.144C181.634 504.487 184.284 503.153 186.994 503.494C189.026 503.749 190.91 504.99 191.945 506.758C193.239 508.967 192.847 512.068 192.709 514.488C192.707 514.507 192.711 514.515 192.714 514.523C193.156 515.633 194.057 515.476 195.015 514.851C195.023 514.848 195.035 514.833 195.055 514.815C195.066 514.82 195.067 514.801 195.075 514.797C198.587 511.394 201.723 507.628 205.006 504.011C207.187 501.609 213.313 497.242 208.611 494.062C207.722 493.46 206.694 493.102 205.737 492.616C203.761 491.614 202.103 490.026 200.958 488.135C200.578 487.508 200.285 486.222 199.908 485.017C199.501 483.704 198.993 482.487 198.168 482.336Z" fill="#9A0100"/>
<path d="M153.089 592.283C153.669 595.088 154.345 597.492 158.12 598.201C164.329 599.375 170.422 601.263 176.482 603.139C180.624 604.419 181.1 604.002 182.533 599.914C184.785 593.508 187.366 587.181 190.268 581.039C193.773 573.641 198.05 566.602 201.433 559.155C204.162 553.171 206.148 546.833 208.31 540.603C211.798 530.509 213.87 520.129 213.975 509.424C213.998 507.025 212.965 504.769 212.234 502.526C212.83 504.352 205.18 512.258 203.905 513.732C200.681 517.457 197.168 520.931 193.421 524.13C185.915 530.54 177.466 535.84 168.456 539.866C149.625 548.28 131.937 548.851 111.974 547.139C107.669 546.769 102.927 550.713 103.048 554.657C103.176 558.663 104.312 562.456 107.03 565.531C110.647 569.621 114.373 573.601 118.039 577.632C122.805 582.889 127.546 588.175 132.332 593.414C132.751 593.871 133.348 594.38 133.925 594.454C138.787 595.074 143.666 595.602 149.005 596.209C146.181 580.849 135.443 572.526 123.756 564.786C128.787 565.581 133.584 566.625 138.273 568.039C144.715 569.99 149.088 574.336 150.934 580.804C151.993 584.532 152.288 588.475 153.089 592.283ZM115.895 554.856C118.219 554.787 120.601 554.36 122.855 554.728C134.812 556.666 146.675 557.315 158.778 555.48C169.662 553.837 179.51 549.871 188.916 544.583C192.847 542.374 196.391 539.481 200.637 536.526C200.749 542.957 197.54 547.376 194.074 550.771C189.34 555.422 183.877 560.073 177.825 562.459C167.563 566.51 156.762 568.007 145.623 563.917C136.027 560.388 125.965 558.115 115.895 554.856Z" fill="#9A0100"/>
<path d="M192.571 603.791C192.613 603.715 192.653 603.64 192.692 603.563C193.563 601.849 193.795 599.675 194.331 597.841C196.361 590.885 198.968 583.76 202.763 577.559C206.108 572.095 211.298 567.584 215.44 562.615C224.35 551.927 232.265 539.813 234.602 525.85C236.281 515.823 234.968 505.523 232.773 495.597C231.636 490.459 230.159 485.17 226.683 481.219C223.412 477.501 209.518 472.734 207.491 480.154C206.19 484.917 214.023 490.01 215.957 493.705C219.778 501.008 221.251 509.49 220.767 517.678C220.003 530.635 214.866 542.921 209.063 554.532C204.695 563.272 199.891 571.813 196.073 580.818C192.772 588.605 187.993 597.773 190.545 606.445C190.418 605.978 192.309 604.262 192.571 603.791Z" fill="#9A0100"/>
<path d="M200.679 609.03C213.319 610 225.991 610.241 238.689 610.419C242.881 610.477 247.297 610.011 251.268 608.662C255.077 607.368 258.477 605.262 260.872 602.029C264.205 597.534 264.98 591.64 264.895 586.046C264.759 577.146 262.632 568.304 258.842 560.26C256.134 554.512 249.976 542.086 243.177 540.256C240.172 539.446 240.222 541.502 238.628 544.24C232.675 554.468 223.957 562.688 216.113 571.421C212.833 575.072 189.384 608.189 200.679 609.03Z" fill="#9A0100"/>
<path d="M105.099 620.267C113.714 618.659 122.448 617.512 131.224 617.422C135.643 617.376 140.069 617.602 144.452 618.175C148.745 618.736 152.427 620.302 156.523 621.628C157.296 621.877 158.66 621.891 158.062 622.892C157.746 623.421 151.072 622.845 150.171 622.858C147.43 622.896 144.691 622.989 141.956 623.133C136.482 623.422 131.021 623.92 125.586 624.628C115.113 625.99 104.978 628.367 94.7936 631.033C92.9585 631.513 89.4053 633.158 87.482 632.632C87.7609 633.066 87.8937 633.331 88.0593 633.5C88.0875 633.525 88.1169 633.55 88.1463 633.573C96.1763 640.334 105.721 645.447 114.9 650.397C123.883 655.241 133.131 659.591 142.589 663.427C152.239 667.341 162.106 670.72 172.131 673.54C177.195 674.964 182.299 676.248 187.435 677.385C192.335 678.47 197.078 678.929 201.988 679.645C212.208 681.131 222.479 680.786 232.687 679.286C235.907 678.817 239.21 677.97 242.512 676.811C250.928 690.603 263.191 712.378 270.903 733.593L295.923 724.497C287.457 701.211 274.457 678.019 265.425 663.21C275.213 654.541 282.443 643.224 283.446 631.146C283.885 625.846 280.827 612.268 273.928 610.876C273.097 610.707 272.21 610.717 271.267 610.939C227.732 621.173 186.311 613.446 143.072 605.209C138.057 604.601 133.022 604.182 127.963 604.006C117.236 603.637 106.401 604.533 96.0282 607.383C86.1765 610.092 76.6777 614.136 69.0399 621.11C66.2863 623.625 64.6951 625.582 63.6569 629.096C70.4508 628.623 77.5411 626.306 84.1795 624.782C91.1338 623.188 98.0853 621.575 105.099 620.267Z" fill="#9A0100"/>
<path d="M288.033 515.946C285.448 519.669 284.913 524.395 284.455 528.903C283.814 535.207 279.118 601.338 275.342 601.151C287.402 601.789 291.793 610.032 292.935 621.168C293.655 620.738 293.965 620.623 294.171 620.413C303.515 611.017 308.277 598.868 314.065 587.321C317.146 581.167 320.298 575.028 323.82 569.127C330.966 557.178 340.245 547.007 350.836 537.997C354.626 534.776 354.531 531.79 350.436 528.903C347.249 526.647 343.769 524.805 340.448 522.729C333.281 518.239 325.227 516.17 317.183 513.996C309.589 511.945 293.394 508.221 288.033 515.946Z" fill="#9A0100"/>
<path d="M171.742 480.472C177.337 478.284 184.67 474.48 185.57 473.802C191.731 469.17 195.741 462.674 202.364 458.48C210.082 453.594 218.932 450.781 228.117 451.974C236.25 453.03 244.357 454.366 252.46 455.628C253.25 455.749 253.966 456.253 255.644 456.979C252.497 457.707 250.34 458.506 248.133 458.654C241.383 459.097 234.543 458.795 227.873 459.774C223.764 460.381 220.118 462.843 216.394 464.521C217.591 466.264 219.04 466.517 220.98 467.33C223.233 468.272 225.386 469.451 227.399 470.832C231.426 473.594 234.898 477.173 237.482 481.32C240.231 485.732 241.963 490.763 242.58 495.922C243.228 501.335 242.297 506.757 242.389 512.185C242.46 516.335 242.492 520.493 242.925 524.608C243.693 532.003 248.513 536.968 253.732 541.605C254.686 542.448 255.751 543.181 256.831 544.017C256.422 538.34 255.649 533.097 256.208 527.357C256.768 521.627 257.921 515.978 258.896 510.309C260.503 500.97 261.591 491.198 258.741 482.161C257.618 478.603 256.616 474.412 260.745 472.362C263.499 475.57 266.15 478.795 267.839 482.716C267.926 482.854 268 483.006 268.08 483.147C273.004 491.915 268.027 502.669 266.31 511.625C264.382 521.685 263.455 531.972 264.061 542.211C264.146 543.644 264.26 545.073 264.406 546.501C265.011 552.425 266.148 558.281 267.542 564.067C268.255 567.021 269.036 569.957 269.848 572.886C270.529 575.34 270.936 579.335 272.394 581.357C273.086 580.883 273.036 579.139 273.044 578.298C273.086 572.826 272.746 567.323 273.171 561.88C274.117 549.571 275.159 537.271 276.204 524.976C277.232 512.875 280.359 501.236 282.497 489.317C284.694 477.067 285.456 464.042 280.7 452.541C275.944 441.041 264.4 431.613 252.005 432.727C235.028 434.252 217.187 437.869 201.105 443.502C184.526 449.309 160.895 459.85 165.282 481.555C165.488 482.559 168.283 481.823 171.742 480.472Z" fill="#9A0100"/>
<path d="M269.277 437.349C269.207 437.269 269.133 437.196 269.063 437.118C265.69 434.101 261.724 431.935 257.093 431.627C255.373 431.512 253.67 431.622 251.922 431.725C251.525 431.811 251.127 431.904 250.723 432.013C250.592 432.051 250.458 432.082 250.326 432.119C252.593 431.789 254.876 431.626 257.157 431.779C261.872 432.093 265.865 434.249 269.277 437.349Z" fill="#9A0100"/>
<path d="M249.894 764.571C261.096 755.132 266.99 739.802 273.476 731.549C279.962 723.295 282.32 718.578 284.684 719.755C287.038 720.932 300.008 670.232 302.958 653.13C305.907 636.033 320.646 587.095 341.874 564.686C350.685 555.378 362.089 530.829 365.095 497.118C360.607 496.649 357.203 496.288 357.203 496.288H342.465C342.465 496.288 376.664 357.725 380.2 340.625C383.735 323.526 378.428 330.602 378.428 330.602C378.428 330.602 346.006 311.735 344.825 307.017C343.643 302.297 327.137 278.124 330.673 250.416C334.209 222.702 330.082 193.809 329.492 190.273C328.906 186.733 334.209 154.304 351.897 147.816C369.585 141.331 380.792 126.59 387.273 124.82C393.763 123.052 400.248 119.514 402.607 108.902C399.662 97.7017 396.122 100.649 396.712 97.1087C394.939 103.594 384.853 88.2687 383.737 69.3977C382.56 49.3487 396.122 -20.2233 458.034 5.7197C487.511 3.9497 502.254 57.6067 476.312 87.6747C467.468 98.8797 461.569 103.6 464.514 110.085C460.392 109.494 459.21 101.827 459.21 101.827C459.21 101.827 455.669 106.547 457.442 110.671C459.21 114.797 470.413 115.391 475.721 117.747C481.024 120.106 499.894 130.718 504.02 131.899C506.177 132.513 509.764 135.709 512.714 140.286C520.681 147.514 528.212 159.048 534.496 170.599C538.922 167.226 541.929 165.155 542.758 165.042C547.578 164.395 576.23 162.841 583.264 163.628C590.293 164.411 631.802 249.725 631.802 249.725C632.186 256.89 631.924 259.232 624.112 265.478C616.295 271.727 561.065 309.468 536.052 331.597C532.451 334.783 528.845 337.561 525.276 339.984C547.109 385.851 577.317 451.581 576.548 463.857C567.704 468.575 554.729 470.933 554.138 472.701C553.552 474.473 548.834 484.495 548.834 484.495L526.429 488.621L519.222 488.405C515.508 512.668 511.996 535.917 511.686 539.917C511.095 547.584 512.277 565.271 515.221 580.014C518.171 594.753 508.15 627.77 497.533 646.053C486.921 664.332 472.178 728.598 472.178 728.598C472.178 728.598 471.592 735.674 471.592 741.573C471.592 747.463 473.355 749.826 469.82 765.751C466.284 781.666 462.748 788.151 442.697 794.046C422.655 799.945 408.503 791.691 416.756 779.899C425.009 768.105 428.549 748.65 434.444 739.214C440.338 729.779 462.748 663.145 463.335 642.512C463.926 621.874 466.284 586.499 469.234 577.064C472.179 567.629 467.077 538.977 464.512 526.354C462.501 516.431 461.722 505.736 461.684 495.232C458.739 493.923 453.759 491.935 452.133 492.751C449.778 493.928 429.728 501.004 429.728 501.004C429.728 501.004 427.88 500.784 425.399 500.498C419.144 516.934 412.856 531.513 407.913 538.739C400.644 549.365 402.605 560.554 397.301 565.862C391.993 571.17 383.735 601.242 368.997 621.289C354.259 641.331 311.806 712.087 313.575 729.775C315.343 747.463 312.393 761.029 302.963 762.211C297.064 763.979 291.761 766.923 290.579 774C289.397 781.076 270.533 792.87 252.254 787.567C233.974 782.258 238.692 774 249.894 764.571ZM517.581 155.503C517.576 160.222 515.039 173.669 511.766 188.867C517.74 183.934 523.363 179.357 528.15 175.552C524.723 167.529 521.177 161.048 517.581 155.503Z" fill="#040000"/>
</svg>
