<svg width="413" height="401" viewBox="0 0 413 401" fill="none" xmlns="http://www.w3.org/2000/svg">
<path d="M111.772 295.041C119.754 295.354 127.776 295.457 135.29 298.917C136.037 299.259 136.772 299.597 137.52 299.939C137.531 299.944 137.545 299.956 137.564 299.958C148.579 303.812 158.827 309.536 169.578 314.372C180.573 319.31 191.098 317.433 200.443 310.797C208.387 305.164 215.444 298.272 222.897 291.943C222.757 291.669 222.62 291.406 222.48 291.133C215.071 291.163 207.629 291.598 200.25 291.101C181.208 289.816 162.529 286.019 144.745 279.013C136.752 275.863 128.989 272.129 121.543 267.843C114.009 263.506 107.168 258.277 99.9355 253.493C97.965 252.19 95.7699 250.519 93.3313 252.629C86.2642 258.717 79.321 264.929 74.2445 272.88C71.4372 277.271 68.6097 281.568 68.2344 287.025C68.2298 287.037 68.233 287.044 68.2363 287.052C68.4034 288.699 69.0212 290.259 70.176 291.433C71.1799 292.439 72.4797 293.076 73.843 293.512C73.8544 293.517 73.8623 293.514 73.8725 293.518C74.6046 293.692 75.3416 293.81 76.0704 293.865C80.2961 294.191 84.5339 294.501 88.7656 294.751C88.7846 294.752 88.7919 294.749 88.803 294.754C89.1114 294.745 89.4231 294.745 89.7317 294.737C96.993 294.595 104.281 294.561 111.522 295.034C111.605 295.036 111.688 295.038 111.772 295.041Z" fill="#9A0100"/>
<path d="M85.0652 202.16C85.6026 202.194 86.1849 202.183 86.6978 202.026C91.1687 200.681 95.5918 199.155 100.105 197.957C104.192 196.882 108.354 196.077 112.51 195.303C115.418 194.769 118.37 194.502 121.694 194.063C121.132 193.039 120.956 192.525 120.629 192.156C111.881 182.276 102.385 172.942 94.8118 162.085C92.8066 159.21 90.868 155.992 91.0012 152.489C91.1694 148.037 94.7704 144.302 98.8899 142.603C102.883 140.955 107.479 142.276 111.324 140.559C115.198 138.83 117.492 134.202 118.102 130.215C118.923 124.853 117.745 119.385 118.029 113.968C118.395 106.986 121.453 100.274 126.166 95.1519C132.158 88.6377 137.52 88.2898 145.334 85.7628C148.397 84.7731 151.31 82.9736 153.019 80.2461C160.298 68.6364 144.836 68.7842 138.08 68.9927C126.723 69.3436 115.695 74.3444 107.182 81.73C95.7781 91.6233 88.3894 105.385 83.0801 119.517C77.7707 133.65 74.3014 148.41 69.2525 162.638C67.3634 167.961 65.2336 173.295 64.7618 178.924C63.7714 190.715 73.2641 201.328 85.0652 202.16Z" fill="#9A0100"/>
<path d="M142.025 98.4387C135.013 101.403 129.518 106.501 127.803 113.843C125.856 122.198 124.93 124.728 133.893 127.945C137.066 129.073 140.418 129.705 143.681 130.565C143.686 130.755 143.684 130.949 143.683 131.142C138.344 132.075 133.006 133.008 127.424 133.996C126.858 135.844 126.171 138.128 125.342 140.847C136.252 139.325 146.662 139.587 157.793 136.826C155.528 134.543 154.107 132.949 152.52 131.531C147.792 127.286 144.794 122.343 146.865 115.818C147.797 112.882 149.148 109.893 151.029 107.5C154.896 102.59 159.249 98.0556 163.689 93.0448C162.43 92.9509 161.289 92.7896 160.161 92.7891C153.545 92.8017 147.875 95.9726 142.025 98.4387Z" fill="#9A0100"/>
<path d="M198.772 82.9109C198.753 82.9096 198.743 82.9047 198.727 82.9112C195.833 84.1062 193.175 85.8124 190.242 87.0708C186.793 88.5506 183.221 89.7299 179.822 91.33C170.343 95.7931 160.219 104.193 155.265 113.592C153.916 116.153 153.149 119.122 153.696 121.965C154.408 125.664 157.329 128.713 160.815 130.141C168.144 133.144 176.671 129.729 182.981 125.851C184.893 124.676 186.812 123.176 187.454 121.025C188.179 118.595 186.933 115.803 184.765 114.488C182.597 113.173 179.721 113.282 177.508 114.519C173.89 116.541 173.201 120.212 172.398 123.903C171.332 122.85 170.891 121.278 170.964 119.781C171.038 118.284 171.572 116.845 172.225 115.497C173.948 111.935 176.545 108.801 179.724 106.445C181.917 104.819 184.587 103.524 187.291 103.904C189.32 104.188 191.186 105.457 192.195 107.24C193.457 109.467 193.019 112.563 192.846 114.98C192.844 114.999 192.847 115.007 192.851 115.015C193.276 116.132 194.18 115.988 195.147 115.377C195.155 115.373 195.167 115.359 195.187 115.342C195.199 115.346 195.199 115.327 195.208 115.324C198.769 111.972 201.959 108.252 205.295 104.683C207.51 102.313 213.699 98.0358 209.043 94.7874C208.163 94.1726 207.141 93.7993 206.19 93.2998C204.229 92.2693 202.595 90.6571 201.477 88.7497C201.106 88.1176 200.832 86.8268 200.473 85.6172C200.085 84.2983 199.595 83.074 198.772 82.9109Z" fill="#9A0100"/>
<path d="M152.099 192.19C152.638 195.003 153.279 197.416 157.043 198.18C163.235 199.444 169.3 201.422 175.332 203.385C179.455 204.725 179.936 204.315 181.429 200.249C183.774 193.876 186.447 187.587 189.438 181.488C193.05 174.142 197.429 167.165 200.919 159.768C203.735 153.825 205.813 147.516 208.066 141.319C211.7 131.277 213.922 120.927 214.183 110.225C214.241 107.826 213.241 105.556 212.542 103.302C213.112 105.137 205.348 112.931 204.052 114.386C200.773 118.064 197.211 121.487 193.418 124.631C185.819 130.931 177.294 136.108 168.226 140.002C149.275 148.142 131.581 148.455 111.644 146.454C107.346 146.021 102.547 149.896 102.61 153.841C102.68 157.848 103.76 161.657 106.434 164.771C109.991 168.914 113.659 172.947 117.266 177.032C121.955 182.358 126.618 187.712 131.328 193.02C131.74 193.482 132.329 194 132.905 194.083C137.759 194.773 142.629 195.372 147.958 196.057C145.358 180.657 134.742 172.179 123.169 164.269C128.188 165.138 132.969 166.251 137.637 167.734C144.05 169.777 148.36 174.187 150.111 180.682C151.116 184.424 151.354 188.371 152.099 192.19ZM115.453 154.226C117.778 154.191 120.166 153.799 122.415 154.2C134.341 156.311 146.194 157.133 158.322 155.474C169.229 153.99 179.134 150.167 188.616 145.017C192.579 142.864 196.164 140.023 200.453 137.13C200.471 143.562 197.198 147.934 193.683 151.278C188.882 155.86 183.352 160.432 177.266 162.729C166.947 166.63 156.125 167.97 145.046 163.718C135.502 160.05 125.475 157.631 115.453 154.226Z" fill="#9A0100"/>
<path d="M191.41 204.271C191.453 204.197 191.494 204.121 191.534 204.045C192.429 202.345 192.693 200.174 193.256 198.348C195.386 191.422 198.097 184.336 201.982 178.191C205.406 172.775 210.661 168.341 214.875 163.432C223.939 152.875 232.029 140.877 234.569 126.949C236.394 116.949 235.231 106.631 233.18 96.6734C232.117 91.5191 230.718 86.2099 227.3 82.2086C224.084 78.4428 210.26 73.4751 208.125 80.8643C206.755 85.6078 214.514 90.8144 216.394 94.5373C220.108 101.895 221.457 110.398 220.855 118.578C219.902 131.523 214.587 143.732 208.616 155.258C204.122 163.933 199.193 172.403 195.245 181.352C191.832 189.09 186.92 198.188 189.346 206.896C189.225 206.427 191.14 204.738 191.41 204.271Z" fill="#9A0100"/>
<path d="M199.44 209.627C212.065 210.781 224.733 211.207 237.426 211.569C241.617 211.688 246.04 211.286 250.03 209.995C253.857 208.756 257.287 206.7 259.729 203.503C263.127 199.056 263.988 193.174 263.984 187.579C263.977 178.679 261.979 169.807 258.306 161.708C255.682 155.921 249.705 143.407 242.934 141.478C239.941 140.625 239.961 142.682 238.327 145.396C232.226 155.537 223.389 163.629 215.419 172.247C212.087 175.85 188.158 208.622 199.44 209.627Z" fill="#9A0100"/>
<path d="M103.707 219.474C112.345 217.992 121.095 216.972 129.87 217.009C134.29 217.028 138.712 217.318 143.086 217.954C147.371 218.578 151.03 220.197 155.106 221.582C155.875 221.843 157.239 221.877 156.626 222.869C156.302 223.394 149.638 222.721 148.736 222.72C145.996 222.719 143.256 222.771 140.518 222.876C135.041 223.085 129.573 223.504 124.129 224.133C113.637 225.342 103.468 227.572 93.2463 230.09C91.4044 230.543 87.8277 232.136 85.9122 231.582C86.1848 232.02 86.3137 232.287 86.4768 232.459C86.5047 232.483 86.5337 232.509 86.5628 232.533C94.4937 239.41 103.963 244.661 113.069 249.744C121.981 254.718 131.165 259.202 140.566 263.174C150.157 267.229 159.975 270.751 169.958 273.716C175.001 275.214 180.085 276.571 185.204 277.783C190.088 278.94 194.824 279.467 199.722 280.255C209.92 281.889 220.195 281.694 230.424 280.342C233.65 279.92 236.965 279.121 240.283 278.01C248.498 291.922 260.443 313.874 267.846 335.199L292.996 326.467C284.869 303.061 272.208 279.682 263.392 264.744C273.305 256.218 280.699 245.007 281.877 232.945C282.394 227.651 279.533 214.031 272.655 212.539C271.826 212.358 270.94 212.355 269.993 212.563C226.314 222.163 185.009 213.835 141.895 204.97C136.89 204.289 131.861 203.797 126.805 203.548C116.085 203.023 105.237 203.761 94.8245 206.46C84.9345 209.025 75.378 212.93 67.6395 219.793C64.8497 222.267 63.2302 224.201 62.141 227.7C68.9411 227.326 76.0643 225.112 82.7242 223.685C89.7009 222.192 96.6751 220.681 103.707 219.474Z" fill="#9A0100"/>
<path d="M288.138 117.823C285.5 121.508 284.896 126.226 284.372 130.727C283.64 137.02 277.983 203.077 274.21 202.834C286.26 203.647 290.53 211.953 291.511 223.105C292.237 222.685 292.548 222.575 292.757 222.369C302.236 213.109 307.175 201.031 313.13 189.569C316.3 183.46 319.541 177.368 323.148 171.519C330.468 159.675 339.893 149.64 350.614 140.784C354.451 137.619 354.399 134.632 350.346 131.685C347.193 129.383 343.74 127.491 340.449 125.368C333.348 120.774 325.326 118.588 317.314 116.297C309.75 114.135 293.611 110.176 288.138 117.823Z" fill="#9A0100"/>
<path d="M172.376 80.6621C178.002 78.5559 185.39 74.8592 186.3 74.1944C192.528 69.6519 196.631 63.2149 203.315 59.1177C211.102 54.3446 219.992 51.6606 229.159 52.9871C237.277 54.1613 245.363 55.6143 253.446 56.994C254.235 57.1265 254.943 57.6409 256.611 58.3914C253.453 59.0738 251.285 59.8415 249.076 59.9571C242.32 60.3016 235.486 59.9003 228.802 60.783C224.685 61.3298 221.003 63.7387 217.255 65.3619C218.427 67.1225 219.871 67.3968 221.8 68.2374C224.038 69.2126 226.174 70.4224 228.168 71.8324C232.154 74.6523 235.574 78.2822 238.097 82.4659C240.782 86.9178 242.44 91.9733 242.981 97.1409C243.551 102.562 242.541 107.97 242.555 113.399C242.565 117.55 242.536 121.708 242.91 125.828C243.57 133.233 248.317 138.269 253.469 142.98C254.411 143.838 255.464 144.586 256.532 145.437C256.206 139.755 255.509 134.502 256.152 128.771C256.795 123.049 258.03 117.418 259.087 111.763C260.83 102.449 262.06 92.6933 259.341 83.6155C258.27 80.0418 257.329 75.8369 261.487 73.8468C264.194 77.0947 266.798 80.3581 268.43 84.303C268.515 84.4421 268.587 84.595 268.665 84.7374C273.461 93.5762 268.328 104.257 266.481 113.187C264.407 123.217 263.331 133.49 263.787 143.737C263.851 145.171 263.946 146.601 264.07 148.031C264.589 153.963 265.641 159.835 266.951 165.641C267.62 168.605 268.358 171.553 269.128 174.492C269.774 176.957 270.123 180.957 271.55 183C272.25 182.536 272.225 180.791 272.245 179.951C272.367 174.48 272.107 168.973 272.61 163.536C273.735 151.243 274.956 138.958 276.18 126.68C277.384 114.596 280.679 103.003 282.991 91.1165C285.365 78.8999 286.317 65.8867 281.728 54.3187C277.14 42.7508 265.735 33.156 253.325 34.0891C236.327 35.3674 218.436 38.7245 202.273 44.1232C185.612 49.6886 161.829 59.8853 165.901 81.6511C166.092 82.658 168.897 81.9633 172.376 80.6621Z" fill="#9A0100"/>
<path d="M270.527 38.9614C270.458 38.8807 270.386 38.8071 270.316 38.7272C266.987 35.6624 263.054 33.4387 258.427 33.0636C256.709 32.9236 255.005 33.0087 253.255 33.0861C252.858 33.1663 252.458 33.2537 252.053 33.3566C251.921 33.3927 251.786 33.4215 251.654 33.457C253.925 33.1599 256.211 33.0304 258.489 33.2166C263.199 33.5986 267.16 35.8128 270.527 38.9614Z" fill="#9A0100"/>
</svg>
