<!--?xml version="1.0" encoding="utf-8"?-->
<!-- Generator: Adobe Illustrator 18.1.1, SVG Export Plug-In . SVG Version: 6.00 Build 0)  -->

<svg version="1.1" id="_x31_0" xmlns="http://www.w3.org/2000/svg" xmlns:xlink="http://www.w3.org/1999/xlink" x="0px" y="0px" viewBox="0 0 512 512" style="width: 256px; height: 256px; opacity: 1;" xml:space="preserve">
<style type="text/css">
	.st0{fill:#374149;}
</style>
<g>
	<rect x="219.434" y="137.863" class="st0" width="73.09" height="268.274" style="fill: rgb(191, 148, 87);"></rect>
	<polygon class="st0" points="126.52,449.531 76.77,449.504 76.774,449.531 76.61,449.531 87.012,512 424.946,512 433.852,458.519 
		435.348,449.691 435.321,449.691 435.348,449.531 	" style="fill: rgb(191, 148, 87);"></polygon>
	<polygon class="st0" points="391.348,184.91 338.035,153.73 338.035,153.824 337.871,153.73 337.871,219.195 430.485,273.152 
		400.301,376.981 391.832,405.961 391.879,405.961 391.832,406.121 450.832,406.121 497.195,246.629 	" style="fill: rgb(191, 148, 87);"></polygon>
	<polygon class="st0" points="81.516,273.152 174.074,219.25 174.074,175.84 174.153,153.871 174.074,153.918 174.074,153.73 
		14.805,246.629 61.168,406.121 120.172,406.121 	" style="fill: rgb(191, 148, 87);"></polygon>
	
		<rect x="213.918" y="17.422" transform="matrix(0.7071 0.7071 -0.7071 0.7071 117.0275 -163.5788)" class="st0" width="84.121" height="84.119" style="fill: rgb(191, 148, 87);"></rect>
</g>
</svg>
