<svg xmlns="http://www.w3.org/2000/svg" viewBox="0 0 426.45 426.45"><defs><style>.cls-1{fill:#fad576;}.cls-2{fill:none;stroke:#bf9547;stroke-miterlimit:10;stroke-width:4px;}.cls-3{fill:#bf9547;}</style></defs><g id="レイヤー_2" data-name="レイヤー 2"><g id="海"><path class="cls-1" d="M196.08,372.59c10.48-6.57,20.53-14,30.35-21.59s19.37-15.63,28.69-23.88,18.36-16.82,27.12-25.66a369.09,369.09,0,0,0,25-27.73,370.94,370.94,0,0,1-24.66,28.08q-13,13.45-26.81,26.05t-28.43,24.32c-9.77,7.77-19.7,15.3-30.24,22.12Z"/><path class="cls-1" d="M195.76,372.91q10-15.71,19.82-31.58c6.51-10.59,13-21.2,19.07-32,3-5.41,5.84-10.95,8.57-16.53s5.38-11.2,8-16.85q7.82-16.92,15.27-34-7.23,17.21-14.82,34.24-3.79,8.52-7.77,17c-2.65,5.63-5.39,11.22-8.37,16.7-6,10.93-12.29,21.64-18.66,32.32S204,363.4,197.45,374Z"/><polygon class="cls-1" points="195.61 373.31 217.27 225.93 197.59 373.58 195.61 373.31"/><path class="cls-1" d="M195.68,373.82c-3.25-8.45-6.1-17-8.74-25.63s-5-17.34-7-26.13c-1-4.4-1.9-8.82-2.68-13.26-.43-2.21-.74-4.44-1.09-6.67s-.65-4.46-.95-6.69l-3.67-26.76,4.16,26.69c.35,2.22.68,4.45,1.08,6.66s.73,4.44,1.2,6.64c.86,4.41,1.85,8.79,2.93,13.16,2.15,8.73,4.66,17.36,7.43,25.91s5.8,17,9.16,25.33Z"/><path class="cls-1" d="M195.9,374.15c-5.58-5.76-10.9-11.7-16.07-17.79S169.67,344,164.94,337.59a213.39,213.39,0,0,1-13.17-20c-1-1.75-2-3.47-2.87-5.25L146.19,307l-5.4-10.66,5.63,10.55,2.81,5.27c.93,1.76,2,3.45,3,5.18A213.18,213.18,0,0,0,165.74,337c4.85,6.32,9.95,12.43,15.22,18.39s10.72,11.78,16.35,17.36Z"/><path class="cls-1" d="M196.14,374.33C190,371,184,367.59,178.07,364.1s-11.9-7.07-17.74-10.78-11.65-7.48-17.29-11.49a201.48,201.48,0,0,1-16.39-12.71,200.07,200.07,0,0,0,16.68,12.3c5.72,3.86,11.61,7.49,17.52,11.05s11.92,7,18,10.33,12.12,6.62,18.25,9.76Z"/><path class="cls-1" d="M196.44,374.43c-12.36-2.24-24.6-4.84-36.83-7.59s-24.39-5.72-36.51-8.86c-3-.75-6-1.65-9.07-2.48s-6-1.86-9-2.78c-5.92-2.05-11.83-4.16-17.56-6.69a185.49,185.49,0,0,1-16.88-8.26c-2.73-1.54-5.43-3.12-8-4.83a83.62,83.62,0,0,1-7.64-5.47,84.72,84.72,0,0,0,7.7,5.36c2.65,1.68,5.37,3.22,8.11,4.72a183.33,183.33,0,0,0,17,8c5.76,2.45,11.68,4.48,17.61,6.44,3,.88,6,1.85,9,2.65s6,1.64,9.07,2.35q18.24,4.47,36.59,8.37c12.24,2.58,24.53,5,36.84,7.08Z"/><path class="cls-1" d="M196.94,374.39a165.31,165.31,0,0,1-29.21,6c-4.93.61-9.88.95-14.83,1.23s-9.91.3-14.87.16a290,290,0,0,1-29.6-2.16c-9.82-1.21-19.6-2.79-29.25-5,9.68,2,19.48,3.43,29.3,4.48a292.38,292.38,0,0,0,29.57,1.67c4.93.05,9.86-.14,14.78-.42s9.83-.77,14.71-1.47,9.73-1.51,14.54-2.55a132.35,132.35,0,0,0,14.19-3.83Z"/><path class="cls-1" d="M197.18,374.26A191.3,191.3,0,0,1,180.42,384c-5.72,3-11.52,5.77-17.45,8.3a141.12,141.12,0,0,1-37.21,9.82A133.93,133.93,0,0,0,144.55,398a133.1,133.1,0,0,0,18-6.63c5.82-2.66,11.54-5.59,17.14-8.7s11.12-6.41,16.32-10Z"/><path class="cls-1" d="M197.39,374.06c-3.12,3.84-6.37,7.51-9.74,11.1s-6.87,7-10.52,10.35a128.41,128.41,0,0,1-11.53,9.17,137.66,137.66,0,0,1-12.42,7.89,135.73,135.73,0,0,0,12.12-8.29,124.88,124.88,0,0,0,11.15-9.51c3.51-3.39,6.87-6.95,10.09-10.62s6.34-7.45,9.27-11.31Z"/><path class="cls-1" d="M197.55,373.75c-1.46,4-3.13,7.89-4.86,11.76s-3.56,7.65-5.45,11.42A107.75,107.75,0,0,1,181,408q-1.72,2.67-3.67,5.16a36.27,36.27,0,0,1-4.26,4.67,35.78,35.78,0,0,0,4-4.82c1.24-1.71,2.38-3.47,3.45-5.28a110.46,110.46,0,0,0,5.77-11.19c1.73-3.83,3.4-7.69,5-11.58s3.09-7.83,4.35-11.77Z"/><polygon class="cls-1" points="197.59 373.58 189.99 420.67 195.61 373.31 197.59 373.58"/><polygon class="cls-1" points="197.58 373.24 206.94 421.97 195.62 373.65 197.58 373.24"/><polygon class="cls-1" points="197.45 372.92 226.46 421.19 195.75 373.98 197.45 372.92"/><path class="cls-1" d="M197.33,372.76c4.09,4.37,8.34,8.64,12.71,12.74a150.27,150.27,0,0,0,13.71,11.64c4.88,3.48,9.87,6.89,14.81,10.33l14.84,10.31-15.12-9.89c-5-3.32-10.09-6.56-15.11-9.93q-3.73-2.59-7.24-5.47c-2.35-1.9-4.65-3.87-6.9-5.88q-6.78-6-13.15-12.48Z"/><path class="cls-1" d="M197.11,372.58c7.43,4.39,15,8.59,22.67,12.59a211.42,211.42,0,0,0,23.55,10.75,99.78,99.78,0,0,0,12.47,3.4c4.22.92,8.48,1.7,12.75,2.39,8.55,1.4,17.14,2.53,25.75,3.44-8.63-.74-17.24-1.7-25.83-2.93-4.29-.61-8.57-1.3-12.83-2.14A101.23,101.23,0,0,1,243,396.89a211.07,211.07,0,0,1-23.9-10.37q-11.65-5.81-23-12.21Z"/><path class="cls-1" d="M196.91,372.5a145.73,145.73,0,0,0,18.8,4.18c6.36,1,12.78,1.78,19.22,2.21a248.9,248.9,0,0,0,38.71-.26l4.83-.39,4.82-.53c3.22-.33,6.43-.74,9.64-1.17q9.61-1.26,19.16-3.06c6.36-1.17,12.68-2.61,18.93-4.25a133.31,133.31,0,0,0,18.41-6.12,132.53,132.53,0,0,1-18.34,6.36q-9.36,2.59-18.91,4.5T293,377.28c-3.21.47-6.42.93-9.63,1.3l-4.83.59-4.84.46a251.35,251.35,0,0,1-38.9.76c-6.49-.35-13-1-19.39-2a146.49,146.49,0,0,1-19.15-4Z"/><path class="cls-1" d="M196.37,372.47q18.27-4.28,36.43-9.16c12.1-3.25,24.15-6.68,36.08-10.47,6-1.87,11.87-3.95,17.64-6.36s11.39-5.17,16.9-8.14,10.87-6.23,16.1-9.68a182.65,182.65,0,0,0,15.17-11.07,183.47,183.47,0,0,1-15,11.28q-7.79,5.28-16,9.9t-16.85,8.4c-5.76,2.49-11.67,4.67-17.63,6.62-11.9,4-23.92,7.55-36,11s-24.18,6.63-36.37,9.66Z"/><circle class="cls-2" cx="213.22" cy="213.22" r="211.22"/><path class="cls-3" d="M248.51,101.45c.27-.09,9.75-9.2,9.75-9.2L265,96l2,12.18,8.4,7.05,8.85,4.69-6.14,4,9.57,14.45-5.24,5.23-9.75,11-9.21,4.34-8.84,5-16.07-1.8s-13.72-5.24-14.26-5.42-11.1-8.3-11.1-8.3l-3.17-10.11,3.17-6.87-4.43-8.66,2.53-7.22,4.6-14.45,7.85-6.5L234.61,97l10,.27Z"/><polygon class="cls-3" points="343.75 126.14 355.39 112.6 378.68 121.81 376.11 128.09 383.42 132.91 384.64 140.23 380.44 140.23 379.63 143.75 382.34 147 379.49 155.39 370.96 160.81 363.25 158.24 351.06 150.52 343.75 139.41 343.75 126.14"/><path class="cls-3" d="M357.56,176.52s23,10.69,23.42,11.1,10.16,20.18,10.16,20.18l-3.93,13.13,3.12,15.17-4.74,26.54-5.15,2.57-3.52-3.86.95,11.85-9.61,2.5-7.38-6.84L358.51,263l-2.44-14.55-10.56-6.1-5.69-5.41,3.25-18.69-4.47-6,1.22-17.73Z"/><path class="cls-3" d="M318.47,251.4l18.78,1,1.35,23.31-10.06,8.47s-14.4-6.95-14.67-7.23-1.72-11-1.72-11Z"/><polygon class="cls-3" points="147.13 346.41 195.16 336.12 197.32 322.76 183.78 303.8 190.46 297.66 189.02 284.12 182.34 287.37 173.49 270.58 160.49 257.76 153.99 269.68 160.49 288.45 160.31 296.22 151.1 285.56 148.58 297.66 135.76 295.5 125.29 329.26 132.33 341.53 129.44 359.05 147.13 346.41"/><path class="cls-3" d="M91.07,305.47l3.16,7.76-4.42,2.08L83,313.69l-1.72,13.9s9.3,13.9,9.57,14.08,9.3,8,9.3,8l14.72-3.25,5.59-10.83,2.44-4.6-9.39-2.89L103.08,310.8Z"/><path class="cls-3" d="M148.22,280.24,138.47,292h-20s-8-9.61-8.13-10,2.57-15.71,2.57-15.71l-.94-4.47-4.2,1.9s-3.12-4.06-2.57-4.2S118,253,118,253s5.69-7.17,6.09-7.58,6.91-10.7,6.91-10.7l3.11,18.82-2.43,11.65,1.76,6.36Z"/><path class="cls-3" d="M121.22,295.54s0,.41.07,1.08c.15,2.89.52,10.66-.07,10.66s-9.93,1.12-9.93,1.12l-5.41,4.83L99.56,301s-12.46-4.88-13-5.42-9.21-7.94-9.21-7.94L70.67,292,59.3,285.61,64,297.17l-8.12,2.25s-2.71-12.91-4.16-13.81-12.45-6.14-12.45-6.14L23.55,257.76s-3.79-28.48-4.15-30.1S6.94,207.8,7.66,208.16s3.25-20.22,3.25-20.22l1.26-17.16,2.71-1.62,1.81-7.76L19,155.26,7.63,163.92,32.4,107.59,60.74,70.76l14.63-7L73,76.36l44.23-27.08,4.3,7.4L85.66,89.36,64.59,126l-5.65,6.68,37.19-26-1.81-6.5s2-14.8,2.53-14.8S114,82.68,114,82.68s2.71,3.25,3.61,3.25,9.93-10.65,9.93-10.65l10.11-2,4.88-4.88,10.11.91s3.43,5.41,4.15,5.41l13.9-.18,18,13.68s6.19-2.48,6.73-2.48,9.65,2.72,9.65,2.72L199.8,135,168,181.26l9.2,5.14,14.09-5.14,6-14.36,21,8.13,17.87,20.31L220,223.5,199.8,242.19l-25.31-7.45-20.32,7.45-20-14.35-18.68-.27s-9.34,20-10.36,21.12-6.7,21.12-6.7,21.12l6.7,19"/><path class="cls-3" d="M211.59,64.53s-50.1-11.37-51.19-11.37S142,62.64,142,62.64l-14.63-6.5,1.36-6.86L152.28,41,161.76,45l21.12-6.22L199.8,49.28S224,40.7,224.86,41s21.93-2.16,21.93-2.16,11.38,4.06,11.38,4.87-7.59,9.75-7.59,9.75Z"/><path class="cls-3" d="M397.1,122.35c0,.41,1.49,15.3,1.49,15.3l12.18,16.25-6.83-20Z"/><path class="cls-3" d="M394.52,158.64s-5.55,11.78-5.14,12.05l8.67,5.83,4.33-8.94Z"/><polygon class="cls-3" points="392.09 179.22 392.09 188.3 395.87 195.74 397.1 187.48 392.09 179.22"/><path class="cls-3" d="M414.29,167.58l-1.21,24.64s7.31,18.55,7,17.34-.95-21-.95-21Z"/><path class="cls-3" d="M263.76,160.81l-4.42,14.49-6-.63-1.62,2.88-5.87.37L259.7,187l-3.34,4.79,4.43,4.69L258.62,205l1.62,7.31,7,9.3h8l5,2.71,7.41-2.8,4.78,10.65L284,235.42l-1.49,12.86,19.23,9.48s7.49-8.8,7.4-9.52.81-19,.81-19l-4.06-8.67s1.54-4.78,2-5.5,4.24-2.44,4.24-2.44v-9.21c0-.54,18.73,4.34,18.73,4.34l5.69-3.8.95-6.09,19.63-22.34-5.82-5-14.49,6.9s-4.2-3-3.52-3.92,1.35-4.74,2-4.88,8.4-2.57,8.4-2.57-8.67-1.76-9.62-2.17l-10.42-4.33s-7-9.61-6.5-10.16,5.68-7.17,6.22-7.44-4.19-3.79-4.73-3.79-9.89,5.55-9.89,5.55l.81,8.8-6.36,8.26s-4.6-9.75-5.28-9.89-12.73-4.6-12.73-4.6Z"/></g></g></svg>