<svg width="424" height="424" viewBox="0 0 424 424" fill="none" xmlns="http://www.w3.org/2000/svg">
<g clip-path="url(#clip0)" filter="url(#filter0_b)">
<path d="M194.954 370.45C205.373 363.917 215.366 356.53 225.129 348.984C234.893 341.437 244.388 333.443 253.654 325.241C262.921 317.038 271.909 308.517 280.619 299.728C289.364 290.963 297.66 281.761 305.475 272.157C297.776 281.87 289.593 291.188 280.957 300.076C272.34 308.991 263.454 317.625 254.301 325.976C245.147 334.328 235.725 342.388 226.034 350.157C216.32 357.882 206.447 365.369 195.968 372.15L194.954 370.45Z" fill="#FAD576"/>
<path d="M194.635 370.768C201.264 360.355 207.832 349.888 214.341 339.369C220.814 328.84 227.267 318.291 233.302 307.553C236.285 302.174 239.108 296.666 241.823 291.118C244.537 285.57 247.172 279.982 249.777 274.365C254.96 263.15 260.021 251.881 264.959 240.56C260.167 251.967 255.255 263.315 250.224 274.603C247.712 280.251 245.137 285.885 242.499 291.506C239.864 297.103 237.14 302.661 234.177 308.11C228.211 318.977 221.957 329.625 215.624 340.244C209.291 350.863 202.828 361.312 196.316 371.851L194.635 370.768Z" fill="#FAD576"/>
<path d="M194.486 371.165L216.022 224.632L196.455 371.434L194.486 371.165Z" fill="#FAD576"/>
<path d="M194.556 371.672C191.324 363.271 188.491 354.77 185.866 346.19C183.241 337.609 180.895 328.949 178.906 320.21C177.912 315.835 177.017 311.44 176.242 307.026C175.814 304.829 175.506 302.611 175.158 300.394C174.81 298.177 174.512 295.96 174.213 293.743L170.564 267.136L174.701 293.673C175.049 295.88 175.377 298.098 175.774 300.295C176.172 302.492 176.5 304.709 176.967 306.897C177.823 311.281 178.807 315.636 179.881 319.981C182.018 328.661 184.514 337.241 187.268 345.742C190.022 354.243 193.035 362.645 196.375 370.927L194.556 371.672Z" fill="#FAD576"/>
<path d="M194.775 372C189.227 366.274 183.937 360.368 178.797 354.313C173.657 348.258 168.695 342.024 163.992 335.65C159.259 329.272 154.887 322.634 150.898 315.765C149.904 314.025 148.91 312.315 148.045 310.546L145.35 305.236L139.981 294.637L145.579 305.127L148.373 310.367C149.297 312.116 150.361 313.797 151.355 315.517C155.465 322.278 159.949 328.804 164.788 335.064C169.61 341.348 174.681 347.422 179.92 353.348C185.16 359.274 190.579 365.061 196.176 370.608L194.775 372Z" fill="#FAD576"/>
<path d="M195.013 372.18C188.908 368.869 182.943 365.478 177.047 362.008C171.151 358.538 165.215 354.979 159.409 351.29C153.602 347.602 147.826 343.853 142.218 339.866C136.573 335.936 131.134 331.719 125.922 327.229C131.235 331.589 136.771 335.671 142.507 339.459C148.194 343.296 154.05 346.906 159.926 350.445C165.802 353.985 171.777 357.405 177.822 360.716C183.868 364.027 189.873 367.298 195.968 370.42L195.013 372.18Z" fill="#FAD576"/>
<path d="M195.311 372.279C183.022 370.052 170.853 367.467 158.693 364.732C146.533 361.998 134.443 359.045 122.393 355.923C119.41 355.178 116.427 354.283 113.375 353.458C110.322 352.632 107.409 351.608 104.427 350.694C98.5406 348.655 92.6645 346.557 86.9674 344.042C81.2379 341.59 75.6364 338.849 70.1844 335.829C67.4701 334.298 64.7856 332.727 62.2304 331.027C59.5984 329.358 57.0624 327.542 54.6343 325.589C57.0858 327.505 59.6416 329.284 62.29 330.918C64.9248 332.588 67.6292 334.119 70.3534 335.611C75.8479 338.549 81.4894 341.204 87.2558 343.565C92.9827 346.001 98.8687 348.019 104.765 349.968C107.747 350.843 110.73 351.807 113.713 352.603C116.696 353.398 119.678 354.233 122.731 354.939C134.821 357.902 146.948 360.676 159.111 363.261C171.28 365.826 183.5 368.232 195.739 370.3L195.311 372.279Z" fill="#FAD576"/>
<path d="M195.809 372.239C186.327 375.098 176.607 377.095 166.766 378.205C161.865 378.811 156.943 379.149 152.022 379.427C147.1 379.706 142.168 379.726 137.237 379.587C127.397 379.373 117.574 378.657 107.807 377.439C98.0435 376.236 88.3197 374.665 78.7251 372.468C88.3495 374.456 98.0932 375.878 107.857 376.922C117.622 377.972 127.435 378.526 137.257 378.582C142.159 378.632 147.06 378.443 151.952 378.165C156.844 377.886 161.725 377.399 166.577 376.703C171.429 376.007 176.252 375.202 181.034 374.168C185.804 373.161 190.514 371.89 195.142 370.36L195.809 372.239Z" fill="#FAD576"/>
<path d="M196.047 372.11C190.66 375.617 185.098 378.85 179.384 381.794C173.696 384.777 167.93 387.531 162.034 390.046C150.205 394.975 137.758 398.26 125.038 399.81C131.355 398.894 137.599 397.525 143.72 395.714C149.836 393.95 155.817 391.746 161.616 389.122C167.403 386.477 173.09 383.564 178.658 380.472C184.226 377.379 189.714 374.098 194.884 370.529L196.047 372.11Z" fill="#FAD576"/>
<path d="M196.256 371.911C193.154 375.729 189.923 379.378 186.572 382.947C183.221 386.517 179.741 389.907 176.112 393.238C172.469 396.494 168.641 399.538 164.649 402.355C160.675 405.188 156.553 407.807 152.3 410.2C156.463 407.672 160.485 404.92 164.35 401.957C168.228 399.025 171.929 395.868 175.436 392.502C178.926 389.131 182.267 385.592 185.468 381.943C188.67 378.294 191.772 374.536 194.685 370.698L196.256 371.911Z" fill="#FAD576"/>
<path d="M196.415 371.603C194.963 375.58 193.303 379.447 191.583 383.295C189.863 387.143 188.043 390.901 186.164 394.65C184.315 398.437 182.243 402.112 179.96 405.656C178.82 407.426 177.604 409.136 176.311 410.786C175.037 412.454 173.62 414.008 172.076 415.429C173.539 413.951 174.87 412.348 176.053 410.637C177.286 408.937 178.419 407.187 179.483 405.387C181.605 401.791 183.521 398.076 185.22 394.262C186.94 390.454 188.6 386.616 190.191 382.748C191.782 378.881 193.263 374.963 194.516 371.046L196.415 371.603Z" fill="#FAD576"/>
<path d="M196.455 371.434L188.898 418.253L194.486 371.165L196.455 371.434Z" fill="#FAD576"/>
<path d="M196.445 371.096L205.751 419.546L194.496 371.503L196.445 371.096Z" fill="#FAD576"/>
<path d="M196.316 370.778L225.159 418.77L194.625 371.831L196.316 370.778Z" fill="#FAD576"/>
<path d="M196.196 370.618C200.263 374.963 204.488 379.209 208.833 383.285C213.142 387.412 217.694 391.276 222.465 394.858C227.316 398.318 232.278 401.709 237.189 405.129L251.944 415.38L236.911 405.547C231.94 402.246 226.879 399.024 221.888 395.674C219.415 393.957 217.016 392.144 214.689 390.235C212.353 388.346 210.066 386.387 207.829 384.389C203.335 380.412 198.977 376.276 194.755 371.981L196.196 370.618Z" fill="#FAD576"/>
<path d="M195.978 370.439C203.365 374.804 210.891 378.98 218.517 382.957C226.097 386.995 233.916 390.564 241.932 393.645C245.987 395.039 250.129 396.168 254.33 397.026C258.526 397.941 262.762 398.716 267.007 399.402C275.508 400.794 284.049 401.918 292.609 402.822C284.029 402.087 275.468 401.132 266.928 399.909C262.662 399.303 258.407 398.617 254.171 397.781C249.918 396.995 245.721 395.936 241.604 394.61C233.478 391.666 225.542 388.222 217.841 384.299C210.119 380.448 202.497 376.402 194.973 372.16L195.978 370.439Z" fill="#FAD576"/>
<path d="M195.779 370.36C201.911 372.156 208.155 373.544 214.471 374.516C220.794 375.51 227.177 376.286 233.58 376.713C246.397 377.626 259.265 377.54 272.068 376.455L276.87 376.067L281.663 375.54C284.864 375.212 288.056 374.804 291.247 374.377C297.617 373.542 303.967 372.527 310.297 371.334C316.621 370.171 322.904 368.739 329.118 367.109C335.359 365.528 341.477 363.494 347.423 361.024C341.507 363.575 335.413 365.688 329.188 367.347C322.984 369.064 316.717 370.556 310.387 371.822C304.056 373.088 297.7 374.185 291.317 375.113C288.125 375.58 284.934 376.037 281.742 376.405L276.94 376.992L272.128 377.449C259.274 378.7 246.343 378.953 233.451 378.205C226.998 377.857 220.526 377.21 214.173 376.216C207.744 375.316 201.384 373.988 195.133 372.239L195.779 370.36Z" fill="#FAD576"/>
<path d="M195.242 370.33C207.352 367.493 219.426 364.457 231.463 361.223C243.493 357.991 255.474 354.581 267.335 350.813C273.301 348.954 279.137 346.886 284.874 344.489C290.611 342.093 296.199 339.349 301.677 336.396C307.155 333.443 312.484 330.202 317.684 326.772C322.897 323.364 327.932 319.69 332.767 315.765C327.991 319.756 323.013 323.499 317.853 326.981C312.69 330.48 307.387 333.761 301.945 336.824C296.504 339.886 290.919 342.67 285.192 345.175C279.465 347.651 273.589 349.819 267.663 351.757C255.832 355.734 243.881 359.264 231.87 362.694C219.86 366.124 207.829 369.286 195.709 372.299L195.242 370.33Z" fill="#FAD576"/>
<path d="M211.995 422.002C327.978 422.002 422.002 327.978 422.002 211.995C422.002 96.0116 327.978 1.98853 211.995 1.98853C96.0116 1.98853 1.98853 96.0116 1.98853 211.995C1.98853 327.978 96.0116 422.002 211.995 422.002Z" stroke="#BF9547" stroke-width="4" stroke-miterlimit="10"/>
<path d="M247.082 100.867C247.351 100.778 256.776 91.72 256.776 91.72L263.478 95.4484L265.466 107.558L273.818 114.568L282.617 119.231L276.512 123.208L286.027 137.575L280.817 142.775L271.123 153.712L261.966 158.027L253.177 162.998L237.199 161.208C237.199 161.208 223.558 155.999 223.021 155.82C222.484 155.641 211.985 147.567 211.985 147.567L208.833 137.515L211.985 130.685L207.581 122.075L210.096 114.896L214.67 100.529L222.475 94.0664L233.262 96.4427L243.205 96.7111L247.082 100.867Z" fill="#BF9547"/>
<path d="M341.775 125.415L353.348 111.953L376.504 121.11L373.949 127.354L381.217 132.146L382.43 139.424H378.254L377.449 142.924L380.143 146.155L377.31 154.497L368.829 159.886L361.163 157.331L349.043 149.655L341.775 138.609V125.415Z" fill="#BF9547"/>
<path d="M355.506 175.506C355.506 175.506 378.374 186.134 378.791 186.542C379.209 186.95 388.893 206.606 388.893 206.606L384.986 219.661L388.088 234.744L383.375 261.131L378.254 263.686L374.755 259.848L375.699 271.63L366.144 274.116L358.807 267.315L356.45 261.489L354.024 247.023L343.525 240.958L337.868 235.579L341.099 216.996L336.655 211.031L337.868 193.402L355.506 175.506Z" fill="#BF9547"/>
<path d="M316.64 249.956L335.312 250.95L336.655 274.126L326.653 282.547C326.653 282.547 312.335 275.637 312.067 275.359C311.798 275.08 310.357 264.422 310.357 264.422L316.64 249.956Z" fill="#BF9547"/>
<path d="M146.285 344.42L194.039 334.189L196.186 320.906L182.724 302.055L189.366 295.95L187.934 282.488L181.293 285.719L172.493 269.025L159.568 256.279L153.105 268.131L159.568 286.793L159.389 294.518L150.232 283.919L147.727 295.95L134.98 293.802L124.57 327.368L131.57 339.568L128.696 356.987L146.285 344.42Z" fill="#BF9547"/>
<path d="M90.5467 303.715L93.6886 311.431L89.294 313.499L82.5231 311.888L80.813 325.708C80.813 325.708 90.0596 339.528 90.328 339.707C90.5965 339.886 99.5746 347.661 99.5746 347.661L114.21 344.43L119.768 333.662L122.194 329.088L112.858 326.215L102.488 309.014L90.5467 303.715Z" fill="#BF9547"/>
<path d="M147.369 278.63L137.675 290.322H117.789C117.789 290.322 109.835 280.768 109.706 280.38C109.577 279.992 112.261 264.76 112.261 264.76L111.327 260.316L107.151 262.205C107.151 262.205 104.049 258.168 104.596 258.029C105.142 257.89 117.322 251.547 117.322 251.547C117.322 251.547 122.979 244.418 123.377 244.01C123.775 243.602 130.247 233.372 130.247 233.372L133.34 252.083L130.924 263.667L132.673 269.99L147.369 278.63Z" fill="#BF9547"/>
<path d="M120.524 293.842C120.524 293.842 120.524 294.25 120.593 294.916C120.742 297.789 121.11 305.515 120.524 305.515C119.937 305.515 110.651 306.628 110.651 306.628L105.272 311.43L98.9879 299.271C98.9879 299.271 86.5995 294.419 86.0626 293.882C85.5257 293.345 76.9055 285.987 76.9055 285.987L70.2639 290.322L58.9592 283.969L63.6322 295.463L55.5589 297.7C55.5589 297.7 52.8645 284.864 51.4228 283.969C49.9811 283.074 39.0443 277.864 39.0443 277.864L23.4146 256.279C23.4146 256.279 19.6464 227.963 19.2885 226.352C18.9305 224.741 6.90006 206.606 7.61592 206.964C8.33179 207.322 10.8473 186.86 10.8473 186.86L12.1 169.799L14.7944 168.188L16.594 160.473L18.8908 154.368L7.58609 162.978L32.2138 106.972L60.391 70.3534L74.9369 63.3936L72.5805 75.9213L116.556 48.9968L120.832 56.3543L85.1678 88.8466L64.2189 125.276L58.6013 131.918L95.5777 106.067L93.7781 99.6044C93.7781 99.6044 95.7666 84.8894 96.2935 84.8894C96.8205 84.8894 113.345 82.2049 113.345 82.2049C113.345 82.2049 116.039 85.4363 116.934 85.4363C117.829 85.4363 126.807 74.8475 126.807 74.8475L136.859 72.8589L141.711 68.007L151.763 68.9118C151.763 68.9118 155.173 74.2907 155.889 74.2907L169.709 74.1117L187.606 87.7131C187.606 87.7131 193.76 85.2474 194.297 85.2474C194.834 85.2474 203.892 87.9517 203.892 87.9517L198.652 134.224L167.035 180.219L176.182 185.329L190.191 180.219L196.156 165.941L217.036 174.024L234.803 194.218L218.736 222.216L198.652 240.799L173.487 233.391L153.284 240.799L133.399 226.531L114.826 226.263C114.826 226.263 105.54 246.148 104.526 247.261C103.512 248.375 97.8644 268.26 97.8644 268.26L104.526 287.151" fill="#BF9547"/>
<path d="M210.374 64.1592C210.374 64.1592 160.562 52.8545 159.478 52.8545C158.395 52.8545 141.184 62.2801 141.184 62.2801L126.638 55.8174L127.99 48.9968L151.405 40.7644L160.831 44.7414L181.829 38.5571L198.652 48.9968C198.652 48.9968 222.713 40.4661 223.568 40.7644C224.423 41.0627 245.372 38.6168 245.372 38.6168C245.372 38.6168 256.687 42.6535 256.687 43.4588C256.687 44.2642 249.14 53.1528 249.14 53.1528L210.374 64.1592Z" fill="#BF9547"/>
<path d="M394.819 121.647C394.819 122.055 396.3 136.859 396.3 136.859L408.41 153.016L401.619 133.131L394.819 121.647Z" fill="#BF9547"/>
<path d="M392.254 157.729C392.254 157.729 386.735 169.441 387.143 169.709L395.763 175.506L400.068 166.617L392.254 157.729Z" fill="#BF9547"/>
<path d="M389.837 178.19V187.218L393.596 194.616L394.819 186.403L389.837 178.19Z" fill="#BF9547"/>
<path d="M411.91 166.617L410.707 191.116C410.707 191.116 417.975 209.559 417.667 208.356C417.358 207.153 416.722 187.477 416.722 187.477L411.91 166.617Z" fill="#BF9547"/>
<path d="M262.245 159.886L257.85 174.293L251.884 173.667L250.274 176.53L244.438 176.898L258.208 185.926L254.887 190.688L259.292 195.351L257.134 203.822L258.745 211.09L265.705 220.337H273.659L278.63 223.031L285.997 220.247L290.75 230.836L282.368 234.068L280.887 246.854L300.006 256.279C300.006 256.279 307.453 247.53 307.364 246.814C307.274 246.098 308.169 227.923 308.169 227.923L304.133 219.303C304.133 219.303 305.664 214.55 306.121 213.834C306.578 213.119 310.337 211.408 310.337 211.408V202.251C310.337 201.714 328.959 206.566 328.959 206.566L334.616 202.788L335.561 196.733L355.078 174.522L349.292 169.55L334.885 176.411C334.885 176.411 330.709 173.428 331.385 172.513C332.061 171.598 332.727 167.8 333.374 167.661C334.02 167.522 341.725 165.106 341.725 165.106C341.725 165.106 333.105 163.356 332.161 162.948L321.8 158.643C321.8 158.643 314.841 149.089 315.338 148.542C315.835 147.995 320.985 141.413 321.522 141.144C322.059 140.876 317.356 137.376 316.819 137.376C316.282 137.376 306.986 142.894 306.986 142.894L307.791 151.644L301.468 159.856C301.468 159.856 296.894 150.162 296.218 150.023C295.542 149.884 283.561 145.45 283.561 145.45L262.245 159.886Z" fill="#BF9547"/>
</g>
<defs>
<filter id="filter0_b" x="-4" y="-4" width="432" height="432" filterUnits="userSpaceOnUse" color-interpolation-filters="sRGB">
<feFlood flood-opacity="0" result="BackgroundImageFix"/>
<feGaussianBlur in="BackgroundImage" stdDeviation="2"/>
<feComposite in2="SourceAlpha" operator="in" result="effect1_backgroundBlur"/>
<feBlend mode="normal" in="SourceGraphic" in2="effect1_backgroundBlur" result="shape"/>
</filter>
<clipPath id="clip0">
<rect width="424" height="424" fill="white"/>
</clipPath>
</defs>
</svg>
