<svg xmlns="http://www.w3.org/2000/svg" viewBox="0 0 566.93 566.93"><defs><style>.cls-1{fill:#fad576;}.cls-2{fill:none;stroke:#bf9547;stroke-miterlimit:10;stroke-width:20px;}.cls-3{fill:#bf9547;}</style></defs><g id="海"><path class="cls-1" d="M260.54,475c3.1-1.81,6.34-3.86,9.47-5.9s6.29-4.15,9.4-6.28q9.34-6.4,18.44-13.21Q316,436,333.4,421.26t33.74-30.62a450.2,450.2,0,0,0,31.25-33.23,452.07,452.07,0,0,1-29.45,35q-15.56,16.8-32.2,32.59T302.5,455.52c-5.89,4.9-11.86,9.72-17.94,14.4-3.05,2.34-6.11,4.66-9.23,6.93s-6.21,4.48-9.58,6.7Z"/><path class="cls-1" d="M258.92,476.62q12.63-18.92,25-38.05C292.13,425.81,300.31,413,308,400c3.83-6.49,7.38-13.17,10.85-19.91S325.7,366.53,329,359.7q10-20.47,19.52-41.2-8.4,21.21-17.25,42.24-4.43,10.51-9.08,20.95c-3.11,6.95-6.32,13.9-9.85,20.7-7,13.57-14.51,26.83-22,40.07s-15.19,26.38-22.95,39.5Z"/><polygon class="cls-1" points="258.2 478.59 288.41 298.99 268.1 479.98 258.2 478.59"/><path class="cls-1" d="M258.51,481.16c-1.89-5.34-3.59-10.58-5.23-15.9s-3.19-10.63-4.64-16c-2.92-10.7-5.52-21.48-7.67-32.35-1.07-5.44-2-10.9-2.83-16.38-.46-2.73-.76-5.49-1.11-8.23s-.63-5.48-.93-8.22l-3.55-32.85,6,32.49c.51,2.7,1,5.42,1.55,8.09s1,5.37,1.7,8c1.2,5.34,2.56,10.64,4,15.92,2.92,10.54,6.28,21,9.95,31.25,1.83,5.15,3.76,10.26,5.75,15.35s4.08,10.16,6.24,15Z"/><path class="cls-1" d="M259.62,482.83c-6.71-7.38-13-14.87-19.12-22.57s-12-15.56-17.56-23.66a263,263,0,0,1-15.4-25.09c-1.1-2.19-2.3-4.34-3.32-6.56l-3.1-6.64-6.19-13.25,7.3,12.67,3.64,6.33c1.21,2.12,2.56,4.12,3.83,6.19a260.2,260.2,0,0,0,17.24,23.35c6.14,7.48,12.58,14.72,19.23,21.75s13.52,13.92,20.5,20.39Z"/><path class="cls-1" d="M260.83,483.72c-7.38-4.37-14.56-8.83-21.74-13.4s-14.27-9.21-21.27-14-13.94-9.7-20.67-14.87a247.55,247.55,0,0,1-19.49-16.32,246.18,246.18,0,0,0,20.91,14.26c7.15,4.45,14.5,8.6,21.87,12.67s14.85,8,22.36,11.77,15.1,7.53,22.66,11.05Z"/><path class="cls-1" d="M262.32,484.22c-15.17-3.08-30.07-6.56-45-10.23s-29.72-7.63-44.48-11.77c-3.69-1-7.39-2.18-11.07-3.27-1.86-.54-3.68-1.18-5.5-1.79l-5.47-1.85c-7.23-2.67-14.43-5.41-21.4-8.66a228.91,228.91,0,0,1-20.49-10.55c-3.3-2-6.57-4-9.74-6.12A101.45,101.45,0,0,1,90,423.1a101.26,101.26,0,0,0,9.54,6.35c3.26,2,6.62,3.79,10,5.56,6.79,3.49,13.77,6.55,20.86,9.34s14.33,5.15,21.59,7.39l5.49,1.53c1.83.51,3.65,1,5.51,1.47,3.7.88,7.35,1.83,11.1,2.63q22.37,5,44.87,9.29c15,2.84,30.06,5.5,45,7.7Z"/><path class="cls-1" d="M264.82,484c-.88.27-1.6.47-2.37.68s-1.53.4-2.29.6c-1.52.37-3,.75-4.55,1.07-3,.68-6.07,1.25-9.11,1.78-6.07,1-12.18,1.82-18.29,2.4s-12.23.86-18.35,1-12.23.05-18.32-.28-12.15-.76-18.2-1.32-12.07-1.34-18.07-2.26c-12-1.79-23.91-4-35.63-7a359.54,359.54,0,0,0,35.91,4.55c6,.51,12,.79,18,1s12,.25,18,.09,12-.49,17.92-1,11.88-1.26,17.75-2.27,11.7-2.14,17.46-3.55c2.87-.71,5.73-1.46,8.55-2.3,1.42-.41,2.81-.86,4.2-1.3.69-.23,1.39-.46,2.06-.7s1.38-.49,1.94-.71Z"/><path class="cls-1" d="M266,483.38c-1.84,1.14-3.53,2.1-5.31,3.1s-3.52,1.92-5.29,2.86q-5.31,2.78-10.71,5.32c-7.2,3.4-14.45,6.53-21.9,9.38a173.54,173.54,0,0,1-46.25,10.27,171.06,171.06,0,0,0,44.24-14.85c6.91-3.52,13.73-7.37,20.36-11.4,3.31-2,6.59-4.1,9.8-6.25,1.6-1.08,3.2-2.16,4.77-3.27s3.16-2.26,4.54-3.34Z"/><path class="cls-1" d="M267.11,482.34c-4.18,4.65-8.4,8.93-12.81,13.17s-8.94,8.28-13.66,12.12a157.11,157.11,0,0,1-14.83,10.6,169.34,169.34,0,0,1-15.73,8.88,166.63,166.63,0,0,0,14.25-10.9A151,151,0,0,0,237.23,504c4-4.33,7.86-8.85,11.52-13.51S256,481,259.19,476.24Z"/><path class="cls-1" d="M267.9,480.83c-.56,1.36-1.09,2.51-1.65,3.74l-1.71,3.57c-1.15,2.36-2.34,4.69-3.54,7q-3.64,6.94-7.54,13.68A137.29,137.29,0,0,1,244.88,522q-2.32,3.15-4.93,6.08a44.62,44.62,0,0,1-5.59,5.41,43,43,0,0,0,4.57-6.19c1.37-2.16,2.62-4.39,3.77-6.66a132.77,132.77,0,0,0,6.13-14c1.83-4.79,3.58-9.61,5.21-14.44.81-2.42,1.6-4.85,2.34-7.27l1.07-3.63c.34-1.19.69-2.46.94-3.54Z"/><polygon class="cls-1" points="268.1 479.98 255.06 537 258.2 478.59 268.1 479.98"/><polygon class="cls-1" points="268.04 478.25 275.78 538.59 258.26 480.33 268.04 478.25"/><polygon class="cls-1" points="267.39 476.64 299.65 537.64 258.91 481.94 267.39 476.64"/><path class="cls-1" d="M266.78,475.85c4.67,5.45,9.63,10.89,14.7,16.08,2.54,2.61,5.13,5.17,7.78,7.64s5.36,4.89,8.16,7.14c1.38,1.12,2.85,2.23,4.33,3.35l4.4,3.34,8.8,6.69,17.61,13.38-19-11.3-9.51-5.66-4.75-2.83c-1.58-.93-3.16-1.87-4.77-2.89-3.2-2-6.28-4.17-9.27-6.42s-5.95-4.54-8.84-6.9c-5.79-4.73-11.36-9.59-16.9-14.74Z"/><path class="cls-1" d="M265.67,475c8.84,5.57,17.93,11,27.1,16.1a255.45,255.45,0,0,0,28.13,13.86c2.41,1,4.8,1.76,7.32,2.49,1.24.39,2.5.73,3.77,1.07s2.53.69,3.8,1c5.1,1.28,10.26,2.38,15.45,3.39q15.56,3,31.32,5.16-15.87-.85-31.72-2.61c-5.28-.59-10.56-1.28-15.83-2.15-1.32-.2-2.63-.44-3.95-.69s-2.64-.48-3.95-.78a81,81,0,0,1-7.9-2c-5.19-1.6-10.2-3.52-15.16-5.54s-9.85-4.2-14.7-6.43c-9.71-4.48-19.22-9.19-28.73-14.21Z"/><path class="cls-1" d="M264.7,474.53c.75.26,1.71.57,2.6.83s1.82.54,2.74.79c1.84.53,3.72,1,5.59,1.44,3.76.89,7.55,1.7,11.38,2.38,7.64,1.39,15.38,2.47,23.16,3.14l2.92.28,2.93.2,5.85.39,5.87.22c2,.07,3.91.15,5.87.14,3.92,0,7.84.08,11.76-.08l5.89-.17c2-.08,3.92-.23,5.88-.34l5.88-.37,5.89-.53c2-.18,3.93-.33,5.89-.54l5.88-.65c3.92-.39,7.82-1,11.74-1.46,2-.25,3.9-.58,5.85-.87s3.91-.57,5.84-.93c7.79-1.27,15.53-2.87,23.2-4.73a161.37,161.37,0,0,0,22.63-7,162.24,162.24,0,0,1-22.3,8.22c-7.6,2.27-15.29,4.28-23,6-1.94.46-3.89.84-5.83,1.24s-3.89.83-5.84,1.18c-3.91.71-7.81,1.5-11.73,2.1l-5.88,1c-2,.32-3.93.57-5.9.86l-5.9.84-5.94.69c-2,.22-4,.47-5.95.66l-6,.48c-4,.38-8,.51-12,.72-2,.12-4,.13-6,.17l-6,.09-6-.08-3,0-3-.13c-8-.28-16-1-24-2-4-.5-8-1.14-12-1.85-2-.39-4-.76-6-1.22-1-.22-2-.44-3-.69s-2-.49-3.11-.82Z"/><path class="cls-1" d="M262,474.42c14.89-3.16,29.82-6.61,44.65-10.25s29.62-7.54,44.26-11.86c7.36-2.14,14.51-4.5,21.59-7.28s14-6,20.76-9.48,13.4-7.31,19.86-11.39A223.75,223.75,0,0,0,431.92,411a223.79,223.79,0,0,1-18.11,14.18q-9.39,6.66-19.35,12.54T374,448.48c-7,3.2-14.29,6-21.52,8.58-14.49,5.15-29.12,9.86-43.82,14.34s-29.44,8.73-44.33,12.75Z"/><circle class="cls-2" cx="283.46" cy="283.46" r="258.16"/><path class="cls-3" d="M326.59,146.86c.33-.11,11.91-11.26,11.91-11.26l8.28,4.53L349.21,155l10.26,8.61,10.81,5.74-7.5,4.85,11.69,17.65-6.4,6.4-11.91,13.46L344.9,217l-10.81,6.18L314.45,221s-16.77-6.4-17.43-6.62-13.56-10.15-13.56-10.15l-3.87-12.36,3.87-8.38L278,172.9l3.09-8.83,5.63-17.65,9.6-7.95,13.24,3,12.24.33Z"/><polygon class="cls-3" points="442.99 177.03 457.22 160.48 485.69 171.74 482.54 179.41 491.48 185.31 492.97 194.25 487.84 194.25 486.85 198.55 490.15 202.52 486.68 212.78 476.25 219.4 466.82 216.26 451.93 206.82 442.99 193.25 442.99 177.03"/><path class="cls-3" d="M459.87,238.6S488,251.67,488.5,252.17s12.41,24.66,12.41,24.66l-4.8,16.05,3.81,18.54-5.79,32.44L487.84,347l-4.3-4.72,1.15,14.48-11.75,3.07-9-8.36-2.89-7.2-3-17.79L445.14,319l-6.95-6.62,4-22.84-5.46-7.28,1.49-21.68Z"/><path class="cls-3" d="M412.1,330.12,435,331.33l1.66,28.5-12.3,10.34s-17.6-8.5-17.93-8.83-2.1-13.46-2.1-13.46Z"/><polygon class="cls-3" points="202.69 446.24 261.38 433.67 264.03 417.34 247.48 394.17 255.65 386.66 253.88 370.11 245.72 374.09 234.9 353.56 219.01 337.9 211.07 352.46 219.01 375.41 218.79 384.9 207.54 371.88 204.45 386.66 188.78 384.02 175.99 425.28 184.59 440.29 181.06 461.69 202.69 446.24"/><path class="cls-3" d="M134.17,396.21,138,405.7l-5.4,2.53-8.28-2-2.1,17s11.37,17,11.7,17.21,11.36,9.82,11.36,9.82l18-4,6.84-13.24,3-5.63-11.48-3.53-12.8-21.18Z"/><path class="cls-3" d="M204,365.37l-11.92,14.4H167.6s-9.76-11.75-9.93-12.25,3.15-19.2,3.15-19.2l-1.16-5.46-5.13,2.32s-3.81-5-3.15-5.13,15.72-7.95,15.72-7.95,7-8.77,7.45-9.26S183,309.76,183,309.76l3.81,23-3,14.23,2.15,7.78Z"/><path class="cls-3" d="M171,384.07l.08,1.31c.19,3.55.64,13-.08,13-.88,0-12.14,1.38-12.14,1.38l-6.62,5.91-7.72-15s-15.22-6-15.89-6.62-11.25-9.71-11.25-9.71l-8.16,5.41-13.91-7.84,5.74,14.13-9.93,2.76S87.83,373,86.07,371.93s-15.23-7.5-15.23-7.5L51.64,337.9S47,303.09,46.57,301.1s-15.23-24.27-14.35-23.83,4-24.71,4-24.71l1.54-21,3.31-2,2.21-9.49,2.87-7.5L32.19,223.21l30.26-68.85,34.65-45L115,100.74l-2.87,15.45,54.07-33.1,5.24,9-43.86,39.94-25.75,44.8L94.89,185l45.46-31.77-2.21-7.95s2.43-18.09,3.09-18.09,21-3.31,21-3.31,3.31,4,4.42,4,12.13-13,12.13-13l12.36-2.43,6-6,12.36,1.1s4.19,6.62,5.07,6.62,17-.22,17-.22l22,16.71s7.56-3,8.22-3,11.8,3.33,11.8,3.33l-6.45,56.8-38.89,56.6,11.26,6.29,17.21-6.29L264,226.85l25.71,9.93,21.84,24.82L291.72,296l-24.66,22.84-30.94-9.11-24.83,9.11L186.8,301.32,164,301s-11.41,24.49-12.66,25.82-8.19,25.82-8.19,25.82l8.19,23.17"/><path class="cls-3" d="M281.46,101.73s-61.23-13.9-62.56-13.9-22.5,11.59-22.5,11.59l-17.88-8,1.66-8.38L209,72.94l11.59,5,25.82-7.61,20.68,12.8s29.63-10.49,30.62-10.15,26.81-2.65,26.81-2.65,13.9,5,13.9,6-9.26,11.91-9.26,11.91Z"/><path class="cls-3" d="M508.19,172.4c0,.5,1.82,18.7,1.82,18.7L524.91,211l-8.36-24.49Z"/><path class="cls-3" d="M505.05,216.75s-6.79,14.4-6.29,14.73l10.59,7.12,5.3-10.92Z"/><polygon class="cls-3" points="502.07 241.91 502.07 253 506.69 262.1 508.19 252 502.07 241.91"/><path class="cls-3" d="M529.21,227.68l-1.49,30.12s8.94,22.67,8.61,21.18-1.16-25.62-1.16-25.62Z"/><path class="cls-3" d="M345.23,219.4l-5.4,17.71-7.39-.77-2,3.53-7.17.44,17,11.14-4.08,5.85,5.4,5.74L339,273.41l2,8.94,8.5,11.36h9.82l6.18,3.31,9-3.42,5.85,13-10.32,4-1.82,15.72,23.5,11.59s9.16-10.76,9.05-11.64,1-23.17,1-23.17l-5-10.59s1.88-5.85,2.43-6.73,5.18-3,5.18-3V271.53c0-.66,22.9,5.3,22.9,5.3l7-4.64,1.16-7.44,24-27.31-7.11-6.12-17.71,8.44s-5.13-3.64-4.3-4.8,1.65-5.79,2.48-6S443,225.86,443,225.86s-10.59-2.16-11.75-2.65-12.75-5.3-12.75-5.3-8.6-11.75-7.94-12.41,6.95-8.77,7.61-9.1-5.13-4.64-5.79-4.64-12.08,6.79-12.08,6.79l1,10.76L393.5,219.4s-5.62-11.91-6.45-12.08-15.56-5.63-15.56-5.63Z"/></g></svg>