<?xml version="1.0" encoding="UTF-8" standalone="no"?>
<!DOCTYPE svg PUBLIC "-//W3C//DTD SVG 1.1//EN"
"http://www.w3.org/Graphics/SVG/1.1/DTD/svg11.dtd">


<!-- Page 1 -->
<svg x="0" y="0" width="1281" height="909" viewBox="0 0 1281 909" version="1.1" xmlns="http://www.w3.org/2000/svg" xmlns:xlink="http://www.w3.org/1999/xlink"
style="display: block;margin-left: auto;margin-right: auto;">
<defs>
<clipPath id="c_1"><path d="M0,0H1281V909H0Z"/></clipPath>
<clipPath id="c0"><path d="M0,909.4V0H1281.9V909.4Z"/></clipPath>

<style type="text/css"><![CDATA[
text { white-space: pre; }
path, image { pointer-events: none; }

.s1{
font-size: 21.65px;
font-family: TsukuQMinLStd-L_14;
fill: #231F20;
}
.s2{
font-size: 34.65px;
font-family: TsukuAMDMinStd-E_-;
fill: #231F20;
}
.s3{
font-size: 25.98px;
font-family: TsukuQMinLStd-L_14;
fill: #231F20;
}
.s4{
font-size: 14.07px;
font-family: TsukuQMinLStd-L_14;
fill: #231F20;
}
.s5{
font-size: 11.91px;
font-family: TsukuQMinLStd-L_14;
fill: #231F20;
}
.s6{
font-size: 10.83px;
font-family: TsukuQMinLStd-L_14;
fill: #231F20;
}
.s7{
font-size: 21.65px;
font-family: TsukuQMinLStd-L_v;
fill: #231F20;
}
.s8{
font-size: 34.65px;
font-family: TsukuAMDMinStd-E_q;
fill: #231F20;
}
.s9{
font-size: 25.98px;
font-family: TsukuQMinLStd-L_v;
fill: #231F20;
}
.sa{
font-size: 14.07px;
font-family: TsukuQMinLStd-L_v;
fill: #231F20;
}
.sb{
font-size: 11.91px;
font-family: TsukuQMinLStd-L_v;
fill: #231F20;
}
.sc{
font-size: 10.83px;
font-family: TsukuQMinLStd-L_v;
fill: #231F20;
}

.g0{
fill: #FFFEF4;
}
.g1{
fill: none;
stroke: #BF1D2C;
stroke-width: 1.083;
stroke-linecap: butt;
stroke-linejoin: miter;
}
.g2{
fill: #BF1D2C;
}
.g3{
fill: #FFFFFF;
}
.g4{
fill: none;
stroke: #231F20;
stroke-width: 0.432;
stroke-linecap: butt;
stroke-linejoin: miter;
stroke-miterlimit: 4;
}

]]></style>

</defs>
<path d="M0,0
L0,909
L1281,909
L1281,0 Z " 
fill="#FFFFFF" stroke="none"/>
<g clip-path="url(#c_1)">
<path d="M0,909.4H1281.9V0H0V909.4Z" class="g0"/>
<text x="120.2" y="144.3" dx="0,11.5,11.5" class="s1">小講堂</text>
<text x="246.6" y="144.3" dx="0,.5,.5,.5" class="s1">大体育館</text>
<text x="372.5" y="144.3" dx="0,.5,.5,.5" class="s1">視聴覚室</text>
<text x="498.2" y="144.3" dx="0,11.5,11.5" class="s1">柔道場</text>
<text x="30.9" y="73.8" class="s2">タイムテーブル　一日目</text>
<text x="42.6" y="183.8" class="s3">9</text>
<text x="60.4" y="185.2" class="s4">時</text>
<text x="28.3" y="275.2" class="s3">10</text>
<text x="60.4" y="276.6" class="s4">時</text>
<text x="28.3" y="365.9" class="s3">11</text>
<text x="60.4" y="367.3" class="s4">時</text>
<text x="28.3" y="456.9" class="s3">12</text>
<text x="60.4" y="458.3" class="s4">時</text>
<text x="28.3" y="547.5" class="s3">13</text>
<text x="60.4" y="549" class="s4">時</text>
<text x="28.3" y="638.9" class="s3">14</text>
<text x="60.4" y="640.3" class="s4">時</text>
<text x="28.3" y="732.2" class="s3">15</text>
<text x="60.4" y="733.6" class="s4">時</text>
<text x="28.3" y="820.5" class="s3">16</text>
<text x="60.4" y="822" class="s4">時</text>
<path d="M89.4,184.9H602m-512.6,91H602M89.4,366.8H602m-512.6,91H602M89.4,548.7H602m-512.6,91H602M89.4,730.6H602M91.1,821.2H603.6" class="g1"/>
<path d="M460.4,821.2H372.5V457.8h87.9V821.2Z" class="g2"/>
<path d="M373.8,811.3c0,4.8,3.9,8.6,8.7,8.6h67.9c4.8,0,8.7,-3.8,8.7,-8.6V467.7c0,-4.8,-3.9,-8.6,-8.7,-8.6H382.5c-4.8,0,-8.7,3.8,-8.7,8.6Z" class="g3"/>
<path d="M460.4,306.2H372.5v-91h87.9v91Z" class="g2"/>
<path d="M373.8,296.2c0,4.8,3.9,8.7,8.7,8.7h67.9c4.8,0,8.7,-3.9,8.7,-8.7v-71c0,-4.8,-3.9,-8.7,-8.7,-8.7H382.5c-4.8,0,-8.7,3.9,-8.7,8.7Z" class="g3"/>
<path d="M460.4,397.1H372.5V336.5h87.9v60.6Z" class="g2"/>
<path d="M373.8,387.2c0,4.8,3.9,8.6,8.7,8.6h67.9c4.8,0,8.7,-3.8,8.7,-8.6V346.5c0,-4.8,-3.9,-8.7,-8.7,-8.7H382.5c-4.8,0,-8.7,3.9,-8.7,8.7Z" class="g3"/>
<path d="M586.2,821.2H498.1V457.8h88.1V821.2Z" class="g2"/>
<path d="M499.4,811.3c0,4.8,3.9,8.6,8.7,8.6h68.2c4.8,0,8.6,-3.8,8.6,-8.6V467.7c0,-4.8,-3.8,-8.6,-8.6,-8.6H508.1c-4.8,0,-8.7,3.8,-8.7,8.6Z" class="g3"/>
<path d="M586.2,366.8H498.1v-91h88.1v91Z" class="g2"/>
<path d="M499.4,356.9c0,4.8,3.9,8.6,8.7,8.6h68.2c4.8,0,8.6,-3.8,8.6,-8.6V285.8c0,-4.8,-3.8,-8.7,-8.6,-8.7H508.1c-4.8,0,-8.7,3.9,-8.7,8.7Z" class="g3"/>
<path d="M586.2,412.3H498.1V397.1h88.1v15.2Z" class="g2"/>
<path d="M499.4,404.7c0,3.5,2.9,6.3,6.3,6.3h73c3.4,0,6.2,-2.8,6.2,-6.3c0,-3.5,-2.8,-6.3,-6.2,-6.3h-73c-3.4,0,-6.3,2.8,-6.3,6.3c0,0,0,-3.5,0,0Z" class="g3"/>
<path d="M334,488.1H246.6V184.9H334V488.1Z" class="g2"/>
<path d="M247.9,478.1c0,4.8,3.9,8.7,8.6,8.7h67.6c4.8,0,8.6,-3.9,8.6,-8.7V194.9c0,-4.8,-3.8,-8.7,-8.6,-8.7H256.5c-4.7,0,-8.6,3.9,-8.6,8.7Z" class="g3"/>
<path d="M334,624.5H246.6v-91H334v91Z" class="g2"/>
<path d="M247.9,614.5c0,4.8,3.9,8.7,8.6,8.7h67.6c4.8,0,8.6,-3.9,8.6,-8.7v-71c0,-4.8,-3.8,-8.7,-8.6,-8.7H256.5c-4.7,0,-8.6,3.9,-8.6,8.7Z" class="g3"/>
<path d="M334,670H246.6V654.8H334V670Z" class="g2"/>
<path d="M247.9,662.4c0,3.5,2.8,6.3,6.3,6.3h72.3c3.4,0,6.2,-2.8,6.2,-6.3c0,-3.5,-2.8,-6.3,-6.2,-6.3H254.2c-3.5,0,-6.3,2.8,-6.3,6.3c0,0,0,-3.5,0,0Z" class="g3"/>
<path d="M207.8,344.1H120.3V184.9h87.5V344.1Z" class="g2"/>
<path d="M121.6,334.1c0,4.8,3.9,8.7,8.7,8.7h67.5c4.8,0,8.7,-3.9,8.7,-8.7V194.9c0,-4.8,-3.9,-8.7,-8.7,-8.7H130.3c-4.8,0,-8.7,3.9,-8.7,8.7Z" class="g3"/>
<path d="M207.8,442.6H120.3V358.8h87.5v83.8Z" class="g2"/>
<path d="M121.6,432.6c0,4.8,3.9,8.7,8.7,8.7h67.5c4.8,0,8.7,-3.9,8.7,-8.7V368.8c0,-4.8,-3.9,-8.7,-8.7,-8.7H130.3c-4.8,0,-8.7,3.9,-8.7,8.7Z" class="g3"/>
<path d="M207.8,639.5H120.3V457.8h87.5V639.5Z" class="g2"/>
<path d="M121.6,629.5c0,4.8,3.9,8.7,8.7,8.7h67.5c4.8,0,8.7,-3.9,8.7,-8.7V467.7c0,-4.8,-3.9,-8.6,-8.7,-8.6H130.3c-4.8,0,-8.7,3.8,-8.7,8.6Z" class="g3"/>
<path d="M207.8,821.2H120.3V654.8h87.5V821.2Z" class="g2"/>
<path d="M121.6,811.3c0,4.8,3.9,8.6,8.7,8.6h67.5c4.8,0,8.7,-3.8,8.7,-8.6V664.8c0,-4.8,-3.9,-8.7,-8.7,-8.7H130.3c-4.8,0,-8.7,3.9,-8.7,8.7Z" class="g3"/>
<path d="M334,821.2H246.6V685.1H334V821.2Z" class="g2"/>
<path d="M247.9,811.3c0,4.8,3.9,8.6,8.6,8.6h67.6c4.8,0,8.6,-3.8,8.6,-8.6V695.1c0,-4.8,-3.8,-8.7,-8.6,-8.7H256.5c-4.7,0,-8.6,3.9,-8.6,8.7Z" class="g3"/>
<text x="128.3" y="260.6" class="s5">開成管弦楽団</text>
<text x="128.3" y="278" class="s5">文化祭演奏会</text>
<text x="266.5" y="332.6" class="s5">バスケ部</text>
<text x="266.5" y="349.9" class="s5">招待試合</text>
<text x="398.6" y="256.8" class="s5">彼女は</text>
<text x="386.7" y="274.1" class="s5">手品好き♡</text>
<text x="398.6" y="362.8" class="s5">主張！</text>
<text x="392.6" y="380.2" class="s5">弁論文春</text>
<text x="398.6" y="635.6" class="s5">熱闘！</text>
<text x="386.7" y="652.9" class="s5">俳句甲子園</text>
<text x="512.4" y="644.2" class="s5">開成柔道部</text>
<text x="506.5" y="326.1" class="s5">天道流合気道</text>
<text x="278.4" y="575.5" class="s5">開成</text>
<text x="254.6" y="592.8" class="s5">フェンサーズ</text>
<text x="134.3" y="396.9" class="s5">史上最強の</text>
<text x="128.3" y="414.2" class="s5">クイ研決定戦</text>
<text x="124.7" y="547.3" dx="0,0,0,0,-3,-1.2,0" class="s5">開成ピアノの会</text>
<text x="134.5" y="564.6" class="s5">定期演奏会</text>
<path d="M215.1,185.2c0,.3,.2,.6,.5,.8c.1,.1,.3,.2,.4,.1c1.1,-1.8,1.9,1.6,-.1,2.5c.4,.7,-.5,2.4,-1.5,2.6c.1,1.9,-3.1,3.1,-2,1.3c-.1,-.2,-.2,-.3,-.3,-.3c-.4,-.2,-.7,-.2,-1,0c-.3,.1,-.5,.4,-.5,.8c0,.1,0,.3,.1,.4c2.1,0,-.4,2.4,-2.2,1.1c-.4,.8,-2.3,.8,-3,0c-1.5,1.1,-4.3,-1.1,-2.1,-1.1c.1,-.1,.1,-.3,.1,-.4c0,-.4,-.2,-.7,-.5,-.8c-.2,-.2,-.6,-.2,-.9,0c-.1,0,-.3,.1,-.3,.2c1,1.9,-2.3,.9,-2.1,-1.3c-.8,.1,-1.8,-1.6,-1.5,-2.6c-1.7,-.8,-1.2,-4.3,-.1,-2.4c.2,0,.3,0,.4,-.1c.3,-.2,.5,-.5,.5,-.8Z" class="g2"/>
<path d="M199,185.2c0,-.3,-.2,-.7,-.5,-.8c-.1,-.1,-.2,-.2,-.4,-.2c-1,1.8,-1.8,-1.5,.1,-2.4c-.4,-.7,.6,-2.5,1.5,-2.6c-.1,-1.9,3.2,-3.2,2.1,-1.3c.1,.1,.2,.2,.3,.3c.3,.2,.7,.2,.9,0c.3,-.2,.5,-.5,.5,-.8c0,-.2,0,-.3,-.1,-.4c-2.1,0,.4,-2.4,2.2,-1.2c.4,-.7,2.4,-.7,3,0c1.6,-1,4.3,1.2,2.1,1.2c0,.1,-.1,.2,-.1,.4c0,.3,.2,.6,.5,.8c.3,.2,.7,.2,1,0c.1,-.1,.2,-.1,.3,-.3c-1.1,-1.8,2.2,-.8,2,1.3c.9,0,1.9,1.7,1.5,2.6c1.7,.9,1.2,4.3,.1,2.4c-.1,0,-.3,.1,-.4,.2c-.3,.1,-.5,.5,-.5,.8Z" class="g2"/>
<text x="200.5" y="189.2" class="s5">00</text>
<path d="M128.4,344.1c0,.3,.1,.6,.5,.8c.1,.1,.2,.1,.4,.1c1,-1.8,1.8,1.6,-.1,2.5c.4,.7,-.6,2.4,-1.5,2.6c.1,1.9,-3.2,3.1,-2.1,1.3c-.1,-.2,-.2,-.3,-.3,-.3c-.3,-.2,-.7,-.2,-1,0c-.2,.1,-.4,.4,-.4,.8c0,.1,0,.3,.1,.4c2.1,0,-.4,2.4,-2.2,1.1c-.4,.8,-2.4,.8,-3,0c-1.6,1.1,-4.3,-1.1,-2.1,-1.1c0,-.1,.1,-.3,.1,-.4c0,-.4,-.2,-.7,-.5,-.8c-.3,-.2,-.7,-.2,-1,0c-.1,0,-.2,.1,-.3,.2c1.1,1.9,-2.2,.9,-2,-1.3c-.9,.1,-1.9,-1.6,-1.5,-2.6c-1.7,-.8,-1.2,-4.3,-.1,-2.4c.1,0,.3,0,.4,-.1c.3,-.2,.5,-.5,.5,-.8Z" class="g2"/>
<path d="M112.3,344.1c0,-.4,-.2,-.7,-.5,-.9c-.1,0,-.3,-.1,-.4,-.1c-1.1,1.8,-1.9,-1.5,.1,-2.4c-.5,-.7,.5,-2.5,1.5,-2.6c-.1,-1.9,3.1,-3.2,2,-1.3c.1,.1,.2,.2,.3,.3c.3,.2,.7,.2,1,0c.3,-.2,.5,-.5,.5,-.8c0,-.2,0,-.3,-.1,-.4c-2.1,0,.4,-2.4,2.2,-1.2c.4,-.7,2.3,-.7,2.9,0c1.6,-1,4.4,1.2,2.2,1.2c-.1,.1,-.1,.2,-.1,.4c0,.3,.2,.6,.4,.8c.3,.2,.7,.2,1,0c.1,-.1,.2,-.1,.3,-.3c-1,-1.8,2.3,-.8,2.1,1.3c.8,0,1.8,1.7,1.5,2.6c1.7,.9,1.2,4.3,.1,2.4c-.2,0,-.3,.1,-.4,.2c-.3,.1,-.5,.4,-.5,.8Z" class="g2"/>
<text x="113.8" y="348" class="s5">45</text>
<path d="M215.8,359.4c0,.4,.2,.7,.5,.9c.1,0,.3,.1,.4,.1c1.1,-1.8,1.9,1.5,-.1,2.4c.5,.8,-.5,2.5,-1.5,2.6c.1,1.9,-3.1,3.2,-2,1.3c-.1,-.1,-.2,-.2,-.3,-.3c-.3,-.2,-.7,-.2,-1,0c-.3,.2,-.5,.5,-.5,.8c0,.2,0,.3,.1,.5c2.1,0,-.4,2.3,-2.2,1.1c-.4,.7,-2.3,.8,-3,0c-1.5,1,-4.3,-1.1,-2.1,-1.1c.1,-.2,.1,-.3,.1,-.5c0,-.3,-.2,-.6,-.5,-.8c-.2,-.2,-.6,-.2,-.9,0c-.1,.1,-.3,.2,-.3,.3c1,1.8,-2.3,.9,-2.1,-1.3c-.8,0,-1.8,-1.7,-1.5,-2.6c-1.7,-.9,-1.2,-4.3,-.1,-2.4c.2,0,.3,-.1,.4,-.1c.3,-.2,.5,-.5,.5,-.9Z" class="g2"/>
<path d="M199.7,359.4c0,-.3,-.1,-.6,-.5,-.8c-.1,-.1,-.2,-.1,-.4,-.1c-1,1.8,-1.8,-1.5,.1,-2.5c-.4,-.7,.6,-2.4,1.5,-2.6c-.1,-1.9,3.2,-3.1,2.1,-1.2c.1,.1,.2,.2,.3,.3c.3,.1,.7,.1,.9,0c.3,-.2,.5,-.5,.5,-.9c0,-.1,0,-.3,-.1,-.4c-2.1,0,.4,-2.4,2.2,-1.1c.4,-.8,2.4,-.8,3,0c1.6,-1,4.3,1.1,2.1,1.1c0,.1,-.1,.3,-.1,.4c0,.4,.2,.7,.5,.9c.3,.1,.7,.1,1,0c.1,-.1,.2,-.2,.3,-.3c-1.1,-1.8,2.2,-.9,2,1.3c.9,0,1.9,1.7,1.5,2.6c1.7,.8,1.2,4.3,.1,2.4c-.1,0,-.3,0,-.4,.1c-.3,.2,-.5,.5,-.5,.8Z" class="g2"/>
<text x="201.2" y="363.4" class="s5">55</text>
<path d="M128.4,442.4c0,.4,.1,.7,.5,.9c.1,0,.2,.1,.4,.1c1,-1.8,1.8,1.5,-.1,2.4c.4,.7,-.6,2.5,-1.5,2.6c.1,1.9,-3.2,3.2,-2.1,1.3c-.1,-.1,-.2,-.2,-.3,-.3c-.3,-.2,-.7,-.2,-1,0c-.2,.2,-.4,.5,-.4,.8c0,.2,0,.3,.1,.5c2.1,-.1,-.4,2.3,-2.2,1.1c-.4,.7,-2.4,.7,-3,0c-1.6,1,-4.3,-1.1,-2.1,-1.1c0,-.2,.1,-.3,.1,-.5c0,-.3,-.2,-.6,-.5,-.8c-.3,-.2,-.7,-.2,-1,0c-.1,.1,-.2,.2,-.3,.3c1.1,1.8,-2.2,.8,-2,-1.3c-.9,0,-1.9,-1.7,-1.5,-2.6c-1.7,-.9,-1.2,-4.3,-.1,-2.4c.1,0,.3,-.1,.4,-.1c.3,-.2,.5,-.5,.5,-.9Z" class="g2"/>
<path d="M112.3,442.4c0,-.3,-.2,-.6,-.5,-.8c-.1,-.1,-.3,-.1,-.4,-.1c-1.1,1.8,-1.9,-1.5,.1,-2.5c-.5,-.7,.5,-2.4,1.5,-2.6c-.1,-1.9,3.1,-3.1,2,-1.2c.1,.1,.2,.2,.3,.2c.3,.2,.7,.2,1,.1c.3,-.2,.5,-.5,.5,-.9c0,-.1,0,-.3,-.1,-.4c-2.1,0,.4,-2.4,2.2,-1.1c.4,-.8,2.3,-.8,2.9,0c1.6,-1.1,4.4,1.1,2.2,1.1c-.1,.1,-.1,.3,-.1,.4c0,.4,.2,.7,.4,.9c.3,.1,.7,.1,1,0c.1,-.1,.2,-.2,.3,-.3c-1,-1.8,2.3,-.9,2.1,1.3c.8,0,1.8,1.6,1.5,2.6c1.7,.8,1.2,4.3,.1,2.4c-.2,0,-.3,0,-.4,.1c-.3,.2,-.5,.5,-.5,.8Z" class="g2"/>
<text x="113.8" y="446.4" class="s5">50</text>
<path d="M215.8,457.2c0,.3,.2,.7,.5,.9c.1,0,.3,.1,.4,.1c1.1,-1.8,1.9,1.5,-.1,2.4c.5,.7,-.5,2.5,-1.5,2.6c.1,1.9,-3.1,3.2,-2,1.3c-.1,-.1,-.2,-.2,-.3,-.3c-.3,-.2,-.7,-.2,-1,0c-.3,.2,-.5,.5,-.5,.8c0,.2,0,.3,.1,.4c2.1,0,-.4,2.4,-2.2,1.2c-.4,.7,-2.3,.7,-3,0c-1.5,1,-4.3,-1.2,-2.1,-1.2c.1,-.1,.1,-.2,.1,-.4c0,-.3,-.2,-.6,-.5,-.8c-.2,-.2,-.6,-.2,-.9,0c-.1,.1,-.3,.1,-.3,.3c1,1.8,-2.3,.8,-2.1,-1.3c-.8,0,-1.8,-1.7,-1.5,-2.6c-1.7,-.9,-1.2,-4.3,-.1,-2.4c.2,0,.3,-.1,.4,-.2c.3,-.1,.5,-.5,.5,-.8Z" class="g2"/>
<path d="M199.7,457.2c0,-.3,-.1,-.6,-.5,-.8c-.1,-.1,-.2,-.1,-.4,-.1c-1,1.8,-1.8,-1.6,.1,-2.5c-.4,-.7,.6,-2.4,1.5,-2.6c-.1,-1.9,3.2,-3.1,2.1,-1.3c.1,.2,.2,.3,.3,.3c.3,.2,.7,.2,.9,0c.3,-.1,.5,-.4,.5,-.8c0,-.1,0,-.3,-.1,-.4c-2.1,0,.4,-2.4,2.2,-1.1c.4,-.8,2.4,-.8,3,0c1.6,-1.1,4.3,1.1,2.1,1.1c0,.1,-.1,.3,-.1,.4c0,.4,.2,.7,.5,.8c.3,.2,.7,.2,1,0c.1,0,.2,-.1,.3,-.2c-1.1,-1.9,2.2,-.9,2,1.3c.9,-.1,1.9,1.6,1.5,2.6c1.7,.8,1.2,4.3,.1,2.4c-.1,0,-.3,0,-.4,.1c-.3,.2,-.5,.5,-.5,.8Z" class="g2"/>
<text x="201.2" y="461.2" class="s5">00</text>
<path d="M128.4,638.9c0,.3,.1,.6,.5,.8c.1,.1,.2,.1,.4,.1c1,-1.8,1.8,1.6,-.1,2.5c.4,.7,-.6,2.4,-1.5,2.6c.1,1.9,-3.2,3.1,-2.1,1.2c-.1,-.1,-.2,-.2,-.3,-.2c-.3,-.2,-.7,-.2,-1,0c-.2,.1,-.4,.4,-.4,.8c0,.1,0,.3,.1,.4c2.1,0,-.4,2.4,-2.2,1.1c-.4,.8,-2.4,.8,-3,0c-1.6,1.1,-4.3,-1.1,-2.1,-1.1c0,-.1,.1,-.3,.1,-.4c0,-.4,-.2,-.7,-.5,-.8c-.3,-.2,-.7,-.2,-1,0c-.1,0,-.2,.1,-.3,.2c1.1,1.9,-2.2,.9,-2,-1.3c-.9,.1,-1.9,-1.6,-1.5,-2.6c-1.7,-.8,-1.2,-4.3,-.1,-2.4c.1,0,.3,0,.4,-.1c.3,-.2,.5,-.5,.5,-.8Z" class="g2"/>
<path d="M112.3,638.9c0,-.4,-.2,-.7,-.5,-.9c-.1,0,-.3,-.1,-.4,-.1c-1.1,1.8,-1.9,-1.5,.1,-2.4c-.5,-.7,.5,-2.5,1.5,-2.6c-.1,-1.9,3.1,-3.2,2,-1.3c.1,.1,.2,.2,.3,.3c.3,.2,.7,.2,1,0c.3,-.2,.5,-.5,.5,-.8c0,-.2,0,-.3,-.1,-.4c-2.1,0,.4,-2.4,2.2,-1.2c.4,-.7,2.3,-.7,2.9,0c1.6,-1,4.4,1.2,2.2,1.2c-.1,.1,-.1,.2,-.1,.4c0,.3,.2,.6,.4,.8c.3,.2,.7,.2,1,0c.1,-.1,.2,-.1,.3,-.3c-1,-1.8,2.3,-.8,2.1,1.3c.8,0,1.8,1.7,1.5,2.6c1.7,.9,1.2,4.3,.1,2.4c-.2,0,-.3,.1,-.4,.2c-.3,.1,-.5,.4,-.5,.8Z" class="g2"/>
<text x="113.8" y="642.8" class="s5">00</text>
<path d="M128.3,821.8c0,.3,.2,.6,.5,.8c.1,.1,.2,.1,.4,.1c1,-1.8,1.8,1.5,-.1,2.5c.4,.7,-.5,2.4,-1.5,2.5c.1,1.9,-3.2,3.2,-2.1,1.3c0,-.1,-.1,-.2,-.3,-.3c-.3,-.1,-.6,-.1,-.9,0c-.3,.2,-.5,.5,-.5,.9c0,.1,0,.2,.1,.4c2.1,0,-.4,2.3,-2.2,1.1c-.4,.7,-2.4,.8,-3,0c-1.6,1,-4.3,-1.1,-2.1,-1.1c.1,-.2,.1,-.3,.1,-.4c0,-.4,-.2,-.7,-.5,-.9c-.3,-.1,-.6,-.2,-.9,0c-.2,.1,-.3,.2,-.4,.3c1.1,1.8,-2.2,.9,-2,-1.3c-.9,0,-1.9,-1.7,-1.5,-2.6c-1.7,-.9,-1.2,-4.3,-.1,-2.4c.1,0,.3,0,.4,-.1c.3,-.2,.5,-.5,.5,-.8Z" class="g2"/>
<path d="M112.2,821.8c0,-.4,-.2,-.7,-.5,-.9c-.1,-.1,-.2,-.1,-.4,-.1c-1,1.8,-1.9,-1.5,.1,-2.4c-.4,-.8,.5,-2.5,1.5,-2.6c-.1,-1.9,3.1,-3.2,2,-1.3c.1,.1,.2,.2,.4,.3c.3,.1,.6,.1,.9,0c.3,-.2,.5,-.5,.5,-.9c0,-.1,0,-.2,-.1,-.4c-2.1,0,.4,-2.3,2.2,-1.1c.4,-.7,2.3,-.8,3,0c1.6,-1,4.3,1.1,2.1,1.1c-.1,.2,-.1,.3,-.1,.4c0,.4,.2,.7,.5,.9c.3,.1,.6,.2,.9,0c.2,-.1,.3,-.2,.3,-.3c-1,-1.8,2.3,-.9,2.1,1.3c.8,0,1.9,1.7,1.5,2.6c1.7,.9,1.2,4.3,.1,2.4c-.2,0,-.3,.1,-.4,.1c-.3,.2,-.5,.5,-.5,.9Z" class="g2"/>
<text x="113.7" y="825.7" class="s5">00</text>
<path d="M215.8,654.8c0,.3,.2,.7,.5,.8c.1,.1,.2,.2,.4,.2c1,-1.8,1.8,1.5,-.1,2.4c.4,.7,-.6,2.4,-1.5,2.6c.1,1.9,-3.2,3.2,-2.1,1.3c0,-.1,-.2,-.2,-.3,-.3c-.3,-.2,-.7,-.2,-.9,0c-.3,.1,-.5,.5,-.5,.8c0,.2,0,.3,.1,.4c2.1,0,-.4,2.4,-2.2,1.2c-.4,.7,-2.4,.7,-3,0c-1.6,1,-4.3,-1.2,-2.1,-1.2c0,-.1,.1,-.2,.1,-.4c0,-.3,-.2,-.7,-.5,-.8c-.3,-.2,-.6,-.2,-1,0c-.1,.1,-.2,.1,-.3,.3c1.1,1.8,-2.2,.8,-2,-1.3c-.9,0,-1.9,-1.7,-1.5,-2.6c-1.7,-.9,-1.2,-4.3,-.1,-2.4c.1,-.1,.3,-.1,.4,-.2c.3,-.1,.5,-.5,.5,-.8Z" class="g2"/>
<path d="M199.7,654.8c0,-.3,-.2,-.6,-.5,-.8c-.1,-.1,-.2,-.2,-.4,-.2c-1,1.9,-1.9,-1.5,.1,-2.4c-.4,-.7,.5,-2.4,1.5,-2.6c-.1,-1.9,3.1,-3.2,2,-1.3c.1,.2,.2,.3,.3,.3c.4,.2,.7,.2,1,0c.3,-.1,.5,-.4,.5,-.8c0,-.1,0,-.3,-.1,-.4c-2.1,0,.4,-2.4,2.2,-1.1c.4,-.8,2.3,-.8,3,0c1.6,-1.1,4.3,1.1,2.1,1.1c-.1,.1,-.1,.3,-.1,.4c0,.4,.2,.7,.5,.8c.2,.2,.6,.2,.9,0c.2,0,.3,-.1,.3,-.3c-1,-1.8,2.3,-.8,2.1,1.4c.8,-.1,1.8,1.6,1.5,2.6c1.7,.8,1.2,4.2,.1,2.4c-.2,0,-.3,0,-.4,.1c-.3,.2,-.5,.5,-.5,.8Z" class="g2"/>
<text x="201.2" y="658.8" class="s5">10</text>
<path d="M342.1,184.9c0,.4,.2,.7,.5,.9c.1,0,.2,.1,.4,.1c1,-1.8,1.8,1.5,-.1,2.4c.4,.7,-.5,2.5,-1.5,2.6c.1,1.9,-3.2,3.2,-2.1,1.3c0,-.1,-.1,-.2,-.3,-.3c-.3,-.2,-.6,-.2,-.9,0c-.3,.2,-.5,.5,-.5,.8c0,.2,0,.3,.1,.4c2.1,0,-.4,2.4,-2.2,1.2c-.4,.7,-2.4,.7,-3,0c-1.6,1,-4.3,-1.2,-2.1,-1.2c.1,-.1,.1,-.2,.1,-.4c0,-.3,-.2,-.6,-.5,-.8c-.3,-.2,-.6,-.2,-1,0c-.1,.1,-.2,.2,-.3,.3c1.1,1.8,-2.2,.8,-2,-1.3c-.9,0,-1.9,-1.7,-1.5,-2.6c-1.7,-.9,-1.2,-4.3,-.1,-2.4c.1,0,.3,-.1,.4,-.1c.3,-.2,.5,-.5,.5,-.9Z" class="g2"/>
<path d="M326,184.9c0,-.3,-.2,-.6,-.5,-.8c-.1,-.1,-.2,-.1,-.4,-.1c-1,1.8,-1.9,-1.6,.1,-2.5c-.4,-.7,.5,-2.4,1.5,-2.6c-.1,-1.9,3.1,-3.1,2,-1.2c.1,.1,.2,.2,.4,.2c.3,.2,.6,.2,.9,.1c.3,-.2,.5,-.5,.5,-.9c0,-.1,0,-.3,-.1,-.4c-2.1,0,.4,-2.4,2.2,-1.1c.4,-.8,2.3,-.8,3,0c1.6,-1.1,4.3,1.1,2.1,1.1c-.1,.1,-.1,.3,-.1,.4c0,.4,.2,.7,.5,.9c.3,.1,.6,.1,.9,0c.2,-.1,.3,-.2,.3,-.3c-1,-1.8,2.3,-.9,2.1,1.3c.8,0,1.9,1.6,1.5,2.6c1.7,.8,1.2,4.3,.1,2.4c-.2,0,-.3,0,-.4,.1c-.3,.2,-.5,.5,-.5,.8Z" class="g2"/>
<text x="327.5" y="188.9" class="s5">00</text>
<path d="M468.4,215.2c0,.4,.2,.7,.5,.9c.1,.1,.3,.1,.4,.1c1.1,-1.8,1.9,1.5,-.1,2.4c.5,.8,-.5,2.5,-1.5,2.6c.1,1.9,-3.1,3.2,-2,1.3c-.1,-.1,-.2,-.2,-.3,-.3c-.3,-.2,-.7,-.1,-1,0c-.3,.2,-.5,.5,-.5,.8c0,.2,0,.3,.1,.5c2.1,0,-.4,2.3,-2.1,1.1c-.4,.7,-2.4,.8,-3,0c-1.6,1,-4.3,-1.1,-2.2,-1.1c.1,-.2,.1,-.3,.1,-.5c0,-.3,-.2,-.6,-.4,-.8c-.3,-.2,-.7,-.2,-1,0c-.1,.1,-.2,.2,-.3,.3c1,1.8,-2.3,.9,-2.1,-1.3c-.8,0,-1.8,-1.7,-1.5,-2.6c-1.7,-.9,-1.1,-4.3,-.1,-2.4c.2,0,.3,-.1,.4,-.1c.4,-.2,.5,-.5,.5,-.9Z" class="g2"/>
<path d="M452.3,215.2c0,-.3,-.1,-.6,-.4,-.8c-.2,-.1,-.3,-.1,-.5,-.1c-1,1.8,-1.8,-1.5,.2,-2.5c-.5,-.7,.5,-2.4,1.5,-2.6c-.1,-1.8,3.1,-3.1,2,-1.2c.1,.1,.2,.2,.3,.3c.3,.1,.7,.1,1,0c.2,-.2,.4,-.5,.4,-.9c0,-.1,0,-.2,0,-.4c-2.1,0,.3,-2.4,2.1,-1.1c.4,-.8,2.4,-.8,3,0c1.6,-1,4.3,1.1,2.1,1.1c0,.1,-.1,.3,-.1,.4c0,.4,.2,.7,.5,.9c.3,.1,.7,.1,1,0c.1,-.1,.2,-.2,.3,-.3c-1.1,-1.8,2.2,-.9,2,1.3c.9,0,1.9,1.7,1.5,2.6c1.7,.8,1.2,4.3,.1,2.4c-.1,0,-.2,0,-.4,.1c-.3,.2,-.5,.5,-.5,.8Z" class="g2"/>
<text x="453.8" y="219.2" class="s5">20</text>
<path d="M594.3,275.9c0,.3,.2,.6,.5,.8c.1,.1,.2,.1,.4,.1c1,-1.8,1.8,1.5,-.1,2.5c.4,.7,-.6,2.4,-1.5,2.6c.1,1.9,-3.2,3.1,-2.1,1.2c-.1,-.1,-.2,-.2,-.3,-.2c-.3,-.2,-.7,-.2,-.9,-.1c-.3,.2,-.5,.5,-.5,.9c0,.1,0,.3,.1,.4c2.1,0,-.4,2.4,-2.2,1.1c-.4,.8,-2.4,.8,-3,0c-1.6,1.1,-4.3,-1.1,-2.1,-1.1c0,-.1,.1,-.3,.1,-.4c0,-.4,-.2,-.7,-.5,-.9c-.3,-.1,-.7,-.1,-1,0c-.1,.1,-.2,.2,-.3,.3c1.1,1.8,-2.2,.9,-2,-1.3c-.9,0,-1.9,-1.6,-1.5,-2.6c-1.7,-.8,-1.2,-4.3,-.1,-2.4c.1,0,.3,0,.4,-.1c.3,-.2,.5,-.5,.5,-.8Z" class="g2"/>
<path d="M578.2,275.9c0,-.4,-.2,-.7,-.5,-.9c-.1,0,-.3,-.1,-.4,-.1c-1.1,1.8,-1.9,-1.5,.1,-2.4c-.4,-.7,.5,-2.5,1.5,-2.6c-.1,-1.9,3.1,-3.2,2,-1.3c.1,.1,.2,.2,.3,.3c.4,.2,.7,.2,1,0c.3,-.2,.5,-.5,.5,-.8c0,-.2,0,-.3,-.1,-.5c-2.1,.1,.4,-2.3,2.2,-1.1c.4,-.7,2.3,-.7,3,0c1.5,-1,4.3,1.1,2.1,1.1c-.1,.2,-.1,.3,-.1,.5c0,.3,.2,.6,.5,.8c.2,.2,.6,.2,.9,0c.1,-.1,.3,-.2,.3,-.3c-1,-1.8,2.3,-.8,2.1,1.3c.8,0,1.8,1.7,1.5,2.6c1.7,.9,1.2,4.3,.1,2.4c-.2,0,-.3,.1,-.4,.1c-.3,.2,-.5,.5,-.5,.9Z" class="g2"/>
<text x="579.7" y="279.8" class="s5">00</text>
<path d="M506.2,366.8c0,.3,.2,.7,.5,.9c.1,0,.2,.1,.4,.1c1,-1.8,1.9,1.5,-.1,2.4c.4,.7,-.5,2.5,-1.5,2.6c.1,1.9,-3.1,3.2,-2.1,1.3c0,-.1,-.1,-.2,-.3,-.3c-.3,-.2,-.6,-.2,-.9,0c-.3,.2,-.5,.5,-.5,.8c0,.2,0,.3,.1,.4c2.1,0,-.4,2.4,-2.2,1.2c-.4,.7,-2.3,.7,-3,0c-1.6,1,-4.3,-1.2,-2.1,-1.2c.1,-.1,.1,-.2,.1,-.4c0,-.3,-.2,-.6,-.5,-.8c-.3,-.2,-.6,-.2,-.9,0c-.2,.1,-.3,.1,-.4,.3c1.1,1.8,-2.2,.8,-2,-1.3c-.9,0,-1.9,-1.7,-1.5,-2.6c-1.7,-.9,-1.2,-4.3,-.1,-2.4c.1,0,.3,-.1,.4,-.2c.3,-.1,.5,-.5,.5,-.8Z" class="g2"/>
<path d="M490.1,366.8c0,-.3,-.2,-.6,-.5,-.8c-.1,-.1,-.2,-.1,-.4,-.1c-1,1.8,-1.9,-1.6,.1,-2.5c-.4,-.7,.5,-2.4,1.5,-2.6c-.1,-1.9,3.1,-3.1,2.1,-1.3c0,.2,.1,.3,.3,.3c.3,.2,.6,.2,.9,0c.3,-.1,.5,-.4,.5,-.8c0,-.1,0,-.3,-.1,-.4c-2.1,0,.4,-2.4,2.2,-1.1c.4,-.8,2.3,-.8,3,0c1.6,-1.1,4.3,1.1,2.1,1.1c-.1,.1,-.1,.3,-.1,.4c0,.4,.2,.7,.5,.8c.3,.2,.6,.2,.9,0c.2,0,.3,-.1,.4,-.2c-1.1,-1.9,2.2,-.9,2,1.3c.9,-.1,1.9,1.6,1.5,2.6c1.7,.8,1.2,4.3,.1,2.4c-.1,0,-.3,0,-.4,.1c-.3,.2,-.5,.5,-.5,.8Z" class="g2"/>
<text x="491.6" y="370.8" class="s5">00</text>
<path d="M594.2,397.1c0,.4,.2,.7,.5,.9c.2,0,.3,.1,.4,.1c1.1,-1.8,1.9,1.5,-.1,2.4c.5,.7,-.5,2.5,-1.5,2.6c.1,1.9,-3.1,3.2,-2,1.3c-.1,-.1,-.2,-.2,-.3,-.3c-.3,-.2,-.7,-.2,-1,0c-.3,.2,-.5,.5,-.5,.8c0,.2,0,.3,.1,.5c2.1,-.1,-.4,2.3,-2.1,1.1c-.4,.7,-2.4,.7,-3,0c-1.6,1,-4.3,-1.1,-2.2,-1.1c.1,-.2,.1,-.3,.1,-.5c0,-.3,-.2,-.6,-.4,-.8c-.3,-.2,-.7,-.2,-1,0c-.1,.1,-.2,.2,-.3,.3c1,1.8,-2.3,.8,-2.1,-1.3c-.8,0,-1.8,-1.7,-1.5,-2.6c-1.7,-.9,-1.1,-4.3,-.1,-2.4c.2,0,.3,-.1,.5,-.1c.3,-.2,.4,-.5,.4,-.9Z" class="g2"/>
<path d="M578.1,397.1c0,-.3,-.1,-.6,-.4,-.8c-.2,-.1,-.3,-.1,-.4,-.1c-1.1,1.8,-1.9,-1.5,.1,-2.5c-.5,-.7,.5,-2.4,1.5,-2.6c-.1,-1.9,3.1,-3.1,2,-1.2c.1,.1,.2,.2,.3,.2c.3,.2,.7,.2,1,.1c.3,-.2,.4,-.5,.4,-.9c0,-.1,0,-.3,0,-.4c-2.1,0,.3,-2.4,2.1,-1.1c.4,-.8,2.4,-.8,3,0c1.6,-1.1,4.3,1.1,2.1,1.1c0,.1,-.1,.3,-.1,.4c0,.4,.2,.7,.5,.9c.3,.1,.7,.1,1,0c.1,-.1,.2,-.2,.3,-.3c-1.1,-1.8,2.2,-.9,2.1,1.3c.8,0,1.8,1.7,1.4,2.6c1.7,.8,1.2,4.3,.1,2.4c-.1,0,-.2,0,-.4,.1c-.3,.2,-.5,.5,-.5,.8Z" class="g2"/>
<text x="579.6" y="401.1" class="s5">20</text>
<path d="M506.2,412.3c0,.3,.2,.6,.5,.8c.2,.1,.3,.2,.4,.1c1.1,-1.8,1.9,1.6,-.1,2.5c.5,.7,-.5,2.4,-1.5,2.6c.1,1.9,-3.1,3.2,-2,1.3c-.1,-.2,-.2,-.3,-.3,-.3c-.3,-.2,-.7,-.2,-1,0c-.3,.1,-.5,.4,-.5,.8c0,.1,0,.3,.1,.4c2.1,0,-.4,2.4,-2.1,1.1c-.4,.8,-2.4,.8,-3,0c-1.6,1.1,-4.3,-1.1,-2.2,-1.1c.1,-.1,.1,-.3,.1,-.4c0,-.4,-.2,-.7,-.4,-.8c-.3,-.2,-.7,-.2,-1,0c-.1,0,-.2,.1,-.3,.2c1,1.9,-2.3,.9,-2.1,-1.3c-.8,.1,-1.8,-1.6,-1.5,-2.6c-1.7,-.8,-1.1,-4.3,-.1,-2.4c.2,0,.3,0,.5,-.1c.3,-.2,.4,-.5,.4,-.8Z" class="g2"/>
<path d="M490.1,412.3c0,-.3,-.1,-.7,-.4,-.8c-.2,-.1,-.3,-.2,-.4,-.2c-1.1,1.8,-1.9,-1.5,.1,-2.4c-.5,-.7,.5,-2.4,1.5,-2.6c-.1,-1.9,3.1,-3.2,2,-1.3c.1,.1,.2,.2,.3,.3c.3,.2,.7,.2,1,0c.3,-.2,.4,-.5,.4,-.8c0,-.2,0,-.3,0,-.4c-2.1,0,.3,-2.4,2.1,-1.2c.4,-.7,2.4,-.7,3,0c1.6,-1,4.3,1.2,2.1,1.2c0,.1,-.1,.2,-.1,.4c0,.3,.2,.6,.5,.8c.3,.2,.7,.2,1,0c.1,-.1,.2,-.1,.3,-.3c-1.1,-1.8,2.2,-.8,2.1,1.3c.8,0,1.8,1.7,1.4,2.6c1.7,.9,1.2,4.3,.1,2.4c-.1,0,-.2,.1,-.4,.2c-.3,.1,-.5,.5,-.5,.8Z" class="g2"/>
<text x="491.6" y="416.3" class="s5">30</text>
<path d="M380.6,306.2c0,.3,.1,.6,.4,.8c.2,.1,.3,.1,.4,.1c1.1,-1.8,1.9,1.6,-.1,2.5c.5,.7,-.5,2.4,-1.5,2.6c.1,1.9,-3.1,3.1,-2,1.3c-.1,-.2,-.2,-.3,-.3,-.3c-.3,-.2,-.7,-.2,-1,0c-.3,.1,-.4,.4,-.4,.8c0,.1,0,.3,0,.4c2.1,0,-.3,2.4,-2.1,1.1c-.4,.8,-2.4,.8,-3,0c-1.6,1.1,-4.3,-1.1,-2.1,-1.1c0,-.1,.1,-.3,.1,-.4c0,-.4,-.2,-.7,-.5,-.8c-.3,-.2,-.7,-.2,-1,0c-.1,0,-.2,.1,-.3,.2c1.1,1.9,-2.2,.9,-2.1,-1.3c-.8,.1,-1.8,-1.6,-1.5,-2.6c-1.6,-.8,-1.1,-4.3,0,-2.4c.1,0,.2,0,.4,-.1c.3,-.2,.5,-.5,.5,-.8Z" class="g2"/>
<path d="M364.5,306.2c0,-.3,-.2,-.7,-.5,-.8c-.2,-.1,-.3,-.2,-.4,-.2c-1.1,1.8,-1.9,-1.5,.1,-2.4c-.5,-.7,.5,-2.5,1.5,-2.6c-.1,-1.9,3.1,-3.2,2,-1.3c.1,.1,.2,.2,.3,.3c.3,.2,.7,.2,1,0c.3,-.2,.5,-.5,.5,-.8c0,-.2,-.1,-.3,-.1,-.4c-2.1,0,.4,-2.4,2.1,-1.2c.4,-.7,2.4,-.7,3,0c1.6,-1,4.3,1.2,2.2,1.2c-.1,.1,-.1,.2,-.1,.4c0,.3,.1,.6,.4,.8c.3,.2,.7,.2,1,0c.1,-.1,.2,-.1,.3,-.3c-1,-1.8,2.3,-.8,2.1,1.3c.8,0,1.8,1.7,1.5,2.6c1.7,.9,1.1,4.3,.1,2.4c-.2,0,-.3,.1,-.5,.2c-.3,.1,-.4,.5,-.4,.8Z" class="g2"/>
<text x="366" y="310.2" class="s5">20</text>
<path d="M468.4,336.5c0,.3,.2,.6,.5,.8c.1,.1,.3,.2,.4,.2c1.1,-1.9,1.9,1.5,-.1,2.4c.5,.7,-.5,2.4,-1.5,2.6c.1,1.9,-3.1,3.2,-2,1.3c-.1,-.2,-.2,-.3,-.3,-.3c-.3,-.2,-.7,-.2,-1,0c-.3,.1,-.5,.4,-.5,.8c0,.1,0,.3,.1,.4c2.1,0,-.4,2.4,-2.1,1.1c-.4,.8,-2.4,.8,-3,0c-1.6,1.1,-4.3,-1.1,-2.2,-1.1c.1,-.1,.1,-.3,.1,-.4c0,-.4,-.2,-.7,-.4,-.8c-.3,-.2,-.7,-.2,-1,0c-.1,0,-.2,.1,-.3,.2c1,1.9,-2.3,.9,-2.1,-1.3c-.8,.1,-1.8,-1.6,-1.5,-2.6c-1.7,-.8,-1.1,-4.3,-.1,-2.4c.2,0,.3,0,.4,-.1c.4,-.2,.5,-.5,.5,-.8Z" class="g2"/>
<path d="M452.3,336.5c0,-.3,-.1,-.7,-.4,-.8c-.2,-.1,-.3,-.2,-.5,-.2c-1,1.8,-1.8,-1.5,.2,-2.4c-.5,-.7,.5,-2.4,1.5,-2.6c-.1,-1.9,3.1,-3.2,2,-1.3c.1,.1,.2,.2,.3,.3c.3,.2,.7,.2,1,0c.2,-.1,.4,-.5,.4,-.8c0,-.2,0,-.3,0,-.4c-2.1,0,.3,-2.4,2.1,-1.2c.4,-.7,2.4,-.7,3,0c1.6,-1,4.3,1.2,2.1,1.2c0,.1,-.1,.2,-.1,.4c0,.3,.2,.6,.5,.8c.3,.2,.7,.2,1,0c.1,-.1,.2,-.1,.3,-.3c-1.1,-1.8,2.2,-.8,2,1.3c.9,0,1.9,1.7,1.5,2.6c1.7,.9,1.2,4.3,.1,2.4c-.1,0,-.2,.1,-.4,.2c-.3,.1,-.5,.5,-.5,.8Z" class="g2"/>
<text x="453.8" y="340.5" class="s5">40</text>
<path d="M380.6,397.1c0,.4,.2,.7,.5,.9c.1,0,.2,.1,.4,.1c1,-1.8,1.8,1.5,-.1,2.4c.4,.7,-.5,2.5,-1.5,2.6c.1,1.9,-3.1,3.2,-2.1,1.3c0,-.1,-.1,-.2,-.3,-.3c-.3,-.2,-.6,-.2,-.9,0c-.3,.2,-.5,.5,-.5,.8c0,.2,0,.3,.1,.5c2.1,-.1,-.4,2.3,-2.2,1.1c-.4,.7,-2.4,.7,-3,0c-1.6,1,-4.3,-1.1,-2.1,-1.1c.1,-.2,.1,-.3,.1,-.5c0,-.3,-.2,-.6,-.5,-.8c-.3,-.2,-.6,-.2,-.9,0c-.2,.1,-.3,.2,-.4,.3c1.1,1.8,-2.2,.8,-2,-1.3c-.9,0,-1.9,-1.7,-1.5,-2.6c-1.7,-.9,-1.2,-4.3,-.1,-2.4c.1,0,.3,-.1,.4,-.1c.3,-.2,.5,-.5,.5,-.9Z" class="g2"/>
<path d="M364.5,397.1c0,-.3,-.2,-.6,-.5,-.8c-.1,-.1,-.2,-.1,-.4,-.1c-1,1.8,-1.9,-1.5,.1,-2.5c-.4,-.7,.5,-2.4,1.5,-2.6c-.1,-1.9,3.1,-3.1,2.1,-1.2c0,.1,.1,.2,.3,.2c.3,.2,.6,.2,.9,.1c.3,-.2,.5,-.5,.5,-.9c0,-.1,0,-.3,-.1,-.4c-2.1,0,.4,-2.4,2.2,-1.1c.4,-.8,2.3,-.8,3,0c1.6,-1.1,4.3,1.1,2.1,1.1c-.1,.1,-.1,.3,-.1,.4c0,.4,.2,.7,.5,.9c.3,.1,.6,.1,.9,0c.2,-.1,.3,-.2,.3,-.3c-1,-1.8,2.3,-.9,2.1,1.3c.9,0,1.9,1.7,1.5,2.6c1.7,.8,1.2,4.3,.1,2.4c-.1,0,-.3,0,-.4,.1c-.3,.2,-.5,.5,-.5,.8Z" class="g2"/>
<text x="366" y="401.1" class="s5">20</text>
<path d="M468.4,457.8c0,.3,.2,.6,.5,.8c.1,.1,.3,.1,.4,.1c1.1,-1.8,1.9,1.5,-.1,2.5c.5,.7,-.5,2.4,-1.5,2.6c.1,1.9,-3.1,3.1,-2,1.2c-.1,-.1,-.2,-.2,-.3,-.3c-.3,-.1,-.7,-.1,-1,0c-.3,.2,-.5,.5,-.5,.9c0,.1,0,.2,.1,.4c2.1,0,-.4,2.4,-2.1,1.1c-.4,.8,-2.4,.8,-3,0c-1.6,1,-4.3,-1.1,-2.2,-1.1c.1,-.1,.1,-.3,.1,-.4c0,-.4,-.2,-.7,-.4,-.9c-.3,-.1,-.7,-.1,-1,0c-.1,.1,-.2,.2,-.3,.3c1,1.8,-2.3,.9,-2.1,-1.3c-.8,0,-1.8,-1.7,-1.5,-2.6c-1.7,-.8,-1.1,-4.3,-.1,-2.4c.2,0,.3,0,.4,-.1c.4,-.2,.5,-.5,.5,-.8Z" class="g2"/>
<path d="M452.3,457.8c0,-.4,-.1,-.7,-.4,-.9c-.2,0,-.3,-.1,-.5,-.1c-1,1.8,-1.8,-1.5,.2,-2.4c-.5,-.8,.5,-2.5,1.5,-2.6c-.1,-1.9,3.1,-3.2,2,-1.3c.1,.1,.2,.2,.3,.3c.3,.2,.7,.1,1,0c.2,-.2,.4,-.5,.4,-.8c0,-.2,0,-.3,0,-.5c-2.1,0,.3,-2.3,2.1,-1.1c.4,-.7,2.4,-.8,3,0c1.6,-1,4.3,1.1,2.1,1.1c0,.2,-.1,.3,-.1,.5c0,.3,.2,.6,.5,.8c.3,.2,.7,.2,1,0c.1,-.1,.2,-.2,.3,-.3c-1.1,-1.8,2.2,-.9,2,1.3c.9,0,1.9,1.7,1.5,2.6c1.7,.9,1.2,4.3,.1,2.4c-.1,0,-.2,.1,-.4,.1c-.3,.2,-.5,.5,-.5,.9Z" class="g2"/>
<text x="453.8" y="461.7" class="s5">00</text>
<path d="M594.3,457.8c0,.3,.2,.6,.5,.8c.1,.1,.2,.1,.4,.1c1,-1.8,1.8,1.5,-.1,2.5c.4,.7,-.6,2.4,-1.5,2.6c.1,1.9,-3.2,3.1,-2.1,1.2c-.1,-.1,-.2,-.2,-.3,-.3c-.3,-.1,-.7,-.1,-.9,0c-.3,.2,-.5,.5,-.5,.9c0,.1,0,.2,.1,.4c2.1,0,-.4,2.4,-2.2,1.1c-.4,.8,-2.4,.8,-3,0c-1.6,1,-4.3,-1.1,-2.1,-1.1c0,-.1,.1,-.3,.1,-.4c0,-.4,-.2,-.7,-.5,-.9c-.3,-.1,-.7,-.1,-1,0c-.1,.1,-.2,.2,-.3,.3c1.1,1.8,-2.2,.9,-2,-1.3c-.9,0,-1.9,-1.7,-1.5,-2.6c-1.7,-.8,-1.2,-4.3,-.1,-2.4c.1,0,.3,0,.4,-.1c.3,-.2,.5,-.5,.5,-.8Z" class="g2"/>
<path d="M578.2,457.8c0,-.4,-.2,-.7,-.5,-.9c-.1,0,-.3,-.1,-.4,-.1c-1.1,1.8,-1.9,-1.5,.1,-2.4c-.4,-.8,.5,-2.5,1.5,-2.6c-.1,-1.9,3.1,-3.2,2,-1.3c.1,.1,.2,.2,.3,.3c.4,.2,.7,.1,1,0c.3,-.2,.5,-.5,.5,-.8c0,-.2,0,-.3,-.1,-.5c-2.1,0,.4,-2.3,2.2,-1.1c.4,-.7,2.3,-.8,3,0c1.5,-1,4.3,1.1,2.1,1.1c-.1,.2,-.1,.3,-.1,.5c0,.3,.2,.6,.5,.8c.2,.2,.6,.2,.9,0c.1,-.1,.3,-.2,.3,-.3c-1,-1.8,2.3,-.9,2.1,1.3c.8,0,1.8,1.7,1.5,2.6c1.7,.9,1.2,4.3,.1,2.4c-.2,0,-.3,.1,-.4,.1c-.3,.2,-.5,.5,-.5,.9Z" class="g2"/>
<text x="579.7" y="461.7" class="s5">00</text>
<path d="M380.6,821.2c0,.4,.1,.7,.4,.9c.2,.1,.3,.1,.4,.1c1.1,-1.8,1.9,1.5,-.1,2.4c.5,.8,-.5,2.5,-1.5,2.6c.1,1.9,-3.1,3.2,-2,1.3c-.1,-.1,-.2,-.2,-.3,-.3c-.3,-.2,-.7,-.1,-1,0c-.3,.2,-.4,.5,-.4,.8c0,.2,0,.3,0,.5c2.1,0,-.3,2.3,-2.1,1.1c-.4,.7,-2.4,.8,-3,0c-1.6,1,-4.3,-1.1,-2.1,-1.1c0,-.2,.1,-.3,.1,-.5c0,-.3,-.2,-.6,-.5,-.8c-.3,-.2,-.7,-.2,-1,0c-.1,.1,-.2,.2,-.3,.3c1.1,1.8,-2.2,.9,-2.1,-1.3c-.8,0,-1.8,-1.7,-1.5,-2.6c-1.6,-.9,-1.1,-4.3,0,-2.4c.1,0,.2,-.1,.4,-.1c.3,-.2,.5,-.5,.5,-.9Z" class="g2"/>
<path d="M364.5,821.2c0,-.3,-.2,-.6,-.5,-.8c-.2,-.1,-.3,-.1,-.4,-.1c-1.1,1.8,-1.9,-1.5,.1,-2.5c-.5,-.7,.5,-2.4,1.5,-2.6c-.1,-1.8,3.1,-3.1,2,-1.2c.1,.1,.2,.2,.3,.3c.3,.1,.7,.1,1,0c.3,-.2,.5,-.5,.5,-.9c0,-.1,-.1,-.2,-.1,-.4c-2.1,0,.4,-2.4,2.1,-1.1c.4,-.8,2.4,-.8,3,0c1.6,-1,4.3,1.1,2.2,1.1c-.1,.1,-.1,.3,-.1,.4c0,.4,.1,.7,.4,.9c.3,.1,.7,.1,1,0c.1,-.1,.2,-.2,.3,-.3c-1,-1.8,2.3,-.9,2.1,1.3c.8,0,1.8,1.7,1.5,2.6c1.7,.8,1.1,4.3,.1,2.4c-.2,0,-.3,0,-.5,.1c-.3,.2,-.4,.5,-.4,.8Z" class="g2"/>
<text x="366" y="825.2" class="s5">00</text>
<path d="M506.2,821.2c0,.4,.1,.7,.4,.9c.2,.1,.3,.1,.4,.1c1.1,-1.8,1.9,1.5,-.1,2.4c.5,.8,-.5,2.5,-1.5,2.6c.1,1.9,-3.1,3.2,-2,1.3c-.1,-.1,-.2,-.2,-.3,-.3c-.3,-.2,-.7,-.1,-1,0c-.3,.2,-.4,.5,-.4,.8c0,.2,0,.3,0,.5c2.1,0,-.3,2.3,-2.1,1.1c-.4,.7,-2.4,.8,-3,0c-1.6,1,-4.3,-1.1,-2.1,-1.1c0,-.2,.1,-.3,.1,-.5c0,-.3,-.2,-.6,-.5,-.8c-.3,-.2,-.7,-.2,-1,0c-.1,.1,-.2,.2,-.3,.3c1.1,1.8,-2.2,.9,-2.1,-1.3c-.8,0,-1.8,-1.7,-1.5,-2.6c-1.6,-.9,-1.1,-4.3,0,-2.4c.1,0,.2,-.1,.4,-.1c.3,-.2,.5,-.5,.5,-.9Z" class="g2"/>
<path d="M490.1,821.2c0,-.3,-.2,-.6,-.5,-.8c-.2,-.1,-.3,-.1,-.4,-.1c-1.1,1.8,-1.9,-1.5,.1,-2.5c-.5,-.7,.5,-2.4,1.5,-2.6c-.1,-1.8,3.1,-3.1,2,-1.2c.1,.1,.2,.2,.3,.3c.3,.1,.7,.1,1,0c.3,-.2,.5,-.5,.5,-.9c0,-.1,0,-.2,-.1,-.4c-2.1,0,.4,-2.4,2.1,-1.1c.4,-.8,2.4,-.8,3,0c1.6,-1,4.3,1.1,2.2,1.1c-.1,.1,-.1,.3,-.1,.4c0,.4,.2,.7,.4,.9c.3,.1,.7,.1,1,0c.1,-.1,.2,-.2,.3,-.3c-1,-1.8,2.3,-.9,2.1,1.3c.8,0,1.8,1.7,1.5,2.6c1.7,.8,1.1,4.3,.1,2.4c-.2,0,-.3,0,-.5,.1c-.3,.2,-.4,.5,-.4,.8Z" class="g2"/>
<text x="491.6" y="825.2" class="s5">00</text>
<path d="M254.6,488.1c0,.3,.2,.6,.5,.8c.2,.1,.3,.1,.4,.1c1.1,-1.8,1.9,1.5,-.1,2.5c.5,.7,-.5,2.4,-1.5,2.5c.1,1.9,-3.1,3.2,-2,1.3c-.1,-.1,-.2,-.2,-.3,-.3c-.3,-.1,-.7,-.1,-1,0c-.3,.2,-.5,.5,-.5,.9c0,.1,0,.2,.1,.4c2.1,0,-.4,2.3,-2.1,1.1c-.4,.7,-2.4,.8,-3,0c-1.6,1,-4.3,-1.1,-2.2,-1.1c.1,-.1,.1,-.3,.1,-.4c0,-.4,-.2,-.7,-.4,-.9c-.3,-.1,-.7,-.2,-1,0c-.1,.1,-.2,.2,-.3,.3c1,1.8,-2.3,.9,-2.1,-1.3c-.8,0,-1.8,-1.7,-1.5,-2.6c-1.7,-.9,-1.1,-4.3,-.1,-2.4c.2,0,.3,0,.4,-.1c.4,-.2,.5,-.5,.5,-.8Z" class="g2"/>
<path d="M238.5,488.1c0,-.4,-.1,-.7,-.4,-.9c-.2,-.1,-.3,-.1,-.4,-.1c-1.1,1.8,-1.9,-1.5,.1,-2.4c-.5,-.8,.5,-2.5,1.5,-2.6c-.1,-1.9,3.1,-3.2,2,-1.3c.1,.1,.2,.2,.3,.3c.3,.1,.7,.1,1,0c.3,-.2,.4,-.5,.4,-.9c0,-.1,0,-.2,0,-.4c-2.1,0,.3,-2.3,2.1,-1.1c.4,-.7,2.4,-.8,3,0c1.6,-1,4.3,1.1,2.1,1.1c0,.2,-.1,.3,-.1,.4c0,.4,.2,.7,.5,.9c.3,.1,.7,.2,1,0c.1,-.1,.2,-.2,.3,-.3c-1.1,-1.8,2.2,-.9,2.1,1.3c.8,0,1.8,1.7,1.4,2.6c1.7,.9,1.2,4.3,.1,2.4c-.1,0,-.2,.1,-.4,.1c-.3,.2,-.5,.5,-.5,.9Z" class="g2"/>
<text x="240" y="492" class="s5">20</text>
<path d="M342.1,533.5c0,.4,.2,.7,.5,.9c.1,.1,.2,.1,.4,.1c1,-1.8,1.8,1.5,-.1,2.4c.4,.8,-.5,2.5,-1.5,2.6c.1,1.9,-3.2,3.2,-2.1,1.3c0,-.1,-.1,-.2,-.3,-.3c-.3,-.1,-.6,-.1,-.9,0c-.3,.2,-.5,.5,-.5,.9c0,.1,0,.2,.1,.4c2.1,0,-.4,2.3,-2.2,1.1c-.4,.7,-2.4,.8,-3,0c-1.6,1,-4.3,-1.1,-2.1,-1.1c.1,-.2,.1,-.3,.1,-.4c0,-.4,-.2,-.7,-.5,-.9c-.3,-.1,-.6,-.2,-1,0c-.1,.1,-.2,.2,-.3,.3c1.1,1.8,-2.2,.9,-2,-1.3c-.9,0,-1.9,-1.7,-1.5,-2.6c-1.7,-.9,-1.2,-4.3,-.1,-2.4c.1,0,.3,-.1,.4,-.1c.3,-.2,.5,-.5,.5,-.9Z" class="g2"/>
<path d="M326,533.5c0,-.3,-.2,-.6,-.5,-.8c-.1,-.1,-.2,-.1,-.4,-.1c-1,1.8,-1.9,-1.5,.1,-2.5c-.4,-.7,.5,-2.4,1.5,-2.5c-.1,-1.9,3.1,-3.2,2,-1.3c.1,.1,.2,.2,.4,.3c.3,.1,.6,.1,.9,0c.3,-.2,.5,-.5,.5,-.9c0,-.1,0,-.2,-.1,-.4c-2.1,0,.4,-2.3,2.2,-1.1c.4,-.7,2.3,-.8,3,0c1.6,-1,4.3,1.1,2.1,1.1c-.1,.2,-.1,.3,-.1,.4c0,.4,.2,.7,.5,.9c.3,.1,.6,.2,.9,0c.2,-.1,.3,-.2,.3,-.3c-1,-1.8,2.3,-.9,2.1,1.3c.8,0,1.9,1.7,1.5,2.6c1.7,.9,1.2,4.3,.1,2.4c-.2,0,-.3,0,-.4,.1c-.3,.2,-.5,.5,-.5,.8Z" class="g2"/>
<text x="327.5" y="537.5" class="s5">50</text>
<path d="M254.6,624.5c0,.3,.2,.6,.5,.8c.2,.1,.3,.2,.4,.2c1.1,-1.9,1.9,1.5,-.1,2.4c.5,.7,-.5,2.4,-1.5,2.6c.1,1.9,-3.1,3.2,-2,1.3c-.1,-.2,-.2,-.3,-.3,-.3c-.3,-.2,-.7,-.2,-1,0c-.3,.1,-.5,.4,-.5,.8c0,.1,0,.3,.1,.4c2.1,0,-.4,2.4,-2.1,1.1c-.4,.8,-2.4,.8,-3,0c-1.6,1.1,-4.3,-1.1,-2.2,-1.1c.1,-.1,.1,-.3,.1,-.4c0,-.4,-.2,-.7,-.4,-.8c-.3,-.2,-.7,-.2,-1,0c-.1,0,-.2,.1,-.3,.3c1,1.8,-2.3,.8,-2.1,-1.4c-.8,.1,-1.8,-1.6,-1.5,-2.6c-1.7,-.8,-1.1,-4.2,-.1,-2.4c.2,0,.3,0,.4,-.1c.4,-.2,.5,-.5,.5,-.8Z" class="g2"/>
<path d="M238.5,624.5c0,-.3,-.1,-.7,-.4,-.8c-.2,-.1,-.3,-.2,-.4,-.2c-1.1,1.8,-1.9,-1.5,.1,-2.4c-.5,-.7,.5,-2.4,1.5,-2.6c-.1,-1.9,3.1,-3.2,2,-1.3c.1,.1,.2,.2,.3,.3c.3,.2,.7,.2,1,0c.3,-.1,.4,-.5,.4,-.8c0,-.2,0,-.3,0,-.4c-2.1,0,.3,-2.4,2.1,-1.2c.4,-.7,2.4,-.7,3,0c1.6,-1,4.3,1.2,2.1,1.2c0,.1,-.1,.2,-.1,.4c0,.3,.2,.7,.5,.8c.3,.2,.7,.2,1,0c.1,-.1,.2,-.1,.3,-.3c-1.1,-1.8,2.2,-.8,2.1,1.3c.8,0,1.8,1.7,1.4,2.6c1.7,.9,1.2,4.3,.1,2.4c-.1,.1,-.2,.1,-.4,.2c-.3,.1,-.5,.5,-.5,.8Z" class="g2"/>
<text x="240" y="628.5" class="s5">00</text>
<path d="M254.7,670c0,.3,.2,.6,.5,.8c.1,.1,.2,.1,.4,.1c1,-1.8,1.8,1.5,-.1,2.5c.4,.7,-.6,2.4,-1.5,2.6c.1,1.9,-3.2,3.1,-2.1,1.2c-.1,-.1,-.2,-.2,-.3,-.3c-.3,-.1,-.7,-.1,-.9,0c-.3,.2,-.5,.5,-.5,.9c0,.1,0,.3,.1,.4c2.1,0,-.4,2.4,-2.2,1.1c-.4,.8,-2.4,.8,-3,0c-1.6,1,-4.3,-1.1,-2.1,-1.1c0,-.1,.1,-.3,.1,-.4c0,-.4,-.2,-.7,-.5,-.9c-.3,-.1,-.7,-.1,-1,0c-.1,.1,-.2,.2,-.3,.3c1.1,1.8,-2.2,.9,-2,-1.3c-.9,0,-1.9,-1.7,-1.5,-2.6c-1.7,-.8,-1.2,-4.3,-.1,-2.4c.1,0,.3,0,.4,-.1c.3,-.2,.5,-.5,.5,-.8Z" class="g2"/>
<path d="M238.6,670c0,-.4,-.2,-.7,-.5,-.9c-.1,0,-.3,-.1,-.4,-.1c-1.1,1.8,-1.9,-1.5,.1,-2.4c-.4,-.8,.5,-2.5,1.5,-2.6c-.1,-1.9,3.1,-3.2,2,-1.3c.1,.1,.2,.2,.3,.3c.3,.2,.7,.2,1,0c.3,-.2,.5,-.5,.5,-.8c0,-.2,0,-.3,-.1,-.5c-2.1,0,.4,-2.3,2.2,-1.1c.4,-.7,2.3,-.8,3,0c1.5,-1,4.3,1.1,2.1,1.1c-.1,.2,-.1,.3,-.1,.5c0,.3,.2,.6,.5,.8c.2,.2,.6,.2,.9,0c.1,-.1,.3,-.2,.3,-.3c-1,-1.8,2.3,-.9,2.1,1.3c.8,0,1.8,1.7,1.5,2.6c1.7,.9,1.2,4.3,.1,2.4c-.2,0,-.3,.1,-.4,.1c-.3,.2,-.5,.5,-.5,.9Z" class="g2"/>
<text x="240.1" y="673.9" class="s5">00</text>
<path d="M254.6,821.2c0,.4,.2,.7,.5,.9c.2,.1,.3,.1,.4,.1c1.1,-1.8,1.9,1.5,-.1,2.4c.5,.8,-.5,2.5,-1.5,2.6c.1,1.9,-3.1,3.2,-2,1.3c-.1,-.1,-.2,-.2,-.3,-.3c-.3,-.2,-.7,-.1,-1,0c-.3,.2,-.5,.5,-.5,.8c0,.2,0,.3,.1,.5c2.1,0,-.4,2.3,-2.1,1.1c-.4,.7,-2.4,.8,-3,0c-1.6,1,-4.3,-1.1,-2.2,-1.1c.1,-.2,.1,-.3,.1,-.5c0,-.3,-.2,-.6,-.4,-.8c-.3,-.2,-.7,-.2,-1,0c-.1,.1,-.2,.2,-.3,.3c1,1.8,-2.3,.9,-2.1,-1.3c-.8,0,-1.8,-1.7,-1.5,-2.6c-1.7,-.9,-1.1,-4.3,-.1,-2.4c.2,0,.3,-.1,.4,-.1c.4,-.2,.5,-.5,.5,-.9Z" class="g2"/>
<path d="M238.5,821.2c0,-.3,-.1,-.6,-.4,-.8c-.2,-.1,-.3,-.1,-.4,-.1c-1.1,1.8,-1.9,-1.5,.1,-2.5c-.5,-.7,.5,-2.4,1.5,-2.6c-.1,-1.8,3.1,-3.1,2,-1.2c.1,.1,.2,.2,.3,.3c.3,.1,.7,.1,1,0c.3,-.2,.4,-.5,.4,-.9c0,-.1,0,-.2,0,-.4c-2.1,0,.3,-2.4,2.1,-1.1c.4,-.8,2.4,-.8,3,0c1.6,-1,4.3,1.1,2.1,1.1c0,.1,-.1,.3,-.1,.4c0,.4,.2,.7,.5,.9c.3,.1,.7,.1,1,0c.1,-.1,.2,-.2,.3,-.3c-1.1,-1.8,2.2,-.9,2.1,1.3c.8,0,1.8,1.7,1.4,2.6c1.7,.8,1.2,4.3,.1,2.4c-.1,0,-.2,0,-.4,.1c-.3,.2,-.5,.5,-.5,.8Z" class="g2"/>
<text x="240" y="825.2" class="s5">00</text>
<path d="M342.1,685.1c0,.4,.2,.7,.5,.9c.1,0,.2,.1,.4,.1c1,-1.8,1.8,1.5,-.1,2.4c.4,.7,-.5,2.5,-1.5,2.6c.1,1.9,-3.2,3.2,-2.1,1.3c0,-.1,-.1,-.2,-.3,-.3c-.3,-.2,-.6,-.2,-.9,0c-.3,.2,-.5,.5,-.5,.8c0,.2,0,.3,.1,.4c2.1,0,-.4,2.4,-2.2,1.2c-.4,.7,-2.4,.7,-3,0c-1.6,1,-4.3,-1.2,-2.1,-1.2c.1,-.1,.1,-.2,.1,-.4c0,-.3,-.2,-.6,-.5,-.8c-.3,-.2,-.6,-.2,-1,0c-.1,.1,-.2,.1,-.3,.3c1.1,1.8,-2.2,.8,-2,-1.3c-.9,0,-1.9,-1.7,-1.5,-2.6c-1.7,-.9,-1.2,-4.3,-.1,-2.4c.1,0,.3,-.1,.4,-.2c.3,-.1,.5,-.4,.5,-.8Z" class="g2"/>
<path d="M326,685.1c0,-.3,-.2,-.6,-.5,-.8c-.1,-.1,-.2,-.1,-.4,-.1c-1,1.8,-1.9,-1.6,.1,-2.5c-.4,-.7,.5,-2.4,1.5,-2.6c-.1,-1.9,3.1,-3.1,2,-1.2c.1,.1,.2,.2,.4,.2c.3,.2,.6,.2,.9,.1c.3,-.2,.5,-.5,.5,-.9c0,-.1,0,-.3,-.1,-.4c-2.1,0,.4,-2.4,2.2,-1.1c.4,-.8,2.3,-.8,3,0c1.6,-1.1,4.3,1.1,2.1,1.1c-.1,.1,-.1,.3,-.1,.4c0,.4,.2,.7,.5,.9c.3,.1,.6,.1,.9,0c.2,-.1,.3,-.2,.3,-.3c-1,-1.9,2.3,-.9,2.1,1.3c.8,-.1,1.9,1.6,1.5,2.6c1.7,.8,1.2,4.3,.1,2.4c-.2,0,-.3,0,-.4,.1c-.3,.2,-.5,.5,-.5,.8Z" class="g2"/>
<text x="327.5" y="689.1" class="s5">00</text>
<path d="M342.1,654.8c0,.3,.2,.7,.5,.8c.1,.1,.2,.2,.4,.2c1,-1.8,1.8,1.5,-.1,2.4c.4,.7,-.5,2.4,-1.5,2.6c.1,1.9,-3.2,3.2,-2.1,1.3c0,-.1,-.1,-.2,-.3,-.3c-.3,-.2,-.6,-.2,-.9,0c-.3,.1,-.5,.5,-.5,.8c0,.2,0,.3,.1,.4c2.1,0,-.4,2.4,-2.2,1.2c-.4,.7,-2.4,.7,-3,0c-1.6,1,-4.3,-1.2,-2.1,-1.2c.1,-.1,.1,-.2,.1,-.4c0,-.3,-.2,-.7,-.5,-.8c-.3,-.2,-.6,-.2,-1,0c-.1,.1,-.2,.1,-.3,.3c1.1,1.8,-2.2,.8,-2,-1.3c-.9,0,-1.9,-1.7,-1.5,-2.6c-1.7,-.9,-1.2,-4.3,-.1,-2.4c.1,-.1,.3,-.1,.4,-.2c.3,-.1,.5,-.5,.5,-.8Z" class="g2"/>
<path d="M326,654.8c0,-.3,-.2,-.6,-.5,-.8c-.1,-.1,-.2,-.2,-.4,-.2c-1,1.9,-1.9,-1.5,.1,-2.4c-.4,-.7,.5,-2.4,1.5,-2.6c-.1,-1.9,3.1,-3.2,2,-1.3c.1,.2,.2,.3,.4,.3c.3,.2,.6,.2,.9,0c.3,-.1,.5,-.4,.5,-.8c0,-.1,0,-.3,-.1,-.4c-2.1,0,.4,-2.4,2.2,-1.1c.4,-.8,2.3,-.8,3,0c1.6,-1.1,4.3,1.1,2.1,1.1c-.1,.1,-.1,.3,-.1,.4c0,.4,.2,.7,.5,.8c.3,.2,.6,.2,.9,0c.2,0,.3,-.1,.3,-.3c-1,-1.8,2.3,-.8,2.1,1.4c.8,-.1,1.9,1.6,1.5,2.6c1.7,.8,1.2,4.2,.1,2.4c-.2,0,-.3,0,-.4,.1c-.3,.2,-.5,.5,-.5,.8Z" class="g2"/>
<text x="327.5" y="658.8" class="s5">00</text>
<text x="257.7" y="667" class="s6">ダダダダダダ</text>
<text x="509.5" y="409.3" class="s6">ダダダダダダ</text>
<text x="274.1" y="757.8" class="s6">中夜祭</text>
<text x="128.3" y="734.6" class="s5">音楽部小講堂</text>
<text x="140.2" y="751.9" class="s5">ステージ</text>
<path clip-path="url(#c0)" d="M-12.7,922.2H640.7V-12.7H-12.7V922.2Z" class="g4"/>
<path d="M739,184.9h512.6M739,275.9h512.6M739,366.8h512.6M739,457.8h512.6M739,548.7h512.6M739,639.7h512.6M739,730.6h512.6M739,821.2h512.6" class="g1"/>
<text x="771.8" y="144.3" dx="0,11.5,11.5" class="s7">小講堂</text>
<text x="898.2" y="144.3" dx="0,.5,.5,.5" class="s7">大体育館</text>
<text x="1024.1" y="144.3" dx="0,.5,.5,.5" class="s7">視聴覚室</text>
<text x="1149.9" y="144.3" dx="0,11.5,11.5" class="s7">柔道場</text>
<text x="682.5" y="73.8" class="s8">タイムテーブル　二日目</text>
<text x="694.2" y="183.8" class="s9">9</text>
<text x="712" y="185.2" class="sa">時</text>
<text x="679.9" y="275.2" class="s9">10</text>
<text x="712" y="276.6" class="sa">時</text>
<text x="679.9" y="365.9" class="s9">11</text>
<text x="712" y="367.3" class="sa">時</text>
<text x="679.9" y="456.9" class="s9">12</text>
<text x="712" y="458.3" class="sa">時</text>
<text x="679.9" y="547.5" class="s9">13</text>
<text x="712" y="549" class="sa">時</text>
<text x="679.9" y="638.9" class="s9">14</text>
<text x="712" y="640.3" class="sa">時</text>
<text x="679.9" y="732.2" class="s9">15</text>
<text x="712" y="733.6" class="sa">時</text>
<text x="679.9" y="820.3" class="s9">16</text>
<text x="712" y="821.7" class="sa">時</text>
<path d="M1112,609.3h-87.9V472.9H1112V609.3Z" class="g2"/>
<path d="M1025.4,599.4c0,4.8,3.9,8.6,8.7,8.6H1102c4.8,0,8.7,-3.8,8.7,-8.6V482.9c0,-4.8,-3.9,-8.7,-8.7,-8.7h-67.9c-4.8,0,-8.7,3.9,-8.7,8.7Z" class="g3"/>
<path d="M1112,260.7h-87.9V184.9H1112v75.8Z" class="g2"/>
<path d="M1025.4,250.8c0,4.7,3.9,8.6,8.7,8.6h68c4.7,0,8.6,-3.9,8.6,-8.6V194.9c0,-4.8,-3.9,-8.7,-8.6,-8.7h-68c-4.8,0,-8.7,3.9,-8.7,8.7Z" class="g3"/>
<path d="M1112,457.8h-87.9V275.9H1112V457.8Z" class="g2"/>
<path d="M1025.4,447.8c0,4.8,3.9,8.7,8.7,8.7h68c4.7,0,8.6,-3.9,8.6,-8.7v-162c0,-4.8,-3.9,-8.6,-8.6,-8.6h-68c-4.8,0,-8.7,3.8,-8.7,8.6Z" class="g3"/>
<path d="M1237.9,359.3h-88.1V267.4h88.1v91.9Z" class="g2"/>
<path d="M1151.1,349.4c0,4.7,3.9,8.6,8.6,8.6h68.2c4.8,0,8.7,-3.9,8.7,-8.6V277.3c0,-4.8,-3.9,-8.6,-8.7,-8.6h-68.2c-4.7,0,-8.6,3.8,-8.6,8.6Z" class="g3"/>
<path d="M1237.9,526.7h-88.1V503.2h88.1v23.5Z" class="g2"/>
<path d="M1151.1,516.8c0,4.7,3.9,8.6,8.6,8.6h68.2c4.8,0,8.7,-3.9,8.7,-8.6v-3.6c0,-4.8,-3.9,-8.7,-8.7,-8.7h-68.2c-4.7,0,-8.6,3.9,-8.6,8.7Z" class="g3"/>
<path d="M985.7,412.3H896.2V184.9h89.5V412.3Z" class="g2"/>
<path d="M897.5,402.3c0,4.8,3.9,8.7,8.7,8.7h69.5c4.8,0,8.7,-3.9,8.7,-8.7V194.9c0,-4.8,-3.9,-8.7,-8.7,-8.7H906.2c-4.8,0,-8.7,3.9,-8.7,8.7Z" class="g3"/>
<path d="M985.7,488.1H896.2V427.4h89.5v60.7Z" class="g2"/>
<path d="M897.5,478.1c0,4.8,3.9,8.7,8.7,8.7h69.5c4.8,0,8.7,-3.9,8.7,-8.7V437.4c0,-4.8,-3.9,-8.7,-8.7,-8.7H906.2c-4.8,0,-8.7,3.9,-8.7,8.7Z" class="g3"/>
<path d="M985.7,624.5H896.2V503.2h89.5V624.5Z" class="g2"/>
<path d="M897.5,614.5c0,4.8,3.9,8.7,8.7,8.7h69.5c4.8,0,8.7,-3.9,8.7,-8.7V513.2c0,-4.8,-3.9,-8.7,-8.7,-8.7H906.2c-4.8,0,-8.7,3.9,-8.7,8.7Z" class="g3"/>
<path d="M985.7,821.2H896.2V685.1h89.5V821.2Z" class="g2"/>
<path d="M897.5,811.3c0,4.8,3.9,8.6,8.7,8.6h69.5c4.8,0,8.7,-3.8,8.7,-8.6V695.1c0,-4.8,-3.9,-8.7,-8.7,-8.7H906.2c-4.8,0,-8.7,3.9,-8.7,8.7Z" class="g3"/>
<path d="M859.7,336.5H771.8V184.9h87.9V336.5Z" class="g2"/>
<path d="M773.1,326.5c0,4.8,3.9,8.7,8.7,8.7h68c4.8,0,8.6,-3.9,8.6,-8.7V194.9c0,-4.8,-3.8,-8.7,-8.6,-8.7h-68c-4.8,0,-8.7,3.9,-8.7,8.7Z" class="g3"/>
<path d="M859.7,442.6H771.8V351.7h87.9v90.9Z" class="g2"/>
<path d="M773.1,432.6c0,4.8,3.9,8.7,8.7,8.7h68c4.8,0,8.6,-3.9,8.6,-8.7v-71c0,-4.8,-3.8,-8.6,-8.6,-8.6h-68c-4.8,0,-8.7,3.8,-8.7,8.6Z" class="g3"/>
<path d="M859.7,639.7H771.8V457.8h87.9V639.7Z" class="g2"/>
<path d="M773.1,629.7c0,4.8,3.9,8.7,8.7,8.7h68c4.8,0,8.6,-3.9,8.6,-8.7v-162c0,-4.8,-3.8,-8.6,-8.6,-8.6h-68c-4.8,0,-8.7,3.8,-8.7,8.6Z" class="g3"/>
<path d="M859.7,821.2H771.9V669.8h87.8V821.2Z" class="g2"/>
<path d="M773.2,811.3c0,4.8,3.9,8.6,8.7,8.6h67.9c4.8,0,8.6,-3.8,8.6,-8.6V679.8c0,-4.8,-3.8,-8.7,-8.6,-8.7H781.9c-4.8,0,-8.7,3.9,-8.7,8.7Z" class="g3"/>
<path d="M1111.8,715.3h-87.5V624.5h87.5v90.8Z" class="g2"/>
<path d="M1025.6,705.3c0,4.8,3.9,8.7,8.7,8.7h67.5c4.8,0,8.7,-3.9,8.7,-8.7V634.5c0,-4.8,-3.9,-8.7,-8.7,-8.7h-67.5c-4.8,0,-8.7,3.9,-8.7,8.7Z" class="g3"/>
<path d="M1111.8,791.2h-87.5V730.6h87.5v60.6Z" class="g2"/>
<path d="M1025.6,781.3c0,4.7,3.9,8.6,8.7,8.6h67.5c4.8,0,8.7,-3.9,8.7,-8.6V740.6c0,-4.8,-3.9,-8.7,-8.7,-8.7h-67.5c-4.8,0,-8.7,3.9,-8.7,8.7Z" class="g3"/>
<text x="797.9" y="393.2" class="sb">彼女は</text>
<text x="786" y="410.5" class="sb">手品好き♡</text>
<text x="797.9" y="553.2" class="sb">講演会</text>
<text x="923.1" y="757.7" class="sb">講演会</text>
<text x="1028.5" y="674.6" class="sb">開成 BUSAIKU</text>
<text x="901.8" y="566.9" dx="0,-1.2,-1.2,-2.1,-2.1,-1.2,-2.1,-2.4" class="sb">バンドコンテスト</text>
<path d="M779.9,336.5c0,.3,.2,.7,.5,.8c.1,.1,.2,.2,.4,.2c1,-1.9,1.9,1.5,-.1,2.4c.4,.7,-.5,2.4,-1.5,2.6c.1,1.9,-3.1,3.2,-2.1,1.3c0,-.1,-.1,-.2,-.3,-.3c-.3,-.2,-.6,-.2,-.9,0c-.3,.1,-.5,.5,-.5,.8c0,.2,0,.3,.1,.4c2.1,0,-.4,2.4,-2.2,1.2c-.4,.7,-2.4,.7,-3,0c-1.6,1,-4.3,-1.2,-2.1,-1.2c.1,-.1,.1,-.2,.1,-.4c0,-.3,-.2,-.7,-.5,-.8c-.3,-.2,-.6,-.2,-.9,0c-.2,0,-.3,.1,-.4,.3c1.1,1.8,-2.2,.8,-2,-1.3c-.9,0,-1.9,-1.7,-1.5,-2.6c-1.7,-.9,-1.2,-4.3,-.1,-2.4c.1,-.1,.3,-.1,.4,-.2c.3,-.2,.5,-.5,.5,-.8Z" class="g2"/>
<path d="M763.8,336.5c0,-.3,-.2,-.7,-.5,-.8c-.1,-.1,-.2,-.2,-.4,-.2c-1,1.9,-1.9,-1.5,.1,-2.4c-.4,-.7,.5,-2.4,1.5,-2.6c-.1,-1.9,3.1,-3.2,2.1,-1.3c0,.1,.1,.2,.3,.3c.3,.2,.6,.2,.9,0c.3,-.1,.5,-.5,.5,-.8c0,-.2,0,-.3,-.1,-.4c-2.1,0,.4,-2.4,2.2,-1.1c.4,-.8,2.3,-.8,3,0c1.6,-1.1,4.3,1.1,2.1,1.1c-.1,.1,-.1,.2,-.1,.4c0,.3,.2,.7,.5,.8c.3,.2,.6,.2,.9,0c.2,0,.3,-.1,.3,-.3c-1,-1.8,2.3,-.8,2.1,1.4c.9,-.1,1.9,1.6,1.5,2.5c1.7,.9,1.2,4.3,.1,2.4c-.1,.1,-.3,.1,-.4,.2c-.3,.2,-.5,.5,-.5,.8Z" class="g2"/>
<text x="765.3" y="340.5" class="sb">40</text>
<path d="M780,442.6c0,.3,.2,.7,.5,.8c.1,.1,.2,.2,.4,.2c1,-1.9,1.8,1.5,-.1,2.4c.4,.7,-.6,2.4,-1.5,2.6c.1,1.9,-3.2,3.2,-2.1,1.3c-.1,-.1,-.2,-.2,-.3,-.3c-.3,-.2,-.7,-.2,-.9,0c-.3,.1,-.5,.5,-.5,.8c0,.2,0,.3,.1,.4c2.1,0,-.4,2.4,-2.2,1.2c-.4,.7,-2.4,.7,-3,0c-1.6,1,-4.3,-1.2,-2.1,-1.2c0,-.1,.1,-.2,.1,-.4c0,-.3,-.2,-.7,-.5,-.8c-.3,-.2,-.7,-.2,-1,0c-.1,0,-.2,.1,-.3,.3c1.1,1.8,-2.2,.8,-2,-1.3c-.9,0,-1.9,-1.7,-1.5,-2.6c-1.7,-.9,-1.2,-4.3,-.1,-2.4c.1,-.1,.3,-.1,.4,-.2c.3,-.1,.5,-.5,.5,-.8Z" class="g2"/>
<path d="M763.9,442.6c0,-.3,-.2,-.7,-.5,-.8c-.1,-.1,-.3,-.2,-.4,-.2c-1.1,1.9,-1.9,-1.5,.1,-2.4c-.5,-.7,.5,-2.4,1.5,-2.6c-.1,-1.9,3.1,-3.2,2,-1.3c.1,.1,.2,.2,.3,.3c.3,.2,.7,.2,1,0c.3,-.1,.5,-.4,.5,-.8c0,-.2,0,-.3,-.1,-.4c-2.1,0,.4,-2.4,2.2,-1.1c.4,-.8,2.3,-.8,3,0c1.5,-1.1,4.3,1.1,2.1,1.1c-.1,.1,-.1,.2,-.1,.4c0,.3,.2,.7,.5,.8c.2,.2,.6,.2,.9,0c.1,0,.3,-.1,.3,-.3c-1,-1.8,2.3,-.8,2.1,1.4c.8,-.1,1.8,1.6,1.5,2.5c1.7,.9,1.2,4.3,.1,2.5c-.2,0,-.3,0,-.4,.1c-.3,.2,-.5,.5,-.5,.8Z" class="g2"/>
<text x="765.4" y="446.6" class="sb">50</text>
<path d="M904.3,412.3c0,.3,.1,.6,.4,.8c.2,.1,.3,.2,.4,.1c1.1,-1.8,1.9,1.6,-.1,2.5c.5,.7,-.5,2.4,-1.5,2.6c.1,1.9,-3.1,3.2,-2,1.3c-.1,-.2,-.2,-.3,-.3,-.3c-.3,-.2,-.7,-.2,-1,0c-.3,.1,-.5,.4,-.5,.8c0,.1,.1,.3,.1,.4c2.1,0,-.3,2.4,-2.1,1.1c-.4,.8,-2.4,.8,-3,0c-1.6,1.1,-4.3,-1.1,-2.2,-1.1c.1,-.1,.1,-.3,.1,-.4c0,-.4,-.1,-.7,-.4,-.8c-.3,-.2,-.7,-.2,-1,0c-.1,0,-.2,.1,-.3,.2c1,1.9,-2.3,.9,-2.1,-1.3c-.8,.1,-1.8,-1.6,-1.5,-2.6c-1.7,-.8,-1.1,-4.3,0,-2.4c.1,0,.2,0,.4,-.1c.3,-.2,.4,-.5,.4,-.8Z" class="g2"/>
<path d="M888.1,412.3c0,-.3,-.1,-.7,-.4,-.8c-.2,-.1,-.3,-.2,-.4,-.2c-1.1,1.8,-1.9,-1.5,.1,-2.4c-.5,-.7,.5,-2.4,1.5,-2.6c-.1,-1.9,3.1,-3.2,2,-1.3c.1,.1,.2,.2,.3,.3c.3,.2,.7,.2,1,0c.3,-.2,.5,-.5,.5,-.8c0,-.2,-.1,-.3,-.1,-.4c-2.1,0,.3,-2.4,2.1,-1.2c.4,-.7,2.4,-.7,3,0c1.6,-1,4.3,1.2,2.1,1.2c0,.1,-.1,.2,-.1,.4c0,.3,.2,.6,.5,.8c.3,.2,.7,.2,1,0c.1,-.1,.2,-.1,.3,-.3c-1.1,-1.8,2.2,-.8,2.1,1.3c.8,0,1.8,1.7,1.5,2.6c1.6,.9,1.1,4.3,0,2.4c-.1,0,-.2,.1,-.4,.2c-.3,.1,-.4,.5,-.4,.8Z" class="g2"/>
<text x="889.6" y="416.3" class="sb">30</text>
<path d="M904.3,488.1c0,.3,.1,.6,.4,.8c.2,.1,.3,.1,.4,.1c1.1,-1.8,1.9,1.6,-.1,2.5c.5,.7,-.5,2.4,-1.5,2.6c.1,1.9,-3.1,3.1,-2,1.2c-.1,-.1,-.2,-.2,-.3,-.2c-.3,-.2,-.7,-.2,-1,-.1c-.3,.2,-.5,.5,-.5,.9c0,.1,.1,.3,.1,.4c2.1,0,-.3,2.4,-2.1,1.1c-.4,.8,-2.4,.8,-3,0c-1.6,1.1,-4.3,-1.1,-2.2,-1.1c.1,-.1,.1,-.3,.1,-.4c0,-.4,-.1,-.7,-.4,-.9c-.3,-.1,-.7,-.1,-1,0c-.1,.1,-.2,.2,-.3,.3c1,1.8,-2.3,.9,-2.1,-1.3c-.8,.1,-1.8,-1.6,-1.5,-2.6c-1.7,-.8,-1.1,-4.3,0,-2.4c.1,0,.2,0,.4,-.1c.3,-.2,.4,-.5,.4,-.8Z" class="g2"/>
<path d="M888.1,488.1c0,-.4,-.1,-.7,-.4,-.9c-.2,0,-.3,-.1,-.4,-.1c-1.1,1.8,-1.9,-1.5,.1,-2.4c-.5,-.7,.5,-2.5,1.5,-2.6c-.1,-1.9,3.1,-3.2,2,-1.3c.1,.1,.2,.2,.3,.3c.3,.2,.7,.2,1,0c.3,-.2,.5,-.5,.5,-.8c0,-.2,-.1,-.3,-.1,-.4c-2.1,0,.3,-2.4,2.1,-1.2c.4,-.7,2.4,-.7,3,0c1.6,-1,4.3,1.2,2.1,1.2c0,.1,-.1,.2,-.1,.4c0,.3,.2,.6,.5,.8c.3,.2,.7,.2,1,0c.1,-.1,.2,-.1,.3,-.3c-1.1,-1.8,2.2,-.8,2.1,1.3c.8,0,1.8,1.7,1.5,2.6c1.6,.9,1.1,4.3,0,2.4c-.1,0,-.2,.1,-.4,.2c-.3,.1,-.4,.4,-.4,.8Z" class="g2"/>
<text x="889.6" y="492" class="sb">20</text>
<path d="M904.3,624.5c0,.3,.1,.6,.4,.8c.2,.1,.3,.2,.4,.2c1.1,-1.9,1.9,1.5,-.1,2.4c.5,.7,-.5,2.4,-1.5,2.6c.1,1.9,-3.1,3.2,-2,1.3c-.1,-.2,-.2,-.3,-.3,-.3c-.3,-.2,-.7,-.2,-1,0c-.3,.1,-.5,.4,-.5,.8c0,.1,.1,.3,.1,.4c2.1,0,-.3,2.4,-2.1,1.1c-.4,.8,-2.4,.8,-3,0c-1.6,1.1,-4.3,-1.1,-2.2,-1.1c.1,-.1,.1,-.3,.1,-.4c0,-.4,-.1,-.7,-.4,-.8c-.3,-.2,-.7,-.2,-1,0c-.1,0,-.2,.1,-.3,.3c1,1.8,-2.3,.8,-2.1,-1.4c-.8,.1,-1.8,-1.6,-1.5,-2.6c-1.7,-.8,-1.1,-4.2,0,-2.4c.1,0,.2,0,.4,-.1c.3,-.2,.4,-.5,.4,-.8Z" class="g2"/>
<path d="M888.1,624.5c0,-.3,-.1,-.7,-.4,-.8c-.2,-.1,-.3,-.2,-.4,-.2c-1.1,1.8,-1.9,-1.5,.1,-2.4c-.5,-.7,.5,-2.4,1.5,-2.6c-.1,-1.9,3.1,-3.2,2,-1.3c.1,.1,.2,.2,.3,.3c.3,.2,.7,.2,1,0c.3,-.1,.5,-.5,.5,-.8c0,-.2,-.1,-.3,-.1,-.4c-2.1,0,.3,-2.4,2.1,-1.2c.4,-.7,2.4,-.7,3,0c1.6,-1,4.3,1.2,2.1,1.2c0,.1,-.1,.2,-.1,.4c0,.3,.2,.7,.5,.8c.3,.2,.7,.2,1,0c.1,-.1,.2,-.1,.3,-.3c-1.1,-1.8,2.2,-.8,2.1,1.3c.8,0,1.8,1.7,1.5,2.6c1.6,.9,1.1,4.3,0,2.4c-.1,.1,-.2,.1,-.4,.2c-.3,.1,-.4,.5,-.4,.8Z" class="g2"/>
<text x="889.6" y="628.5" class="sb">50</text>
<path d="M904.3,821.2c0,.4,.1,.7,.4,.9c.2,.1,.3,.1,.4,.1c1.1,-1.8,1.9,1.5,-.1,2.4c.5,.8,-.5,2.5,-1.5,2.6c.1,1.9,-3.1,3.2,-2,1.3c-.1,-.1,-.2,-.2,-.3,-.3c-.3,-.2,-.7,-.1,-1,0c-.3,.2,-.5,.5,-.5,.8c0,.2,.1,.3,.1,.5c2.1,0,-.3,2.3,-2.1,1.1c-.4,.7,-2.4,.8,-3,0c-1.6,1,-4.3,-1.1,-2.2,-1.1c.1,-.2,.1,-.3,.1,-.5c0,-.3,-.1,-.6,-.4,-.8c-.3,-.2,-.7,-.2,-1,0c-.1,.1,-.2,.2,-.3,.3c1,1.8,-2.3,.9,-2.1,-1.3c-.8,0,-1.8,-1.7,-1.5,-2.6c-1.7,-.9,-1.1,-4.3,0,-2.4c.1,0,.2,-.1,.4,-.1c.3,-.2,.4,-.5,.4,-.9Z" class="g2"/>
<path d="M888.1,821.2c0,-.3,-.1,-.6,-.4,-.8c-.2,-.1,-.3,-.1,-.4,-.1c-1.1,1.8,-1.9,-1.5,.1,-2.5c-.5,-.7,.5,-2.4,1.5,-2.6c-.1,-1.8,3.1,-3.1,2,-1.2c.1,.1,.2,.2,.3,.3c.3,.1,.7,.1,1,0c.3,-.2,.5,-.5,.5,-.9c0,-.1,-.1,-.2,-.1,-.4c-2.1,0,.3,-2.4,2.1,-1.1c.4,-.8,2.4,-.8,3,0c1.6,-1,4.3,1.1,2.1,1.1c0,.1,-.1,.3,-.1,.4c0,.4,.2,.7,.5,.9c.3,.1,.7,.1,1,0c.1,-.1,.2,-.2,.3,-.3c-1.1,-1.8,2.2,-.9,2.1,1.3c.8,0,1.8,1.7,1.5,2.6c1.6,.8,1.1,4.3,0,2.4c-.1,0,-.2,0,-.4,.1c-.3,.2,-.4,.5,-.4,.8Z" class="g2"/>
<text x="889.6" y="825.2" class="sb">00</text>
<path d="M779.9,639.7c0,.3,.2,.6,.5,.8c.1,.1,.2,.1,.4,.1c1,-1.8,1.9,1.5,-.1,2.4c.4,.8,-.5,2.5,-1.5,2.6c.1,1.9,-3.1,3.2,-2.1,1.3c0,-.1,-.1,-.2,-.3,-.3c-.3,-.1,-.6,-.1,-.9,0c-.3,.2,-.5,.5,-.5,.9c0,.1,0,.2,.1,.4c2.1,0,-.4,2.3,-2.2,1.1c-.4,.7,-2.4,.8,-3,0c-1.6,1,-4.3,-1.1,-2.1,-1.1c.1,-.2,.1,-.3,.1,-.4c0,-.4,-.2,-.7,-.5,-.9c-.3,-.1,-.6,-.2,-.9,0c-.2,.1,-.3,.2,-.4,.3c1.1,1.8,-2.2,.9,-2,-1.3c-.9,0,-1.9,-1.7,-1.5,-2.6c-1.7,-.9,-1.2,-4.3,-.1,-2.4c.1,0,.3,0,.4,-.1c.3,-.2,.5,-.5,.5,-.8Z" class="g2"/>
<path d="M763.8,639.7c0,-.4,-.2,-.7,-.5,-.9c-.1,-.1,-.2,-.1,-.4,-.1c-1,1.8,-1.9,-1.5,.1,-2.4c-.4,-.8,.5,-2.5,1.5,-2.6c-.1,-1.9,3.1,-3.2,2.1,-1.3c0,.1,.1,.2,.3,.3c.3,.1,.6,.1,.9,0c.3,-.2,.5,-.5,.5,-.9c0,-.1,0,-.2,-.1,-.4c-2.1,0,.4,-2.3,2.2,-1.1c.4,-.7,2.3,-.8,3,0c1.6,-1,4.3,1.1,2.1,1.1c-.1,.2,-.1,.3,-.1,.4c0,.4,.2,.7,.5,.9c.3,.1,.6,.2,.9,0c.2,-.1,.3,-.2,.3,-.3c-1,-1.8,2.3,-.9,2.1,1.3c.9,0,1.9,1.7,1.5,2.6c1.7,.9,1.2,4.3,.1,2.4c-.1,0,-.3,.1,-.4,.1c-.3,.2,-.5,.5,-.5,.9Z" class="g2"/>
<text x="765.3" y="643.6" class="sb">00</text>
<path d="M780,821.2c0,.4,.2,.7,.5,.9c.1,.1,.2,.1,.4,.1c1,-1.8,1.8,1.5,-.1,2.4c.4,.8,-.6,2.5,-1.5,2.6c.1,1.9,-3.2,3.2,-2.1,1.3c-.1,-.1,-.2,-.2,-.3,-.3c-.3,-.2,-.7,-.1,-.9,0c-.3,.2,-.5,.5,-.5,.8c0,.2,0,.3,.1,.5c2.1,0,-.4,2.3,-2.2,1.1c-.4,.7,-2.4,.8,-3,0c-1.6,1,-4.3,-1.1,-2.1,-1.1c0,-.2,.1,-.3,.1,-.5c0,-.3,-.2,-.6,-.5,-.8c-.3,-.2,-.7,-.2,-1,0c-.1,.1,-.2,.2,-.3,.3c1.1,1.8,-2.2,.9,-2,-1.3c-.9,0,-1.9,-1.7,-1.5,-2.6c-1.7,-.9,-1.2,-4.3,-.1,-2.4c.1,0,.3,-.1,.4,-.1c.3,-.2,.5,-.5,.5,-.9Z" class="g2"/>
<path d="M763.9,821.2c0,-.3,-.2,-.6,-.5,-.8c-.1,-.1,-.3,-.1,-.4,-.1c-1.1,1.8,-1.9,-1.5,.1,-2.5c-.5,-.7,.5,-2.4,1.5,-2.6c-.1,-1.8,3.1,-3.1,2,-1.2c.1,.1,.2,.2,.3,.3c.3,.1,.7,.1,1,0c.3,-.2,.5,-.5,.5,-.9c0,-.1,0,-.2,-.1,-.4c-2.1,0,.4,-2.4,2.2,-1.1c.4,-.8,2.3,-.8,3,0c1.5,-1,4.3,1.1,2.1,1.1c-.1,.1,-.1,.3,-.1,.4c0,.4,.2,.7,.5,.9c.2,.1,.6,.1,.9,0c.1,-.1,.3,-.2,.3,-.3c-1,-1.8,2.3,-.9,2.1,1.3c.8,0,1.8,1.7,1.5,2.6c1.7,.8,1.2,4.3,.1,2.4c-.2,0,-.3,0,-.4,.1c-.3,.2,-.5,.5,-.5,.8Z" class="g2"/>
<text x="765.4" y="825.2" class="sb">00</text>
<path d="M867.8,184.9c0,.4,.2,.7,.5,.9c.1,0,.2,.1,.4,.1c1,-1.8,1.8,1.5,-.1,2.4c.4,.7,-.6,2.5,-1.5,2.6c.1,1.9,-3.2,3.2,-2.1,1.3c-.1,-.1,-.2,-.2,-.3,-.3c-.3,-.2,-.7,-.2,-.9,0c-.3,.2,-.5,.5,-.5,.8c0,.2,0,.3,.1,.4c2.1,0,-.4,2.4,-2.2,1.2c-.4,.7,-2.4,.7,-3,0c-1.6,1,-4.3,-1.2,-2.1,-1.2c0,-.1,.1,-.2,.1,-.4c0,-.3,-.2,-.6,-.5,-.8c-.3,-.2,-.7,-.2,-1,0c-.1,.1,-.2,.2,-.3,.3c1.1,1.8,-2.2,.8,-2,-1.3c-.9,0,-1.9,-1.7,-1.5,-2.6c-1.7,-.9,-1.2,-4.3,-.1,-2.4c.1,0,.3,-.1,.4,-.1c.3,-.2,.5,-.5,.5,-.9Z" class="g2"/>
<path d="M851.7,184.9c0,-.3,-.2,-.6,-.5,-.8c-.1,-.1,-.3,-.1,-.4,-.1c-1.1,1.8,-1.9,-1.6,.1,-2.5c-.4,-.7,.5,-2.4,1.5,-2.6c-.1,-1.9,3.1,-3.1,2,-1.2c.1,.1,.2,.2,.3,.2c.3,.2,.7,.2,1,.1c.3,-.2,.5,-.5,.5,-.9c0,-.1,0,-.3,-.1,-.4c-2.1,0,.4,-2.4,2.2,-1.1c.4,-.8,2.3,-.8,3,0c1.5,-1.1,4.3,1.1,2.1,1.1c-.1,.1,-.1,.3,-.1,.4c0,.4,.2,.7,.5,.9c.2,.1,.6,.1,.9,0c.1,-.1,.3,-.2,.3,-.3c-1,-1.8,2.3,-.9,2.1,1.3c.8,0,1.8,1.6,1.5,2.6c1.7,.8,1.2,4.3,.1,2.4c-.2,0,-.3,0,-.4,.1c-.3,.2,-.5,.5,-.5,.8Z" class="g2"/>
<text x="853.2" y="188.9" class="sb">00</text>
<path d="M993.8,184.9c0,.4,.1,.7,.4,.9c.2,0,.3,.1,.4,.1c1.1,-1.8,1.9,1.5,-.1,2.4c.5,.7,-.5,2.5,-1.5,2.6c.1,1.9,-3.1,3.2,-2,1.3c-.1,-.1,-.2,-.2,-.3,-.3c-.3,-.2,-.7,-.2,-1,0c-.3,.2,-.5,.5,-.5,.8c0,.2,.1,.3,.1,.4c2.1,0,-.3,2.4,-2.1,1.2c-.4,.7,-2.4,.7,-3,0c-1.6,1,-4.3,-1.2,-2.1,-1.2c0,-.1,0,-.2,0,-.4c0,-.3,-.1,-.6,-.4,-.8c-.3,-.2,-.7,-.2,-1,0c-.1,.1,-.2,.2,-.3,.3c1.1,1.8,-2.2,.8,-2.1,-1.3c-.8,0,-1.8,-1.7,-1.5,-2.6c-1.6,-.9,-1.1,-4.3,0,-2.4c.1,0,.2,-.1,.4,-.1c.3,-.2,.4,-.5,.5,-.9Z" class="g2"/>
<path d="M977.7,184.9c0,-.3,-.2,-.6,-.5,-.8c-.2,-.1,-.3,-.1,-.4,-.1c-1.1,1.8,-1.9,-1.6,.1,-2.5c-.5,-.7,.5,-2.4,1.5,-2.6c-.1,-1.9,3.1,-3.1,2,-1.2c.1,.1,.2,.2,.3,.2c.3,.2,.7,.2,1,.1c.3,-.2,.5,-.5,.5,-.9c0,-.1,-.1,-.3,-.1,-.4c-2.1,0,.3,-2.4,2.1,-1.1c.4,-.8,2.4,-.8,3,0c1.6,-1.1,4.3,1.1,2.2,1.1c-.1,.1,-.1,.3,-.1,.4c0,.4,.1,.7,.4,.9c.3,.1,.7,.1,1,0c.1,-.1,.2,-.2,.3,-.3c-1,-1.8,2.2,-.9,2.1,1.3c.8,0,1.8,1.6,1.5,2.6c1.7,.8,1.1,4.3,0,2.4c-.1,0,-.2,0,-.4,.1c-.3,.2,-.4,.5,-.4,.8Z" class="g2"/>
<text x="979.2" y="188.9" class="sb">00</text>
<path d="M1120.1,184.9c0,.4,.1,.7,.4,.9c.2,0,.3,.1,.4,.1c1.1,-1.8,1.9,1.5,-.1,2.4c.5,.7,-.5,2.5,-1.5,2.6c.1,1.9,-3.1,3.2,-2,1.3c-.1,-.1,-.2,-.2,-.3,-.3c-.3,-.2,-.7,-.2,-1,0c-.3,.2,-.4,.5,-.4,.8c0,.2,0,.3,0,.4c2.1,0,-.3,2.4,-2.1,1.2c-.4,.7,-2.4,.7,-3,0c-1.6,1,-4.3,-1.2,-2.1,-1.2c0,-.1,.1,-.2,.1,-.4c0,-.3,-.2,-.6,-.5,-.8c-.3,-.2,-.7,-.2,-1,0c-.1,.1,-.2,.2,-.3,.3c1.1,1.8,-2.2,.8,-2.1,-1.3c-.8,0,-1.8,-1.7,-1.4,-2.6c-1.7,-.9,-1.2,-4.3,-.1,-2.4c.1,0,.2,-.1,.4,-.1c.3,-.2,.5,-.5,.5,-.9Z" class="g2"/>
<path d="M1104,184.9c0,-.3,-.2,-.6,-.5,-.8c-.2,-.1,-.3,-.1,-.4,-.1c-1.1,1.8,-1.9,-1.6,.1,-2.5c-.5,-.7,.5,-2.4,1.5,-2.6c-.1,-1.9,3.1,-3.1,2,-1.2c.1,.1,.2,.2,.3,.2c.3,.2,.7,.2,1,.1c.3,-.2,.5,-.5,.5,-.9c0,-.1,0,-.3,-.1,-.4c-2.1,0,.4,-2.4,2.1,-1.1c.4,-.8,2.4,-.8,3,0c1.6,-1.1,4.3,1.1,2.2,1.1c-.1,.1,-.1,.3,-.1,.4c0,.4,.2,.7,.4,.9c.3,.1,.7,.1,1,0c.1,-.1,.2,-.2,.3,-.3c-1,-1.8,2.3,-.9,2.1,1.3c.8,0,1.8,1.6,1.5,2.6c1.7,.8,1.1,4.3,.1,2.4c-.2,0,-.3,0,-.5,.1c-.3,.2,-.4,.5,-.4,.8Z" class="g2"/>
<text x="1105.5" y="188.9" class="sb">00</text>
<path d="M1120.1,275.9c0,.3,.1,.6,.4,.8c.2,.1,.3,.1,.4,.1c1.1,-1.8,1.9,1.5,-.1,2.5c.5,.7,-.5,2.4,-1.5,2.6c.1,1.9,-3.1,3.1,-2,1.2c-.1,-.1,-.2,-.2,-.3,-.2c-.3,-.2,-.7,-.2,-1,-.1c-.3,.2,-.4,.5,-.4,.9c0,.1,0,.3,0,.4c2.1,0,-.3,2.4,-2.1,1.1c-.4,.8,-2.4,.8,-3,0c-1.6,1.1,-4.3,-1.1,-2.1,-1.1c0,-.1,.1,-.3,.1,-.4c0,-.4,-.2,-.7,-.5,-.9c-.3,-.1,-.7,-.1,-1,0c-.1,.1,-.2,.2,-.3,.3c1.1,1.8,-2.2,.9,-2.1,-1.3c-.8,0,-1.8,-1.6,-1.4,-2.6c-1.7,-.8,-1.2,-4.3,-.1,-2.4c.1,0,.2,0,.4,-.1c.3,-.2,.5,-.5,.5,-.8Z" class="g2"/>
<path d="M1104,275.9c0,-.4,-.2,-.7,-.5,-.9c-.2,0,-.3,-.1,-.4,-.1c-1.1,1.8,-1.9,-1.5,.1,-2.4c-.5,-.7,.5,-2.5,1.5,-2.6c-.1,-1.9,3.1,-3.2,2,-1.3c.1,.1,.2,.2,.3,.3c.3,.2,.7,.2,1,0c.3,-.2,.5,-.5,.5,-.8c0,-.2,0,-.3,-.1,-.5c-2.1,.1,.4,-2.3,2.1,-1.1c.4,-.7,2.4,-.7,3,0c1.6,-1,4.3,1.1,2.2,1.1c-.1,.2,-.1,.3,-.1,.5c0,.3,.2,.6,.4,.8c.3,.2,.7,.2,1,0c.1,-.1,.2,-.2,.3,-.3c-1,-1.8,2.3,-.8,2.1,1.3c.8,0,1.8,1.7,1.5,2.6c1.7,.9,1.1,4.3,.1,2.4c-.2,0,-.3,.1,-.5,.1c-.3,.2,-.4,.5,-.4,.9Z" class="g2"/>
<text x="1105.5" y="279.8" class="sb">00</text>
<path d="M1245.2,267.4c0,.3,.1,.6,.4,.8c.2,.1,.3,.1,.4,.1c1.1,-1.8,1.9,1.5,-.1,2.5c.5,.7,-.5,2.4,-1.5,2.6c.1,1.8,-3.1,3.1,-2,1.2c-.1,-.1,-.2,-.2,-.3,-.3c-.3,-.1,-.7,-.1,-1,0c-.3,.2,-.5,.5,-.5,.9c0,.1,.1,.2,.1,.4c2.1,0,-.3,2.3,-2.1,1.1c-.4,.7,-2.4,.8,-3,0c-1.6,1,-4.3,-1.1,-2.2,-1.1c.1,-.1,.1,-.3,.1,-.4c0,-.4,-.1,-.7,-.4,-.9c-.3,-.1,-.7,-.2,-1,0c-.1,.1,-.2,.2,-.3,.3c1,1.8,-2.3,.9,-2.1,-1.3c-.8,0,-1.8,-1.7,-1.5,-2.6c-1.7,-.9,-1.1,-4.3,0,-2.4c.1,0,.2,0,.4,-.1c.3,-.2,.4,-.5,.4,-.8Z" class="g2"/>
<path d="M1229,267.4c0,-.4,-.1,-.7,-.4,-.9c-.2,-.1,-.3,-.1,-.4,-.1c-1.1,1.8,-1.9,-1.5,.1,-2.4c-.5,-.8,.5,-2.5,1.5,-2.6c-.1,-1.9,3.1,-3.2,2,-1.3c.1,.1,.2,.2,.3,.3c.3,.2,.7,.1,1,0c.3,-.2,.5,-.5,.5,-.9c0,-.1,-.1,-.2,-.1,-.4c-2.1,0,.3,-2.3,2.1,-1.1c.4,-.7,2.4,-.8,3,0c1.6,-1,4.3,1.1,2.1,1.1c0,.2,0,.3,0,.4c0,.4,.1,.7,.4,.9c.3,.1,.7,.2,1,0c.1,-.1,.2,-.2,.3,-.3c-1.1,-1.8,2.2,-.9,2.1,1.3c.8,0,1.8,1.7,1.5,2.6c1.6,.9,1.1,4.3,0,2.4c-.1,0,-.2,.1,-.4,.1c-.3,.2,-.4,.5,-.4,.9Z" class="g2"/>
<text x="1230.5" y="271.3" class="sb">55</text>
<path d="M1245.9,503.2c0,.3,.2,.7,.5,.8c.1,.1,.2,.2,.4,.2c1,-1.9,1.9,1.5,-.1,2.4c.4,.7,-.5,2.4,-1.5,2.6c.1,1.9,-3.1,3.2,-2.1,1.3c0,-.1,-.1,-.2,-.3,-.3c-.3,-.2,-.6,-.2,-.9,0c-.3,.1,-.5,.4,-.5,.8c0,.2,0,.3,.1,.4c2.1,0,-.4,2.4,-2.2,1.1c-.4,.8,-2.3,.8,-3,0c-1.6,1.1,-4.3,-1.1,-2.1,-1.1c.1,-.1,.1,-.2,.1,-.4c0,-.3,-.2,-.7,-.5,-.8c-.3,-.2,-.6,-.2,-.9,0c-.2,0,-.3,.1,-.3,.3c1,1.8,-2.3,.8,-2.1,-1.4c-.9,.1,-1.9,-1.6,-1.5,-2.5c-1.7,-.9,-1.2,-4.3,-.1,-2.5c.1,0,.3,0,.4,-.1c.3,-.2,.5,-.5,.5,-.8Z" class="g2"/>
<path d="M1229.8,503.2c0,-.3,-.2,-.7,-.5,-.8c-.1,-.1,-.2,-.2,-.4,-.2c-1,1.9,-1.8,-1.5,.1,-2.4c-.4,-.7,.5,-2.4,1.5,-2.6c-.1,-1.9,3.1,-3.2,2.1,-1.3c0,.1,.1,.2,.3,.3c.3,.2,.6,.2,.9,0c.3,-.1,.5,-.5,.5,-.8c0,-.2,0,-.3,-.1,-.4c-2.1,0,.4,-2.4,2.2,-1.2c.4,-.7,2.4,-.7,3,0c1.6,-1,4.3,1.2,2.1,1.2c-.1,.1,-.1,.2,-.1,.4c0,.3,.2,.7,.5,.8c.3,.2,.6,.2,.9,0c.2,0,.3,-.1,.4,-.3c-1.1,-1.8,2.2,-.8,2,1.3c.9,0,1.9,1.7,1.5,2.6c1.7,.9,1.2,4.3,.1,2.4c-.1,.1,-.3,.1,-.4,.2c-.3,.1,-.5,.5,-.5,.8Z" class="g2"/>
<text x="1231.3" y="507.2" class="sb">30</text>
<path d="M1157.8,526.7c0,.3,.2,.7,.5,.8c.1,.1,.3,.2,.4,.2c1.1,-1.8,1.9,1.5,-.1,2.4c.4,.7,-.5,2.4,-1.5,2.6c.1,1.9,-3.1,3.2,-2,1.3c-.1,-.1,-.2,-.2,-.3,-.3c-.3,-.2,-.7,-.2,-1,0c-.3,.2,-.5,.5,-.5,.8c0,.2,0,.3,.1,.4c2.1,0,-.4,2.4,-2.2,1.2c-.4,.7,-2.3,.7,-3,0c-1.5,1,-4.3,-1.2,-2.1,-1.2c.1,-.1,.1,-.2,.1,-.4c0,-.3,-.2,-.6,-.5,-.8c-.2,-.2,-.6,-.2,-.9,0c-.1,.1,-.3,.1,-.3,.3c1,1.8,-2.3,.8,-2.1,-1.3c-.8,0,-1.8,-1.7,-1.5,-2.6c-1.7,-.9,-1.2,-4.3,-.1,-2.4c.2,0,.3,-.1,.4,-.2c.3,-.1,.5,-.5,.5,-.8Z" class="g2"/>
<path d="M1141.7,526.7c0,-.3,-.1,-.6,-.5,-.8c-.1,-.1,-.2,-.2,-.4,-.1c-1,1.8,-1.8,-1.6,.1,-2.5c-.4,-.7,.6,-2.4,1.5,-2.6c-.1,-1.9,3.2,-3.1,2.1,-1.3c.1,.2,.2,.3,.3,.3c.3,.2,.7,.2,.9,0c.3,-.1,.5,-.4,.5,-.8c0,-.1,0,-.3,-.1,-.4c-2.1,0,.4,-2.4,2.2,-1.1c.4,-.8,2.4,-.8,3,0c1.6,-1.1,4.3,1.1,2.1,1.1c0,.1,-.1,.3,-.1,.4c0,.4,.2,.7,.5,.8c.3,.2,.7,.2,1,0c.1,0,.2,-.1,.3,-.2c-1.1,-1.9,2.2,-.9,2,1.3c.9,-.1,1.9,1.6,1.5,2.6c1.7,.8,1.2,4.3,.1,2.4c-.1,0,-.3,0,-.4,.1c-.3,.2,-.5,.5,-.5,.8Z" class="g2"/>
<text x="1143.2" y="530.7" class="sb">45</text>
<path d="M1157.8,359.2c0,.4,.2,.7,.5,.9c.1,0,.3,.1,.4,.1c1.1,-1.8,1.9,1.5,-.1,2.4c.4,.8,-.5,2.5,-1.5,2.6c.1,1.9,-3.1,3.2,-2,1.3c-.1,-.1,-.2,-.2,-.3,-.3c-.3,-.2,-.7,-.2,-1,0c-.3,.2,-.5,.5,-.5,.8c0,.2,0,.3,.1,.5c2.1,0,-.4,2.3,-2.2,1.1c-.4,.7,-2.3,.8,-3,0c-1.5,1,-4.3,-1.1,-2.1,-1.1c.1,-.2,.1,-.3,.1,-.5c0,-.3,-.2,-.6,-.5,-.8c-.2,-.2,-.6,-.2,-.9,0c-.1,.1,-.3,.2,-.3,.3c1,1.8,-2.3,.9,-2.1,-1.3c-.8,0,-1.8,-1.7,-1.5,-2.6c-1.7,-.9,-1.2,-4.3,-.1,-2.4c.2,0,.3,-.1,.4,-.1c.3,-.2,.5,-.5,.5,-.9Z" class="g2"/>
<path d="M1141.7,359.2c0,-.3,-.1,-.6,-.5,-.8c-.1,-.1,-.2,-.1,-.4,-.1c-1,1.8,-1.8,-1.5,.1,-2.5c-.4,-.7,.6,-2.4,1.5,-2.6c-.1,-1.9,3.2,-3.1,2.1,-1.2c.1,.1,.2,.2,.3,.3c.3,.1,.7,.1,.9,0c.3,-.2,.5,-.5,.5,-.9c0,-.1,0,-.2,-.1,-.4c-2.1,0,.4,-2.4,2.2,-1.1c.4,-.8,2.4,-.8,3,0c1.6,-1,4.3,1.1,2.1,1.1c0,.1,-.1,.3,-.1,.4c0,.4,.2,.7,.5,.9c.3,.1,.7,.1,1,0c.1,-.1,.2,-.2,.3,-.3c-1.1,-1.8,2.2,-.9,2,1.3c.9,0,1.9,1.7,1.5,2.6c1.7,.8,1.2,4.3,.1,2.4c-.1,0,-.3,0,-.4,.1c-.3,.2,-.5,.5,-.5,.8Z" class="g2"/>
<text x="1143.2" y="363.2" class="sb">55</text>
<path d="M1120,472.9c0,.4,.2,.7,.5,.9c.1,0,.3,.1,.4,.1c1.1,-1.8,1.9,1.5,-.1,2.4c.4,.7,-.5,2.5,-1.5,2.6c.1,1.9,-3.1,3.2,-2,1.3c-.1,-.1,-.2,-.2,-.3,-.3c-.4,-.2,-.7,-.2,-1,0c-.3,.2,-.5,.5,-.5,.8c0,.2,0,.3,.1,.4c2.1,0,-.4,2.4,-2.2,1.2c-.4,.7,-2.3,.7,-3,0c-1.5,1,-4.3,-1.2,-2.1,-1.2c.1,-.1,.1,-.2,.1,-.4c0,-.3,-.2,-.6,-.5,-.8c-.2,-.2,-.6,-.2,-.9,0c-.1,.1,-.3,.1,-.3,.3c1,1.8,-2.3,.8,-2.1,-1.3c-.8,0,-1.8,-1.7,-1.5,-2.6c-1.7,-.9,-1.2,-4.3,-.1,-2.4c.2,0,.3,-.1,.4,-.2c.3,-.1,.5,-.5,.5,-.8Z" class="g2"/>
<path d="M1103.9,472.9c0,-.3,-.2,-.6,-.5,-.8c-.1,-.1,-.2,-.1,-.4,-.1c-1,1.8,-1.8,-1.6,.1,-2.5c-.4,-.7,.6,-2.4,1.5,-2.6c-.1,-1.9,3.2,-3.1,2.1,-1.3c.1,.2,.2,.3,.3,.3c.3,.2,.7,.2,.9,0c.3,-.1,.5,-.4,.5,-.8c0,-.1,0,-.3,-.1,-.4c-2.1,0,.4,-2.4,2.2,-1.1c.4,-.8,2.4,-.8,3,0c1.6,-1.1,4.3,1.1,2.1,1.1c0,.1,-.1,.3,-.1,.4c0,.4,.2,.7,.5,.8c.3,.2,.7,.2,1,0c.1,0,.2,-.1,.3,-.2c-1.1,-1.9,2.2,-.9,2,1.3c.9,-.1,1.9,1.6,1.5,2.6c1.7,.8,1.2,4.3,.1,2.4c-.1,0,-.3,0,-.4,.1c-.3,.2,-.5,.5,-.5,.8Z" class="g2"/>
<text x="1105.4" y="476.9" class="sb">10</text>
<path d="M1120,624.5c0,.3,.2,.6,.5,.8c.1,.1,.3,.2,.4,.2c1.1,-1.9,1.9,1.5,-.1,2.4c.4,.7,-.5,2.4,-1.5,2.6c.1,1.9,-3.1,3.2,-2,1.3c-.1,-.2,-.2,-.3,-.3,-.3c-.4,-.2,-.7,-.2,-1,0c-.3,.1,-.5,.4,-.5,.8c0,.1,0,.3,.1,.4c2.1,0,-.4,2.4,-2.2,1.1c-.4,.8,-2.3,.8,-3,0c-1.5,1.1,-4.3,-1.1,-2.1,-1.1c.1,-.1,.1,-.3,.1,-.4c0,-.4,-.2,-.7,-.5,-.8c-.2,-.2,-.6,-.2,-.9,0c-.1,0,-.3,.1,-.3,.3c1,1.8,-2.3,.8,-2.1,-1.4c-.8,.1,-1.8,-1.6,-1.5,-2.6c-1.7,-.8,-1.2,-4.2,-.1,-2.4c.2,0,.3,0,.4,-.1c.3,-.2,.5,-.5,.5,-.8Z" class="g2"/>
<path d="M1103.9,624.5c0,-.3,-.2,-.7,-.5,-.8c-.1,-.1,-.2,-.2,-.4,-.2c-1,1.8,-1.8,-1.5,.1,-2.4c-.4,-.7,.6,-2.4,1.5,-2.6c-.1,-1.9,3.2,-3.2,2.1,-1.3c.1,.1,.2,.2,.3,.3c.3,.2,.7,.2,.9,0c.3,-.1,.5,-.5,.5,-.8c0,-.2,0,-.3,-.1,-.4c-2.1,0,.4,-2.4,2.2,-1.2c.4,-.7,2.4,-.7,3,0c1.6,-1,4.3,1.2,2.1,1.2c0,.1,-.1,.2,-.1,.4c0,.3,.2,.7,.5,.8c.3,.2,.7,.2,1,0c.1,-.1,.2,-.1,.3,-.3c-1.1,-1.8,2.2,-.8,2,1.3c.9,0,1.9,1.7,1.5,2.6c1.7,.9,1.2,4.3,.1,2.4c-.1,.1,-.3,.1,-.4,.2c-.3,.1,-.5,.5,-.5,.8Z" class="g2"/>
<text x="1105.4" y="628.5" class="sb">50</text>
<path d="M1120,730.6c0,.3,.2,.7,.5,.8c.1,.1,.2,.2,.4,.2c1,-1.9,1.8,1.5,-.1,2.4c.4,.7,-.6,2.4,-1.5,2.6c.1,1.9,-3.2,3.2,-2.1,1.3c-.1,-.1,-.2,-.2,-.3,-.3c-.3,-.2,-.7,-.2,-.9,0c-.3,.1,-.5,.4,-.5,.8c0,.2,0,.3,.1,.4c2.1,0,-.4,2.4,-2.2,1.1c-.4,.8,-2.4,.8,-3,0c-1.6,1.1,-4.3,-1.1,-2.1,-1.1c0,-.1,.1,-.2,.1,-.4c0,-.4,-.2,-.7,-.5,-.8c-.3,-.2,-.6,-.2,-1,0c-.1,0,-.2,.1,-.3,.3c1.1,1.8,-2.2,.8,-2,-1.4c-.9,.1,-1.9,-1.6,-1.5,-2.6c-1.7,-.8,-1.2,-4.2,-.1,-2.4c.1,0,.3,0,.4,-.1c.3,-.2,.5,-.5,.5,-.8Z" class="g2"/>
<path d="M1103.9,730.6c0,-.3,-.2,-.7,-.5,-.8c-.1,-.1,-.2,-.2,-.4,-.2c-1.1,1.9,-1.9,-1.5,.1,-2.4c-.4,-.7,.5,-2.4,1.5,-2.6c-.1,-1.9,3.1,-3.2,2,-1.3c.1,.1,.2,.2,.3,.3c.4,.2,.7,.2,1,0c.3,-.1,.5,-.5,.5,-.8c0,-.2,0,-.3,-.1,-.4c-2.1,0,.4,-2.4,2.2,-1.2c.4,-.7,2.3,-.7,3,0c1.5,-1,4.3,1.2,2.1,1.2c-.1,.1,-.1,.2,-.1,.4c0,.3,.2,.7,.5,.8c.2,.2,.6,.2,.9,0c.1,-.1,.3,-.1,.3,-.3c-1,-1.8,2.3,-.8,2.1,1.3c.8,0,1.8,1.7,1.5,2.6c1.7,.9,1.2,4.3,.1,2.4c-.2,.1,-.3,.1,-.4,.2c-.3,.1,-.5,.5,-.5,.8Z" class="g2"/>
<text x="1105.4" y="734.6" class="sb">00</text>
<path d="M1032.2,260.7c0,.3,.2,.7,.5,.8c.1,.1,.2,.2,.4,.2c1,-1.8,1.8,1.5,-.1,2.4c.4,.7,-.6,2.5,-1.5,2.6c.1,1.9,-3.2,3.2,-2.1,1.3c-.1,-.1,-.2,-.2,-.3,-.3c-.3,-.2,-.7,-.2,-.9,0c-.3,.2,-.5,.5,-.5,.8c0,.2,0,.3,.1,.4c2.1,0,-.4,2.4,-2.2,1.2c-.4,.7,-2.4,.7,-3,0c-1.6,1,-4.3,-1.2,-2.1,-1.2c0,-.1,.1,-.2,.1,-.4c0,-.3,-.2,-.6,-.5,-.8c-.3,-.2,-.6,-.2,-1,0c-.1,.1,-.2,.1,-.3,.3c1.1,1.8,-2.2,.8,-2,-1.3c-.9,0,-1.9,-1.7,-1.5,-2.6c-1.7,-.9,-1.2,-4.3,-.1,-2.4c.1,0,.3,-.1,.4,-.2c.3,-.1,.5,-.5,.5,-.8Z" class="g2"/>
<path d="M1016.1,260.7c0,-.3,-.2,-.6,-.5,-.8c-.1,-.1,-.3,-.1,-.4,-.1c-1.1,1.8,-1.9,-1.6,.1,-2.5c-.4,-.7,.5,-2.4,1.5,-2.6c-.1,-1.9,3.1,-3.1,2,-1.3c.1,.2,.2,.3,.3,.3c.4,.2,.7,.2,1,0c.3,-.1,.5,-.4,.5,-.8c0,-.1,0,-.3,-.1,-.4c-2.1,0,.4,-2.4,2.2,-1.1c.4,-.8,2.3,-.8,3,0c1.5,-1.1,4.3,1.1,2.1,1.1c-.1,.1,-.1,.3,-.1,.4c0,.4,.2,.7,.5,.8c.2,.2,.6,.2,.9,0c.1,0,.3,-.1,.3,-.2c-1,-1.9,2.3,-.9,2.1,1.3c.8,-.1,1.8,1.6,1.5,2.6c1.7,.8,1.2,4.3,.1,2.4c-.2,0,-.3,0,-.4,.1c-.3,.2,-.5,.5,-.5,.8Z" class="g2"/>
<text x="1017.6" y="264.7" class="sb">50</text>
<path d="M1032.2,457.8c0,.3,.2,.6,.5,.8c.1,.1,.2,.1,.4,.1c1,-1.8,1.8,1.5,-.1,2.5c.4,.7,-.6,2.4,-1.5,2.6c.1,1.9,-3.2,3.1,-2.1,1.2c-.1,-.1,-.2,-.2,-.3,-.3c-.3,-.1,-.7,-.1,-.9,0c-.3,.2,-.5,.5,-.5,.9c0,.1,0,.2,.1,.4c2.1,0,-.4,2.4,-2.2,1.1c-.4,.8,-2.4,.8,-3,0c-1.6,1,-4.3,-1.1,-2.1,-1.1c0,-.1,.1,-.3,.1,-.4c0,-.4,-.2,-.7,-.5,-.9c-.3,-.1,-.6,-.1,-1,0c-.1,.1,-.2,.2,-.3,.3c1.1,1.8,-2.2,.9,-2,-1.3c-.9,0,-1.9,-1.7,-1.5,-2.6c-1.7,-.8,-1.2,-4.3,-.1,-2.4c.1,0,.3,0,.4,-.1c.3,-.2,.5,-.5,.5,-.8Z" class="g2"/>
<path d="M1016.1,457.8c0,-.4,-.2,-.7,-.5,-.9c-.1,0,-.3,-.1,-.4,-.1c-1.1,1.8,-1.9,-1.5,.1,-2.4c-.4,-.8,.5,-2.5,1.5,-2.6c-.1,-1.9,3.1,-3.2,2,-1.3c.1,.1,.2,.2,.3,.3c.4,.2,.7,.1,1,0c.3,-.2,.5,-.5,.5,-.8c0,-.2,0,-.3,-.1,-.5c-2.1,0,.4,-2.3,2.2,-1.1c.4,-.7,2.3,-.8,3,0c1.5,-1,4.3,1.1,2.1,1.1c-.1,.2,-.1,.3,-.1,.5c0,.3,.2,.6,.5,.8c.2,.2,.6,.2,.9,0c.1,-.1,.3,-.2,.3,-.3c-1,-1.8,2.3,-.9,2.1,1.3c.8,0,1.8,1.7,1.5,2.6c1.7,.9,1.2,4.3,.1,2.4c-.2,0,-.3,.1,-.4,.1c-.3,.2,-.5,.5,-.5,.9Z" class="g2"/>
<text x="1017.6" y="461.7" class="sb">00</text>
<path d="M1032.2,609.4c0,.3,.1,.6,.4,.8c.2,.1,.3,.1,.4,.1c1.1,-1.8,1.9,1.5,-.1,2.5c.5,.7,-.5,2.4,-1.5,2.6c.1,1.8,-3.1,3.1,-2,1.2c-.1,-.1,-.2,-.2,-.3,-.3c-.3,-.1,-.7,-.1,-1,0c-.3,.2,-.4,.5,-.4,.9c0,.1,0,.2,0,.4c2.1,0,-.3,2.3,-2.1,1.1c-.4,.7,-2.4,.8,-3,0c-1.6,1,-4.3,-1.1,-2.1,-1.1c0,-.1,.1,-.3,.1,-.4c0,-.4,-.2,-.7,-.5,-.9c-.3,-.1,-.7,-.2,-1,0c-.1,.1,-.2,.2,-.3,.3c1.1,1.8,-2.2,.9,-2.1,-1.3c-.8,0,-1.8,-1.7,-1.4,-2.6c-1.7,-.9,-1.2,-4.3,-.1,-2.4c.1,0,.2,0,.4,-.1c.3,-.2,.5,-.5,.5,-.8Z" class="g2"/>
<path d="M1016.1,609.4c0,-.4,-.2,-.7,-.5,-.9c-.2,-.1,-.3,-.1,-.4,-.1c-1.1,1.8,-1.9,-1.5,.1,-2.4c-.5,-.8,.5,-2.5,1.5,-2.6c-.1,-1.9,3.1,-3.2,2,-1.3c.1,.1,.2,.2,.3,.3c.3,.2,.7,.1,1,0c.3,-.2,.5,-.5,.5,-.9c0,-.1,0,-.2,-.1,-.4c-2.1,0,.4,-2.3,2.1,-1.1c.4,-.7,2.4,-.8,3,0c1.6,-1,4.3,1.1,2.2,1.1c-.1,.2,-.1,.3,-.1,.4c0,.4,.2,.7,.4,.9c.3,.1,.7,.2,1,0c.1,-.1,.2,-.2,.3,-.3c-1,-1.8,2.3,-.9,2.1,1.3c.8,0,1.8,1.7,1.5,2.6c1.7,.9,1.1,4.3,.1,2.4c-.2,0,-.3,.1,-.5,.1c-.3,.2,-.4,.5,-.4,.9Z" class="g2"/>
<text x="1017.6" y="613.3" class="sb">40</text>
<path d="M1032.2,715.3c0,.3,.1,.6,.4,.8c.2,.1,.3,.1,.4,.1c1.1,-1.8,1.9,1.6,-.1,2.5c.5,.7,-.5,2.4,-1.5,2.6c.1,1.9,-3.1,3.1,-2,1.2c-.1,-.1,-.2,-.2,-.3,-.2c-.3,-.2,-.7,-.2,-1,-.1c-.3,.2,-.4,.5,-.4,.9c0,.1,0,.3,0,.4c2.1,0,-.3,2.4,-2.1,1.1c-.4,.8,-2.4,.8,-3,0c-1.6,1.1,-4.3,-1.1,-2.1,-1.1c0,-.1,.1,-.3,.1,-.4c0,-.4,-.2,-.7,-.5,-.9c-.3,-.1,-.7,-.1,-1,0c-.1,.1,-.2,.2,-.3,.3c1.1,1.8,-2.2,.9,-2.1,-1.3c-.8,.1,-1.8,-1.6,-1.4,-2.6c-1.7,-.8,-1.2,-4.3,-.1,-2.4c.1,0,.2,0,.4,-.1c.3,-.2,.5,-.5,.5,-.8Z" class="g2"/>
<path d="M1016.1,715.3c0,-.4,-.2,-.7,-.5,-.9c-.2,0,-.3,-.1,-.4,-.1c-1.1,1.8,-1.9,-1.5,.1,-2.4c-.5,-.7,.5,-2.5,1.5,-2.6c-.1,-1.9,3.1,-3.2,2,-1.3c.1,.1,.2,.2,.3,.3c.3,.2,.7,.2,1,0c.3,-.2,.5,-.5,.5,-.8c0,-.2,0,-.3,-.1,-.4c-2.1,0,.4,-2.4,2.1,-1.2c.4,-.7,2.4,-.7,3,0c1.6,-1,4.3,1.2,2.2,1.2c-.1,.1,-.1,.2,-.1,.4c0,.3,.2,.6,.4,.8c.3,.2,.7,.2,1,0c.1,-.1,.2,-.1,.3,-.3c-1,-1.8,2.3,-.8,2.1,1.3c.8,0,1.8,1.7,1.5,2.6c1.7,.9,1.1,4.3,.1,2.4c-.2,0,-.3,.1,-.5,.2c-.3,.1,-.4,.4,-.4,.8Z" class="g2"/>
<text x="1017.6" y="719.2" class="sb">50</text>
<path d="M1032.1,791.2c0,.4,.2,.7,.5,.9c.1,0,.3,.1,.4,.1c1.1,-1.8,1.9,1.5,-.1,2.4c.4,.7,-.5,2.5,-1.5,2.6c.1,1.9,-3.1,3.2,-2,1.3c-.1,-.1,-.2,-.2,-.3,-.3c-.4,-.2,-.7,-.2,-1,0c-.3,.2,-.5,.5,-.5,.8c0,.2,0,.3,.1,.4c2.1,0,-.4,2.4,-2.2,1.2c-.4,.7,-2.3,.7,-3,0c-1.5,1,-4.3,-1.2,-2.1,-1.2c.1,-.1,.1,-.2,.1,-.4c0,-.3,-.2,-.6,-.5,-.8c-.2,-.2,-.6,-.2,-.9,0c-.1,.1,-.3,.1,-.3,.3c1,1.8,-2.3,.8,-2.1,-1.3c-.8,0,-1.8,-1.7,-1.5,-2.6c-1.7,-.9,-1.2,-4.3,-.1,-2.4c.2,0,.3,-.1,.4,-.1c.3,-.2,.5,-.5,.5,-.9Z" class="g2"/>
<path d="M1016,791.2c0,-.3,-.2,-.6,-.5,-.8c-.1,-.1,-.2,-.1,-.4,-.1c-1,1.8,-1.8,-1.6,.1,-2.5c-.4,-.7,.6,-2.4,1.5,-2.6c-.1,-1.9,3.2,-3.1,2.1,-1.2c.1,.1,.2,.2,.3,.2c.3,.2,.7,.2,.9,.1c.3,-.2,.5,-.5,.5,-.9c0,-.1,0,-.3,-.1,-.4c-2.1,0,.4,-2.4,2.2,-1.1c.4,-.8,2.4,-.8,3,0c1.6,-1.1,4.3,1.1,2.1,1.1c0,.1,-.1,.3,-.1,.4c0,.4,.2,.7,.5,.9c.3,.1,.7,.1,1,0c.1,-.1,.2,-.2,.3,-.3c-1.1,-1.8,2.2,-.9,2,1.3c.9,-.1,1.9,1.6,1.5,2.6c1.7,.8,1.2,4.3,.1,2.4c-.1,0,-.3,0,-.4,.1c-.3,.2,-.5,.5,-.5,.8Z" class="g2"/>
<text x="1017.5" y="795.2" class="sb">40</text>
<path d="M993.8,427.5c0,.3,.1,.6,.4,.8c.2,.1,.3,.1,.4,.1c1.1,-1.8,1.9,1.6,-.1,2.5c.5,.7,-.5,2.4,-1.5,2.6c.1,1.9,-3.1,3.1,-2,1.3c-.1,-.2,-.2,-.3,-.3,-.3c-.3,-.2,-.7,-.2,-1,0c-.3,.1,-.5,.4,-.5,.8c0,.1,.1,.3,.1,.4c2.1,0,-.3,2.4,-2.1,1.1c-.4,.8,-2.4,.8,-3,0c-1.6,1.1,-4.3,-1.1,-2.1,-1.1c0,-.1,0,-.3,0,-.4c0,-.4,-.1,-.7,-.4,-.8c-.3,-.2,-.7,-.2,-1,0c-.1,0,-.2,.1,-.3,.2c1.1,1.9,-2.2,.9,-2.1,-1.3c-.8,.1,-1.8,-1.6,-1.5,-2.6c-1.6,-.8,-1.1,-4.3,0,-2.4c.1,0,.2,0,.4,-.1c.3,-.2,.4,-.5,.5,-.8Z" class="g2"/>
<path d="M977.7,427.5c0,-.3,-.2,-.7,-.5,-.9c-.2,0,-.3,-.1,-.4,-.1c-1.1,1.8,-1.9,-1.5,.1,-2.4c-.5,-.7,.5,-2.5,1.5,-2.6c-.1,-1.9,3.1,-3.2,2,-1.3c.1,.1,.2,.2,.3,.3c.3,.2,.7,.2,1,0c.3,-.2,.5,-.5,.5,-.8c0,-.2,-.1,-.3,-.1,-.4c-2.1,0,.3,-2.4,2.1,-1.2c.4,-.7,2.4,-.7,3,0c1.6,-1,4.3,1.2,2.2,1.2c-.1,.1,-.1,.2,-.1,.4c0,.3,.1,.6,.4,.8c.3,.2,.7,.2,1,0c.1,-.1,.2,-.1,.3,-.3c-1,-1.8,2.2,-.8,2.1,1.3c.8,0,1.8,1.7,1.5,2.6c1.7,.9,1.1,4.3,0,2.4c-.1,0,-.2,.1,-.4,.2c-.3,.1,-.4,.5,-.4,.8Z" class="g2"/>
<text x="979.2" y="431.4" class="sb">40</text>
<path d="M993.8,503.2c0,.4,.1,.7,.4,.9c.2,0,.3,.1,.4,.1c1.1,-1.8,1.9,1.5,-.1,2.4c.5,.8,-.5,2.5,-1.5,2.6c.1,1.9,-3.1,3.2,-2,1.3c-.1,-.1,-.2,-.2,-.3,-.3c-.3,-.2,-.7,-.2,-1,0c-.3,.2,-.5,.5,-.5,.8c0,.2,.1,.3,.1,.5c2.1,0,-.3,2.3,-2.1,1.1c-.4,.7,-2.4,.8,-3,0c-1.6,1,-4.3,-1.1,-2.1,-1.1c0,-.2,0,-.3,0,-.5c0,-.3,-.1,-.6,-.4,-.8c-.3,-.2,-.7,-.2,-1,0c-.1,.1,-.2,.2,-.3,.3c1.1,1.8,-2.2,.8,-2.1,-1.3c-.8,0,-1.8,-1.7,-1.5,-2.6c-1.6,-.9,-1.1,-4.3,0,-2.4c.1,0,.2,-.1,.4,-.1c.3,-.2,.4,-.5,.5,-.9Z" class="g2"/>
<path d="M977.7,503.2c0,-.3,-.2,-.6,-.5,-.8c-.2,-.1,-.3,-.1,-.4,-.1c-1.1,1.8,-1.9,-1.5,.1,-2.5c-.5,-.7,.5,-2.4,1.5,-2.6c-.1,-1.9,3.1,-3.1,2,-1.2c.1,.1,.2,.2,.3,.3c.3,.1,.7,.1,1,0c.3,-.2,.5,-.5,.5,-.9c0,-.1,-.1,-.3,-.1,-.4c-2.1,0,.3,-2.4,2.1,-1.1c.4,-.8,2.4,-.8,3,0c1.6,-1,4.3,1.1,2.2,1.1c-.1,.1,-.1,.3,-.1,.4c0,.4,.1,.7,.4,.9c.3,.1,.7,.1,1,0c.1,-.1,.2,-.2,.3,-.3c-1,-1.8,2.2,-.9,2.1,1.3c.8,0,1.8,1.7,1.5,2.6c1.7,.8,1.1,4.3,0,2.4c-.1,0,-.2,0,-.4,.1c-.3,.2,-.4,.5,-.4,.8Z" class="g2"/>
<text x="979.2" y="507.2" class="sb">30</text>
<path d="M993.7,685.1c0,.4,.2,.7,.5,.9c.1,0,.2,.1,.4,.1c1,-1.8,1.9,1.5,-.1,2.4c.4,.7,-.5,2.5,-1.5,2.6c.1,1.9,-3.1,3.2,-2,1.3c-.1,-.1,-.2,-.2,-.4,-.3c-.3,-.2,-.6,-.2,-.9,0c-.3,.2,-.5,.5,-.5,.8c0,.2,0,.3,.1,.4c2.1,0,-.4,2.4,-2.2,1.2c-.4,.7,-2.3,.7,-3,0c-1.6,1,-4.3,-1.2,-2.1,-1.2c.1,-.1,.1,-.2,.1,-.4c0,-.3,-.2,-.6,-.5,-.8c-.3,-.2,-.6,-.2,-.9,0c-.2,.1,-.3,.1,-.3,.3c1,1.8,-2.3,.8,-2.1,-1.3c-.8,0,-1.8,-1.7,-1.5,-2.6c-1.7,-.9,-1.2,-4.3,-.1,-2.4c.2,0,.3,-.1,.4,-.2c.3,-.1,.5,-.4,.5,-.8Z" class="g2"/>
<path d="M977.6,685.1c0,-.3,-.2,-.6,-.5,-.8c-.1,-.1,-.2,-.1,-.4,-.1c-1,1.8,-1.8,-1.6,.1,-2.5c-.4,-.7,.6,-2.4,1.5,-2.6c-.1,-1.9,3.2,-3.1,2.1,-1.2c0,.1,.2,.2,.3,.2c.3,.2,.7,.2,.9,.1c.3,-.2,.5,-.5,.5,-.9c0,-.1,0,-.3,-.1,-.4c-2.1,0,.4,-2.4,2.2,-1.1c.4,-.8,2.4,-.8,3,0c1.6,-1.1,4.3,1.1,2.1,1.1c0,.1,-.1,.3,-.1,.4c0,.4,.2,.7,.5,.9c.3,.1,.6,.1,1,0c.1,-.1,.2,-.2,.3,-.3c-1.1,-1.9,2.2,-.9,2,1.3c.9,-.1,1.9,1.6,1.5,2.6c1.7,.8,1.2,4.3,.1,2.4c-.1,0,-.3,0,-.4,.1c-.3,.2,-.5,.5,-.5,.8Z" class="g2"/>
<text x="979.1" y="689.1" class="sb">30</text>
<path d="M867.8,351.7c0,.3,.2,.6,.5,.8c.1,.1,.2,.1,.4,.1c1,-1.8,1.8,1.5,-.1,2.5c.4,.7,-.6,2.4,-1.5,2.6c.1,1.8,-3.2,3.1,-2.1,1.2c-.1,-.1,-.2,-.2,-.3,-.3c-.3,-.1,-.7,-.1,-.9,0c-.3,.2,-.5,.5,-.5,.9c0,.1,0,.2,.1,.4c2.1,0,-.4,2.4,-2.2,1.1c-.4,.8,-2.4,.8,-3,0c-1.6,1,-4.3,-1.1,-2.1,-1.1c0,-.1,.1,-.3,.1,-.4c0,-.4,-.2,-.7,-.5,-.9c-.3,-.1,-.7,-.1,-1,0c-.1,.1,-.2,.2,-.3,.3c1.1,1.8,-2.2,.9,-2,-1.3c-.9,0,-1.9,-1.7,-1.5,-2.6c-1.7,-.8,-1.2,-4.3,-.1,-2.4c.1,0,.3,0,.4,-.1c.3,-.2,.5,-.5,.5,-.8Z" class="g2"/>
<path d="M851.7,351.7c0,-.4,-.2,-.7,-.5,-.9c-.1,-.1,-.3,-.1,-.4,-.1c-1.1,1.8,-1.9,-1.5,.1,-2.4c-.4,-.8,.5,-2.5,1.5,-2.6c-.1,-1.9,3.1,-3.2,2,-1.3c.1,.1,.2,.2,.3,.3c.3,.2,.7,.1,1,0c.3,-.2,.5,-.5,.5,-.8c0,-.2,0,-.3,-.1,-.5c-2.1,0,.4,-2.3,2.2,-1.1c.4,-.7,2.3,-.8,3,0c1.5,-1,4.3,1.1,2.1,1.1c-.1,.2,-.1,.3,-.1,.5c0,.3,.2,.6,.5,.8c.2,.2,.6,.2,.9,0c.1,-.1,.3,-.2,.3,-.3c-1,-1.8,2.3,-.9,2.1,1.3c.8,0,1.8,1.7,1.5,2.6c1.7,.9,1.2,4.3,.1,2.4c-.2,0,-.3,.1,-.4,.1c-.3,.2,-.5,.5,-.5,.9Z" class="g2"/>
<text x="853.2" y="355.6" class="sb">50</text>
<path d="M867.8,457.8c0,.3,.2,.6,.5,.8c.1,.1,.2,.1,.4,.1c1,-1.8,1.8,1.5,-.1,2.5c.4,.7,-.6,2.4,-1.5,2.6c.1,1.9,-3.2,3.1,-2.1,1.2c-.1,-.1,-.2,-.2,-.3,-.3c-.3,-.1,-.7,-.1,-.9,0c-.3,.2,-.5,.5,-.5,.9c0,.1,0,.2,.1,.4c2.1,0,-.4,2.4,-2.2,1.1c-.4,.8,-2.4,.8,-3,0c-1.6,1,-4.3,-1.1,-2.1,-1.1c0,-.1,.1,-.3,.1,-.4c0,-.4,-.2,-.7,-.5,-.9c-.3,-.1,-.7,-.1,-1,0c-.1,.1,-.2,.2,-.3,.3c1.1,1.8,-2.2,.9,-2,-1.3c-.9,0,-1.9,-1.7,-1.5,-2.6c-1.7,-.8,-1.2,-4.3,-.1,-2.4c.1,0,.3,0,.4,-.1c.3,-.2,.5,-.5,.5,-.8Z" class="g2"/>
<path d="M851.7,457.8c0,-.4,-.2,-.7,-.5,-.9c-.1,0,-.3,-.1,-.4,-.1c-1.1,1.8,-1.9,-1.5,.1,-2.4c-.4,-.8,.5,-2.5,1.5,-2.6c-.1,-1.9,3.1,-3.2,2,-1.3c.1,.1,.2,.2,.3,.3c.3,.2,.7,.1,1,0c.3,-.2,.5,-.5,.5,-.8c0,-.2,0,-.3,-.1,-.5c-2.1,0,.4,-2.3,2.2,-1.1c.4,-.7,2.3,-.8,3,0c1.5,-1,4.3,1.1,2.1,1.1c-.1,.2,-.1,.3,-.1,.5c0,.3,.2,.6,.5,.8c.2,.2,.6,.2,.9,0c.1,-.1,.3,-.2,.3,-.3c-1,-1.8,2.3,-.9,2.1,1.3c.8,0,1.8,1.7,1.5,2.6c1.7,.9,1.2,4.3,.1,2.4c-.2,0,-.3,.1,-.4,.1c-.3,.2,-.5,.5,-.5,.9Z" class="g2"/>
<text x="853.2" y="461.7" class="sb">00</text>
<path d="M867.8,670c0,.3,.2,.6,.5,.8c.1,.1,.2,.1,.4,.1c1,-1.8,1.8,1.5,-.1,2.5c.4,.7,-.6,2.4,-1.5,2.6c.1,1.9,-3.2,3.1,-2.1,1.2c-.1,-.1,-.2,-.2,-.3,-.3c-.3,-.1,-.7,-.1,-.9,0c-.3,.2,-.5,.5,-.5,.9c0,.1,0,.3,.1,.4c2.1,0,-.4,2.4,-2.2,1.1c-.4,.8,-2.4,.8,-3,0c-1.6,1,-4.3,-1.1,-2.1,-1.1c0,-.1,.1,-.3,.1,-.4c0,-.4,-.2,-.7,-.5,-.9c-.3,-.1,-.7,-.1,-1,0c-.1,.1,-.2,.2,-.3,.3c1.1,1.8,-2.2,.9,-2,-1.3c-.9,0,-1.9,-1.7,-1.5,-2.6c-1.7,-.8,-1.2,-4.3,-.1,-2.4c.1,0,.3,0,.4,-.1c.3,-.2,.5,-.5,.5,-.8Z" class="g2"/>
<path d="M851.7,670c0,-.4,-.2,-.7,-.5,-.9c-.1,0,-.3,-.1,-.4,-.1c-1.1,1.8,-1.9,-1.5,.1,-2.4c-.4,-.8,.5,-2.5,1.5,-2.6c-.1,-1.9,3.1,-3.2,2,-1.3c.1,.1,.2,.2,.3,.3c.3,.2,.7,.2,1,0c.3,-.2,.5,-.5,.5,-.8c0,-.2,0,-.3,-.1,-.5c-2.1,0,.4,-2.3,2.2,-1.1c.4,-.7,2.3,-.8,3,0c1.5,-1,4.3,1.1,2.1,1.1c-.1,.2,-.1,.3,-.1,.5c0,.3,.2,.6,.5,.8c.2,.2,.6,.2,.9,0c.1,-.1,.3,-.2,.3,-.3c-1,-1.8,2.3,-.9,2.1,1.3c.8,0,1.8,1.7,1.5,2.6c1.7,.9,1.2,4.3,.1,2.4c-.2,0,-.3,.1,-.4,.1c-.3,.2,-.5,.5,-.5,.9Z" class="g2"/>
<text x="853.2" y="673.9" class="sb">20</text>
<text x="780.1" y="257.3" class="sb">音楽部小講堂</text>
<text x="792" y="274.6" class="sb">ステージ</text>
<text x="1056.2" y="363.4" class="sb">開成</text>
<text x="1032.3" y="380.7" class="sb">ノーベル学会</text>
<text x="1038.3" y="542.6" class="sb">クイズ！！</text>
<text x="1047.5" y="559.9" class="sb">VS 先生</text>
<text x="901.9" y="295.1" dx="0,-.9,-.9,-.9,-.9,-.9,-.9" class="sb">バドミントン部</text>
<text x="917.1" y="312.5" class="sb">対抗試合</text>
<text x="900.9" y="462.3" dx="0,-.9,-.9,-.9,-6.8,-2.1,-2.1,-1.5" class="sb">大道芸、自由自在</text>
<text x="1028" y="765.4" dx="0,-.9,-.9,-.9,-6.8,-2.1,-2.1,-1.5" class="sb">大道芸、自由自在</text>
<text x="780.1" y="741.6" class="sb">開成管弦楽団</text>
<text x="780.1" y="759" class="sb">文化祭演奏会</text>
<text x="1051.5" y="218.8" class="sb">主張！</text>
<text x="1045.6" y="236.2" class="sb">弁論文春</text>
<text x="1161.2" y="519.6" class="sc">ダダダダダダ</text>
<text x="1158.1" y="318.1" class="sb">天道流合気道</text>
<path clip-path="url(#c0)" d="M641.2,922.2h653.5V-12.7H641.2V922.2Z" class="g4"/>

</g>

<!-- Any embedded fonts defined here -->
<style type="text/css" ><![CDATA[

@font-face {
	font-family: TsukuAMDMinStd-E_-;
	src: url("fonts/TsukuAMDMinStd-E_-.woff") format("woff");
}

@font-face {
	font-family: TsukuAMDMinStd-E_q;
	src: url("fonts/TsukuAMDMinStd-E_q.woff") format("woff");
}

@font-face {
	font-family: TsukuQMinLStd-L_14;
	src: url("fonts/TsukuQMinLStd-L_14.woff") format("woff");
}

@font-face {
	font-family: TsukuQMinLStd-L_v;
	src: url("fonts/TsukuQMinLStd-L_v.woff") format("woff");
}

]]></style>

</svg>
