<svg width="386" height="493" viewBox="0 0 386 493" fill="none" xmlns="http://www.w3.org/2000/svg">
<path d="M117.65 5.19998C113.91 5.19998 112.72 5.28999 112.29 5.32999C112.12 5.32999 111.52 5.41 111.4 5.41C111.23 5.41 111.14 5.33 111.02 5.16L110.21 4.17999C110.04 3.96999 110 3.97 110 3.88C110 3.84 110.08 3.79999 110.17 3.79999C110.47 3.79999 111.74 3.92999 112.04 3.92999C114.12 4.00999 115.87 4.10001 117.87 4.10001H121.4C122.17 4.10001 122.72 3.89001 122.72 2.82001C122.72 2.35001 122.68 1.84 122.51 1.16C122.51 1.08 122.34 0.520002 122.34 0.440002C122.34 0.140002 122.68 0.139984 122.85 0.139984C123.06 0.139984 125.27 0.689985 126 0.859985C126.34 0.939985 126.89 1.07001 126.89 1.54001C126.89 1.84001 126.68 2.01001 126.12 2.35001C125.87 2.52001 125.78 2.77 125.78 3.03C125.78 4.09 126.46 4.09 127.27 4.09H132.33C132.8 4.09 133.65 4.08998 133.65 2.97998C133.65 2.63998 133.52 1.36 133.35 0.940002C133.31 0.860002 133.05 0.429996 133.05 0.339996C133.05 0.129996 133.52 0 133.77 0C134.15 0 137.17 0.549996 137.34 0.589996C137.55 0.629996 137.85 0.799998 137.85 1.06C137.85 1.32 137.77 1.35999 137.04 1.82999C136.7 2.08999 136.66 2.51 136.66 2.81C136.66 4.09 137.25 4.09 138.15 4.09H140.36C142.27 4.09 142.44 4.09 143.08 3.37C144.27 1.97 144.4 1.79999 144.78 1.79999C145.03 1.79999 148.78 4.09999 148.78 4.60999C148.78 5.19999 147.93 5.19998 146.48 5.19998H138.1C137.46 5.19998 136.74 5.19999 136.74 6.42999C136.74 6.72999 136.78 7.88 136.74 8.09C136.57 8.64 136.14 9.03 134.23 9.03C133.68 9.03 133.51 8.94999 133.51 8.17999C133.51 7.83999 133.59 6.34999 133.55 6.04999C133.42 5.28999 132.78 5.19998 132.32 5.19998H127.22C126.28 5.19998 125.77 5.37001 125.77 6.60001C125.77 8.00001 125.77 8.47 125.09 8.81C124.45 9.15 123.73 9.22998 123.35 9.22998C122.67 9.22998 122.67 8.81001 122.67 8.38C122.67 5.53 122.67 5.19 121.44 5.19H117.65V5.19998ZM141.85 19.4C142.49 19.4 142.74 19.36 143.04 19.1C143.21 18.93 143.76 17.78 143.98 17.78C144.53 17.78 148.57 20.12 148.57 21.23C148.57 22.12 147.29 22.12 147.04 22.12C145.51 22.12 145.38 22.12 144.28 22.59C144.03 22.67 142.24 24.21 142.15 24.21C142.11 24.21 142.02 24.17 142.02 24.08C142.02 23.99 142.23 23.57 142.27 23.49C142.69 22.17 142.82 21.79 142.82 21.41C142.82 20.64 142.27 20.52 141.76 20.52H116.33C115.31 20.52 115.22 20.78 114.97 22.14C114.54 24.14 113.4 26.26 111.65 26.26C110.8 26.26 110.08 25.41 110.08 24.77C110.08 24.35 110.21 24.17 111.48 22.81C113.22 20.94 113.35 20.05 113.69 18.52C113.69 18.48 113.82 18.05 114.03 18.05C114.24 18.05 114.8 18.99 114.92 19.11C115.22 19.41 115.56 19.41 115.94 19.41H141.85V19.4ZM126.16 25.61C124.63 25.61 124.2 26.29 124.2 26.5C124.2 26.63 124.33 26.67 125.52 27.14C129.26 28.59 129.35 29.65 129.35 30.54C129.35 31.6 128.75 32.45 128.07 32.45C127.47 32.45 127.3 32.07 126.58 30.75C126.54 30.67 124.28 27.35 123.05 27.35C122.54 27.35 120.24 28.84 119.73 29.14C118.88 29.57 116.07 30.84 115.44 30.84C115.36 30.84 115.27 30.8 115.27 30.76C115.27 30.68 118.37 28.46 118.84 28.12C119.56 27.53 124.5 23.61 125.09 21.66C125.34 20.81 125.34 20.68 125.73 20.68C126.2 20.68 129.64 21.4 129.64 22.17C129.64 22.38 129.3 22.55 128.7 22.76C128.32 22.93 127.08 23.91 127.08 24.25C127.08 24.51 127.42 24.51 127.59 24.51H134.14C135.25 24.51 135.37 24.38 136.01 23.57C136.78 22.55 136.86 22.46 137.16 22.46C137.67 22.46 140.48 24.63 140.48 25.39C140.48 25.73 140.23 25.94 139.54 26.2C138.94 26.41 138.9 26.5 138.31 27.39C138.23 27.47 130.91 38.11 116.2 38.11C115.82 38.11 113.65 38.07 113.65 37.73C113.65 37.65 114.46 37.48 114.59 37.48C129.26 35.27 135.05 27.27 135.05 26.3C135.05 25.62 134.37 25.62 133.94 25.62H126.16V25.61ZM138.24 9.91998C139.05 9.91998 139.3 9.91998 140.2 9.19998C140.41 9.02998 141.18 8.38998 141.31 8.38998C141.52 8.38998 143.9 9.88001 144.07 10.01C144.28 10.18 144.54 10.44 144.54 10.73C144.54 11.07 144.41 11.11 143.56 11.58C143.22 11.79 143.22 11.92 143.22 13.07C143.22 13.71 143.3 16.47 143.22 17.02C143.01 18.34 142.16 18.34 141.77 18.34C140.58 18.34 140.49 18.09 139.98 17.11C139.77 16.68 139.3 16.6 138.87 16.6H120.2C119.77 16.6 119.22 16.64 119.01 17.37C118.84 18.05 118.71 18.43 117.35 18.43C115.86 18.43 115.78 17.75 115.78 17.03C115.78 16.52 115.91 14.35 115.91 13.93C115.91 13.29 115.87 10.53 115.87 9.97C115.87 9.76 115.7 8.95 115.7 8.78C115.7 8.65 115.74 8.44 116 8.44C116.68 8.44 117.53 8.95 118.51 9.5C119.19 9.88 119.66 9.91998 120.51 9.91998H138.24ZM120.25 11.06C118.93 11.06 118.89 11.87 118.89 12.55C118.89 15.02 118.89 15.48 120.25 15.48H122.67C124.03 15.48 124.03 15.01 124.03 12.5C124.03 11.39 123.61 11.05 122.67 11.05H120.25V11.06ZM131.01 15.49C132.24 15.49 132.24 14.98 132.24 13.19C132.24 11.66 132.24 11.06 131.05 11.06H127.95C126.72 11.06 126.72 11.66 126.72 13.19C126.72 14.93 126.72 15.49 127.95 15.49H131.01ZM138.75 15.49C140.11 15.49 140.11 15.02 140.11 13.02C140.11 11.7 140.11 11.06 138.75 11.06H136.28C134.92 11.06 134.92 11.74 134.92 12.93C134.92 14.97 134.92 15.48 136.28 15.48H138.75V15.49Z" fill="black"/>
<path d="M144.53 57.1599C143.64 57.1599 143.47 56.86 142.06 54.31C141.21 52.82 140.1 51.3299 137.6 49.7599C137.47 49.6699 137 49.3799 137 49.2499C137 49.1199 137.13 48.95 137.47 48.95C138.96 48.95 146.19 51.16 146.19 55.12C146.19 56.14 145.34 57.1599 144.53 57.1599Z" fill="black"/>
<path d="M117.61 79.36C114.76 79.36 113.32 79.36 112.25 79.44C112.12 79.44 111.48 79.57 111.36 79.57C111.19 79.57 111.1 79.44 110.98 79.27L110.17 78.29C110 78.12 110 78.08 110 78.03C110 77.95 110.04 77.9 110.13 77.9C110.43 77.9 111.75 78.07 112 78.07C114.08 78.2 115.83 78.2 117.83 78.2H119.11C119.83 78.2 120.39 78.11 120.39 77.14C120.39 76.29 120.31 75.18 120.13 74.33C120.09 74.03 119.36 72.71 119.36 72.42C119.36 72.04 119.7 71.95 119.91 71.95C119.91 71.95 122.84 72.5 123.01 72.55C123.39 72.63 123.9 72.72 123.9 73.19C123.9 73.44 123.3 74.34 123.22 74.55C123.05 75.1 123.01 76.21 123.01 76.85C123.01 77.83 123.31 78.21 124.37 78.21H125.95C127.86 78.21 128.03 78.21 128.5 77.36C129.27 75.91 129.61 75.91 129.82 75.91C130.54 75.91 133.61 78.04 133.61 78.76C133.61 79.23 132.5 79.31 132.38 79.31C131.57 79.35 131.02 79.35 130.08 79.35H122.68C122.38 79.35 122.34 79.35 122.34 79.43C122.34 79.64 123.4 80.66 123.4 80.96C123.4 81.21 123.32 81.21 122.46 81.43C122.21 81.47 121.57 82.2 121.48 82.28C120.84 83 117.36 86.57 117.36 86.83C117.36 87.08 117.61 87.25 118.17 87.64C119.28 88.45 119.91 89.38 119.91 90.57C119.91 91.85 119.02 92.53 118.42 92.53C117.91 92.53 117.83 92.4 116.59 90.45C114.97 87.86 113.83 86.71 111.36 84.67C111.1 84.46 111.1 84.46 111.1 84.37C111.1 84.24 111.14 84.24 111.23 84.24C112.12 84.24 116.08 86.32 116.33 86.32C117.52 86.32 119.52 80.15 119.52 79.9C119.52 79.39 119.14 79.35 118.75 79.35H117.61V79.36ZM110.17 109.56C110.17 109.3 112.47 108.37 112.89 108.16C120.93 103.82 125.65 98.25 127.65 93.87C128.16 92.76 128.2 92.64 128.54 92.64C128.84 92.64 131.73 95.06 131.73 95.4C131.73 95.66 131.6 95.78 131.09 95.95C130.2 96.25 130.15 96.33 126.71 100.12C126.07 100.84 125.99 100.89 125.99 101.14C125.99 101.31 126.16 101.4 127.44 102.29C130.03 104.08 131.69 105.56 131.69 107.35C131.69 109.01 130.41 109.86 129.56 109.86C128.62 109.86 128.45 109.18 127.94 107.01C127.17 103.91 125.9 101.86 125.26 101.86C125.05 101.86 124.88 101.99 123.56 103.09C117.56 108.28 110.67 109.72 110.33 109.68C110.26 109.69 110.17 109.64 110.17 109.56ZM123.78 92.68C118.04 99.23 110.85 102.84 110.51 102.84C110.43 102.84 110.25 102.63 110.25 102.54C110.25 102.41 110.38 102.24 110.72 101.99C113.4 99.95 122.46 92.93 125.56 84.89C125.64 84.68 125.86 83.61 125.99 83.4C126.07 83.19 126.2 83.19 126.29 83.19C126.5 83.19 129.69 85.49 129.69 85.95C129.69 86.2 129.48 86.33 128.97 86.55C128.46 86.8 128.16 87.1 127.69 87.57C127.06 88.34 124.38 92 123.78 92.68ZM138.2 85.45C138.2 89.53 138.28 95.61 138.33 96.04C138.37 97.19 138.5 99.1899 138.5 99.4799C138.5 100.03 138.5 102.37 136.29 102.37C135.4 102.37 135.31 101.78 135.31 101.26C135.31 101.13 135.48 98.24 135.52 97.86C135.52 97.61 135.69 86.85 135.69 84.21C135.69 82.51 135.65 80.25 135.22 78.81C135.22 78.73 134.92 77.87 134.92 77.79C134.92 77.62 135 77.37 135.26 77.37C135.52 77.37 137.09 77.92 137.51 78.05C139.08 78.52 139.3 78.65 139.3 79.11C139.3 79.41 139.09 79.62 138.83 79.88C138.53 80.09 138.36 80.26 138.28 80.69C138.2 81.15 138.2 84.68 138.2 85.45ZM146.11 80.94C146.11 84.34 146.11 95.7 146.24 102.2C146.24 102.67 146.32 104.88 146.32 105.35C146.32 110.24 142.28 110.88 141.94 110.88C141.34 110.88 141.22 110.71 140.83 110.16C140.11 109.1 138.15 107.78 137.47 107.4C136.92 107.1 136.88 107.06 136.88 106.93C136.88 106.8 137.01 106.76 137.09 106.76C137.34 106.76 138.49 106.93 138.75 106.97C139.26 107.01 140.37 107.1 141.13 107.1C142.36 107.1 142.83 106.89 143.09 105.95C143.43 104.8 143.6 94.51 143.6 92.64C143.6 90.05 143.39 76.01 143.13 74.69C143.09 74.39 142.71 73.12 142.71 72.86C142.71 72.48 142.84 72.31 143.18 72.31C143.18 72.31 147.81 73.67 147.81 74.52C147.81 74.82 147.73 74.9 147 75.5C146.83 75.63 146.49 76.14 146.36 76.56C146.11 77.37 146.11 79.88 146.11 80.94Z" fill="black"/>
<path d="M124.3 125.929C124.64 127.379 124.72 127.759 125.66 127.839C127.66 128.049 128.42 128.139 128.42 129.409C128.42 130.469 127.48 131.149 126.04 131.789C125.62 131.959 123.62 132.559 123.19 132.809C122.55 133.189 122.38 135.829 122.38 136.299C122.38 136.769 122.51 136.939 122.85 137.319C123.83 138.549 124.25 139.059 124.25 140.769C124.25 144.089 122.25 145.869 122 146.089C121.53 146.429 121.41 146.559 121.41 147.029C121.41 147.409 121.88 149.159 121.88 149.579C121.88 149.829 121.8 150.599 120.94 150.979C120.17 151.359 120 151.449 120 151.919C120 154.049 122.42 155.019 127.14 155.019C134.96 155.019 135.81 152.939 135.94 145.489C136.02 141.749 136.19 134.259 140.75 134.259C143.39 134.259 146.07 139.279 146.07 141.699C146.07 143.099 145.09 143.699 144.67 143.699C144.33 143.699 142.97 142.759 142.63 142.639C142.2 142.509 139.95 141.999 139.95 141.749C139.95 141.499 141.44 141.109 141.69 140.939C142.33 140.599 142.5 140.129 142.5 139.449C142.5 137.619 141.39 135.659 139.99 135.659C137.52 135.659 137.01 139.399 137.01 143.989C137.01 145.389 137.18 147.729 137.31 148.969C137.39 149.609 138.03 152.629 138.03 153.349C138.03 157.819 129.44 157.989 127.27 157.989C118.89 157.989 118.34 154.249 118.34 153.139C118.34 152.759 118.68 151.059 118.68 150.669C118.68 150.119 118.6 150.029 117.74 149.049C116.68 147.859 115.32 144.879 115.32 142.199C115.32 141.559 115.32 138.369 118.85 136.839C119.06 136.759 120.17 136.499 120.42 136.419C120.72 136.339 120.8 134.119 120.8 133.949C120.8 133.399 120.59 133.349 120.33 133.349C119.91 133.349 117.74 133.899 117.23 133.899C115.87 133.899 114 132.029 114 130.329C114 130.199 114.04 129.729 114.34 129.729C114.68 129.729 116.3 130.199 116.68 130.279C117.36 130.449 118.17 130.529 119.19 130.529C121.19 130.529 121.53 130.529 121.53 128.959C121.53 128.279 121.4 127.129 120.85 126.029C120.72 125.779 119.87 124.709 119.87 124.409C119.87 123.859 120.93 123.939 121.27 123.979C122.26 124.179 124.04 124.819 124.3 125.929ZM119.62 138.809C118.56 138.809 117.28 139.999 117.28 142.209C117.28 143.699 118.05 145.309 119.24 145.309C119.75 145.309 119.96 144.759 120.09 144.369C120.26 143.729 120.6 140.799 120.6 140.159C120.6 139.239 120.26 138.809 119.62 138.809ZM123.7 129.159C123.7 129.459 123.78 129.589 124 129.589C124.04 129.589 125.45 129.209 125.45 128.739C125.45 128.439 125.07 128.059 124.56 128.059C124.52 128.059 124.31 128.059 124.14 128.139C123.7 128.389 123.7 129.069 123.7 129.159Z" fill="black"/>
<path d="M138.704 454.969C146.14 450.326 153.284 445.08 160.267 439.701C167.241 434.284 174.045 428.64 180.67 422.79C187.295 416.939 193.74 410.88 199.969 404.614C206.169 398.32 212.237 391.865 217.776 384.966C212.359 391.959 206.405 398.537 200.308 404.944C194.174 411.333 187.833 417.514 181.302 423.497C174.763 429.471 168.044 435.256 161.145 440.814C154.218 446.354 147.178 451.714 139.686 456.583L138.704 454.969Z" fill="#FAD576"/>
<path d="M138.402 455.271C143.168 447.845 147.877 440.38 152.529 432.878C157.163 425.366 161.778 417.845 166.119 410.163C170.422 402.481 174.178 394.479 177.924 386.486C181.642 378.483 185.276 370.433 188.824 362.346C185.417 370.49 181.935 378.606 178.358 386.684C174.744 394.743 171.139 402.811 166.949 410.616C162.731 418.392 158.248 426.007 153.747 433.604C149.227 441.192 144.65 448.75 140.007 456.272L138.402 455.271Z" fill="#FAD576"/>
<path d="M138.271 455.649L153.879 351.012L140.139 455.913L138.271 455.649Z" fill="#FAD576"/>
<path d="M138.327 456.13C136.044 450.109 134.024 444.032 132.174 437.898C130.334 431.764 128.673 425.564 127.277 419.317C125.861 413.069 124.795 406.737 123.974 400.396L121.426 381.38L124.436 400.32C125.408 406.643 126.626 412.899 128.192 419.09C129.74 425.281 131.542 431.405 133.524 437.464C135.515 443.522 137.676 449.543 140.073 455.413L138.327 456.13Z" fill="#FAD576"/>
<path d="M138.535 456.451C134.581 452.337 130.816 448.099 127.154 443.768C123.493 439.427 119.963 434.982 116.623 430.396C113.282 425.809 110.12 421.091 107.308 416.155C106.638 414.91 105.912 413.683 105.279 412.418L103.373 408.625L99.5605 401.037L103.581 408.521L105.591 412.258C106.251 413.504 107.006 414.702 107.714 415.929C110.64 420.761 113.924 425.366 117.368 429.839C120.822 434.312 124.455 438.634 128.211 442.852C131.967 447.061 135.846 451.185 139.856 455.13L138.535 456.451Z" fill="#FAD576"/>
<path d="M138.76 456.611C134.438 454.243 130.182 451.789 125.945 449.288C121.717 446.778 117.518 444.23 113.375 441.578C109.242 438.927 105.127 436.237 101.126 433.368C97.1342 430.509 93.199 427.546 89.5186 424.299C93.3028 427.432 97.3135 430.254 101.39 432.981C105.467 435.709 109.657 438.266 113.866 440.776C118.075 443.286 122.35 445.693 126.643 448.062C130.937 450.421 135.269 452.733 139.629 454.941L138.76 456.611Z" fill="#FAD576"/>
<path d="M139.044 456.706C130.268 455.092 121.576 453.233 112.894 451.261C104.222 449.288 95.5775 447.156 86.971 444.91C84.8194 444.372 82.6772 443.73 80.535 443.135C78.3929 442.531 76.279 441.805 74.1557 441.144C69.9468 439.682 65.7568 438.162 61.6895 436.36C57.6033 434.586 53.5926 432.642 49.714 430.471C45.8449 428.272 42.0512 425.932 38.5879 423.129C42.0984 425.866 45.9298 428.14 49.8273 430.263C53.7342 432.368 57.7732 434.227 61.8782 435.926C65.9644 437.653 70.1733 439.087 74.3822 440.474C76.5149 441.088 78.6194 441.777 80.771 442.343C82.9226 442.9 85.0459 443.494 87.2164 443.994C95.8512 446.089 104.514 448.062 113.206 449.883C121.897 451.695 130.626 453.403 139.365 454.856L139.044 456.706Z" fill="#FAD576"/>
<path d="M139.516 456.668C132.674 458.791 125.729 460.009 118.717 460.858C115.216 461.292 111.696 461.519 108.176 461.707C104.656 461.83 101.127 461.896 97.6067 461.792C90.5668 461.641 83.5457 461.066 76.5718 460.198C69.5979 459.32 62.6523 458.178 55.8105 456.611C62.6901 458.027 69.6451 459.008 76.6284 459.735C83.6023 460.452 90.6139 460.858 97.6161 460.858C104.618 460.886 111.611 460.424 118.538 459.461C125.436 458.48 132.353 457.074 138.884 454.885L139.516 456.668Z" fill="#FAD576"/>
<path d="M139.742 456.555C135.854 459.093 131.863 461.311 127.795 463.416C123.718 465.52 119.594 467.473 115.367 469.257C111.139 471.031 106.77 472.456 102.344 473.598C97.9179 474.73 93.4259 475.636 88.8867 476.127C93.407 475.485 97.8518 474.428 102.221 473.145C106.581 471.852 110.865 470.295 114.989 468.389C119.113 466.483 123.162 464.378 127.125 462.16C131.079 459.933 134.996 457.574 138.667 454.998L139.742 456.555Z" fill="#FAD576"/>
<path d="M139.951 456.356C137.714 459.084 135.383 461.679 132.977 464.217C130.57 466.756 128.07 469.2 125.456 471.531C122.841 473.862 120.076 476.004 117.217 478.014C114.358 480.015 111.413 481.893 108.365 483.573C111.338 481.751 114.188 479.751 116.934 477.637C119.69 475.513 122.332 473.258 124.804 470.852C127.286 468.426 129.646 465.888 131.92 463.274C134.185 460.66 136.393 457.961 138.45 455.215L139.951 456.356Z" fill="#FAD576"/>
<path d="M140.101 456.074C139.035 458.942 137.836 461.679 136.591 464.416C135.336 467.143 134.024 469.842 132.665 472.513C131.297 475.193 129.824 477.816 128.163 480.317C126.503 482.808 124.7 485.253 122.482 487.263C124.587 485.13 126.238 482.62 127.758 480.062C129.277 477.495 130.589 474.815 131.797 472.097C133.014 469.37 134.175 466.624 135.279 463.85C136.374 461.085 137.44 458.272 138.308 455.489L140.101 456.074Z" fill="#FAD576"/>
<path d="M140.139 455.913L134.505 489.31L138.27 455.649L140.139 455.913Z" fill="#FAD576"/>
<path d="M140.12 455.583L146.537 490.235L138.279 455.979L140.12 455.583Z" fill="#FAD576"/>
<path d="M139.997 455.281L160.409 489.688L138.402 456.281L139.997 455.281Z" fill="#FAD576"/>
<path d="M139.884 455.13C142.771 458.235 145.772 461.283 148.858 464.218C151.953 467.143 155.134 469.984 158.54 472.513C161.994 474.995 165.533 477.429 169.025 479.892L179.528 487.263L168.761 480.289C165.175 477.948 161.579 475.665 157.993 473.287C154.435 470.842 151.123 468.096 147.896 465.265C144.668 462.425 141.554 459.49 138.506 456.432L139.884 455.13Z" fill="#FAD576"/>
<path d="M139.675 454.96C144.941 458.093 150.311 461.085 155.737 463.944C161.182 466.756 166.693 469.502 172.422 471.626C175.281 472.664 178.263 473.4 181.255 474.07C184.246 474.73 187.275 475.297 190.305 475.797C196.363 476.806 202.469 477.627 208.584 478.297C202.45 477.797 196.335 477.137 190.229 476.278C187.181 475.853 184.133 475.372 181.104 474.787C178.074 474.192 175.055 473.541 172.101 472.55C166.231 470.55 160.635 467.926 155.086 465.227C149.556 462.491 144.101 459.631 138.713 456.602L139.675 454.96Z" fill="#FAD576"/>
<path d="M139.497 454.884C143.781 456.206 148.311 457.13 152.803 457.876C157.314 458.612 161.862 459.159 166.43 459.471C175.565 460.188 184.756 460.056 193.901 459.348C203.045 458.593 212.171 457.432 221.202 455.743C225.722 454.922 230.205 453.912 234.649 452.752C239.085 451.563 243.511 450.26 247.729 448.439C243.539 450.336 239.132 451.714 234.706 452.978C230.271 454.214 225.798 455.3 221.287 456.206C212.265 458.046 203.14 459.367 193.976 460.282C184.804 461.15 175.546 461.443 166.326 460.877C161.711 460.641 157.116 460.169 152.539 459.499C147.952 458.82 143.432 457.98 138.902 456.668L139.497 454.884Z" fill="#FAD576"/>
<path d="M138.978 454.856C147.631 452.846 156.266 450.685 164.854 448.411C173.451 446.127 182.01 443.702 190.484 441.031C194.731 439.71 198.911 438.247 203.017 436.549C207.093 434.803 211.104 432.896 215.02 430.792C222.815 426.527 230.327 421.704 237.254 416.108C230.431 421.827 222.995 426.791 215.247 431.207C211.359 433.387 207.367 435.378 203.29 437.2C199.195 438.974 194.995 440.531 190.777 441.928C182.321 444.759 173.79 447.326 165.231 449.77C156.662 452.204 148.065 454.516 139.412 456.687L138.978 454.856Z" fill="#FAD576"/>
<path d="M151 492C233.843 492 301 424.843 301 342C301 259.157 233.843 192 151 192C68.1573 192 1 259.157 1 342C1 424.843 68.1573 492 151 492Z" stroke="#BF9547" stroke-miterlimit="10"/>
<path d="M176.064 262.616C176.253 262.55 182.991 256.077 182.991 256.077L187.804 258.71L189.21 267.363L195.174 272.365L201.459 275.696L197.099 278.518L203.894 288.776L200.176 292.494L193.249 300.317L186.709 303.393L180.424 306.979L169.015 305.696C169.015 305.696 159.267 301.978 158.889 301.846C158.512 301.714 151.009 295.948 151.009 295.948L148.754 288.766L151.009 283.897L147.857 277.744L149.65 272.62L152.916 262.362L158.493 257.747L166.184 259.474L173.299 259.663L176.064 262.616Z" fill="#BF9547"/>
<path d="M243.699 280.15L251.966 270.534L268.509 277.074L266.678 281.528L271.868 284.963L272.737 290.154H269.755L269.179 292.654L271.104 294.966L269.085 300.921L263.026 304.771L257.543 302.941L248.89 297.467L243.699 289.578V280.15Z" fill="#BF9547"/>
<path d="M253.504 315.926C253.504 315.926 269.849 323.522 270.141 323.815C270.434 324.107 277.351 338.14 277.351 338.14L274.558 347.464L276.766 358.231L273.397 377.077L269.745 378.908L267.244 376.171L267.914 384.589L261.091 386.372L255.854 381.512L254.174 377.332L252.447 366.998L244.945 362.667L240.906 358.816L243.218 345.548L240.047 341.32L240.915 328.722L253.504 315.926Z" fill="#BF9547"/>
<path d="M225.75 369.103L239.085 369.811L240.047 386.363L232.903 392.374C232.903 392.374 222.674 387.439 222.485 387.25C222.296 387.061 221.268 379.427 221.268 379.427L225.75 369.103Z" fill="#BF9547"/>
<path d="M104.07 436.577L138.175 429.273L139.713 419.779L130.097 406.322L134.844 401.962L133.815 392.346L129.068 394.649L122.783 382.73L113.554 373.623L108.939 382.088L113.554 395.423L113.431 400.934L106.892 393.365L105.089 401.962L95.992 400.424L88.5557 424.394L93.5572 433.114L91.5 445.552L104.07 436.577Z" fill="#BF9547"/>
<path d="M64.2558 407.502L66.5018 413.013L63.3593 414.485L58.5465 413.334L57.3291 423.205C57.3291 423.205 63.9349 433.076 64.1237 433.208C64.3124 433.34 70.7295 438.917 70.7295 438.917L81.1762 436.605L85.1492 428.914L86.8761 425.649L80.2042 423.601L72.7679 411.295L64.2558 407.502Z" fill="#BF9547"/>
<path d="M104.835 389.59L97.9082 397.961H83.6773C83.6773 397.961 78.0057 391.138 77.9113 390.846C77.817 390.553 79.7421 379.691 79.7421 379.691L79.0721 376.52L76.09 377.87C76.09 377.87 73.8818 374.982 74.2592 374.888C74.6461 374.793 83.3942 370.273 83.3942 370.273C83.3942 370.273 87.4332 365.177 87.7257 364.885C88.0183 364.592 92.6329 357.288 92.6329 357.288L94.8412 370.651L93.1142 378.917L94.3599 383.438L104.835 389.59Z" fill="#BF9547"/>
<path d="M85.6682 400.452C85.6682 400.452 85.6871 400.745 85.7154 401.217C85.8286 403.274 86.0929 408.785 85.6682 408.785C85.1586 408.785 78.6188 409.587 78.6188 409.587L74.7685 413.013L70.2766 404.293C70.2766 404.293 61.4342 400.83 61.0472 400.443C60.6603 400.056 54.5075 394.8 54.5075 394.8L49.7607 397.942L41.6827 393.394L45.0139 401.604L39.2479 403.208C39.2479 403.208 37.3228 394.045 36.3036 393.403C35.275 392.761 27.4612 389.043 27.4612 389.043L16.3068 373.623C16.3068 373.623 13.6172 353.4 13.3624 352.239C13.1076 351.088 4.52003 338.131 5.02962 338.395C5.53922 338.65 7.34167 324.032 7.34167 324.032L8.23818 311.849L10.1633 310.698L11.4467 305.187L13.1171 300.827L5.02019 306.98L22.6106 266.977L42.7396 240.817L53.1297 235.816L51.4593 244.79L82.8749 225.558L85.923 230.814L60.4338 254.02L45.4669 280.047L41.4562 284.793L67.8701 266.335L66.5867 261.72C66.5867 261.72 67.9928 251.207 68.3797 251.207C68.7667 251.207 80.5628 249.282 80.5628 249.282C80.5628 249.282 82.488 251.594 83.1297 251.594C83.7714 251.594 90.1791 244.026 90.1791 244.026L97.3606 242.62L100.824 239.156L108.005 239.798C108.005 239.798 110.44 243.648 110.95 243.648C111.459 243.648 120.821 243.516 120.821 243.516L133.608 253.227C133.608 253.227 137.996 251.462 138.383 251.462C138.77 251.462 145.234 253.397 145.234 253.397L141.488 286.407L118.896 319.295L125.435 322.947L135.439 319.295L139.732 309.103L154.671 314.869L167.364 329.298L155.822 349.304L141.488 362.573L123.51 357.288L109.081 362.573L94.8503 352.381L81.582 352.192C81.582 352.192 74.9573 366.423 74.2306 367.197C73.504 367.971 69.465 382.201 69.465 382.201L74.2306 395.668" fill="#BF9547"/>
<path d="M149.839 236.401C149.839 236.401 114.262 228.323 113.488 228.323C112.714 228.323 100.409 235.051 100.409 235.051L90.0186 230.437L90.9811 225.567L107.713 219.669L114.441 222.557L129.446 218.131L141.459 225.567C141.459 225.567 158.672 219.48 159.248 219.669C159.824 219.858 174.828 218.131 174.828 218.131C174.828 218.131 182.906 221.019 182.906 221.594C182.906 222.17 177.518 228.521 177.518 228.521L149.839 236.401Z" fill="#BF9547"/>
<path d="M281.588 277.461C281.588 277.753 282.645 288.323 282.645 288.323L291.298 299.864L286.438 285.633L281.588 277.461Z" fill="#BF9547"/>
<path d="M279.757 303.233C279.757 303.233 275.813 311.603 276.105 311.792C276.398 311.981 282.258 315.926 282.258 315.926L285.335 309.575L279.757 303.233Z" fill="#BF9547"/>
<path d="M278.031 317.851V324.296L280.711 329.581L281.589 323.711L278.031 317.851Z" fill="#BF9547"/>
<path d="M293.8 309.575L292.932 327.08C292.932 327.08 298.122 340.254 297.933 339.386C297.744 338.518 297.263 324.504 297.263 324.504L293.8 309.575Z" fill="#BF9547"/>
<path d="M186.897 304.771L183.755 315.058L179.461 314.605L178.31 316.652L174.139 316.907L184.01 323.381L181.641 326.778L184.784 330.11L183.245 336.14L184.397 341.33L189.332 347.936H195.041L198.628 349.861L203.884 347.87L207.281 355.438L201.289 357.75L200.232 366.885L213.887 373.614C213.887 373.614 219.209 367.367 219.143 366.847C219.077 366.338 219.719 353.381 219.719 353.381L216.831 347.228C216.831 347.228 217.917 343.831 218.237 343.321C218.558 342.812 221.248 341.594 221.248 341.594C221.248 341.594 221.248 335.441 221.248 335.054C221.248 334.668 234.554 338.131 234.554 338.131L238.593 335.441L239.263 331.11L253.211 315.246L249.077 311.689L238.791 316.596C238.791 316.596 235.809 314.482 236.29 313.803C236.772 313.123 237.253 310.434 237.734 310.339C238.215 310.245 243.698 308.508 243.698 308.508C243.698 308.508 237.545 307.263 236.875 306.97C236.205 306.678 229.467 303.894 229.467 303.894C229.467 303.894 224.466 297.071 224.853 296.684C225.24 296.297 228.892 291.588 229.279 291.399C229.666 291.211 226.297 288.71 225.91 288.71C225.523 288.71 218.889 292.654 218.889 292.654L219.464 298.902L214.944 304.771C214.944 304.771 211.679 297.845 211.198 297.75C210.716 297.656 202.157 294.485 202.157 294.485L186.897 304.771Z" fill="#BF9547"/>
<path d="M365.1 12.8499C365.1 14.7399 364 14.8899 363.74 14.8899C363.16 14.8899 362.85 14.8399 360.75 12.1099C359.54 10.5899 353.83 5.3999 353.09 5.3999C352.67 5.3999 352.41 5.6099 351.99 5.9799C345.17 12.2699 337.15 17.3099 336.26 17.3099C336.16 17.3099 336 17.2599 336 17.1499C336 17.0999 339.41 14.1599 339.99 13.5799C342.35 11.2699 348.17 5.39991 350.06 1.46991C350.64 0.25991 350.64 0.159912 350.95 0.159912C351.47 0.159912 354.99 2.30991 354.99 3.19991C354.99 3.61991 354.83 3.7799 354.36 4.0899C354.31 4.1399 354.05 4.34991 354.05 4.55991C354.05 4.81991 355.88 5.70991 356.3 5.91991C364.17 9.69991 364.74 10.5399 365.01 11.9999C365.05 12.2699 365.1 12.5899 365.1 12.8499ZM349.63 45.1499C348.53 45.1499 348.21 45.1999 347.95 45.8299C347.53 46.7699 347.16 47.5099 345.54 47.5099C344.07 47.5099 344.07 46.6699 344.07 46.2499C344.07 45.8799 344.33 44.0499 344.33 43.6299C344.43 41.7999 344.43 39.4899 344.43 38.8599C344.43 38.3899 344.43 35.7699 344.12 35.7699C344.01 35.7699 342.65 38.9199 342.34 39.4899C340.35 42.9999 337.04 45.7299 336.62 45.7299C336.57 45.7299 336.52 45.6799 336.52 45.5699C336.52 45.5699 337.15 44.6299 337.52 44.0999C342.35 36.8599 342.35 27.2699 342.35 26.0599C342.35 22.6499 342.24 19.7699 341.83 17.9299C341.78 17.6699 341.31 16.4599 341.31 16.1999C341.31 15.9899 341.47 15.9399 341.73 15.9399C342.05 15.9399 342.83 16.1499 344.09 16.9399C345.77 17.9899 346.29 18.0399 347.45 18.0399H356.16C356.95 18.0399 357.31 17.9899 357.58 17.7799C357.79 17.5699 358.63 16.4199 358.94 16.4199C359.2 16.4199 362.98 18.6799 362.98 19.2999C362.98 19.6699 362.77 19.9299 362.56 20.1399C362.4 20.2499 361.88 20.8199 361.62 21.0799C361.52 21.8099 361.62 28.4199 361.62 29.8399C361.62 31.4699 360.05 32.1499 359.16 32.1499C358.64 32.1499 358.48 31.9899 358.01 31.2599C357.75 30.8399 357.54 30.8399 356.59 30.8399H346.52C345.58 30.8399 344.79 30.8399 344.79 32.9899C344.79 33.7799 345 33.9299 347.2 35.2399C347.93 35.6599 349.03 35.6599 349.56 35.6599H356.43C357.43 35.6599 357.85 35.5599 358.37 34.7699C358.74 34.1899 359.05 33.8299 359.42 33.8299C359.53 33.8299 363.25 35.4599 363.25 36.5599C363.25 36.8199 363.14 37.0799 362.94 37.2399C362.05 37.9699 361.94 38.0799 361.89 38.2899C361.73 38.7599 361.89 41.3799 361.89 41.4899C361.89 45.1099 361.89 45.5299 361.47 46.1599C361.05 46.7899 360.11 47.4199 359.22 47.4199C358.43 47.4199 358.38 46.9499 358.28 46.1599C358.18 45.2199 357.28 45.1599 356.65 45.1599H349.63V45.1499ZM352.46 12.4299C353.4 12.4299 353.51 12.4299 353.72 12.2199C354.09 11.9599 355.35 10.1699 355.71 10.1699C355.97 10.1699 359.22 12.3699 359.22 13.2099C359.22 13.7899 359.01 13.7899 357.23 13.7899H350.31C349.63 13.7899 347.85 13.8999 347.22 13.9499C347.12 13.9999 346.64 14.0599 346.59 14.0599C346.43 14.0599 346.38 13.9499 346.22 13.7499L345.43 12.5399C345.27 12.2799 345.27 12.2799 345.27 12.2299C345.27 12.1299 345.32 12.0699 345.43 12.0699C345.9 12.0699 349.94 12.4399 350.78 12.4399H352.46V12.4299ZM356.55 29.4199C357.97 29.4199 357.97 29.1099 357.97 26.2699C357.97 25.3799 357.87 24.7999 356.55 24.7999H347.11C345.85 24.7999 345.38 24.8499 345.38 28.2599C345.38 29.3599 346.01 29.4099 346.8 29.4099H356.55V29.4199ZM356.45 23.4399C357.97 23.4399 357.97 22.9199 357.97 21.8099C357.97 19.6099 357.97 19.4499 356.55 19.4499H347.11C345.64 19.4499 345.64 19.9699 345.64 22.0699C345.64 23.1699 345.95 23.4299 347.11 23.4299H356.45V23.4399ZM349.79 37.0199C348.06 37.0199 348.06 37.4399 348.06 40.1699C348.06 43.4199 348.06 43.7899 349.79 43.7899H356.61C358.39 43.7899 358.39 43.3199 358.39 39.2299C358.39 37.6599 358.39 37.0299 356.66 37.0299H349.79V37.0199ZM367.93 7.2899C368.24 7.2899 371.81 8.80991 372.13 8.96991C372.34 9.12991 372.76 9.43991 372.76 9.80991C372.76 10.1199 371.76 11.2799 371.66 11.5399C371.45 12.1699 371.45 12.6899 371.45 17.9399C371.45 20.9299 371.5 36.2999 371.45 36.8699C371.35 38.1799 369.62 38.5999 368.57 38.5999C367.42 38.5999 367.31 37.8699 367.31 37.4499C367.31 36.6599 367.68 33.2499 367.68 32.5699C367.84 27.5399 368.15 19.4099 368.15 14.7899C368.15 13.7399 368.1 10.1699 367.84 9.38991C367.42 8.07991 367.37 7.91992 367.42 7.81992C367.46 7.43992 367.67 7.2899 367.93 7.2899ZM376.74 0.939911C376.95 0.939911 380.36 2.19992 380.88 2.45992C382.19 2.92992 382.3 2.97991 382.3 3.34991C382.3 3.71991 380.94 4.6099 380.78 4.8699C380.62 5.2399 380.41 7.38991 380.41 7.80991C380.36 9.43991 380.36 17.8299 380.36 21.3899V42.6299C380.36 46.1999 377.53 48.0299 374.64 48.0299C373.75 48.0299 373.59 47.9299 372.86 46.6699C372.6 46.1499 371.23 44.3599 370.13 43.7299C369.55 43.3599 369.5 43.3099 369.5 43.1499C369.5 42.9899 369.71 42.9899 369.81 42.9899C369.97 42.9899 374.06 43.3599 374.85 43.3599C375.79 43.3599 376.48 43.1499 376.58 42.1499C376.68 41.4699 376.89 33.3399 376.89 26.8399C376.89 21.0199 376.84 8.74991 376.63 3.54991C376.63 3.12991 376.26 1.3999 376.42 1.0899C376.48 0.989905 376.58 0.939911 376.74 0.939911Z" fill="black"/>
<path d="M371.51 101.71C373.19 101.71 373.87 101.71 375.39 100.19C375.81 99.77 377.44 97.52 377.96 97.52C378.64 97.52 383.26 101.82 383.26 102.45C383.26 103.08 383.05 103.08 380.95 103.08H345.39C344.24 103.08 340.62 103.08 338.78 103.24C338.62 103.24 337.84 103.34 337.68 103.34C337.52 103.34 337.42 103.24 337.21 102.97L336.21 101.82C336 101.56 336 101.5 336 101.45C336 101.34 336.05 101.34 336.16 101.34C336.53 101.34 338.15 101.5 338.47 101.5C340.88 101.61 343.24 101.71 345.66 101.71H360.13C361.02 101.71 361.49 101.45 361.75 100.45C364.48 90.54 366.31 75.64 366.31 73.49C366.31 73.18 366.05 71.86 366.05 71.6C366.05 71.18 366.26 71.08 366.52 71.08C366.63 71.08 373.23 73.02 373.23 73.75C373.23 74.12 371.76 75.01 371.5 75.22C371.19 75.59 371.19 75.8 370.71 77.63C369.77 81.56 367.35 90.27 363.94 97.93C363.84 98.19 362.58 100.92 362.58 101.08C362.58 101.66 363.16 101.71 363.52 101.71H371.51ZM369.3 69.03C370.77 69.03 371.45 69.03 371.87 68.82C372.66 68.51 374.86 64.99 375.65 64.99C376.44 64.99 380.27 69.08 380.27 69.66C380.27 70.39 379.22 70.39 377.49 70.39H347.91C346.76 70.39 343.14 70.39 341.3 70.55C341.14 70.55 340.36 70.65 340.2 70.65C339.99 70.65 339.88 70.55 339.73 70.34L338.73 69.13C338.52 68.87 338.47 68.87 338.47 68.76C338.47 68.65 338.58 68.65 338.68 68.65C339.05 68.65 340.67 68.81 340.99 68.81C343.4 68.92 345.76 69.02 348.17 69.02H355.25C356.72 69.02 356.82 68.23 356.82 67.13C356.82 65.19 356.77 60.99 356.45 59.53C356.4 59.32 355.93 58.53 355.93 58.32C355.93 58.06 356.3 58 356.56 58C356.77 58 361.28 58.84 361.96 59.15C362.22 59.25 362.8 59.57 362.8 60.04C362.8 60.56 362.01 60.93 361.75 61.3C361.17 62.03 361.17 65.13 361.17 66.81C361.17 68.54 361.17 69.01 362.95 69.01H369.3V69.03ZM352.52 97.41C351.79 97.41 350.63 96.83 350.63 94.58C350.63 90.8 350.63 84.51 347.96 78.74C347.7 78.16 346.12 75.8 346.12 75.23C346.12 75.02 346.33 74.97 346.49 74.97C348.32 74.97 355.67 82.73 355.67 91.7C355.67 92.9 355.67 97.41 352.52 97.41Z" fill="black"/>
<path d="M374.54 276.57C375.43 276.57 375.85 276.57 376.43 275.73C376.54 275.57 376.95 275 377.32 275C377.74 275 381.57 277.47 381.57 278.2C381.57 278.52 381.31 278.72 381.1 278.93C379.84 279.98 379.84 279.98 379.84 285.38C379.84 289.52 380.31 309.77 380.31 314.33C380.31 315.69 380.15 317.21 379.37 318.21C378.69 319.15 376.7 320.67 374.76 320.67C373.97 320.67 373.71 320.3 373.34 319.67C372.66 318.41 371.29 317.26 369.98 316.63C369.82 316.52 369.35 316.32 369.35 316.21C369.35 316.11 369.4 316.05 369.56 316.05C370.08 316.05 372.6 316.21 373.18 316.21C375.17 316.21 376.01 316.11 376.27 315.32C376.64 314.06 376.64 300.27 376.64 297.38C376.64 291.61 376.48 285.42 376.33 279.71C376.33 278.71 376.17 277.98 374.7 277.98H347.01C345.54 277.98 345.33 278.4 345.33 279.71C345.07 299.9 345.02 304.15 342.87 311.54C341.45 316.31 338.04 320.19 337.21 320.19C337.05 320.19 337 320.08 337 319.98C337 319.93 337.32 319.4 337.37 319.3C339.99 314.63 341.88 309.13 341.88 287.52C341.88 282.38 341.3 278.39 340.99 277.03C340.99 276.93 340.68 275.72 340.68 275.67C340.68 275.51 340.78 275.09 341.26 275.09C341.68 275.09 341.89 275.19 343.72 275.98C344.98 276.56 345.61 276.56 346.24 276.56H374.54V276.57ZM363.47 288.74C361.85 288.74 361.79 289.53 361.79 290.68C361.79 294.82 361.79 295.09 363.57 295.09H365.88C368.03 295.09 368.29 295.09 368.87 294.04C369.76 292.47 369.87 292.26 370.34 292.26C371.02 292.26 373.85 294.78 373.85 295.72C373.85 296.51 372.85 296.51 371.02 296.51H357.23C355.97 296.51 352.46 296.51 350.62 296.67C350.46 296.67 349.68 296.77 349.52 296.77C349.31 296.77 349.21 296.67 349.05 296.4L348 295.19C347.79 294.93 347.79 294.93 347.79 294.88C347.79 294.78 347.9 294.72 348 294.72C348.26 294.72 349.57 294.88 349.89 294.93C351.57 294.98 355.34 295.14 356.92 295.14C358.49 295.14 358.49 294.77 358.49 290.47C358.49 288.84 357.7 288.74 356.97 288.74C354.98 288.74 352.88 288.84 352.62 288.84C352.41 288.84 351.36 289 351.15 289C350.94 289 350.84 288.84 350.68 288.63L349.63 287.42C349.42 287.16 349.42 287.16 349.42 287.11C349.42 287.01 349.52 286.95 349.63 286.95C350.68 286.95 355.87 287.32 357.02 287.32C358.02 287.32 358.49 286.8 358.49 285.96C358.49 285.33 358.33 283.13 358.28 282.66C358.23 282.24 357.7 280.25 357.7 279.78C357.7 279.47 357.96 279.41 358.07 279.41C358.18 279.41 360.9 280.04 362.37 280.35C362.68 280.4 362.95 280.56 362.95 280.93C362.95 281.09 362.43 281.82 362.37 281.98C362.05 282.71 361.95 284.97 361.95 285.81C361.95 287.33 362.53 287.33 364.68 287.33C366.3 287.33 366.62 287.22 367.14 286.33C367.98 284.86 368.08 284.65 368.56 284.65C369.19 284.65 372.13 287.01 372.13 288.01C372.13 288.74 371.13 288.74 369.35 288.74H363.47ZM356.49 313.49C354.92 313.49 354.92 314.17 354.86 315.06C354.81 317 352.82 317.63 352.03 317.63C350.98 317.63 350.98 316.69 350.98 316.42C350.98 316.32 351.03 316.05 351.03 315.9C351.24 313.33 351.4 311.55 351.4 308.92C351.4 306.35 351.24 303.99 351.14 302.89C351.09 302.63 350.77 301.21 350.77 300.9C350.77 300.43 351.09 300.32 351.45 300.32C351.87 300.32 352.34 300.53 353.65 301.11C354.49 301.53 354.75 301.53 355.69 301.53H364.24C364.76 301.53 365.24 301.48 365.55 301.22C365.71 301.12 366.49 300.12 366.76 300.12C366.86 300.12 370.12 302.06 370.12 302.74C370.12 303 369.86 303.37 369.7 303.53C369.07 304 369.02 304.05 368.97 304.53C368.92 304.85 368.92 312.34 368.92 313.24C368.92 315.44 367.24 315.97 366.35 315.97C365.25 315.97 365.2 315.29 365.09 314.61C364.99 313.51 364.09 313.51 363.46 313.51H356.49V313.49ZM363.78 312.13C365.4 312.13 365.56 312.13 365.56 306.73C365.56 303.27 365.56 302.9 363.83 302.9H356.28C354.5 302.9 354.5 303.16 354.5 307.78C354.5 311.66 354.5 312.13 356.23 312.13H363.78Z" fill="black"/>
<path d="M352.45 339.18C350.83 339.18 350.72 339.34 349.25 341.07C346.47 344.43 340.12 350.14 338.29 350.14C338.24 350.14 338.08 350.14 338.08 349.98C338.08 349.77 339.39 348.46 339.76 348.09C341.75 346.1 347.47 339.38 349.51 332.36C349.56 332.1 349.93 331 350.09 331C351.03 331.37 355.28 333.2 355.28 333.94C355.28 334.31 353.81 335.25 353.55 335.51C353.13 335.88 352.29 336.93 352.29 337.4C352.29 337.77 352.4 337.77 353.71 337.77H369.08C371.49 337.77 371.7 337.67 372.07 337.3C372.39 336.93 373.64 334.68 374.17 334.68C374.38 334.68 379.47 337.77 379.47 338.46C379.47 339.19 378.42 339.19 376.64 339.19H364.89C364.16 339.19 363.42 339.29 363.32 340.45V347.37C363.32 349 363.95 349.1 365.21 349.1H367.2C368.46 349.1 369.4 349.1 369.77 348.94C370.24 348.68 372.08 346.27 372.71 346.27C372.97 346.27 377.59 349.05 377.59 349.78C377.59 350.46 376.91 350.46 374.76 350.46H365.22C363.75 350.46 363.33 350.62 363.33 352.4C363.38 354.34 363.38 358.43 363.38 360.42C363.38 361.1 363.38 362.05 365 362.05H373.55C375.33 362.05 375.54 362.05 376.43 360.74C377.79 358.8 377.95 358.59 378.47 358.59C379.05 358.59 383.87 362.05 383.87 362.79C383.87 363.26 383.4 363.42 381.09 363.42H364.99C363.68 363.42 363.42 363.94 363.42 365.1V369.72C363.42 370.66 363.74 375.23 363.74 376.28C363.74 377.17 363.69 377.7 363.22 378.06C362.33 378.74 361.49 379.32 360.44 379.32C360.02 379.32 358.81 378.85 358.81 377.69C358.81 376.96 359.13 373.39 359.18 372.55C359.23 370.92 359.34 366.31 359.34 365C359.34 363.43 358.5 363.43 357.77 363.43H346.44C345.18 363.43 341.67 363.43 339.83 363.59C339.67 363.59 338.89 363.69 338.73 363.69C338.52 363.69 338.42 363.59 338.26 363.38L337.26 362.17C337 361.91 337 361.91 337 361.8C337 361.7 337.1 361.7 337.21 361.7C338.26 361.7 343.45 362.07 344.66 362.07C346.13 362.07 346.13 361.7 346.13 358.56C346.13 357.04 345.87 349.12 345.87 348.91C345.87 348.07 345.87 347.97 346.08 347.97C346.5 347.97 346.71 348.02 348.65 348.7C349.44 349.02 350.17 349.12 351.11 349.12H357.82C359.34 349.12 359.45 348.39 359.45 347.49C359.45 339.2 359.4 339.2 357.88 339.2H352.45V339.18ZM351.51 350.46C349.99 350.46 349.83 350.67 349.83 355.18C349.83 362.05 349.94 362.05 351.61 362.05H357.75C359.43 362.05 359.53 362.05 359.53 355.81C359.53 350.62 359.53 350.46 357.8 350.46H351.51Z" fill="black"/>
<path d="M352.84 398.34C353.42 398.34 353.47 398.34 353.89 397.92C355.78 396.19 355.99 395.98 356.35 395.98C357.03 395.98 359.55 398.5 359.55 399.07C359.55 399.7 358.87 399.7 357.71 399.7H344.55C343.45 399.7 341.72 399.7 340.25 399.8C340.09 399.85 339.31 399.96 339.15 399.96C339.05 399.96 338.94 399.86 338.84 399.65L338.16 398.44C338 398.18 338 398.18 338 398.07C338 398.02 338.05 397.96 338.1 397.96C338.15 397.96 339.2 398.12 339.41 398.12C340.83 398.22 343.4 398.33 344.76 398.33H352.84V398.34ZM351.11 419.85C351.58 419.85 351.95 419.85 352.21 419.74C352.53 419.58 353.78 418.11 354.15 418.11C354.52 418.11 357.4 419.68 357.4 420.52C357.4 420.62 356.82 421.52 356.72 421.62C356.46 422.04 356.41 422.46 356.41 423.04C356.41 424.14 356.62 429.65 356.62 430.91C356.62 432.54 355.52 433.32 354 433.32C353.16 433.32 353.16 432.9 353.16 432.27C353.16 431.01 352.37 431.01 351.48 431.01H346.65C345.08 431.01 345.08 431.64 345.08 433.74C345.08 434.79 345.08 436.2 342.62 436.2C341.2 436.2 341.15 435.26 341.15 434.63C341.15 433.27 341.36 426.55 341.36 425.03C341.36 422.88 341.36 421.94 341.2 420.73C341.15 420.47 340.94 419.05 340.94 418.74C340.94 418.53 341.05 418.22 341.36 418.22C341.67 418.22 343.82 419.32 344.19 419.48C345.03 419.9 345.4 419.85 346.02 419.85H351.11ZM350.48 405C350.79 405 351.11 405 351.37 404.79C351.74 404.53 352.94 402.8 353.36 402.8C353.94 402.8 356.56 405.32 356.56 405.79C356.56 406.37 355.72 406.37 354.36 406.37H347.8C346.86 406.37 344.92 406.37 343.5 406.47C343.34 406.52 342.61 406.63 342.45 406.63C342.29 406.63 342.24 406.47 342.13 406.32L341.4 405.11C341.24 404.85 341.24 404.85 341.24 404.74C341.24 404.69 341.29 404.64 341.4 404.64C341.61 404.64 342.5 404.8 342.71 404.8C344.02 404.9 346.64 405.01 347.95 405.01H350.48V405ZM350.63 412.14C351.15 412.14 351.47 412.14 352.05 411.35C352.63 410.51 352.94 410.25 353.36 410.25C354.25 410.25 356.66 412.24 356.66 412.87C356.66 413.5 355.82 413.5 354.56 413.5H348C344.54 413.5 343.54 413.66 343.38 413.66C343.28 413.66 342.7 413.76 342.59 413.76C342.48 413.76 342.43 413.71 342.28 413.45L341.6 412.24C341.44 411.98 341.44 411.98 341.44 411.87C341.44 411.82 341.49 411.76 341.55 411.76C341.6 411.76 342.65 411.92 342.86 411.92C344.33 412.03 346.69 412.13 348.16 412.13H350.63V412.14ZM349.9 392.21C350.48 392.21 350.74 392.21 351.32 391.42C352.21 390.16 352.37 390 352.79 390C353.52 390 356.2 392.1 356.2 392.88C356.2 393.56 355.47 393.56 354.36 393.56H348.43C347.12 393.56 345.39 393.56 344.13 393.67C343.97 393.67 343.24 393.83 343.08 393.83C342.92 393.83 342.82 393.67 342.71 393.52L342.03 392.31C341.87 392.05 341.87 392.05 341.87 391.94C341.87 391.89 341.92 391.83 342.03 391.83C342.03 391.83 343.13 391.99 343.34 391.99C344.65 392.15 347.27 392.2 348.58 392.2H349.9V392.21ZM346.39 421.26C345.18 421.26 344.87 421.47 344.87 423.41C344.87 429.6 345.13 429.6 346.6 429.6H351.43C352.01 429.6 353.06 429.6 353.06 428.24C353.06 427.66 353.06 422.31 352.95 422C352.64 421.27 351.9 421.27 351.48 421.27H346.39V421.26ZM374.81 392.57C376.96 392.57 377.17 392.57 377.48 392.31C378.63 391.31 378.95 391 379.53 391C380.05 391 383.36 392.52 383.36 393.73C383.36 393.99 382.31 394.83 382.15 395.09C381.78 395.56 381.78 396.03 381.78 400.33C381.78 401.54 381.99 407.31 381.99 408.62C381.99 409.51 381.99 411.82 379.74 411.82C378.38 411.82 378.22 411.3 377.96 410.04C377.75 409.04 377.02 408.99 376.44 408.99H367.63C366.16 408.99 366.06 409.72 366.06 410.72C366.01 416.17 365.96 421.58 365.96 427.03C365.96 428.97 366.17 429.7 366.8 430.18C367.69 430.81 371.68 431.02 373.2 431.02C373.62 431.02 378.92 431.02 380.17 429.97C380.9 429.39 381.74 426.25 382.16 424.73C382.47 423.63 382.53 423.42 382.79 423.42C383 423.42 383.16 424.26 383.26 424.68C383.52 425.99 383.94 428.04 384.57 428.67C385.51 429.61 385.67 429.77 385.67 430.3C385.67 431.19 384.52 432.24 383.83 432.71C382.68 433.55 380.58 434.6 374.5 434.6C364.59 434.6 362.96 433.08 362.65 430.61C362.55 429.72 362.55 414.46 362.55 412.04C362.55 411.25 362.6 410.83 362.45 408.74C362.45 408.37 362.19 406.64 362.19 406.22C362.19 406.06 362.19 405.49 362.77 405.49C363.45 405.49 365.39 406.54 366.81 407.33C367.28 407.59 367.65 407.64 368.44 407.64H376.52C377.52 407.64 377.78 407.43 377.99 406.91C378.25 406.28 378.25 401.04 378.25 399.72C378.25 394.16 378.09 394 376.62 394H369.23C367.97 394 364.46 394 362.62 394.16C362.46 394.16 361.68 394.27 361.52 394.27C361.36 394.27 361.26 394.16 361.05 393.9L360.05 392.69C359.84 392.43 359.84 392.43 359.84 392.38C359.84 392.28 359.95 392.28 360 392.28C360.32 392.28 361.94 392.44 362.31 392.44C363.83 392.49 366.56 392.6 369.5 392.6H374.81V392.57Z" fill="black"/>
<path d="M360.71 451.08C354.15 459.31 340 466.29 338.26 466.29C338.05 466.29 338 466.19 338 466.08C338 465.98 339.99 464.61 340.36 464.3C350.06 456.9 358.14 449.56 358.56 446.68C358.61 446.21 358.77 446 358.98 446C359.14 446 361.65 447.31 362.13 447.52C363.65 448.31 363.81 448.36 363.81 448.83C363.81 449.09 363.7 449.3 363.34 449.51C362.92 449.72 362.82 449.88 362.82 450.03C362.82 450.87 371.53 458.89 381.54 462.35C382.17 462.56 385.63 463.4 385.63 463.5C385.63 463.55 384.06 464.08 383.8 464.18C382.28 464.81 381.91 465.18 381.13 465.96C381.02 466.06 380.76 466.27 380.45 466.27C379.98 466.27 373.63 463.81 368.65 458.82C365.66 455.83 363.25 452.63 362.57 451.42C362.41 451.11 362.1 450.53 361.68 450.42C361.29 450.4 360.92 450.82 360.71 451.08ZM343.72 477.93C344.82 479.5 345.03 481.92 345.03 483.75C345.03 489.2 342.62 490.83 340.89 490.83C339.79 490.83 339 489.99 339 489.15C339 488.36 339.26 488.05 340.36 486.63C342.25 484.32 343.3 480.65 343.3 478.66C343.3 478.5 343.14 477.66 343.25 477.56C343.35 477.56 343.51 477.61 343.72 477.93ZM365.8 466.71C367.69 466.71 368.11 466.71 368.63 465.98C369.15 465.25 369.26 465.09 369.63 465.09C370.05 465.09 373.83 467.19 373.83 468.13C373.83 468.5 373.67 468.6 372.2 469.13C370.94 469.6 369.84 471.75 369 473.43C368.06 475.37 367.27 476.89 365.64 476.89C364.91 476.89 363.39 476.47 363.39 475.42C363.39 474.37 367.22 469.86 367.22 468.66C367.22 468.08 366.75 468.08 366.33 468.08H357.26C355.79 468.08 352.17 468.13 350.65 468.24C350.49 468.24 349.71 468.34 349.55 468.34C349.34 468.34 349.23 468.24 349.08 468.03L348.03 466.82C347.82 466.56 347.82 466.56 347.82 466.45C347.82 466.35 347.93 466.35 348.03 466.35C348.34 466.35 349.97 466.51 350.34 466.51C351.81 466.56 355.17 466.72 357.52 466.72H365.8V466.71ZM354.89 478.93C354.89 479.35 354.79 479.45 353.63 480.35C353.11 480.77 352.95 481.14 352.95 482.19C352.95 482.77 352.95 486.39 353 486.65C353.26 488.59 355.25 488.59 357.72 488.59C367.89 488.59 368.73 487.07 369.78 485.23C370.41 484.13 370.83 483.03 370.99 482.5C370.99 482.4 371.1 482.08 371.36 482.08C371.62 482.08 371.62 482.5 371.62 482.71C371.62 482.87 371.62 486.54 372.77 487.54C373.45 488.12 373.5 488.17 373.5 488.54C373.5 492.05 362.91 492.05 361.07 492.05C351.47 492.05 349.48 491.58 349.48 485.23V478.41C349.48 478.25 349.32 477.47 349.32 477.31C349.32 476.73 349.69 476.52 350.26 476.63C351.32 476.83 354.89 477.82 354.89 478.93ZM359.76 462.04C358.61 462.04 356.67 462.04 355.09 462.14C354.99 462.14 353.99 462.3 353.94 462.3C353.83 462.3 353.73 462.14 353.62 461.93L352.83 460.72C352.67 460.51 352.67 460.46 352.67 460.35C352.67 460.3 352.72 460.24 352.83 460.24C352.88 460.24 353.98 460.4 354.25 460.4C355.72 460.56 358.5 460.61 359.91 460.61C362.11 460.61 362.37 460.61 362.85 459.67C363.06 459.25 363.69 458.2 364.27 458.2C365.16 458.2 367.73 460.72 367.73 461.4C367.73 462.03 366.84 462.03 365.63 462.03H359.76V462.04ZM361.5 477.77C364.96 479.55 365.33 480.71 365.33 481.97C365.33 483.28 364.54 484.12 363.44 484.12C362.23 484.12 361.81 483.28 360.61 480.76C359.98 479.45 358.46 477.72 357.78 476.93C357.62 476.77 357.62 476.62 357.68 476.56C357.67 476.51 359.61 476.83 361.5 477.77ZM382.74 486.16C382.74 487.73 382.01 488.89 380.75 488.89C379.6 488.89 379.39 488.21 378.6 485.8C378.13 484.44 377.24 482.55 374.72 479.61C374.46 479.29 374.14 478.88 374.25 478.77C374.29 478.72 382.74 480.81 382.74 486.16Z" fill="black"/>
<path d="M230 1.98999C230.63 1.98999 230.94 1.98999 231.47 1.40999C231.78 1.03999 232.41 0.149994 232.99 0.149994C233.83 0.149994 236.14 2.56 236.14 3.45C236.14 3.76 236.09 3.86999 235.2 4.75999C234.68 5.27999 234.68 6.54 234.68 7.33C234.68 8.43 234.84 13.89 234.84 15.14C234.84 17.71 232.9 17.76 232.53 17.76C231.43 17.76 231.27 17.03 231.01 15.56C230.85 14.72 230.12 14.72 229.33 14.72H222.56C220.78 14.72 220.78 15.14 220.78 16.76C220.78 23.89 220.83 35.33 220.83 42.46C220.83 43.46 220.83 45.97 218.52 45.97C217 45.97 217 44.66 217 44.13C217 43.97 217.1 42.71 217.1 42.09C217.57 28.72 217.57 27.83 217.57 15.61C217.57 9.32 217.47 7.26999 217.41 6.00999C217.36 5.42999 217.1 1.18 217.1 1.03C217.1 0.819999 217.1 0.509995 217.31 0.509995C218.25 0.509995 219.41 1.19 219.88 1.45C220.77 1.97 221.14 1.97 221.87 1.97H230V1.98999ZM222.13 9.00999C220.77 9.00999 220.77 9.27 220.77 11.06C220.77 13.16 220.77 13.37 222.13 13.37H229.94C231.3 13.37 231.3 13.06 231.3 11.43C231.3 9.22999 231.3 9.01999 229.94 9.01999H222.13V9.00999ZM229.89 7.64999C231.36 7.64999 231.36 7.53999 231.36 5.23999C231.36 3.61999 231.36 3.40999 229.89 3.40999H222.29C220.82 3.40999 220.82 3.50999 220.82 5.81999C220.82 7.38999 220.82 7.65999 222.29 7.65999H229.89V7.64999ZM245.05 21.81C243.69 21.81 243.11 21.81 243.11 23.23V27.53C243.11 28.11 243.16 28.74 243.95 28.74H245.79C246.26 28.74 246.79 28.74 247.36 27.9C248.57 26.27 248.67 26.12 249.19 26.12C249.98 26.12 252.65 28.69 252.65 29.42C252.65 30.1 251.55 30.1 249.87 30.1H244.78C243.57 30.1 243.1 30.26 243.1 31.57V41.22C243.1 43.05 241.58 43.84 240.64 43.84C239.54 43.84 239.54 43.21 239.54 42.11C239.54 40.59 239.96 33.19 239.96 31.52C239.96 30.16 239.28 30.1 238.28 30.1H236.44C235.18 30.1 234.76 30.15 234.66 31.36C234.34 34.03 233.82 37.08 230.67 40.8C228.52 43.32 226.58 44.31 226.32 44.31C226.16 44.31 225.95 44.15 225.95 44C225.95 43.9 226.05 43.79 226.74 43.06C229.47 40.07 231.67 34.77 231.67 31.1C231.67 30.37 231.3 30.1 230.62 30.1C229.89 30.1 227.53 30.1 225.95 30.26C225.79 30.26 225.01 30.36 224.85 30.36C224.64 30.36 224.54 30.26 224.38 30.05L223.33 28.84C223.12 28.58 223.12 28.58 223.12 28.47C223.12 28.36 223.22 28.37 223.33 28.37C224.38 28.37 229.57 28.74 230.72 28.74C231.56 28.74 231.87 28.43 231.87 27.59V23.24C231.87 22.56 231.77 21.88 230.51 21.88C230.04 21.88 227.52 22.09 227.15 22.09C226.99 22.09 226.89 21.99 226.68 21.78L225.68 20.57C225.47 20.31 225.47 20.31 225.47 20.2C225.47 20.09 225.57 20.09 225.63 20.09C226 20.09 227.57 20.25 227.94 20.25C229.46 20.3 232.19 20.46 235.18 20.46H241.79C244.04 20.46 244.52 20.41 245.15 19.62C246.2 18.2 246.36 18.05 246.83 18.05C247.51 18.05 250.13 20.3 250.13 21.14C250.13 21.82 249.03 21.82 247.35 21.82H245.05V21.81ZM238.28 28.73C239.33 28.73 239.85 28.73 239.96 28V23.33C239.96 21.86 239.8 21.81 238.28 21.81H236.55C235.24 21.81 234.87 21.81 234.87 23.07V27.48C234.87 28.74 235.29 28.74 236.55 28.74H238.28V28.73ZM253.65 1.98999C254.33 1.98999 254.75 1.98999 255.43 1.14999C256.06 0.419994 256.37 0 256.69 0C257.48 0 260.2 1.89 260.2 3.36C260.2 3.73 259.99 3.88 259.94 3.94C259.05 4.62 258.89 4.78 258.73 5.2C258.57 5.72 258.52 10.55 258.52 12.7C258.47 16.42 258.57 34.73 258.57 38.87C258.57 42.49 258.15 44.22 256.58 45.11C255.64 45.63 254.33 46.05 253.8 46.05C253.38 46.05 253.28 45.94 252.54 44.63C252.28 44.11 249.87 42.16 249.87 42.11C249.87 41.95 250.19 41.95 250.29 41.95C250.87 42 251.81 42 252.39 42C254.64 42 254.96 41.69 254.96 38.28C254.96 35.19 255.06 19.87 255.06 16.41C255.06 15.05 254.48 14.99 253.33 14.99H245.94C244.37 14.99 244.31 15.3 244.21 16.35C244.05 17.77 242.16 18.03 241.85 18.03C241.22 18.03 240.54 17.82 240.54 16.35V6.95999C240.54 6.11999 240.28 2.28999 240.28 1.39999C240.28 1.18999 240.38 0.559998 240.86 0.559998C241.44 0.559998 241.86 0.770001 243.59 1.61C244.32 1.98 244.59 1.98 245.22 1.98H253.65V1.98999ZM245.52 3.39999C244 3.39999 244 3.49999 244 5.54999C244 7.43999 244 7.53999 245.52 7.53999H253.6C254.39 7.53999 255.12 7.53999 255.12 6.59999C255.12 5.70999 255.12 4.08 255.01 3.87C254.85 3.4 254.38 3.39999 253.59 3.39999H245.52ZM245.57 8.95999C244.52 8.95999 244.15 8.96 244.05 9.64C244 9.85 244 12.16 244 12.47C244 13.62 244.42 13.62 245.57 13.62H253.54C255.06 13.62 255.06 13.57 255.06 11.63C255.06 9.21999 255.06 8.95 253.54 8.95H245.57V8.95999Z" fill="black"/>
<path d="M223.08 78.96C222.19 78.96 221.72 79.33 221.66 80.32C221.35 86.09 220.61 90.28 219.56 93.96C218.25 98.37 215.21 102.67 214.26 102.67C214.16 102.67 214 102.62 214 102.46C214 102.25 214.1 102.04 214.21 101.83C215.99 98.68 216.73 95.01 217.09 93.02C217.93 88.04 218.24 82.95 218.24 77.92C218.24 73.78 217.92 69.37 217.82 68.38C217.77 67.96 217.45 65.97 217.45 65.49C217.45 65.39 217.45 65.18 217.61 65.18C217.92 65.18 221.07 66.75 221.75 67.02C222.27 67.18 223.17 67.33 223.74 67.33H235.38C235.69 67.33 236.38 67.33 236.38 66.49C236.38 66.38 235.23 58.47 235.17 58.15C235.12 58.1 234.7 56.47 234.7 56.42C234.7 56.11 234.86 56 235.23 56C235.28 56 240.26 56.47 240.26 57.47C240.26 57.68 239.63 58.41 239.42 58.62C239.11 59.04 239.05 59.35 239.05 60.09C239.05 61.03 239.68 66.38 239.78 66.65C239.83 66.75 240.09 67.33 241.14 67.33H250.21C252.41 67.33 252.67 67.33 253.15 66.91C253.57 66.54 254.99 63.92 255.56 63.92C256.08 63.92 260.6 67.33 260.6 67.96C260.6 68.69 259.5 68.69 257.77 68.69H241.15C240.57 68.69 240.15 68.85 240.15 69.48C240.15 72.21 243.72 85.74 244.82 85.74C245.34 85.74 248.96 77.87 249.65 74.52C249.81 73.73 249.96 72.95 250.23 72.95C250.44 72.95 250.65 73.06 252.69 74.21C254.42 75.15 254.63 75.31 254.63 75.84C254.63 76.05 254.52 76.26 254.37 76.47C254.21 76.63 253.37 77.2 253.22 77.36C252.7 77.83 249.5 84.23 248.81 85.54C248.49 86.12 246.92 88.74 246.92 89.11C246.92 89.84 253.69 97.08 255.68 97.08C256.52 97.08 257.36 95.66 258.51 93.72C258.77 93.3 260.03 91.15 260.19 91.15C260.35 91.15 260.35 91.47 260.35 91.57C260.35 91.78 259.51 96.29 259.51 97.18C259.51 97.49 259.51 97.91 259.82 98.75C260.45 100.27 260.55 100.43 260.55 100.8C260.55 102.32 259.24 102.53 258.77 102.53C255.47 102.53 250.27 98.49 245.92 93.46C244.92 92.36 244.82 92.2 244.56 92.2C244.3 92.2 242.25 94.4 241.78 94.82C236.8 99.38 231.19 101.69 230.5 101.69C230.45 101.69 230.24 101.69 230.24 101.53C230.24 101.37 235.06 97.6 235.96 96.81C239.47 93.66 242.57 89.89 242.57 89.26C242.57 89.05 242.52 88.89 242.36 88.63C239.84 83.49 238.37 77.93 237.38 72.32C236.86 69.23 236.75 68.7 235.34 68.7H223.38C222.91 68.7 221.96 68.7 221.86 69.85C221.81 70.85 221.76 75.04 221.76 76.09C221.76 76.72 221.76 77.61 223.28 77.61H227C227.47 77.61 228 77.56 228.36 77.3C228.57 77.14 229.57 75.88 229.93 75.88C230.25 75.88 233.23 78.29 233.23 78.71C233.23 78.97 232.13 79.86 232.02 80.13C231.91 80.34 231.7 87.31 231.7 87.94C231.54 93.71 230.7 99.32 226.14 99.32C225.77 99.32 225.56 99.16 225.35 98.8C224.93 97.96 224.72 97.54 224.14 97.07C223.67 96.7 220.84 95.23 220.84 95.02C220.84 94.86 221.05 94.81 221.26 94.81C221.89 94.81 224.93 95.18 225.61 95.18C226.76 95.18 227.71 94.71 228.13 91.46C228.29 89.94 228.55 88.16 228.55 80.66C228.55 79.82 228.45 78.98 226.98 78.98H223.08V78.96ZM252.08 62.44C252.08 63.54 251.61 64.59 250.19 64.59C249.46 64.59 249.25 63.96 248.88 62.91C248.46 61.76 246.94 59.45 246.05 58.35C245.84 58.04 245.79 57.88 245.89 57.77C246.1 57.51 252.08 58.72 252.08 62.44Z" fill="black"/>
<path d="M233.65 118.97C234.75 118.97 235.07 118.87 235.75 118.08C236.54 117.19 236.59 117.08 236.85 117.08C237.43 117.08 240.68 120.12 240.68 121.28C240.68 122.01 240.1 122.12 239.21 122.38C238.63 122.48 238.37 122.69 237.9 123.32C232.34 130.98 230.24 133.86 224.95 138.01C222.28 140.05 219.34 141.73 216.09 142.62C215.93 142.67 214.36 143.14 214.26 143.14C214.1 143.14 214 142.98 214 142.83C214 142.68 215.36 141.94 215.73 141.73C220.87 138.9 224.8 134.49 224.8 134.28C224.8 134.02 223.8 133.39 223.65 133.23C223.07 132.55 221.66 128.61 221.19 127.88C221.03 127.67 220.77 127.36 220.46 127.36C220.09 127.36 216.11 131.19 215.06 131.19C215.01 131.19 214.96 131.14 214.96 131.09C214.96 131.04 216.74 128.99 217.11 128.63C219.21 126.11 224.87 118.56 225.76 114.89C226.18 113.21 226.23 113 226.44 113C226.7 113 228.8 114 229.06 114.15C231 115.2 231.21 115.3 231.21 115.77C231.21 116.29 231 116.29 230.16 116.35C229.69 116.4 228.38 118.08 228.38 118.5C228.38 118.97 228.85 118.97 229.38 118.97H233.65ZM218.6 157.15C223.79 153.74 227.25 148.76 227.41 147.82C227.57 146.88 227.62 146.61 228.14 146.61C228.35 146.61 231.71 149.02 231.97 149.23C232.23 149.44 232.39 149.7 232.39 150.12C232.39 150.64 232.34 150.64 231.13 151.06C230.87 151.22 227.62 153.73 226.93 154.21C222.21 157.36 217.07 158.77 216.7 158.77C216.54 158.77 216.49 158.56 216.54 158.46C216.87 158.2 218.28 157.36 218.6 157.15ZM221.06 126.84C221.06 127.1 221.48 127.31 221.9 127.52C224.05 128.62 224.99 129.15 225.83 130.19C225.99 130.4 226.72 131.87 227.04 131.87C227.67 131.87 229.92 128.57 229.92 128.46C229.92 128.3 229.76 128.25 229.66 128.25C228.77 128.04 228.35 127.73 227.93 126.57C227.3 124.79 226.41 122.53 224.99 122.53C224.52 122.54 221.06 126.63 221.06 126.84ZM231.45 143.73C226.84 143.73 225.31 143.84 224.84 143.89C224.63 143.89 223.84 144 223.69 144C223.54 144 223.43 143.89 223.27 143.68L222.22 142.47C222.01 142.21 222.01 142.21 222.01 142.1C222.01 142 222.06 142 222.17 142C222.54 142 224.16 142.16 224.53 142.16C227.1 142.26 229.25 142.37 231.71 142.37H244.87C247.18 142.37 247.44 142.37 247.91 141.9C248.38 141.48 250.11 139.07 250.69 139.07C251.16 139.07 255.1 142.32 255.1 143C255.1 143.73 254.1 143.73 252.32 143.73H242.36C241.26 143.73 240.73 144.04 240.73 145.09C240.73 146.4 240.99 152.12 240.99 153.32C240.99 156.41 240.99 157.83 239.99 158.88C239.1 159.77 237.74 160.35 236.32 160.35C235.48 160.35 235.43 160.19 234.75 158.72C234.28 157.72 232.76 156.78 231.18 156.41C231.13 156.41 230.5 156.25 230.5 156.15C230.5 155.99 230.76 155.99 230.87 155.99H233.7C237.06 155.99 237.58 155.78 237.58 152.74C237.58 151.59 237.53 146.13 237.53 145.19C237.48 143.72 236.74 143.72 235.8 143.72H231.45V143.73ZM228.09 120.34C226.52 120.34 225.89 121.07 225.89 121.39C225.89 121.65 225.99 121.7 226.94 121.97C229.46 122.7 230.72 124.12 230.93 124.8C231.14 125.48 231.19 125.8 231.51 125.8C232.24 125.8 234.55 122.02 234.55 121.03C234.55 120.35 233.66 120.35 233.34 120.35H228.09V120.34ZM239.37 134.6C240.63 134.6 241.15 134.6 241.78 134.02C242.15 133.71 243.51 131.5 243.98 131.5C244.71 131.5 248.23 134.17 248.23 135.22C248.23 136.01 247.29 136.01 245.45 136.01H238.74C235.59 136.01 233.6 136.06 232.87 136.11C232.71 136.16 231.93 136.27 231.77 136.27C231.56 136.27 231.45 136.11 231.3 135.9L230.3 134.69C230.09 134.48 230.04 134.43 230.04 134.38C230.04 134.28 230.15 134.22 230.25 134.22C230.51 134.22 231.61 134.38 231.82 134.38C233.08 134.48 236.96 134.59 238.22 134.59H239.37V134.6ZM253.47 118.71C254.31 118.71 254.62 118.6 255.3 117.71C255.62 117.24 256.4 116.09 256.82 116.09C257.08 116.09 257.82 116.72 258.34 117.09C261.33 119.19 262.17 119.87 262.17 120.55C262.17 121.07 261.8 121.44 261.28 121.49C260.34 121.59 259.86 121.65 259.23 121.86C258.44 122.12 252.62 127.63 251.31 128.68C250.84 129.1 250.31 129.52 250.31 129.78C250.31 130.83 257.13 136.49 261.85 138.22C262.16 138.33 264 138.8 264 138.9C264 139.11 263.74 139.22 263.48 139.27C261.96 139.69 260.91 140 259.39 141C259.13 141.16 258.13 142.05 257.87 142.05C257.35 142.05 249.16 135.23 244.65 127.16C242.13 122.7 239.46 115.31 239.46 113.73C239.46 113.47 239.62 113.42 239.72 113.42C240.14 113.42 240.61 114.42 240.72 114.73C241.4 116.41 242.66 118.93 243.81 121.13C244.49 122.34 248.06 128.58 249.42 128.58C249.79 128.58 249.89 128.42 250.89 127.16C252.67 124.91 254.93 122.07 254.93 120.87C254.93 120.14 254.3 120.08 253.51 120.08H250.99C250.26 120.08 246.58 120.39 246.16 120.39C245.95 120.39 245.85 120.23 245.69 120.02L244.64 118.81C244.43 118.55 244.43 118.55 244.43 118.44C244.43 118.34 244.53 118.34 244.64 118.34C244.9 118.34 246.21 118.5 246.53 118.5C249.2 118.71 250.25 118.71 251.15 118.71H253.47ZM244.4 147.14C244.66 147.14 248.49 148.29 249.28 148.56C253.69 149.87 258.62 152.65 258.62 156.43C258.62 158.16 257.68 158.79 256.68 158.79C255.42 158.79 255.21 158.42 254.01 156.59C252.65 154.55 250.92 152.03 246.14 148.72C245.83 148.51 244.25 147.51 244.2 147.41C244.19 147.29 244.19 147.14 244.4 147.14Z" fill="black"/>
<path d="M336.912 130.656C339.304 130.344 340.24 130.292 343.36 130.292H383.296C383.66 130.292 383.868 130.136 383.868 129.98C383.868 129.928 383.816 129.772 383.712 129.668C381.164 127.432 380.332 126.756 377.68 124.676C376.068 126.548 375.548 127.12 374.092 129.096H343.36C339.928 129.096 338.784 129.044 336.548 128.68L336.912 130.656ZM342.476 202.492C339.876 202.492 338.732 202.44 336.548 202.128L336.86 204.052C338.524 203.792 340.344 203.688 342.424 203.688H383.816C384.18 203.688 384.388 203.584 384.388 203.376C384.388 203.272 384.336 203.168 384.232 203.012C381.944 200.932 381.268 200.308 379.032 198.384C377.732 200.1 377.316 200.672 376.016 202.492H372.324V183.252C373.832 182.264 374.3 181.9 374.3 181.536C374.3 181.38 374.144 181.224 373.884 181.016C372.428 179.82 371.908 179.456 370.348 178.26C369.308 179.456 368.996 179.82 368.06 181.12H356.62C357.868 174.828 358.804 169.992 359.428 166.508H381.216C381.684 166.508 381.944 166.404 381.944 166.196C381.944 166.092 381.84 165.936 381.684 165.78C379.5 163.856 378.824 163.284 376.536 161.516C375.132 163.128 374.664 163.648 373.26 165.312H344.504C341.332 165.312 340.396 165.26 338.42 164.896L338.732 166.716C340.292 166.56 341.54 166.508 344.504 166.508H355.632C354.748 173.58 354.748 173.58 353.084 181.12H347.416C344.816 181.12 343.412 181.016 341.54 180.652L341.8 182.628C343.464 182.42 345.388 182.316 347.416 182.316H352.824C351.264 189.336 350.068 194.484 347.936 202.492H342.476ZM351.68 202.492C354.54 191.468 354.956 189.648 356.412 182.316H368.632V202.492H351.68ZM360 215.516C354.436 215.516 348.872 217.648 344.816 221.34C339.876 225.864 337.276 231.74 337.276 238.24C337.276 250.772 347.468 260.964 360 260.964C372.532 260.964 382.724 250.772 382.724 238.24C382.724 232.572 380.644 227.216 376.9 223.056C372.48 218.168 366.552 215.516 360 215.516ZM360 217.596C365.044 217.596 370.14 219.572 373.832 222.9C378.304 227.008 380.644 232.312 380.644 238.24C380.644 249.628 371.388 258.884 360 258.884C348.612 258.884 339.356 249.628 339.356 238.24C339.356 233.092 341.228 228.204 344.66 224.408C348.716 219.988 354.072 217.596 360 217.596Z" fill="black"/>
</svg>
