<svg width="1276" height="426" viewBox="0 0 1276 426" fill="none" xmlns="http://www.w3.org/2000/svg">
<rect width="1275.59" height="425.2" fill="white"/>
<path d="M194.38 331.96C202.26 327.04 209.83 321.48 217.23 315.78C224.62 310.04 231.83 304.06 238.85 297.86C245.87 291.66 252.7 285.24 259.3 278.6C265.87 271.93 272.3 265.09 278.17 257.78C272.43 265.19 266.12 272.16 259.66 278.95C253.16 285.72 246.44 292.27 239.52 298.61C232.59 304.94 225.47 311.07 218.16 316.96C210.82 322.83 203.36 328.51 195.42 333.67L194.38 331.96Z" fill="#FAD576"/>
<path d="M194.06 332.28C199.11 324.41 204.1 316.5 209.03 308.55C213.94 300.59 218.83 292.62 223.43 284.48C227.99 276.34 231.97 267.86 235.94 259.39C239.88 250.91 243.73 242.38 247.49 233.81C243.88 242.44 240.19 251.04 236.4 259.6C232.57 268.14 228.75 276.69 224.31 284.96C219.84 293.2 215.09 301.27 210.32 309.32C205.53 317.36 200.68 325.37 195.76 333.34L194.06 332.28Z" fill="#FAD576"/>
<path d="M193.92 332.68L210.46 221.8L195.9 332.96L193.92 332.68Z" fill="#FAD576"/>
<path d="M193.98 333.19C191.56 326.81 189.42 320.37 187.46 313.87C185.51 307.37 183.75 300.8 182.27 294.18C180.77 287.56 179.64 280.85 178.77 274.13L176.07 253.98L179.26 274.05C180.29 280.75 181.58 287.38 183.24 293.94C184.88 300.5 186.79 306.99 188.89 313.41C191 319.83 193.29 326.21 195.83 332.43L193.98 333.19Z" fill="#FAD576"/>
<path d="M194.2 333.53C190.01 329.17 186.02 324.68 182.14 320.09C178.26 315.49 174.52 310.78 170.98 305.92C167.44 301.06 164.09 296.06 161.11 290.83C160.4 289.51 159.63 288.21 158.96 286.87L156.94 282.85L152.9 274.81L157.16 282.74L159.29 286.7C159.99 288.02 160.79 289.29 161.54 290.59C164.64 295.71 168.12 300.59 171.77 305.33C175.43 310.07 179.28 314.65 183.26 319.12C187.24 323.58 191.35 327.95 195.6 332.13L194.2 333.53Z" fill="#FAD576"/>
<path d="M194.44 333.7C189.86 331.19 185.35 328.59 180.86 325.94C176.38 323.28 171.93 320.58 167.54 317.77C163.16 314.96 158.8 312.11 154.56 309.07C150.33 306.04 146.16 302.9 142.26 299.46C146.27 302.78 150.52 305.77 154.84 308.66C159.16 311.55 163.6 314.26 168.06 316.92C172.52 319.58 177.05 322.13 181.6 324.64C186.15 327.14 190.74 329.59 195.36 331.93L194.44 333.7Z" fill="#FAD576"/>
<path d="M194.74 333.8C185.44 332.09 176.23 330.12 167.03 328.03C157.84 325.94 148.68 323.68 139.56 321.3C137.28 320.73 135.01 320.05 132.74 319.42C130.47 318.78 128.23 318.01 125.98 317.31C121.52 315.76 117.08 314.15 112.77 312.24C108.44 310.36 104.19 308.3 100.08 306C95.98 303.67 91.96 301.19 88.29 298.22C92.01 301.12 96.07 303.53 100.2 305.78C104.34 308.01 108.62 309.98 112.97 311.78C117.3 313.61 121.76 315.13 126.22 316.6C128.48 317.25 130.71 317.98 132.99 318.58C135.27 319.17 137.52 319.8 139.82 320.33C148.97 322.55 158.15 324.64 167.36 326.57C176.57 328.49 185.82 330.3 195.08 331.84L194.74 333.8Z" fill="#FAD576"/>
<path d="M195.24 333.76C187.99 336.01 180.63 337.3 173.2 338.2C169.49 338.66 165.76 338.9 162.03 339.1C158.3 339.23 154.56 339.3 150.83 339.19C143.37 339.03 135.93 338.42 128.54 337.5C121.15 336.57 113.79 335.36 106.54 333.7C113.83 335.2 121.2 336.24 128.6 337.01C135.99 337.77 143.42 338.2 150.84 338.2C158.26 338.23 165.67 337.74 173.01 336.72C180.32 335.68 187.65 334.19 194.57 331.87L195.24 333.76Z" fill="#FAD576"/>
<path d="M195.48 333.64C191.36 336.33 187.13 338.68 182.82 340.91C178.5 343.14 174.13 345.21 169.65 347.1C165.17 348.98 160.54 350.49 155.85 351.7C151.16 352.9 146.4 353.86 141.59 354.38C146.38 353.7 151.09 352.58 155.72 351.22C160.34 349.85 164.88 348.2 169.25 346.18C173.62 344.16 177.91 341.93 182.11 339.58C186.3 337.22 190.45 334.72 194.34 331.99L195.48 333.64Z" fill="#FAD576"/>
<path d="M195.7 333.43C193.33 336.32 190.86 339.07 188.31 341.76C185.76 344.45 183.11 347.04 180.34 349.51C177.57 351.98 174.64 354.25 171.61 356.38C168.58 358.5 165.46 360.49 162.23 362.27C165.38 360.34 168.4 358.22 171.31 355.98C174.23 353.73 177.03 351.34 179.65 348.79C182.28 346.22 184.78 343.53 187.19 340.76C189.59 337.99 191.93 335.13 194.11 332.22L195.7 333.43Z" fill="#FAD576"/>
<path d="M195.86 333.13C194.73 336.17 193.46 339.07 192.14 341.97C190.81 344.86 189.42 347.72 187.98 350.55C186.53 353.39 184.97 356.17 183.21 358.82C181.45 361.46 179.54 364.05 177.19 366.18C179.42 363.92 181.17 361.26 182.78 358.55C184.39 355.83 185.78 352.99 187.06 350.11C188.35 347.22 189.58 344.31 190.75 341.37C191.91 338.44 193.04 335.46 193.96 332.51L195.86 333.13Z" fill="#FAD576"/>
<path d="M195.9 332.96L189.93 368.35L193.92 332.68L195.9 332.96Z" fill="#FAD576"/>
<path d="M195.88 332.61L202.68 369.33L193.93 333.03L195.88 332.61Z" fill="#FAD576"/>
<path d="M195.75 332.29L217.38 368.75L194.06 333.35L195.75 332.29Z" fill="#FAD576"/>
<path d="M195.63 332.13C198.69 335.42 201.87 338.65 205.14 341.76C208.42 344.86 211.79 347.87 215.4 350.55C219.06 353.18 222.81 355.76 226.51 358.37L237.64 366.18L226.23 358.79C222.43 356.31 218.62 353.89 214.82 351.37C211.05 348.78 207.54 345.87 204.12 342.87C200.7 339.86 197.4 336.75 194.17 333.51L195.63 332.13Z" fill="#FAD576"/>
<path d="M195.41 331.95C200.99 335.27 206.68 338.44 212.43 341.47C218.2 344.45 224.04 347.36 230.11 349.61C233.14 350.71 236.3 351.49 239.47 352.2C242.64 352.9 245.85 353.5 249.06 354.03C255.48 355.1 261.95 355.97 268.43 356.68C261.93 356.15 255.45 355.45 248.98 354.54C245.75 354.09 242.52 353.58 239.31 352.96C236.1 352.33 232.9 351.64 229.77 350.59C223.55 348.47 217.62 345.69 211.74 342.83C205.88 339.93 200.1 336.9 194.39 333.69L195.41 331.95Z" fill="#FAD576"/>
<path d="M195.22 331.87C199.76 333.27 204.56 334.25 209.32 335.04C214.1 335.82 218.92 336.4 223.76 336.73C233.44 337.49 243.18 337.35 252.87 336.6C262.56 335.8 272.23 334.57 281.8 332.78C286.59 331.91 291.34 330.84 296.05 329.61C300.75 328.35 305.44 326.97 309.91 325.04C305.47 327.05 300.8 328.51 296.11 329.85C291.41 331.16 286.67 332.31 281.89 333.27C272.33 335.22 262.66 336.62 252.95 337.59C243.23 338.51 233.42 338.82 223.65 338.22C218.76 337.97 213.89 337.47 209.04 336.76C204.18 336.04 199.39 335.15 194.59 333.76L195.22 331.87Z" fill="#FAD576"/>
<path d="M194.67 331.84C203.84 329.71 212.99 327.42 222.09 325.01C231.2 322.59 240.27 320.02 249.25 317.19C253.75 315.79 258.18 314.24 262.53 312.44C266.85 310.59 271.1 308.57 275.25 306.34C283.51 301.82 291.47 296.71 298.81 290.78C291.58 296.84 283.7 302.1 275.49 306.78C271.37 309.09 267.14 311.2 262.82 313.13C258.48 315.01 254.03 316.66 249.56 318.14C240.6 321.14 231.56 323.86 222.49 326.45C213.41 329.03 204.3 331.48 195.13 333.78L194.67 331.84Z" fill="#FAD576"/>
<path d="M207.41 371.2C295.196 371.2 366.36 300.036 366.36 212.25C366.36 124.464 295.196 53.3 207.41 53.3C119.624 53.3 48.46 124.464 48.46 212.25C48.46 300.036 119.624 371.2 207.41 371.2Z" stroke="#BF9547" stroke-miterlimit="10"/>
<path d="M233.97 128.13C234.17 128.06 241.31 121.2 241.31 121.2L246.41 123.99L247.9 133.16L254.22 138.46L260.88 141.99L256.26 144.98L263.46 155.85L259.52 159.79L252.18 168.08L245.25 171.34L238.59 175.14L226.5 173.78C226.5 173.78 216.17 169.84 215.77 169.7C215.37 169.56 207.42 163.45 207.42 163.45L205.03 155.84L207.42 150.68L204.08 144.16L205.98 138.73L209.44 127.86L215.35 122.97L223.5 124.8L231.04 125L233.97 128.13Z" fill="#BF9547"/>
<path d="M305.641 146.71L314.401 136.52L331.931 143.45L329.991 148.17L335.491 151.81L336.411 157.31H333.251L332.641 159.96L334.681 162.41L332.541 168.72L326.121 172.8L320.311 170.86L311.141 165.06L305.641 156.7V146.71Z" fill="#BF9547"/>
<path d="M316.031 184.62C316.031 184.62 333.351 192.67 333.661 192.98C333.971 193.29 341.301 208.16 341.301 208.16L338.341 218.04L340.681 229.45L337.111 249.42L333.241 251.36L330.591 248.46L331.301 257.38L324.071 259.27L318.521 254.12L316.741 249.69L314.911 238.74L306.961 234.15L302.681 230.07L305.131 216.01L301.771 211.53L302.691 198.18L316.031 184.62Z" fill="#BF9547"/>
<path d="M286.62 240.97L300.75 241.72L301.77 259.26L294.2 265.63C294.2 265.63 283.36 260.4 283.16 260.2C282.96 260 281.87 251.91 281.87 251.91L286.62 240.97Z" fill="#BF9547"/>
<path d="M157.68 312.47L193.82 304.73L195.45 294.67L185.26 280.41L190.29 275.79L189.2 265.6L184.17 268.04L177.51 255.41L167.73 245.76L162.84 254.73L167.73 268.86L167.6 274.7L160.67 266.68L158.76 275.79L149.12 274.16L141.24 299.56L146.54 308.8L144.36 321.98L157.68 312.47Z" fill="#BF9547"/>
<path d="M115.49 281.66L117.87 287.5L114.54 289.06L109.44 287.84L108.15 298.3C108.15 298.3 115.15 308.76 115.35 308.9C115.55 309.04 122.35 314.95 122.35 314.95L133.42 312.5L137.63 304.35L139.46 300.89L132.39 298.72L124.51 285.68L115.49 281.66Z" fill="#BF9547"/>
<path d="M158.49 262.68L151.15 271.55H136.07C136.07 271.55 130.06 264.32 129.96 264.01C129.86 263.7 131.9 252.19 131.9 252.19L131.19 248.83L128.03 250.26C128.03 250.26 125.69 247.2 126.09 247.1C126.5 247 135.77 242.21 135.77 242.21C135.77 242.21 140.05 236.81 140.36 236.5C140.67 236.19 145.56 228.45 145.56 228.45L147.9 242.61L146.07 251.37L147.39 256.16L158.49 262.68Z" fill="#BF9547"/>
<path d="M138.18 274.19C138.18 274.19 138.2 274.5 138.23 275C138.35 277.18 138.63 283.02 138.18 283.02C137.64 283.02 130.71 283.87 130.71 283.87L126.63 287.5L121.87 278.26C121.87 278.26 112.5 274.59 112.09 274.18C111.68 273.77 105.16 268.2 105.16 268.2L100.13 271.53L91.5701 266.71L95.1001 275.41L88.9901 277.11C88.9901 277.11 86.9501 267.4 85.8701 266.72C84.7801 266.04 76.5001 262.1 76.5001 262.1L64.6801 245.76C64.6801 245.76 61.8301 224.33 61.5601 223.1C61.2901 221.88 52.1901 208.15 52.7301 208.43C53.2701 208.7 55.1801 193.21 55.1801 193.21L56.1301 180.3L58.1701 179.08L59.5301 173.24L61.3001 168.62L52.7201 175.14L71.3601 132.75L92.6901 105.03L103.7 99.7301L101.93 109.24L135.22 88.8601L138.45 94.4301L111.44 119.02L95.5801 146.6L91.3301 151.63L119.32 132.07L117.96 127.18C117.96 127.18 119.45 116.04 119.86 116.04C120.27 116.04 132.77 114 132.77 114C132.77 114 134.81 116.45 135.49 116.45C136.17 116.45 142.96 108.43 142.96 108.43L150.57 106.94L154.24 103.27L161.85 103.95C161.85 103.95 164.43 108.03 164.97 108.03C165.51 108.03 175.43 107.89 175.43 107.89L188.98 118.18C188.98 118.18 193.63 116.31 194.04 116.31C194.45 116.31 201.3 118.36 201.3 118.36L197.33 153.34L173.39 188.19L180.32 192.06L190.92 188.19L195.47 177.39L211.3 183.5L224.75 198.79L212.52 219.99L197.33 234.05L178.28 228.45L162.99 234.05L147.91 223.25L133.85 223.05C133.85 223.05 126.83 238.13 126.06 238.95C125.29 239.77 121.01 254.85 121.01 254.85L126.06 269.12" fill="#BF9547"/>
<path d="M206.18 100.35C206.18 100.35 168.48 91.79 167.66 91.79C166.84 91.79 153.8 98.92 153.8 98.92L142.79 94.03L143.81 88.87L161.54 82.62L168.67 85.68L184.57 80.99L197.3 88.87C197.3 88.87 215.54 82.42 216.15 82.62C216.76 82.82 232.66 80.99 232.66 80.99C232.66 80.99 241.22 84.05 241.22 84.66C241.22 85.27 235.51 92 235.51 92L206.18 100.35Z" fill="#BF9547"/>
<path d="M345.79 143.86C345.79 144.17 346.91 155.37 346.91 155.37L356.08 167.6L350.93 152.52L345.79 143.86Z" fill="#BF9547"/>
<path d="M343.85 171.17C343.85 171.17 339.67 180.04 339.98 180.24C340.29 180.44 346.5 184.62 346.5 184.62L349.76 177.89L343.85 171.17Z" fill="#BF9547"/>
<path d="M342.021 186.66V193.49L344.861 199.09L345.791 192.87L342.021 186.66Z" fill="#BF9547"/>
<path d="M358.731 177.89L357.811 196.44C357.811 196.44 363.311 210.4 363.111 209.48C362.911 208.56 362.401 193.71 362.401 193.71L358.731 177.89Z" fill="#BF9547"/>
<path d="M245.45 172.8L242.12 183.7L237.57 183.22L236.35 185.39L231.93 185.66L242.39 192.52L239.88 196.12L243.21 199.65L241.58 206.04L242.8 211.54L248.03 218.54H254.08L257.88 220.58L263.45 218.47L267.05 226.49L260.7 228.94L259.58 238.62L274.05 245.75C274.05 245.75 279.69 239.13 279.62 238.58C279.55 238.04 280.23 224.31 280.23 224.31L277.17 217.79C277.17 217.79 278.32 214.19 278.66 213.65C279 213.11 281.85 211.82 281.85 211.82C281.85 211.82 281.85 205.3 281.85 204.89C281.85 204.48 295.95 208.15 295.95 208.15L300.23 205.3L300.94 200.71L315.72 183.9L311.34 180.13L300.44 185.33C300.44 185.33 297.28 183.09 297.79 182.37C298.3 181.65 298.81 178.8 299.32 178.7C299.83 178.6 305.64 176.76 305.64 176.76C305.64 176.76 299.12 175.44 298.41 175.13C297.7 174.82 290.56 171.87 290.56 171.87C290.56 171.87 285.26 164.64 285.67 164.23C286.08 163.82 289.95 158.83 290.36 158.63C290.77 158.43 287.2 155.78 286.79 155.78C286.38 155.78 279.35 159.96 279.35 159.96L279.96 166.58L275.17 172.8C275.17 172.8 271.71 165.46 271.2 165.36C270.69 165.26 261.62 161.9 261.62 161.9L245.45 172.8Z" fill="#BF9547"/>
<path d="M522.04 143.1C522.04 144.99 520.94 145.14 520.68 145.14C520.1 145.14 519.79 145.09 517.69 142.36C516.48 140.84 510.77 135.65 510.03 135.65C509.61 135.65 509.35 135.86 508.93 136.23C502.11 142.52 494.09 147.56 493.2 147.56C493.1 147.56 492.94 147.51 492.94 147.4C492.94 147.35 496.35 144.41 496.93 143.83C499.29 141.52 505.11 135.65 507 131.72C507.58 130.51 507.58 130.41 507.89 130.41C508.41 130.41 511.93 132.56 511.93 133.45C511.93 133.87 511.77 134.03 511.3 134.34C511.25 134.39 510.99 134.6 510.99 134.81C510.99 135.07 512.82 135.96 513.24 136.17C521.11 139.95 521.68 140.79 521.95 142.25C521.99 142.52 522.04 142.84 522.04 143.1ZM506.57 175.4C505.47 175.4 505.15 175.45 504.89 176.08C504.47 177.02 504.1 177.76 502.48 177.76C501.01 177.76 501.01 176.92 501.01 176.5C501.01 176.13 501.27 174.3 501.27 173.88C501.37 172.05 501.37 169.74 501.37 169.11C501.37 168.64 501.37 166.02 501.06 166.02C500.95 166.02 499.59 169.17 499.28 169.74C497.29 173.25 493.98 175.98 493.56 175.98C493.51 175.98 493.46 175.93 493.46 175.82C493.46 175.82 494.09 174.88 494.46 174.35C499.29 167.11 499.29 157.52 499.29 156.31C499.29 152.9 499.18 150.02 498.77 148.18C498.72 147.92 498.25 146.71 498.25 146.45C498.25 146.24 498.41 146.19 498.67 146.19C498.99 146.19 499.77 146.4 501.03 147.19C502.71 148.24 503.23 148.29 504.39 148.29H513.1C513.89 148.29 514.25 148.24 514.52 148.03C514.73 147.82 515.57 146.67 515.88 146.67C516.14 146.67 519.92 148.93 519.92 149.55C519.92 149.92 519.71 150.18 519.5 150.39C519.34 150.5 518.82 151.07 518.56 151.33C518.46 152.06 518.56 158.67 518.56 160.09C518.56 161.72 516.99 162.4 516.1 162.4C515.58 162.4 515.42 162.24 514.95 161.51C514.69 161.09 514.48 161.09 513.53 161.09H503.46C502.52 161.09 501.73 161.09 501.73 163.24C501.73 164.03 501.94 164.18 504.14 165.49C504.87 165.91 505.97 165.91 506.5 165.91H513.37C514.37 165.91 514.79 165.81 515.31 165.02C515.68 164.44 515.99 164.08 516.36 164.08C516.47 164.08 520.19 165.71 520.19 166.81C520.19 167.07 520.08 167.33 519.88 167.49C518.99 168.22 518.88 168.33 518.83 168.54C518.67 169.01 518.83 171.63 518.83 171.74C518.83 175.36 518.83 175.78 518.41 176.41C517.99 177.04 517.05 177.67 516.16 177.67C515.37 177.67 515.32 177.2 515.22 176.41C515.12 175.47 514.22 175.41 513.59 175.41H506.57V175.4ZM509.4 142.68C510.34 142.68 510.45 142.68 510.66 142.47C511.03 142.21 512.29 140.42 512.65 140.42C512.91 140.42 516.16 142.62 516.16 143.46C516.16 144.04 515.95 144.04 514.17 144.04H507.25C506.57 144.04 504.79 144.15 504.16 144.2C504.06 144.25 503.58 144.31 503.53 144.31C503.37 144.31 503.32 144.2 503.16 144L502.37 142.79C502.21 142.53 502.21 142.53 502.21 142.48C502.21 142.38 502.26 142.32 502.37 142.32C502.84 142.32 506.88 142.69 507.72 142.69H509.4V142.68ZM513.49 159.67C514.91 159.67 514.91 159.36 514.91 156.52C514.91 155.63 514.81 155.05 513.49 155.05H504.05C502.79 155.05 502.32 155.1 502.32 158.51C502.32 159.61 502.95 159.66 503.74 159.66H513.49V159.67ZM513.39 153.69C514.91 153.69 514.91 153.17 514.91 152.06C514.91 149.86 514.91 149.7 513.49 149.7H504.05C502.58 149.7 502.58 150.22 502.58 152.32C502.58 153.42 502.89 153.68 504.05 153.68H513.39V153.69ZM506.73 167.27C505 167.27 505 167.69 505 170.42C505 173.67 505 174.04 506.73 174.04H513.55C515.33 174.04 515.33 173.57 515.33 169.48C515.33 167.91 515.33 167.28 513.6 167.28H506.73V167.27ZM524.87 137.54C525.18 137.54 528.75 139.06 529.07 139.22C529.28 139.38 529.7 139.69 529.7 140.06C529.7 140.37 528.7 141.53 528.6 141.79C528.39 142.42 528.39 142.94 528.39 148.19C528.39 151.18 528.44 166.55 528.39 167.12C528.29 168.43 526.56 168.85 525.51 168.85C524.36 168.85 524.25 168.12 524.25 167.7C524.25 166.91 524.62 163.5 524.62 162.82C524.78 157.79 525.09 149.66 525.09 145.04C525.09 143.99 525.04 140.42 524.78 139.64C524.36 138.33 524.31 138.17 524.36 138.07C524.4 137.69 524.61 137.54 524.87 137.54ZM533.68 131.19C533.89 131.19 537.3 132.45 537.82 132.71C539.13 133.18 539.24 133.23 539.24 133.6C539.24 133.97 537.88 134.86 537.72 135.12C537.56 135.49 537.35 137.64 537.35 138.06C537.3 139.69 537.3 148.08 537.3 151.64V172.88C537.3 176.45 534.47 178.28 531.58 178.28C530.69 178.28 530.53 178.18 529.8 176.92C529.54 176.4 528.17 174.61 527.07 173.98C526.49 173.61 526.44 173.56 526.44 173.4C526.44 173.24 526.65 173.24 526.75 173.24C526.91 173.24 531 173.61 531.79 173.61C532.73 173.61 533.42 173.4 533.52 172.4C533.62 171.72 533.83 163.59 533.83 157.09C533.83 151.27 533.78 139 533.57 133.8C533.57 133.38 533.2 131.65 533.36 131.34C533.42 131.24 533.52 131.19 533.68 131.19Z" fill="black"/>
<path d="M592 173.57C593.68 173.57 594.36 173.57 595.88 172.05C596.3 171.63 597.93 169.38 598.45 169.38C599.13 169.38 603.75 173.68 603.75 174.31C603.75 174.94 603.54 174.94 601.44 174.94H565.88C564.73 174.94 561.11 174.94 559.27 175.1C559.11 175.1 558.33 175.2 558.17 175.2C558.01 175.2 557.91 175.1 557.7 174.83L556.7 173.68C556.49 173.42 556.49 173.36 556.49 173.31C556.49 173.2 556.54 173.2 556.65 173.2C557.02 173.2 558.64 173.36 558.96 173.36C561.37 173.47 563.73 173.57 566.15 173.57H580.62C581.51 173.57 581.98 173.31 582.24 172.31C584.97 162.4 586.8 147.5 586.8 145.35C586.8 145.04 586.54 143.72 586.54 143.46C586.54 143.04 586.75 142.94 587.01 142.94C587.12 142.94 593.72 144.88 593.72 145.61C593.72 145.98 592.25 146.87 591.99 147.08C591.68 147.45 591.68 147.66 591.2 149.49C590.26 153.42 587.84 162.13 584.43 169.79C584.33 170.05 583.07 172.78 583.07 172.94C583.07 173.52 583.65 173.57 584.01 173.57H592V173.57ZM589.79 140.89C591.26 140.89 591.94 140.89 592.36 140.68C593.15 140.37 595.35 136.85 596.14 136.85C596.93 136.85 600.76 140.94 600.76 141.52C600.76 142.25 599.71 142.25 597.98 142.25H568.4C567.25 142.25 563.63 142.25 561.79 142.41C561.63 142.41 560.85 142.51 560.69 142.51C560.48 142.51 560.37 142.41 560.22 142.2L559.22 140.99C559.01 140.73 558.96 140.73 558.96 140.62C558.96 140.51 559.07 140.51 559.17 140.51C559.54 140.51 561.16 140.67 561.48 140.67C563.89 140.78 566.25 140.88 568.66 140.88H575.74C577.21 140.88 577.31 140.09 577.31 138.99C577.31 137.05 577.26 132.85 576.94 131.39C576.89 131.18 576.42 130.39 576.42 130.18C576.42 129.92 576.79 129.86 577.05 129.86C577.26 129.86 581.77 130.7 582.45 131.01C582.71 131.11 583.29 131.43 583.29 131.9C583.29 132.42 582.5 132.79 582.24 133.16C581.66 133.89 581.66 136.99 581.66 138.67C581.66 140.4 581.66 140.87 583.44 140.87H589.79V140.89ZM573.01 169.27C572.28 169.27 571.12 168.69 571.12 166.44C571.12 162.66 571.12 156.37 568.45 150.6C568.19 150.02 566.61 147.66 566.61 147.09C566.61 146.88 566.82 146.83 566.98 146.83C568.81 146.83 576.16 154.59 576.16 163.56C576.16 164.76 576.16 169.27 573.01 169.27Z" fill="black"/>
<path d="M634.891 174.3C633.741 174.3 633.681 173.62 633.681 173.46C633.681 172.62 634.471 172.62 636.351 172.62C639.181 172.62 640.551 172.46 641.171 171C641.541 170.11 641.541 160.88 641.541 159.04C641.541 156.52 641.441 144.3 641.441 141.52C641.441 139.05 640.711 139.05 636.301 139.05C635.041 139.05 634.521 139.05 634.521 138.37C634.521 137.69 635.041 137.64 636.671 137.53C637.931 137.48 640.551 136.95 642.601 136.22C642.971 136.11 644.751 135.07 645.171 135.07C645.751 135.07 645.751 135.23 645.751 137.59C645.751 139.01 645.651 145.77 645.651 147.35C645.651 149.76 645.701 169.9 645.861 170.48C646.231 172 646.961 172.63 650.841 172.63C651.311 172.63 652.101 172.63 652.101 173.57C652.101 174.3 651.261 174.3 650.791 174.3H634.891V174.3Z" fill="black"/>
<path d="M674.12 140.06C672.34 140.06 672.34 140.53 672.28 142.16C672.23 142.95 671.86 151.81 671.86 151.86C671.86 152.28 671.97 152.65 672.33 152.65C672.64 152.65 672.8 152.54 674.37 151.55C675.89 150.55 677.73 150.03 679.88 150.03C686.75 150.03 691.16 155.64 691.16 161.94C691.16 169.7 684.71 175.31 678.05 175.31C672.49 175.31 668.24 171.22 668.24 167.86C668.24 166.13 669.45 164.82 671.33 164.82C672.85 164.82 674 165.76 674 167.39C674 167.81 673.58 169.85 673.58 170.33C673.58 172.58 676.1 173.63 677.93 173.63C681.76 173.63 686.27 169.91 686.27 162.56C686.27 155.58 682.23 152.28 678.88 152.28C675.63 152.28 672.53 154.9 672.06 155.32C671.8 155.53 670.8 156.79 670.43 156.79C670.01 156.79 669.96 156.42 669.96 155.95C669.96 153.85 670.59 140.85 670.69 138.01C670.69 137.33 670.79 136.07 672.37 136.07H687.37C688.42 136.07 688.89 136.07 688.89 136.59C688.89 136.91 688.47 138.48 688.16 139.26C687.85 140.05 687.32 140.05 686.64 140.05H674.12V140.06Z" fill="black"/>
<path d="M716.281 175.3C707.991 175.3 704.48 164.86 704.48 155.21C704.48 145.46 708.051 135.07 716.281 135.07C724.781 135.12 728.081 145.98 728.081 155.21C728.081 164.5 724.721 175.3 716.281 175.3ZM716.281 136.8C709.301 136.8 709.201 152.53 709.201 155.21C709.201 157.36 709.201 173.62 716.281 173.57C723.251 173.57 723.36 157.94 723.36 155.21C723.36 153.01 723.361 136.8 716.281 136.8Z" fill="black"/>
<path d="M793.48 133.92C794.37 133.92 794.79 133.92 795.37 133.08C795.48 132.92 795.89 132.35 796.26 132.35C796.68 132.35 800.51 134.82 800.51 135.55C800.51 135.87 800.25 136.07 800.04 136.28C798.78 137.33 798.78 137.33 798.78 142.73C798.78 146.87 799.25 167.12 799.25 171.68C799.25 173.04 799.09 174.56 798.31 175.56C797.63 176.5 795.64 178.02 793.7 178.02C792.91 178.02 792.65 177.65 792.28 177.02C791.6 175.76 790.23 174.61 788.92 173.98C788.76 173.87 788.29 173.67 788.29 173.56C788.29 173.46 788.34 173.4 788.5 173.4C789.02 173.4 791.54 173.56 792.12 173.56C794.11 173.56 794.95 173.46 795.21 172.67C795.58 171.41 795.58 157.62 795.58 154.73C795.58 148.96 795.42 142.77 795.27 137.06C795.27 136.06 795.11 135.33 793.64 135.33H765.95C764.48 135.33 764.27 135.75 764.27 137.06C764.01 157.25 763.96 161.5 761.81 168.89C760.39 173.66 756.98 177.54 756.15 177.54C755.99 177.54 755.94 177.43 755.94 177.33C755.94 177.28 756.26 176.75 756.31 176.65C758.93 171.98 760.82 166.48 760.82 144.87C760.82 139.73 760.24 135.74 759.93 134.38C759.93 134.28 759.62 133.07 759.62 133.02C759.62 132.86 759.72 132.44 760.2 132.44C760.62 132.44 760.83 132.54 762.66 133.33C763.92 133.91 764.55 133.91 765.18 133.91H793.48V133.92ZM782.41 146.09C780.79 146.09 780.73 146.88 780.73 148.03C780.73 152.17 780.73 152.44 782.51 152.44H784.82C786.97 152.44 787.23 152.44 787.81 151.39C788.7 149.82 788.81 149.61 789.28 149.61C789.96 149.61 792.79 152.13 792.79 153.07C792.79 153.86 791.79 153.86 789.96 153.86H776.17C774.91 153.86 771.4 153.86 769.56 154.02C769.4 154.02 768.62 154.12 768.46 154.12C768.25 154.12 768.15 154.02 767.99 153.75L766.94 152.54C766.73 152.28 766.73 152.28 766.73 152.23C766.73 152.13 766.84 152.07 766.94 152.07C767.2 152.07 768.51 152.23 768.83 152.28C770.51 152.33 774.28 152.49 775.86 152.49C777.43 152.49 777.43 152.12 777.43 147.82C777.43 146.19 776.64 146.09 775.91 146.09C773.92 146.09 771.82 146.19 771.56 146.19C771.35 146.19 770.3 146.35 770.09 146.35C769.88 146.35 769.78 146.19 769.62 145.98L768.57 144.77C768.36 144.51 768.36 144.51 768.36 144.46C768.36 144.36 768.46 144.3 768.57 144.3C769.62 144.3 774.81 144.67 775.96 144.67C776.96 144.67 777.43 144.15 777.43 143.31C777.43 142.68 777.27 140.48 777.22 140.01C777.17 139.59 776.64 137.6 776.64 137.13C776.64 136.82 776.9 136.76 777.01 136.76C777.12 136.76 779.84 137.39 781.31 137.7C781.62 137.75 781.89 137.91 781.89 138.28C781.89 138.44 781.37 139.17 781.31 139.33C780.99 140.06 780.89 142.32 780.89 143.16C780.89 144.68 781.47 144.68 783.62 144.68C785.24 144.68 785.56 144.57 786.08 143.68C786.92 142.21 787.02 142 787.5 142C788.13 142 791.07 144.36 791.07 145.36C791.07 146.09 790.07 146.09 788.29 146.09H782.41ZM775.43 170.84C773.86 170.84 773.86 171.52 773.8 172.41C773.75 174.35 771.76 174.98 770.97 174.98C769.92 174.98 769.92 174.04 769.92 173.77C769.92 173.67 769.97 173.4 769.97 173.25C770.18 170.68 770.34 168.9 770.34 166.27C770.34 163.7 770.18 161.34 770.08 160.24C770.03 159.98 769.71 158.56 769.71 158.25C769.71 157.78 770.03 157.67 770.39 157.67C770.81 157.67 771.28 157.88 772.59 158.46C773.43 158.88 773.69 158.88 774.63 158.88H783.18C783.7 158.88 784.18 158.83 784.49 158.57C784.65 158.47 785.43 157.47 785.7 157.47C785.8 157.47 789.06 159.41 789.06 160.09C789.06 160.35 788.8 160.72 788.64 160.88C788.01 161.35 787.96 161.4 787.91 161.88C787.86 162.2 787.86 169.69 787.86 170.59C787.86 172.79 786.18 173.32 785.29 173.32C784.19 173.32 784.14 172.64 784.03 171.96C783.93 170.86 783.03 170.86 782.4 170.86H775.43V170.84ZM782.72 169.48C784.34 169.48 784.5 169.48 784.5 164.08C784.5 160.62 784.5 160.25 782.77 160.25H775.22C773.44 160.25 773.44 160.51 773.44 165.13C773.44 169.01 773.44 169.48 775.17 169.48H782.72V169.48Z" fill="black"/>
<path d="M833.961 138.43C832.341 138.43 832.231 138.59 830.761 140.32C827.981 143.68 821.631 149.39 819.801 149.39C819.751 149.39 819.591 149.39 819.591 149.23C819.591 149.02 820.901 147.71 821.271 147.34C823.261 145.35 828.981 138.63 831.021 131.61C831.071 131.35 831.441 130.25 831.601 130.25C832.541 130.62 836.791 132.45 836.791 133.19C836.791 133.56 835.321 134.5 835.061 134.76C834.641 135.13 833.801 136.18 833.801 136.65C833.801 137.02 833.911 137.02 835.221 137.02H850.591C853.001 137.02 853.211 136.92 853.581 136.55C853.901 136.18 855.151 133.93 855.681 133.93C855.891 133.93 860.981 137.02 860.981 137.71C860.981 138.44 859.931 138.44 858.151 138.44H846.401C845.671 138.44 844.931 138.54 844.831 139.7V146.62C844.831 148.25 845.461 148.35 846.721 148.35H848.711C849.971 148.35 850.911 148.35 851.281 148.19C851.751 147.93 853.591 145.52 854.221 145.52C854.481 145.52 859.101 148.3 859.101 149.03C859.101 149.71 858.421 149.71 856.271 149.71H846.731C845.261 149.71 844.841 149.87 844.841 151.65C844.891 153.59 844.891 157.68 844.891 159.67C844.891 160.35 844.891 161.3 846.511 161.3H855.061C856.841 161.3 857.051 161.3 857.941 159.99C859.301 158.05 859.461 157.84 859.981 157.84C860.561 157.84 865.381 161.3 865.381 162.04C865.381 162.51 864.911 162.67 862.601 162.67H846.501C845.191 162.67 844.931 163.19 844.931 164.35V168.97C844.931 169.91 845.251 174.48 845.251 175.53C845.251 176.42 845.201 176.95 844.731 177.31C843.841 177.99 843.001 178.57 841.951 178.57C841.531 178.57 840.321 178.1 840.321 176.94C840.321 176.21 840.641 172.64 840.691 171.8C840.741 170.17 840.851 165.56 840.851 164.25C840.851 162.68 840.011 162.68 839.281 162.68H827.951C826.691 162.68 823.181 162.68 821.341 162.84C821.181 162.84 820.401 162.94 820.241 162.94C820.031 162.94 819.931 162.84 819.771 162.63L818.771 161.42C818.511 161.16 818.511 161.16 818.511 161.05C818.511 160.95 818.611 160.95 818.721 160.95C819.771 160.95 824.961 161.32 826.171 161.32C827.641 161.32 827.641 160.95 827.641 157.81C827.641 156.29 827.381 148.37 827.381 148.16C827.381 147.32 827.381 147.22 827.591 147.22C828.011 147.22 828.221 147.27 830.161 147.95C830.951 148.27 831.681 148.37 832.621 148.37H839.331C840.851 148.37 840.961 147.64 840.961 146.74C840.961 138.45 840.911 138.45 839.391 138.45H833.961V138.43ZM833.021 149.71C831.501 149.71 831.341 149.92 831.341 154.43C831.341 161.3 831.451 161.3 833.121 161.3H839.261C840.941 161.3 841.041 161.3 841.041 155.06C841.041 149.87 841.041 149.71 839.311 149.71H833.021Z" fill="black"/>
<path d="M895.58 139.79C896.16 139.79 896.21 139.79 896.63 139.37C898.52 137.64 898.73 137.43 899.09 137.43C899.77 137.43 902.29 139.95 902.29 140.52C902.29 141.15 901.61 141.15 900.45 141.15H887.29C886.19 141.15 884.46 141.15 882.99 141.25C882.83 141.3 882.05 141.41 881.89 141.41C881.79 141.41 881.68 141.31 881.58 141.1L880.9 139.89C880.74 139.63 880.74 139.63 880.74 139.52C880.74 139.47 880.79 139.41 880.84 139.41C880.89 139.41 881.94 139.57 882.15 139.57C883.57 139.67 886.14 139.78 887.5 139.78H895.58V139.79ZM893.85 161.3C894.32 161.3 894.69 161.3 894.95 161.19C895.27 161.03 896.52 159.56 896.89 159.56C897.26 159.56 900.14 161.13 900.14 161.97C900.14 162.07 899.56 162.97 899.46 163.07C899.2 163.49 899.15 163.91 899.15 164.49C899.15 165.59 899.36 171.1 899.36 172.36C899.36 173.99 898.26 174.77 896.74 174.77C895.9 174.77 895.9 174.35 895.9 173.72C895.9 172.46 895.11 172.46 894.22 172.46H889.39C887.82 172.46 887.82 173.09 887.82 175.19C887.82 176.24 887.82 177.65 885.36 177.65C883.94 177.65 883.89 176.71 883.89 176.08C883.89 174.72 884.1 168 884.1 166.48C884.1 164.33 884.1 163.39 883.94 162.18C883.89 161.92 883.68 160.5 883.68 160.19C883.68 159.98 883.79 159.67 884.1 159.67C884.41 159.67 886.56 160.77 886.93 160.93C887.77 161.35 888.14 161.3 888.76 161.3H893.85V161.3ZM893.22 146.45C893.53 146.45 893.85 146.45 894.11 146.24C894.48 145.98 895.68 144.25 896.1 144.25C896.68 144.25 899.3 146.77 899.3 147.24C899.3 147.82 898.46 147.82 897.1 147.82H890.54C889.6 147.82 887.66 147.82 886.24 147.92C886.08 147.97 885.35 148.08 885.19 148.08C885.03 148.08 884.98 147.92 884.87 147.77L884.14 146.56C883.98 146.3 883.98 146.3 883.98 146.19C883.98 146.14 884.03 146.09 884.14 146.09C884.35 146.09 885.24 146.25 885.45 146.25C886.76 146.35 889.38 146.46 890.69 146.46H893.22V146.45ZM893.37 153.59C893.89 153.59 894.21 153.59 894.79 152.8C895.37 151.96 895.68 151.7 896.1 151.7C896.99 151.7 899.4 153.69 899.4 154.32C899.4 154.95 898.56 154.95 897.3 154.95H890.74C887.28 154.95 886.28 155.11 886.12 155.11C886.02 155.11 885.44 155.21 885.33 155.21C885.22 155.21 885.17 155.16 885.02 154.9L884.34 153.69C884.18 153.43 884.18 153.43 884.18 153.32C884.18 153.27 884.23 153.21 884.29 153.21C884.34 153.21 885.39 153.37 885.6 153.37C887.07 153.48 889.43 153.58 890.9 153.58H893.37V153.59ZM892.64 133.66C893.22 133.66 893.48 133.66 894.06 132.87C894.95 131.61 895.11 131.45 895.53 131.45C896.26 131.45 898.94 133.55 898.94 134.33C898.94 135.01 898.21 135.01 897.1 135.01H891.17C889.86 135.01 888.13 135.01 886.87 135.12C886.71 135.12 885.98 135.28 885.82 135.28C885.66 135.28 885.56 135.12 885.45 134.97L884.77 133.76C884.61 133.5 884.61 133.5 884.61 133.39C884.61 133.34 884.66 133.28 884.77 133.28C884.77 133.28 885.87 133.44 886.08 133.44C887.39 133.6 890.01 133.65 891.32 133.65H892.64V133.66ZM889.13 162.71C887.92 162.71 887.61 162.92 887.61 164.86C887.61 171.05 887.87 171.05 889.34 171.05H894.17C894.75 171.05 895.8 171.05 895.8 169.69C895.8 169.11 895.8 163.76 895.69 163.45C895.38 162.72 894.64 162.72 894.22 162.72H889.13V162.71ZM917.55 134.02C919.7 134.02 919.91 134.02 920.22 133.76C921.37 132.76 921.69 132.45 922.27 132.45C922.79 132.45 926.1 133.97 926.1 135.18C926.1 135.44 925.05 136.28 924.89 136.54C924.52 137.01 924.52 137.48 924.52 141.78C924.52 142.99 924.73 148.76 924.73 150.07C924.73 150.96 924.73 153.27 922.48 153.27C921.12 153.27 920.96 152.75 920.7 151.49C920.49 150.49 919.76 150.44 919.18 150.44H910.37C908.9 150.44 908.8 151.17 908.8 152.17C908.75 157.62 908.7 163.03 908.7 168.48C908.7 170.42 908.91 171.15 909.54 171.63C910.43 172.26 914.42 172.47 915.94 172.47C916.36 172.47 921.66 172.47 922.91 171.42C923.64 170.84 924.48 167.7 924.9 166.18C925.21 165.08 925.27 164.87 925.53 164.87C925.74 164.87 925.9 165.71 926 166.13C926.26 167.44 926.68 169.49 927.31 170.12C928.25 171.06 928.41 171.22 928.41 171.75C928.41 172.64 927.26 173.69 926.57 174.16C925.42 175 923.32 176.05 917.24 176.05C907.33 176.05 905.7 174.53 905.39 172.06C905.29 171.17 905.29 155.91 905.29 153.49C905.29 152.7 905.34 152.28 905.19 150.19C905.19 149.82 904.93 148.09 904.93 147.67C904.93 147.51 904.93 146.94 905.51 146.94C906.19 146.94 908.13 147.99 909.55 148.78C910.02 149.04 910.39 149.09 911.18 149.09H919.26C920.26 149.09 920.52 148.88 920.73 148.36C920.99 147.73 920.99 142.49 920.99 141.17C920.99 135.61 920.83 135.45 919.36 135.45H911.97C910.71 135.45 907.2 135.45 905.36 135.61C905.2 135.61 904.42 135.72 904.26 135.72C904.1 135.72 904 135.61 903.79 135.35L902.79 134.14C902.58 133.88 902.58 133.88 902.58 133.83C902.58 133.73 902.69 133.73 902.74 133.73C903.06 133.73 904.68 133.89 905.05 133.89C906.57 133.94 909.3 134.05 912.24 134.05H917.55V134.02Z" fill="black"/>
<path d="M966.9 135.6C960.34 143.83 946.19 150.81 944.45 150.81C944.24 150.81 944.19 150.71 944.19 150.6C944.19 150.5 946.18 149.13 946.55 148.82C956.25 141.42 964.33 134.08 964.75 131.2C964.8 130.73 964.96 130.52 965.17 130.52C965.33 130.52 967.84 131.83 968.32 132.04C969.84 132.83 970 132.88 970 133.35C970 133.61 969.89 133.82 969.53 134.03C969.11 134.24 969.01 134.4 969.01 134.55C969.01 135.39 977.72 143.41 987.73 146.87C988.36 147.08 991.82 147.92 991.82 148.02C991.82 148.07 990.25 148.6 989.99 148.7C988.47 149.33 988.1 149.7 987.32 150.48C987.21 150.58 986.95 150.79 986.64 150.79C986.17 150.79 979.82 148.33 974.84 143.34C971.85 140.35 969.44 137.15 968.76 135.94C968.6 135.63 968.29 135.05 967.87 134.94C967.48 134.92 967.11 135.34 966.9 135.6ZM949.91 162.45C951.01 164.02 951.22 166.44 951.22 168.27C951.22 173.72 948.81 175.35 947.08 175.35C945.98 175.35 945.19 174.51 945.19 173.67C945.19 172.88 945.45 172.57 946.55 171.15C948.44 168.84 949.49 165.17 949.49 163.18C949.49 163.02 949.33 162.18 949.44 162.08C949.54 162.08 949.7 162.13 949.91 162.45ZM971.99 151.23C973.88 151.23 974.3 151.23 974.82 150.5C975.34 149.77 975.45 149.61 975.82 149.61C976.24 149.61 980.02 151.71 980.02 152.65C980.02 153.02 979.86 153.12 978.39 153.65C977.13 154.12 976.03 156.27 975.19 157.95C974.25 159.89 973.46 161.41 971.83 161.41C971.1 161.41 969.58 160.99 969.58 159.94C969.58 158.89 973.41 154.38 973.41 153.18C973.41 152.6 972.94 152.6 972.52 152.6H963.45C961.98 152.6 958.36 152.65 956.84 152.76C956.68 152.76 955.9 152.86 955.74 152.86C955.53 152.86 955.42 152.76 955.27 152.55L954.22 151.34C954.01 151.08 954.01 151.08 954.01 150.97C954.01 150.87 954.12 150.87 954.22 150.87C954.53 150.87 956.16 151.03 956.53 151.03C958 151.08 961.36 151.24 963.71 151.24H971.99V151.23ZM961.08 163.45C961.08 163.87 960.98 163.97 959.82 164.87C959.3 165.29 959.14 165.66 959.14 166.71C959.14 167.29 959.14 170.91 959.19 171.17C959.45 173.11 961.44 173.11 963.91 173.11C974.08 173.11 974.92 171.59 975.97 169.75C976.6 168.65 977.02 167.55 977.18 167.02C977.18 166.92 977.29 166.6 977.55 166.6C977.81 166.6 977.81 167.02 977.81 167.23C977.81 167.39 977.81 171.06 978.96 172.06C979.64 172.64 979.69 172.69 979.69 173.06C979.69 176.57 969.1 176.57 967.26 176.57C957.66 176.57 955.67 176.1 955.67 169.75V162.93C955.67 162.77 955.51 161.99 955.51 161.83C955.51 161.25 955.88 161.04 956.45 161.15C957.51 161.35 961.08 162.34 961.08 163.45ZM965.95 146.56C964.8 146.56 962.86 146.56 961.28 146.66C961.18 146.66 960.18 146.82 960.13 146.82C960.02 146.82 959.92 146.66 959.81 146.45L959.02 145.24C958.86 145.03 958.86 144.98 958.86 144.87C958.86 144.82 958.91 144.76 959.02 144.76C959.07 144.76 960.17 144.92 960.44 144.92C961.91 145.08 964.69 145.13 966.1 145.13C968.3 145.13 968.56 145.13 969.04 144.19C969.25 143.77 969.88 142.72 970.46 142.72C971.35 142.72 973.92 145.24 973.92 145.92C973.92 146.55 973.03 146.55 971.82 146.55H965.95V146.56ZM967.69 162.29C971.15 164.07 971.52 165.23 971.52 166.49C971.52 167.8 970.73 168.64 969.63 168.64C968.42 168.64 968 167.8 966.8 165.28C966.17 163.97 964.65 162.24 963.97 161.45C963.81 161.29 963.81 161.14 963.87 161.08C963.86 161.03 965.8 161.35 967.69 162.29ZM988.93 170.68C988.93 172.25 988.2 173.41 986.94 173.41C985.79 173.41 985.58 172.73 984.79 170.32C984.32 168.96 983.43 167.07 980.91 164.13C980.65 163.81 980.33 163.4 980.44 163.29C980.48 163.24 988.93 165.33 988.93 170.68Z" fill="black"/>
<path d="M1022.12 133.87C1022.75 133.87 1023.06 133.87 1023.59 133.29C1023.9 132.92 1024.53 132.03 1025.11 132.03C1025.95 132.03 1028.26 134.44 1028.26 135.33C1028.26 135.64 1028.21 135.75 1027.32 136.64C1026.8 137.16 1026.8 138.42 1026.8 139.21C1026.8 140.31 1026.96 145.77 1026.96 147.02C1026.96 149.59 1025.02 149.64 1024.65 149.64C1023.55 149.64 1023.39 148.91 1023.13 147.44C1022.97 146.6 1022.24 146.6 1021.45 146.6H1014.68C1012.9 146.6 1012.9 147.02 1012.9 148.64C1012.9 155.77 1012.95 167.21 1012.95 174.34C1012.95 175.34 1012.95 177.85 1010.64 177.85C1009.12 177.85 1009.12 176.54 1009.12 176.01C1009.12 175.85 1009.22 174.59 1009.22 173.97C1009.69 160.6 1009.69 159.71 1009.69 147.49C1009.69 141.2 1009.59 139.15 1009.53 137.89C1009.48 137.31 1009.22 133.06 1009.22 132.91C1009.22 132.7 1009.22 132.39 1009.43 132.39C1010.37 132.39 1011.53 133.07 1012 133.33C1012.89 133.85 1013.26 133.85 1013.99 133.85H1022.12V133.87ZM1014.25 140.89C1012.89 140.89 1012.89 141.15 1012.89 142.94C1012.89 145.04 1012.89 145.25 1014.25 145.25H1022.06C1023.42 145.25 1023.42 144.94 1023.42 143.31C1023.42 141.11 1023.42 140.9 1022.06 140.9H1014.25V140.89ZM1022.01 139.53C1023.48 139.53 1023.48 139.42 1023.48 137.12C1023.48 135.5 1023.48 135.29 1022.01 135.29H1014.41C1012.94 135.29 1012.94 135.39 1012.94 137.7C1012.94 139.27 1012.94 139.54 1014.41 139.54H1022.01V139.53ZM1037.17 153.69C1035.81 153.69 1035.23 153.69 1035.23 155.11V159.41C1035.23 159.99 1035.28 160.62 1036.07 160.62H1037.91C1038.38 160.62 1038.91 160.62 1039.48 159.78C1040.69 158.15 1040.79 158 1041.31 158C1042.1 158 1044.77 160.57 1044.77 161.3C1044.77 161.98 1043.67 161.98 1041.99 161.98H1036.9C1035.69 161.98 1035.22 162.14 1035.22 163.45V173.1C1035.22 174.93 1033.7 175.72 1032.76 175.72C1031.66 175.72 1031.66 175.09 1031.66 173.99C1031.66 172.47 1032.08 165.07 1032.08 163.4C1032.08 162.04 1031.4 161.98 1030.4 161.98H1028.56C1027.3 161.98 1026.88 162.03 1026.78 163.24C1026.46 165.91 1025.94 168.96 1022.79 172.68C1020.64 175.2 1018.7 176.19 1018.44 176.19C1018.28 176.19 1018.07 176.03 1018.07 175.88C1018.07 175.78 1018.17 175.67 1018.86 174.94C1021.59 171.95 1023.79 166.65 1023.79 162.98C1023.79 162.25 1023.42 161.98 1022.74 161.98C1022.01 161.98 1019.65 161.98 1018.07 162.14C1017.91 162.14 1017.13 162.24 1016.97 162.24C1016.76 162.24 1016.66 162.14 1016.5 161.93L1015.45 160.72C1015.24 160.46 1015.24 160.46 1015.24 160.35C1015.24 160.24 1015.34 160.25 1015.45 160.25C1016.5 160.25 1021.69 160.62 1022.84 160.62C1023.68 160.62 1023.99 160.31 1023.99 159.47V155.12C1023.99 154.44 1023.89 153.76 1022.63 153.76C1022.16 153.76 1019.64 153.97 1019.27 153.97C1019.11 153.97 1019.01 153.87 1018.8 153.66L1017.8 152.45C1017.59 152.19 1017.59 152.19 1017.59 152.08C1017.59 151.97 1017.69 151.97 1017.75 151.97C1018.12 151.97 1019.69 152.13 1020.06 152.13C1021.58 152.18 1024.31 152.34 1027.3 152.34H1033.91C1036.16 152.34 1036.64 152.29 1037.27 151.5C1038.32 150.08 1038.48 149.93 1038.95 149.93C1039.63 149.93 1042.25 152.18 1042.25 153.02C1042.25 153.7 1041.15 153.7 1039.47 153.7H1037.17V153.69ZM1030.4 160.61C1031.45 160.61 1031.97 160.61 1032.08 159.88V155.21C1032.08 153.74 1031.92 153.69 1030.4 153.69H1028.67C1027.36 153.69 1026.99 153.69 1026.99 154.95V159.36C1026.99 160.62 1027.41 160.62 1028.67 160.62H1030.4V160.61ZM1045.77 133.87C1046.45 133.87 1046.87 133.87 1047.55 133.03C1048.18 132.3 1048.49 131.88 1048.81 131.88C1049.6 131.88 1052.32 133.77 1052.32 135.24C1052.32 135.61 1052.11 135.76 1052.06 135.82C1051.17 136.5 1051.01 136.66 1050.85 137.08C1050.69 137.6 1050.64 142.43 1050.64 144.58C1050.59 148.3 1050.69 166.61 1050.69 170.75C1050.69 174.37 1050.27 176.1 1048.7 176.99C1047.76 177.51 1046.45 177.93 1045.92 177.93C1045.5 177.93 1045.4 177.82 1044.66 176.51C1044.4 175.99 1041.99 174.04 1041.99 173.99C1041.99 173.83 1042.31 173.83 1042.41 173.83C1042.99 173.88 1043.93 173.88 1044.51 173.88C1046.76 173.88 1047.08 173.57 1047.08 170.16C1047.08 167.07 1047.18 151.75 1047.18 148.29C1047.18 146.93 1046.6 146.87 1045.45 146.87H1038.06C1036.49 146.87 1036.43 147.18 1036.33 148.23C1036.17 149.65 1034.28 149.91 1033.97 149.91C1033.34 149.91 1032.66 149.7 1032.66 148.23V138.84C1032.66 138 1032.4 134.17 1032.4 133.28C1032.4 133.07 1032.5 132.44 1032.98 132.44C1033.56 132.44 1033.98 132.65 1035.71 133.49C1036.44 133.86 1036.71 133.86 1037.34 133.86H1045.77V133.87ZM1037.64 135.28C1036.12 135.28 1036.12 135.38 1036.12 137.43C1036.12 139.32 1036.12 139.42 1037.64 139.42H1045.72C1046.51 139.42 1047.24 139.42 1047.24 138.48C1047.24 137.59 1047.24 135.96 1047.13 135.75C1046.97 135.28 1046.5 135.28 1045.71 135.28H1037.64V135.28ZM1037.69 140.84C1036.64 140.84 1036.27 140.84 1036.17 141.52C1036.12 141.73 1036.12 144.04 1036.12 144.35C1036.12 145.5 1036.54 145.5 1037.69 145.5H1045.66C1047.18 145.5 1047.18 145.45 1047.18 143.51C1047.18 141.1 1047.18 140.83 1045.66 140.83H1037.69V140.84Z" fill="black"/>
<path d="M1078.44 153.95C1077.55 153.95 1077.08 154.32 1077.02 155.31C1076.71 161.08 1075.97 165.27 1074.92 168.95C1073.61 173.36 1070.57 177.66 1069.62 177.66C1069.52 177.66 1069.36 177.61 1069.36 177.45C1069.36 177.24 1069.46 177.03 1069.57 176.82C1071.35 173.67 1072.09 170 1072.45 168.01C1073.29 163.03 1073.6 157.94 1073.6 152.91C1073.6 148.77 1073.28 144.36 1073.18 143.37C1073.13 142.95 1072.81 140.96 1072.81 140.48C1072.81 140.38 1072.81 140.17 1072.97 140.17C1073.28 140.17 1076.43 141.74 1077.11 142.01C1077.63 142.17 1078.53 142.32 1079.1 142.32H1090.74C1091.05 142.32 1091.74 142.32 1091.74 141.48C1091.74 141.37 1090.59 133.46 1090.53 133.14C1090.48 133.09 1090.06 131.46 1090.06 131.41C1090.06 131.1 1090.22 130.99 1090.59 130.99C1090.64 130.99 1095.62 131.46 1095.62 132.46C1095.62 132.67 1094.99 133.4 1094.78 133.61C1094.47 134.03 1094.41 134.34 1094.41 135.08C1094.41 136.02 1095.04 141.37 1095.14 141.64C1095.19 141.74 1095.45 142.32 1096.5 142.32H1105.57C1107.77 142.32 1108.03 142.32 1108.51 141.9C1108.93 141.53 1110.35 138.91 1110.92 138.91C1111.44 138.91 1115.96 142.32 1115.96 142.95C1115.96 143.68 1114.86 143.68 1113.13 143.68H1096.51C1095.93 143.68 1095.51 143.84 1095.51 144.47C1095.51 147.2 1099.08 160.73 1100.18 160.73C1100.7 160.73 1104.32 152.86 1105.01 149.51C1105.17 148.72 1105.32 147.94 1105.59 147.94C1105.8 147.94 1106.01 148.05 1108.05 149.2C1109.78 150.14 1109.99 150.3 1109.99 150.83C1109.99 151.04 1109.88 151.25 1109.73 151.46C1109.57 151.62 1108.73 152.19 1108.58 152.35C1108.06 152.82 1104.86 159.22 1104.17 160.53C1103.85 161.11 1102.28 163.73 1102.28 164.1C1102.28 164.83 1109.05 172.07 1111.04 172.07C1111.88 172.07 1112.72 170.65 1113.87 168.71C1114.13 168.29 1115.39 166.14 1115.55 166.14C1115.71 166.14 1115.71 166.46 1115.71 166.56C1115.71 166.77 1114.87 171.28 1114.87 172.17C1114.87 172.48 1114.87 172.9 1115.18 173.74C1115.81 175.26 1115.91 175.42 1115.91 175.79C1115.91 177.31 1114.6 177.52 1114.13 177.52C1110.83 177.52 1105.63 173.48 1101.28 168.45C1100.28 167.35 1100.18 167.19 1099.92 167.19C1099.66 167.19 1097.61 169.39 1097.14 169.81C1092.16 174.37 1086.55 176.68 1085.86 176.68C1085.81 176.68 1085.6 176.68 1085.6 176.52C1085.6 176.36 1090.42 172.59 1091.32 171.8C1094.83 168.65 1097.93 164.88 1097.93 164.25C1097.93 164.04 1097.88 163.88 1097.72 163.62C1095.2 158.48 1093.73 152.92 1092.74 147.31C1092.22 144.22 1092.11 143.69 1090.7 143.69H1078.74C1078.27 143.69 1077.32 143.69 1077.22 144.84C1077.17 145.84 1077.12 150.03 1077.12 151.08C1077.12 151.71 1077.12 152.6 1078.64 152.6H1082.36C1082.83 152.6 1083.36 152.55 1083.72 152.29C1083.93 152.13 1084.93 150.87 1085.29 150.87C1085.61 150.87 1088.59 153.28 1088.59 153.7C1088.59 153.96 1087.49 154.85 1087.38 155.12C1087.27 155.33 1087.06 162.3 1087.06 162.93C1086.9 168.7 1086.06 174.31 1081.5 174.31C1081.13 174.31 1080.92 174.15 1080.71 173.79C1080.29 172.95 1080.08 172.53 1079.5 172.06C1079.03 171.69 1076.2 170.22 1076.2 170.01C1076.2 169.85 1076.41 169.8 1076.62 169.8C1077.25 169.8 1080.29 170.17 1080.97 170.17C1082.12 170.17 1083.07 169.7 1083.49 166.45C1083.65 164.93 1083.91 163.15 1083.91 155.65C1083.91 154.81 1083.81 153.97 1082.34 153.97H1078.44V153.95ZM1107.44 137.43C1107.44 138.53 1106.97 139.58 1105.55 139.58C1104.82 139.58 1104.61 138.95 1104.24 137.9C1103.82 136.75 1102.3 134.44 1101.41 133.34C1101.2 133.03 1101.15 132.87 1101.25 132.76C1101.46 132.5 1107.44 133.71 1107.44 137.43Z" fill="black"/>
<path d="M1150.81 136.8C1151.91 136.8 1152.23 136.7 1152.91 135.91C1153.7 135.02 1153.75 134.91 1154.01 134.91C1154.59 134.91 1157.84 137.95 1157.84 139.11C1157.84 139.84 1157.26 139.95 1156.37 140.21C1155.79 140.31 1155.53 140.52 1155.06 141.15C1149.5 148.81 1147.4 151.69 1142.11 155.84C1139.44 157.88 1136.5 159.56 1133.25 160.45C1133.09 160.5 1131.52 160.97 1131.42 160.97C1131.26 160.97 1131.16 160.81 1131.16 160.66C1131.16 160.51 1132.52 159.77 1132.89 159.56C1138.03 156.73 1141.96 152.32 1141.96 152.11C1141.96 151.85 1140.96 151.22 1140.81 151.06C1140.23 150.38 1138.82 146.44 1138.35 145.71C1138.19 145.5 1137.93 145.19 1137.62 145.19C1137.25 145.19 1133.27 149.02 1132.22 149.02C1132.17 149.02 1132.12 148.97 1132.12 148.92C1132.12 148.87 1133.9 146.82 1134.27 146.46C1136.37 143.94 1142.03 136.39 1142.92 132.72C1143.34 131.04 1143.39 130.83 1143.6 130.83C1143.86 130.83 1145.96 131.83 1146.22 131.98C1148.16 133.03 1148.37 133.13 1148.37 133.6C1148.37 134.12 1148.16 134.12 1147.32 134.18C1146.85 134.23 1145.54 135.91 1145.54 136.33C1145.54 136.8 1146.01 136.8 1146.54 136.8H1150.81V136.8ZM1135.76 174.98C1140.95 171.57 1144.41 166.59 1144.57 165.65C1144.73 164.71 1144.78 164.44 1145.3 164.44C1145.51 164.44 1148.87 166.85 1149.13 167.06C1149.39 167.27 1149.55 167.53 1149.55 167.95C1149.55 168.47 1149.5 168.47 1148.29 168.89C1148.03 169.05 1144.78 171.56 1144.09 172.04C1139.37 175.19 1134.23 176.6 1133.86 176.6C1133.7 176.6 1133.65 176.39 1133.7 176.29C1134.03 176.03 1135.44 175.19 1135.76 174.98ZM1138.22 144.67C1138.22 144.93 1138.64 145.14 1139.06 145.35C1141.21 146.45 1142.15 146.98 1142.99 148.02C1143.15 148.23 1143.88 149.7 1144.2 149.7C1144.83 149.7 1147.08 146.4 1147.08 146.29C1147.08 146.13 1146.92 146.08 1146.82 146.08C1145.93 145.87 1145.51 145.56 1145.09 144.4C1144.46 142.62 1143.57 140.36 1142.15 140.36C1141.68 140.37 1138.22 144.46 1138.22 144.67ZM1148.61 161.56C1144 161.56 1142.47 161.67 1142 161.72C1141.79 161.72 1141 161.83 1140.85 161.83C1140.7 161.83 1140.59 161.72 1140.43 161.51L1139.38 160.3C1139.17 160.04 1139.17 160.04 1139.17 159.93C1139.17 159.83 1139.22 159.83 1139.33 159.83C1139.7 159.83 1141.32 159.99 1141.69 159.99C1144.26 160.09 1146.41 160.2 1148.87 160.2H1162.03C1164.34 160.2 1164.6 160.2 1165.07 159.73C1165.54 159.31 1167.27 156.9 1167.85 156.9C1168.32 156.9 1172.26 160.15 1172.26 160.83C1172.26 161.56 1171.26 161.56 1169.48 161.56H1159.52C1158.42 161.56 1157.89 161.87 1157.89 162.92C1157.89 164.23 1158.15 169.95 1158.15 171.15C1158.15 174.24 1158.15 175.66 1157.15 176.71C1156.26 177.6 1154.9 178.18 1153.48 178.18C1152.64 178.18 1152.59 178.02 1151.91 176.55C1151.44 175.55 1149.92 174.61 1148.34 174.24C1148.29 174.24 1147.66 174.08 1147.66 173.98C1147.66 173.82 1147.92 173.82 1148.03 173.82H1150.86C1154.22 173.82 1154.74 173.61 1154.74 170.57C1154.74 169.42 1154.69 163.96 1154.69 163.02C1154.64 161.55 1153.9 161.55 1152.96 161.55H1148.61V161.56ZM1145.25 138.17C1143.68 138.17 1143.05 138.9 1143.05 139.22C1143.05 139.48 1143.15 139.53 1144.1 139.8C1146.62 140.53 1147.88 141.95 1148.09 142.63C1148.3 143.31 1148.35 143.63 1148.67 143.63C1149.4 143.63 1151.71 139.85 1151.71 138.86C1151.71 138.18 1150.82 138.18 1150.5 138.18H1145.25V138.17ZM1156.53 152.43C1157.79 152.43 1158.31 152.43 1158.94 151.85C1159.31 151.54 1160.67 149.33 1161.14 149.33C1161.87 149.33 1165.39 152 1165.39 153.05C1165.39 153.84 1164.45 153.84 1162.61 153.84H1155.9C1152.75 153.84 1150.76 153.89 1150.03 153.94C1149.87 153.99 1149.09 154.1 1148.93 154.1C1148.72 154.1 1148.61 153.94 1148.46 153.73L1147.46 152.52C1147.25 152.31 1147.2 152.26 1147.2 152.21C1147.2 152.11 1147.31 152.05 1147.41 152.05C1147.67 152.05 1148.77 152.21 1148.98 152.21C1150.24 152.31 1154.12 152.42 1155.38 152.42H1156.53V152.43ZM1170.63 136.54C1171.47 136.54 1171.78 136.43 1172.46 135.54C1172.78 135.07 1173.56 133.92 1173.98 133.92C1174.24 133.92 1174.98 134.55 1175.5 134.92C1178.49 137.02 1179.33 137.7 1179.33 138.38C1179.33 138.9 1178.96 139.27 1178.44 139.32C1177.5 139.42 1177.02 139.48 1176.39 139.69C1175.6 139.95 1169.78 145.46 1168.47 146.51C1168 146.93 1167.47 147.35 1167.47 147.61C1167.47 148.66 1174.29 154.32 1179.01 156.05C1179.32 156.16 1181.16 156.63 1181.16 156.73C1181.16 156.94 1180.9 157.05 1180.64 157.1C1179.12 157.52 1178.07 157.83 1176.55 158.83C1176.29 158.99 1175.29 159.88 1175.03 159.88C1174.51 159.88 1166.32 153.06 1161.81 144.99C1159.29 140.53 1156.62 133.14 1156.62 131.56C1156.62 131.3 1156.78 131.25 1156.88 131.25C1157.3 131.25 1157.77 132.25 1157.88 132.56C1158.56 134.24 1159.82 136.76 1160.97 138.96C1161.65 140.17 1165.22 146.41 1166.58 146.41C1166.95 146.41 1167.05 146.25 1168.05 144.99C1169.83 142.74 1172.09 139.9 1172.09 138.7C1172.09 137.97 1171.46 137.91 1170.67 137.91H1168.15C1167.42 137.91 1163.74 138.22 1163.32 138.22C1163.11 138.22 1163.01 138.06 1162.85 137.85L1161.8 136.64C1161.59 136.38 1161.59 136.38 1161.59 136.27C1161.59 136.17 1161.69 136.17 1161.8 136.17C1162.06 136.17 1163.37 136.33 1163.69 136.33C1166.36 136.54 1167.41 136.54 1168.31 136.54H1170.63V136.54ZM1161.56 164.97C1161.82 164.97 1165.65 166.12 1166.44 166.39C1170.85 167.7 1175.78 170.48 1175.78 174.26C1175.78 175.99 1174.84 176.62 1173.84 176.62C1172.58 176.62 1172.37 176.25 1171.17 174.42C1169.81 172.38 1168.08 169.86 1163.3 166.55C1162.99 166.34 1161.41 165.34 1161.36 165.24C1161.35 165.12 1161.35 164.97 1161.56 164.97Z" fill="black"/>
<path d="M754.7 284.58C750.96 284.58 749.77 284.67 749.34 284.71C749.17 284.71 748.57 284.79 748.45 284.79C748.28 284.79 748.19 284.71 748.07 284.54L747.26 283.56C747.09 283.35 747.05 283.35 747.05 283.26C747.05 283.22 747.13 283.18 747.22 283.18C747.52 283.18 748.79 283.31 749.09 283.31C751.17 283.39 752.92 283.48 754.92 283.48H758.45C759.22 283.48 759.77 283.27 759.77 282.2C759.77 281.73 759.73 281.22 759.56 280.54C759.56 280.46 759.39 279.9 759.39 279.82C759.39 279.52 759.73 279.52 759.9 279.52C760.11 279.52 762.32 280.07 763.05 280.24C763.39 280.32 763.94 280.45 763.94 280.92C763.94 281.22 763.73 281.39 763.17 281.73C762.92 281.9 762.83 282.15 762.83 282.41C762.83 283.47 763.51 283.47 764.32 283.47H769.38C769.85 283.47 770.7 283.47 770.7 282.36C770.7 282.02 770.57 280.74 770.4 280.32C770.36 280.24 770.1 279.81 770.1 279.72C770.1 279.51 770.57 279.38 770.82 279.38C771.2 279.38 774.22 279.93 774.39 279.97C774.6 280.01 774.9 280.18 774.9 280.44C774.9 280.7 774.82 280.74 774.09 281.21C773.75 281.47 773.71 281.89 773.71 282.19C773.71 283.47 774.3 283.47 775.2 283.47H777.41C779.32 283.47 779.49 283.47 780.13 282.75C781.32 281.35 781.45 281.18 781.83 281.18C782.08 281.18 785.83 283.48 785.83 283.99C785.83 284.58 784.98 284.58 783.53 284.58H775.15C774.51 284.58 773.79 284.58 773.79 285.81C773.79 286.11 773.83 287.26 773.79 287.47C773.62 288.02 773.19 288.41 771.28 288.41C770.73 288.41 770.56 288.33 770.56 287.56C770.56 287.22 770.64 285.73 770.6 285.43C770.47 284.67 769.83 284.58 769.37 284.58H764.27C763.33 284.58 762.82 284.75 762.82 285.98C762.82 287.38 762.82 287.85 762.14 288.19C761.5 288.53 760.78 288.61 760.4 288.61C759.72 288.61 759.72 288.19 759.72 287.76C759.72 284.91 759.72 284.57 758.49 284.57H754.7V284.58ZM778.9 298.78C779.54 298.78 779.79 298.74 780.09 298.48C780.26 298.31 780.81 297.16 781.03 297.16C781.58 297.16 785.62 299.5 785.62 300.61C785.62 301.5 784.34 301.5 784.09 301.5C782.56 301.5 782.43 301.5 781.33 301.97C781.08 302.05 779.29 303.59 779.2 303.59C779.16 303.59 779.07 303.55 779.07 303.46C779.07 303.37 779.28 302.95 779.32 302.87C779.74 301.55 779.87 301.17 779.87 300.79C779.87 300.02 779.32 299.9 778.81 299.9H753.38C752.36 299.9 752.27 300.16 752.02 301.52C751.59 303.52 750.45 305.64 748.7 305.64C747.85 305.64 747.13 304.79 747.13 304.15C747.13 303.73 747.26 303.55 748.53 302.19C750.27 300.32 750.4 299.43 750.74 297.9C750.74 297.86 750.87 297.43 751.08 297.43C751.29 297.43 751.85 298.37 751.97 298.49C752.27 298.79 752.61 298.79 752.99 298.79H778.9V298.78ZM763.21 304.99C761.68 304.99 761.25 305.67 761.25 305.88C761.25 306.01 761.38 306.05 762.57 306.52C766.31 307.97 766.4 309.03 766.4 309.92C766.4 310.98 765.8 311.83 765.12 311.83C764.52 311.83 764.35 311.45 763.63 310.13C763.59 310.05 761.33 306.73 760.1 306.73C759.59 306.73 757.29 308.22 756.78 308.52C755.93 308.95 753.12 310.22 752.49 310.22C752.41 310.22 752.32 310.18 752.32 310.14C752.32 310.06 755.42 307.84 755.89 307.5C756.61 306.91 761.55 302.99 762.14 301.04C762.39 300.19 762.39 300.06 762.78 300.06C763.25 300.06 766.69 300.78 766.69 301.55C766.69 301.76 766.35 301.93 765.75 302.14C765.37 302.31 764.13 303.29 764.13 303.63C764.13 303.89 764.47 303.89 764.64 303.89H771.19C772.3 303.89 772.42 303.76 773.06 302.95C773.83 301.93 773.91 301.84 774.21 301.84C774.72 301.84 777.53 304.01 777.53 304.77C777.53 305.11 777.28 305.32 776.59 305.58C775.99 305.79 775.95 305.88 775.36 306.77C775.28 306.85 767.96 317.49 753.25 317.49C752.87 317.49 750.7 317.45 750.7 317.11C750.7 317.03 751.51 316.86 751.64 316.86C766.31 314.65 772.1 306.65 772.1 305.68C772.1 305 771.42 305 770.99 305H763.21V304.99ZM775.29 289.3C776.1 289.3 776.35 289.3 777.25 288.58C777.46 288.41 778.23 287.77 778.36 287.77C778.57 287.77 780.95 289.26 781.12 289.39C781.33 289.56 781.59 289.82 781.59 290.11C781.59 290.45 781.46 290.49 780.61 290.96C780.27 291.17 780.27 291.3 780.27 292.45C780.27 293.09 780.35 295.85 780.27 296.4C780.06 297.72 779.21 297.72 778.82 297.72C777.63 297.72 777.54 297.47 777.03 296.49C776.82 296.06 776.35 295.98 775.92 295.98H757.25C756.82 295.98 756.27 296.02 756.06 296.75C755.89 297.43 755.76 297.81 754.4 297.81C752.91 297.81 752.83 297.13 752.83 296.41C752.83 295.9 752.96 293.73 752.96 293.31C752.96 292.67 752.92 289.91 752.92 289.35C752.92 289.14 752.75 288.33 752.75 288.16C752.75 288.03 752.79 287.82 753.05 287.82C753.73 287.82 754.58 288.33 755.56 288.88C756.24 289.26 756.71 289.3 757.56 289.3H775.29V289.3ZM757.3 290.44C755.98 290.44 755.94 291.25 755.94 291.93C755.94 294.4 755.94 294.86 757.3 294.86H759.72C761.08 294.86 761.08 294.39 761.08 291.88C761.08 290.77 760.66 290.43 759.72 290.43H757.3V290.44ZM768.06 294.87C769.29 294.87 769.29 294.36 769.29 292.57C769.29 291.04 769.29 290.44 768.1 290.44H765C763.77 290.44 763.77 291.04 763.77 292.57C763.77 294.31 763.77 294.87 765 294.87H768.06ZM775.8 294.87C777.16 294.87 777.16 294.4 777.16 292.4C777.16 291.08 777.16 290.44 775.8 290.44H773.33C771.97 290.44 771.97 291.12 771.97 292.31C771.97 294.35 771.97 294.86 773.33 294.86H775.8V294.87Z" fill="black"/>
<path d="M806.19 317.49C805.3 317.49 805.13 317.19 803.72 314.64C802.87 313.15 801.76 311.66 799.26 310.09C799.13 310 798.66 309.71 798.66 309.58C798.66 309.45 798.79 309.28 799.13 309.28C800.62 309.28 807.85 311.49 807.85 315.45C807.85 316.47 807 317.49 806.19 317.49Z" fill="black"/>
<path d="M856.66 286.74C853.81 286.74 852.37 286.74 851.3 286.82C851.17 286.82 850.53 286.95 850.41 286.95C850.24 286.95 850.15 286.82 850.03 286.65L849.22 285.67C849.05 285.5 849.05 285.46 849.05 285.41C849.05 285.33 849.09 285.28 849.18 285.28C849.48 285.28 850.8 285.45 851.05 285.45C853.13 285.58 854.88 285.58 856.88 285.58H858.16C858.88 285.58 859.44 285.49 859.44 284.52C859.44 283.67 859.36 282.56 859.18 281.71C859.14 281.41 858.41 280.09 858.41 279.8C858.41 279.42 858.75 279.33 858.96 279.33C858.96 279.33 861.89 279.88 862.06 279.93C862.44 280.01 862.95 280.1 862.95 280.57C862.95 280.82 862.35 281.72 862.27 281.93C862.1 282.48 862.06 283.59 862.06 284.23C862.06 285.21 862.36 285.59 863.42 285.59H865C866.91 285.59 867.08 285.59 867.55 284.74C868.32 283.29 868.66 283.29 868.87 283.29C869.59 283.29 872.66 285.42 872.66 286.14C872.66 286.61 871.55 286.69 871.43 286.69C870.62 286.73 870.07 286.73 869.13 286.73H861.73C861.43 286.73 861.39 286.73 861.39 286.81C861.39 287.02 862.45 288.04 862.45 288.34C862.45 288.59 862.37 288.59 861.51 288.81C861.26 288.85 860.62 289.58 860.53 289.66C859.89 290.38 856.41 293.95 856.41 294.21C856.41 294.46 856.66 294.63 857.22 295.02C858.33 295.83 858.96 296.76 858.96 297.95C858.96 299.23 858.07 299.91 857.47 299.91C856.96 299.91 856.88 299.78 855.64 297.83C854.02 295.24 852.88 294.09 850.41 292.05C850.15 291.84 850.15 291.84 850.15 291.75C850.15 291.62 850.19 291.62 850.28 291.62C851.17 291.62 855.13 293.7 855.38 293.7C856.57 293.7 858.57 287.53 858.57 287.28C858.57 286.77 858.19 286.73 857.8 286.73H856.66V286.74ZM849.22 316.94C849.22 316.68 851.52 315.75 851.94 315.54C859.98 311.2 864.7 305.63 866.7 301.25C867.21 300.14 867.25 300.02 867.59 300.02C867.89 300.02 870.78 302.44 870.78 302.78C870.78 303.04 870.65 303.16 870.14 303.33C869.25 303.63 869.2 303.71 865.76 307.5C865.12 308.22 865.04 308.27 865.04 308.52C865.04 308.69 865.21 308.78 866.49 309.67C869.08 311.46 870.74 312.94 870.74 314.73C870.74 316.39 869.46 317.24 868.61 317.24C867.67 317.24 867.5 316.56 866.99 314.39C866.22 311.29 864.95 309.24 864.31 309.24C864.1 309.24 863.93 309.37 862.61 310.47C856.61 315.66 849.72 317.1 849.38 317.06C849.31 317.07 849.22 317.02 849.22 316.94ZM862.83 300.06C857.09 306.61 849.9 310.22 849.56 310.22C849.48 310.22 849.3 310.01 849.3 309.92C849.3 309.79 849.43 309.62 849.77 309.37C852.45 307.33 861.51 300.31 864.61 292.27C864.69 292.06 864.91 290.99 865.04 290.78C865.12 290.57 865.25 290.57 865.34 290.57C865.55 290.57 868.74 292.87 868.74 293.33C868.74 293.58 868.53 293.71 868.02 293.93C867.51 294.18 867.21 294.48 866.74 294.95C866.11 295.72 863.43 299.38 862.83 300.06ZM877.25 292.83C877.25 296.91 877.33 302.99 877.38 303.42C877.42 304.57 877.55 306.57 877.55 306.86C877.55 307.41 877.55 309.75 875.34 309.75C874.45 309.75 874.36 309.16 874.36 308.64C874.36 308.51 874.53 305.62 874.57 305.24C874.57 304.99 874.74 294.23 874.74 291.59C874.74 289.89 874.7 287.63 874.27 286.19C874.27 286.11 873.97 285.25 873.97 285.17C873.97 285 874.05 284.75 874.31 284.75C874.57 284.75 876.14 285.3 876.56 285.43C878.13 285.9 878.35 286.03 878.35 286.49C878.35 286.79 878.14 287 877.88 287.26C877.58 287.47 877.41 287.64 877.33 288.07C877.25 288.53 877.25 292.06 877.25 292.83ZM885.16 288.32C885.16 291.72 885.16 303.08 885.29 309.58C885.29 310.05 885.37 312.26 885.37 312.73C885.37 317.62 881.33 318.26 880.99 318.26C880.39 318.26 880.27 318.09 879.88 317.54C879.16 316.48 877.2 315.16 876.52 314.78C875.97 314.48 875.93 314.44 875.93 314.31C875.93 314.18 876.06 314.14 876.14 314.14C876.39 314.14 877.54 314.31 877.8 314.35C878.31 314.39 879.42 314.48 880.18 314.48C881.41 314.48 881.88 314.27 882.14 313.33C882.48 312.18 882.65 301.89 882.65 300.02C882.65 297.43 882.44 283.39 882.18 282.07C882.14 281.77 881.76 280.5 881.76 280.24C881.76 279.86 881.89 279.69 882.23 279.69C882.23 279.69 886.86 281.05 886.86 281.9C886.86 282.2 886.78 282.28 886.05 282.88C885.88 283.01 885.54 283.52 885.41 283.94C885.16 284.75 885.16 287.26 885.16 288.32Z" fill="black"/>
<path d="M914.92 283.43C915.26 284.88 915.34 285.26 916.28 285.34C918.28 285.55 919.04 285.64 919.04 286.91C919.04 287.97 918.1 288.65 916.66 289.29C916.24 289.46 914.24 290.06 913.81 290.31C913.17 290.69 913 293.33 913 293.8C913 294.27 913.13 294.44 913.47 294.82C914.45 296.05 914.87 296.56 914.87 298.27C914.87 301.59 912.87 303.37 912.62 303.59C912.15 303.93 912.03 304.06 912.03 304.53C912.03 304.91 912.5 306.66 912.5 307.08C912.5 307.33 912.42 308.1 911.56 308.48C910.79 308.86 910.62 308.95 910.62 309.42C910.62 311.55 913.04 312.52 917.76 312.52C925.58 312.52 926.43 310.44 926.56 302.99C926.64 299.25 926.81 291.76 931.37 291.76C934.01 291.76 936.69 296.78 936.69 299.2C936.69 300.6 935.71 301.2 935.29 301.2C934.95 301.2 933.59 300.26 933.25 300.14C932.82 300.01 930.57 299.5 930.57 299.25C930.57 299 932.06 298.61 932.31 298.44C932.95 298.1 933.12 297.63 933.12 296.95C933.12 295.12 932.01 293.16 930.61 293.16C928.14 293.16 927.63 296.9 927.63 301.49C927.63 302.89 927.8 305.23 927.93 306.47C928.01 307.11 928.65 310.13 928.65 310.85C928.65 315.32 920.06 315.49 917.89 315.49C909.51 315.49 908.96 311.75 908.96 310.64C908.96 310.26 909.3 308.56 909.3 308.17C909.3 307.62 909.22 307.53 908.36 306.55C907.3 305.36 905.94 302.38 905.94 299.7C905.94 299.06 905.94 295.87 909.47 294.34C909.68 294.26 910.79 294 911.04 293.92C911.34 293.84 911.42 291.62 911.42 291.45C911.42 290.9 911.21 290.85 910.95 290.85C910.53 290.85 908.36 291.4 907.85 291.4C906.49 291.4 904.62 289.53 904.62 287.83C904.62 287.7 904.66 287.23 904.96 287.23C905.3 287.23 906.92 287.7 907.3 287.78C907.98 287.95 908.79 288.03 909.81 288.03C911.81 288.03 912.15 288.03 912.15 286.46C912.15 285.78 912.02 284.63 911.47 283.53C911.34 283.28 910.49 282.21 910.49 281.91C910.49 281.36 911.55 281.44 911.89 281.48C912.88 281.68 914.66 282.32 914.92 283.43ZM910.24 296.31C909.18 296.31 907.9 297.5 907.9 299.71C907.9 301.2 908.67 302.81 909.86 302.81C910.37 302.81 910.58 302.26 910.71 301.87C910.88 301.23 911.22 298.3 911.22 297.66C911.22 296.74 910.88 296.31 910.24 296.31ZM914.32 286.66C914.32 286.96 914.4 287.09 914.62 287.09C914.66 287.09 916.07 286.71 916.07 286.24C916.07 285.94 915.69 285.56 915.18 285.56C915.14 285.56 914.93 285.56 914.76 285.64C914.32 285.89 914.32 286.57 914.32 286.66Z" fill="black"/>
</svg>
